<svg xmlns="http://www.w3.org/2000/svg" xmlns:v="http://schemas.microsoft.com/visio/2003/SVGExtensions/" xmlns:xlink="http://www.w3.org/1999/xlink" xml:space="preserve" viewBox="414.2 172.37 1166.92 191.74">
 <v:documentProperties>
  <v:userDefs>
   <v:ud v:nameU="msvNoAutoConnect" v:val="1"/>
   <v:ud v:nameU="msvWarnOnPersonalInfo" v:val="0"/>
  </v:userDefs>
 </v:documentProperties>
 <g id="SFixTitle"/>
 <g id="SContent">
  <g>
   <g transform="matrix(1,0,0,-1,0,612)">
    <g transform="matrix(1,0,0,1,879.7917,367.25674)" v:mID="1">
     <title>Rounded Rectangle.1</title>
     <userDefs>
      <ud nameU="CTypeTopLeftSnip" val="0"/>
      <ud nameU="CTypeTopRightSnip" val="0"/>
      <ud nameU="CTypeBotLeftSnip" val="0"/>
      <ud nameU="CTypeBotRightSnip" val="0"/>
      <ud nameU="CornerLockHoriz" val="1"/>
      <ud nameU="CornerLockVert" val="1"/>
      <ud nameU="CornerLockDiag" val="0"/>
      <ud nameU="TopLeftOffset" val="0.31668"/>
      <ud nameU="TopRightOffset" val="0.31668"/>
      <ud nameU="BotLeftOffset" val="0.31668"/>
      <ud nameU="BotRightOffset" val="0.31668"/>
      <ud nameU="visVersion" val="15"/>
     </userDefs>
     <g transform="matrix(1,0,0,1,0,0)" v:mID="1">
      <title>Rounded Rectangle.1</title>
      <userDefs>
       <ud nameU="CTypeTopLeftSnip" val="0"/>
       <ud nameU="CTypeTopRightSnip" val="0"/>
       <ud nameU="CTypeBotLeftSnip" val="0"/>
       <ud nameU="CTypeBotRightSnip" val="0"/>
       <ud nameU="CornerLockHoriz" val="1"/>
       <ud nameU="CornerLockVert" val="1"/>
       <ud nameU="CornerLockDiag" val="0"/>
       <ud nameU="TopLeftOffset" val="0.31668"/>
       <ud nameU="TopRightOffset" val="0.31668"/>
       <ud nameU="BotLeftOffset" val="0.31668"/>
       <ud nameU="BotRightOffset" val="0.31668"/>
       <ud nameU="visVersion" val="15"/>
      </userDefs>
      <path d="M22.800960541,0 L205.208648682,0 L205.208648682,0 L205.208648682,0 L205.208648682,0 L205.20866394,0 L205.20866394,0 C211.253417969,-0.000094414 217.056854248,2.403653145 221.331222534,6.677885532 L221.331222534,6.677885532 C225.60559082,10.95211792 228.009490967,16.755458832 228.009597778,22.800231934 L228.009597778,22.800231934 C228.009597778,22.800474167 228.009597778,22.8007164 228.009597778,22.800960541 L228.009597778,22.800960541 L228.009597778,22.800960541 L228.009597778,22.800960541 L228.009597778,49.199039459 L228.009597778,49.199039459 L228.009597778,49.199043274 L228.009597778,49.199043274 C228.00970459,55.243816376 225.605957031,61.047233582 221.331726074,65.321601868 L221.331726074,65.321601868 C217.057495117,69.595970154 211.254165649,71.999908447 205.209381104,72 L205.209381104,72 C205.209136963,72 205.208908081,72 205.20866394,72 L205.20866394,72 L205.208648682,72 L205.208648682,72 L205.208648682,72 L205.208648682,72 L22.800960541,72 L22.800960541,72 L22.800960541,72 L22.800960541,72 L22.800962448,72 L22.800962448,72 C16.756189346,72.000106812 10.952772141,69.596359253 6.678402901,65.322128296 L6.678402901,65.322128296 C2.404032707,61.047897339 0.000099778,55.244556427 0,49.19978714 L0,49.19978714 C0.000001073,49.19953537 0,49.199291229 0.000001073,49.199043274 L0.000001073,49.199043274 L0,49.199039459 L0,49.199039459 L0,22.800960541 L0,22.800960541 L0,22.800960541 L0,22.800960541 C-0.000097632,16.756187439 2.403645515,10.952770233 6.677876472,6.678400993 L6.677876472,6.678400993 C10.952106476,2.404031754 16.755447388,0.000098705 22.800218582,0.000001073 L22.800218582,0.000001073 C22.800468445,0.000001073 22.800714493,0 22.800960541,0 L22.800960541,0 L22.800960541,0 L22.800960541,0 L22.800960541,0 Z" stroke="#000000" stroke-width="0.75" stroke-linecap="round" fill="none" stroke-opacity="0"/>
     </g>
     <path d="M22.800960541,0 L205.208648682,0 L205.208648682,0 L205.208648682,0 L205.208648682,0 L205.20866394,0 L205.20866394,0 C211.253417969,-0.000094414 217.056854248,2.403653145 221.331222534,6.677885532 L221.331222534,6.677885532 C225.60559082,10.95211792 228.009490967,16.755458832 228.009597778,22.800231934 L228.009597778,22.800231934 C228.009597778,22.800474167 228.009597778,22.8007164 228.009597778,22.800960541 L228.009597778,22.800960541 L228.009597778,22.800960541 L228.009597778,22.800960541 L228.009597778,49.199039459 L228.009597778,49.199039459 L228.009597778,49.199043274 L228.009597778,49.199043274 C228.00970459,55.243816376 225.605957031,61.047233582 221.331726074,65.321601868 L221.331726074,65.321601868 C217.057495117,69.595970154 211.254165649,71.999908447 205.209381104,72 L205.209381104,72 C205.209136963,72 205.208908081,72 205.20866394,72 L205.20866394,72 L205.208648682,72 L205.208648682,72 L205.208648682,72 L205.208648682,72 L22.800960541,72 L22.800960541,72 L22.800960541,72 L22.800960541,72 L22.800962448,72 L22.800962448,72 C16.756189346,72.000106812 10.952772141,69.596359253 6.678402901,65.322128296 L6.678402901,65.322128296 C2.404032707,61.047897339 0.000099778,55.244556427 0,49.19978714 L0,49.19978714 C0.000001073,49.19953537 0,49.199291229 0.000001073,49.199043274 L0.000001073,49.199043274 L0,49.199039459 L0,49.199039459 L0,22.800960541 L0,22.800960541 L0,22.800960541 L0,22.800960541 C-0.000097632,16.756187439 2.403645515,10.952770233 6.677876472,6.678400993 L6.677876472,6.678400993 C10.952106476,2.404031754 16.755447388,0.000098705 22.800218582,0.000001073 L22.800218582,0.000001073 C22.800468445,0.000001073 22.800714493,0 22.800960541,0 L22.800960541,0 L22.800960541,0 L22.800960541,0 L22.800960541,0 Z" stroke="#000000" stroke-width="0.75" stroke-linecap="round" fill="#FFFFFF" fill-rule="evenodd"/>
     <g transform="matrix(1,0,0,1,0,0)">
      <text x="13.155191" y="0" class="TextStyle0" fill="#000000" opacity="1" transform="matrix(1,0,0,-1,0,39)">Design and Evaluation of a Filipino Folklore-Based</text>
      <text x="70.76017" y="12" class="TextStyle0" fill="#000000" opacity="1" transform="matrix(1,0,0,-1,0,39)">Blockchain MMORPG</text>
     </g>
    </g>
    <g transform="matrix(1,0,0,1,414.57812,248.28394)" v:mID="2">
     <title>Rounded Rectangle.3</title>
     <userDefs>
      <ud nameU="CTypeTopLeftSnip" val="0"/>
      <ud nameU="CTypeTopRightSnip" val="0"/>
      <ud nameU="CTypeBotLeftSnip" val="0"/>
      <ud nameU="CTypeBotRightSnip" val="0"/>
      <ud nameU="CornerLockHoriz" val="1"/>
      <ud nameU="CornerLockVert" val="1"/>
      <ud nameU="CornerLockDiag" val="0"/>
      <ud nameU="TopLeftOffset" val="0.35335"/>
      <ud nameU="TopRightOffset" val="0.35335"/>
      <ud nameU="BotLeftOffset" val="0.35335"/>
      <ud nameU="BotRightOffset" val="0.35335"/>
      <ud nameU="visVersion" val="15"/>
     </userDefs>
     <path d="M25.441200256,0 L228.970794678,0 L228.970794678,0 L228.970794678,0 L228.970794678,0 L228.970794678,0.000001073 L228.970794678,0.000001073 C235.715530396,-0.000107288 242.190948486,2.68198061 246.960266113,7.451146603 L246.960266113,7.451146603 C251.72958374,12.220313072 254.411880493,18.695648193 254.411987305,25.440376282 L254.411987305,25.440376282 C254.411987305,25.440662384 254.411987305,25.440944672 254.411987305,25.441228867 L254.411987305,25.441228867 L254.412002563,25.441200256 L254.412002563,25.441200256 L254.412002563,46.558799744 L254.412002563,46.558799744 L254.411987305,46.5587883 L254.411987305,46.5587883 C254.412094116,53.303512573 251.730026245,59.778938293 246.960861206,64.54826355 L246.960861206,64.54826355 C242.191696167,69.317581177 235.716369629,71.999885559 228.97164917,72 L228.97164917,72 C228.971374512,72 228.971069336,72 228.970794678,72 L228.970794678,72 L228.970794678,72 L228.970794678,72 L228.970794678,72 L228.970794678,72 L25.441200256,72 L25.441200256,72 L25.441200256,72 L25.441200256,72 L25.441198349,72 L25.441198349,72 C18.696472168,72.000114441 12.221047401,69.318023682 7.45172739,64.548858643 L7.45172739,64.548858643 C2.682407379,59.779697418 0.000110507,53.304359436 0.000001073,46.559635162 L0.000001073,46.559635162 C0.000001073,46.559356689 0.000001073,46.559074402 0.000002146,46.558795929 L0.000002146,46.558795929 L0,46.558799744 L0,46.558799744 L0,25.441200256 L0,25.441200256 L0,25.441200256 L0,25.441200256 C-0.000108361,18.696472168 2.681976318,12.221047401 7.451142311,7.451726913 L7.451142311,7.451726913 C12.22030735,2.682407379 18.695644379,0.000110507 25.440374374,0.000001073 L25.440374374,0.000001073 C25.440649033,0 25.440923691,0.000001073 25.441200256,0 L25.441200256,0 L25.441200256,0 L25.441200256,0 L25.441200256,0 Z" stroke="#000000" stroke-width="0.75" stroke-linecap="round" fill="#FFFFFF" fill-rule="evenodd"/>
     <g transform="matrix(1,0,0,1,0,0)">
      <text x="22.303652" y="0" class="TextStyle0" fill="#000000" opacity="1" transform="matrix(1,0,0,-1,0,39)">MMORPG Design: Engagement, Social Systems, and</text>
      <text x="99.901306" y="12" class="TextStyle0" fill="#000000" opacity="1" transform="matrix(1,0,0,-1,0,39)">Monetization</text>
     </g>
    </g>
    <g transform="matrix(1,0,0,1,993.7965,367.25674)" v:mID="3">
     <title>Dynamic connector.5</title>
     <path d="M-457.772369385,-49.852802277 L-452.012390137,-46.972801208 L-457.772369385,-44.09280014 Z" stroke="#000000" stroke-width="0.2376378" fill="#000000" fill-rule="evenodd" transform="matrix(-0,-1,1,0,-405.03958,-498.9852)"/>
     <path d="M0,0 L0,-13.5 L0,-13.5 L-452.012390137,-13.5 L-452.012390137,-13.5 L-452.012390137,-46.972801208 " stroke="#000000" stroke-width="0.2376378" stroke-linecap="round" fill="none"/>
    </g>
    <g transform="matrix(1,0,0,1,718.5082,248.27853)" v:mID="4">
     <title>Rounded Rectangle.27</title>
     <userDefs>
      <ud nameU="CTypeTopLeftSnip" val="0"/>
      <ud nameU="CTypeTopRightSnip" val="0"/>
      <ud nameU="CTypeBotLeftSnip" val="0"/>
      <ud nameU="CTypeBotRightSnip" val="0"/>
      <ud nameU="CornerLockHoriz" val="1"/>
      <ud nameU="CornerLockVert" val="1"/>
      <ud nameU="CornerLockDiag" val="0"/>
      <ud nameU="TopLeftOffset" val="0.35335"/>
      <ud nameU="TopRightOffset" val="0.35335"/>
      <ud nameU="BotLeftOffset" val="0.35335"/>
      <ud nameU="BotRightOffset" val="0.35335"/>
      <ud nameU="visVersion" val="15"/>
     </userDefs>
     <path d="M25.441200256,0 L228.970794678,0 L228.970794678,0 L228.970794678,0 L228.970794678,0 L228.970794678,0.000001073 L228.970794678,0.000001073 C235.715530396,-0.000107288 242.190948486,2.68198061 246.960266113,7.451146603 L246.960266113,7.451146603 C251.72958374,12.220313072 254.411880493,18.695648193 254.411987305,25.440376282 L254.411987305,25.440376282 C254.411987305,25.440662384 254.411987305,25.440944672 254.411987305,25.441228867 L254.411987305,25.441228867 L254.412002563,25.441200256 L254.412002563,25.441200256 L254.412002563,46.558799744 L254.412002563,46.558799744 L254.411987305,46.5587883 L254.411987305,46.5587883 C254.412094116,53.303512573 251.730026245,59.778938293 246.960861206,64.54826355 L246.960861206,64.54826355 C242.191696167,69.317581177 235.716369629,71.999885559 228.97164917,72 L228.97164917,72 C228.971374512,72 228.971069336,72 228.970794678,72 L228.970794678,72 L228.970794678,72 L228.970794678,72 L228.970794678,72 L228.970794678,72 L25.441200256,72 L25.441200256,72 L25.441200256,72 L25.441200256,72 L25.441198349,72 L25.441198349,72 C18.696472168,72.000114441 12.221047401,69.318023682 7.45172739,64.548858643 L7.45172739,64.548858643 C2.682407379,59.779697418 0.000110507,53.304359436 0.000001073,46.559635162 L0.000001073,46.559635162 C0.000001073,46.559356689 0.000001073,46.559074402 0.000002146,46.558795929 L0.000002146,46.558795929 L0,46.558799744 L0,46.558799744 L0,25.441200256 L0,25.441200256 L0,25.441200256 L0,25.441200256 C-0.000108361,18.696472168 2.681976318,12.221047401 7.451142311,7.451726913 L7.451142311,7.451726913 C12.22030735,2.682407379 18.695644379,0.000110507 25.440374374,0.000001073 L25.440374374,0.000001073 C25.440649033,0 25.440923691,0.000001073 25.441200256,0 L25.441200256,0 L25.441200256,0 L25.441200256,0 L25.441200256,0 Z" stroke="#000000" stroke-width="0.75" stroke-linecap="round" fill="#FFFFFF" fill-rule="evenodd"/>
     <g transform="matrix(1,0,0,1,0,0)">
      <text x="22.303652" y="0" class="TextStyle0" fill="#000000" opacity="1" transform="matrix(1,0,0,-1,0,39)">MMORPG Design: Engagement, Social Systems, and</text>
      <text x="99.901306" y="12" class="TextStyle0" fill="#000000" opacity="1" transform="matrix(1,0,0,-1,0,39)">Monetization</text>
     </g>
    </g>
    <g transform="matrix(1,0,0,1,1022.4273,248.27853)" v:mID="5">
     <title>Rounded Rectangle.32</title>
     <userDefs>
      <ud nameU="CTypeTopLeftSnip" val="0"/>
      <ud nameU="CTypeTopRightSnip" val="0"/>
      <ud nameU="CTypeBotLeftSnip" val="0"/>
      <ud nameU="CTypeBotRightSnip" val="0"/>
      <ud nameU="CornerLockHoriz" val="1"/>
      <ud nameU="CornerLockVert" val="1"/>
      <ud nameU="CornerLockDiag" val="0"/>
      <ud nameU="TopLeftOffset" val="0.35335"/>
      <ud nameU="TopRightOffset" val="0.35335"/>
      <ud nameU="BotLeftOffset" val="0.35335"/>
      <ud nameU="BotRightOffset" val="0.35335"/>
      <ud nameU="visVersion" val="15"/>
     </userDefs>
     <path d="M25.441200256,0 L228.970794678,0 L228.970794678,0 L228.970794678,0 L228.970794678,0 L228.970794678,0.000001073 L228.970794678,0.000001073 C235.715530396,-0.000107288 242.190948486,2.68198061 246.960266113,7.451146603 L246.960266113,7.451146603 C251.72958374,12.220313072 254.411880493,18.695648193 254.411987305,25.440376282 L254.411987305,25.440376282 C254.411987305,25.440662384 254.411987305,25.440944672 254.411987305,25.441228867 L254.411987305,25.441228867 L254.412002563,25.441200256 L254.412002563,25.441200256 L254.412002563,46.558799744 L254.412002563,46.558799744 L254.411987305,46.5587883 L254.411987305,46.5587883 C254.412094116,53.303512573 251.730026245,59.778938293 246.960861206,64.54826355 L246.960861206,64.54826355 C242.191696167,69.317581177 235.716369629,71.999885559 228.97164917,72 L228.97164917,72 C228.971374512,72 228.971069336,72 228.970794678,72 L228.970794678,72 L228.970794678,72 L228.970794678,72 L228.970794678,72 L228.970794678,72 L25.441200256,72 L25.441200256,72 L25.441200256,72 L25.441200256,72 L25.441198349,72 L25.441198349,72 C18.696472168,72.000114441 12.221047401,69.318023682 7.45172739,64.548858643 L7.45172739,64.548858643 C2.682407379,59.779697418 0.000110507,53.304359436 0.000001073,46.559635162 L0.000001073,46.559635162 C0.000001073,46.559356689 0.000001073,46.559074402 0.000002146,46.558795929 L0.000002146,46.558795929 L0,46.558799744 L0,46.558799744 L0,25.441200256 L0,25.441200256 L0,25.441200256 L0,25.441200256 C-0.000108361,18.696472168 2.681976318,12.221047401 7.451142311,7.451726913 L7.451142311,7.451726913 C12.22030735,2.682407379 18.695644379,0.000110507 25.440374374,0.000001073 L25.440374374,0.000001073 C25.440649033,0 25.440923691,0.000001073 25.441200256,0 L25.441200256,0 L25.441200256,0 L25.441200256,0 L25.441200256,0 Z" stroke="#000000" stroke-width="0.75" stroke-linecap="round" fill="#FFFFFF" fill-rule="evenodd"/>
     <g transform="matrix(1,0,0,1,0,0)">
      <text x="22.303652" y="0" class="TextStyle0" fill="#000000" opacity="1" transform="matrix(1,0,0,-1,0,39)">MMORPG Design: Engagement, Social Systems, and</text>
      <text x="99.901306" y="12" class="TextStyle0" fill="#000000" opacity="1" transform="matrix(1,0,0,-1,0,39)">Monetization</text>
     </g>
    </g>
    <g transform="matrix(1,0,0,1,1326.3392,248.27133)" v:mID="6">
     <title>Rounded Rectangle.37</title>
     <userDefs>
      <ud nameU="CTypeTopLeftSnip" val="0"/>
      <ud nameU="CTypeTopRightSnip" val="0"/>
      <ud nameU="CTypeBotLeftSnip" val="0"/>
      <ud nameU="CTypeBotRightSnip" val="0"/>
      <ud nameU="CornerLockHoriz" val="1"/>
      <ud nameU="CornerLockVert" val="1"/>
      <ud nameU="CornerLockDiag" val="0"/>
      <ud nameU="TopLeftOffset" val="0.35335"/>
      <ud nameU="TopRightOffset" val="0.35335"/>
      <ud nameU="BotLeftOffset" val="0.35335"/>
      <ud nameU="BotRightOffset" val="0.35335"/>
      <ud nameU="visVersion" val="15"/>
     </userDefs>
     <path d="M25.441200256,0 L228.970794678,0 L228.970794678,0 L228.970794678,0 L228.970794678,0 L228.970794678,0.000001073 L228.970794678,0.000001073 C235.715530396,-0.000107288 242.190948486,2.68198061 246.960266113,7.451146603 L246.960266113,7.451146603 C251.72958374,12.220313072 254.411880493,18.695648193 254.411987305,25.440376282 L254.411987305,25.440376282 C254.411987305,25.440662384 254.411987305,25.440944672 254.411987305,25.441228867 L254.411987305,25.441228867 L254.412002563,25.441200256 L254.412002563,25.441200256 L254.412002563,46.558799744 L254.412002563,46.558799744 L254.411987305,46.5587883 L254.411987305,46.5587883 C254.412094116,53.303512573 251.730026245,59.778938293 246.960861206,64.54826355 L246.960861206,64.54826355 C242.191696167,69.317581177 235.716369629,71.999885559 228.97164917,72 L228.97164917,72 C228.971374512,72 228.971069336,72 228.970794678,72 L228.970794678,72 L228.970794678,72 L228.970794678,72 L228.970794678,72 L228.970794678,72 L25.441200256,72 L25.441200256,72 L25.441200256,72 L25.441200256,72 L25.441198349,72 L25.441198349,72 C18.696472168,72.000114441 12.221047401,69.318023682 7.45172739,64.548858643 L7.45172739,64.548858643 C2.682407379,59.779697418 0.000110507,53.304359436 0.000001073,46.559635162 L0.000001073,46.559635162 C0.000001073,46.559356689 0.000001073,46.559074402 0.000002146,46.558795929 L0.000002146,46.558795929 L0,46.558799744 L0,46.558799744 L0,25.441200256 L0,25.441200256 L0,25.441200256 L0,25.441200256 C-0.000108361,18.696472168 2.681976318,12.221047401 7.451142311,7.451726913 L7.451142311,7.451726913 C12.22030735,2.682407379 18.695644379,0.000110507 25.440374374,0.000001073 L25.440374374,0.000001073 C25.440649033,0 25.440923691,0.000001073 25.441200256,0 L25.441200256,0 L25.441200256,0 L25.441200256,0 L25.441200256,0 Z" stroke="#000000" stroke-width="0.75" stroke-linecap="round" fill="#FFFFFF" fill-rule="evenodd"/>
     <g transform="matrix(1,0,0,1,0,0)">
      <text x="22.303652" y="0" class="TextStyle0" fill="#000000" opacity="1" transform="matrix(1,0,0,-1,0,39)">MMORPG Design: Engagement, Social Systems, and</text>
      <text x="99.901306" y="12" class="TextStyle0" fill="#000000" opacity="1" transform="matrix(1,0,0,-1,0,39)">Monetization</text>
     </g>
    </g>
    <g transform="matrix(1,0,0,1,993.7966,367.25674)" v:mID="7">
     <title>Dynamic connector.42</title>
     <path d="M-153.842391968,-49.858200073 L-148.082397461,-46.978199005 L-153.842391968,-44.098197937 Z" stroke="#000000" stroke-width="0.2376378" fill="#000000" fill-rule="evenodd" transform="matrix(-0,-1,1,0,-101.1042,-195.0606)"/>
     <path d="M0,0 L0,-13.5 L0,-13.5 L-148.082397461,-13.5 L-148.082397461,-13.5 L-148.082397461,-46.978199005 " stroke="#000000" stroke-width="0.2376378" stroke-linecap="round" fill="none"/>
    </g>
    <g transform="matrix(1,0,0,1,993.7966,367.25674)" v:mID="8">
     <title>Dynamic connector.44</title>
     <path d="M150.076812744,-49.858200073 L155.836807251,-46.978199005 L150.076812744,-44.098197937 Z" stroke="#000000" stroke-width="0.2376378" fill="#000000" fill-rule="evenodd" transform="matrix(-0,-1,1,0,202.815,108.85861)"/>
     <path d="M0,0 L0,-13.5 L0,-13.5 L155.836807251,-13.5 L155.836807251,-13.5 L155.836807251,-46.978199005 " stroke="#000000" stroke-width="0.2376378" stroke-linecap="round" fill="none"/>
    </g>
    <g transform="matrix(1,0,0,1,993.7965,367.25674)" v:mID="9">
     <title>Dynamic connector.46</title>
     <path d="M453.988800049,-49.865402222 L459.748779297,-46.985401154 L453.988800049,-44.105400085 Z" stroke="#000000" stroke-width="0.2376378" fill="#000000" fill-rule="evenodd" transform="matrix(-0,-1,1,0,506.7342,412.76337)"/>
     <path d="M0,0 L0,-13.5 L0,-13.5 L459.748779297,-13.5 L459.748779297,-13.5 L459.748779297,-46.985401154 " stroke="#000000" stroke-width="0.2376378" stroke-linecap="round" fill="none"/>
    </g>
   </g>
  </g>
 </g>
 <style type="text/css"><![CDATA[ .TextStyle0 {font-family:Calibri;font-size:10px;} ]]></style>
</svg>