<svg xmlns="http://www.w3.org/2000/svg" xmlns:v="http://schemas.microsoft.com/visio/2003/SVGExtensions/" xmlns:xlink="http://www.w3.org/1999/xlink" xml:space="preserve" viewBox="121.86 31.36 407.16 1179.72">
 <v:documentProperties>
  <v:userDefs>
   <v:ud v:nameU="msvNoAutoConnect" v:val="1"/>
   <v:ud v:nameU="msvWarnOnPersonalInfo" v:val="0"/>
  </v:userDefs>
 </v:documentProperties>
 <g id="SFixTitle"/>
 <g id="SContent">
  <g>
   <g transform="matrix(1,0,0,-1,0,1764)">
    <g transform="matrix(1,0,0,1,122.238,1660.2698)" v:mID="178">
     <title>Rounded Rectangle.37</title>
     <userDefs>
      <ud nameU="CTypeTopLeftSnip" val="0"/>
      <ud nameU="CTypeTopRightSnip" val="0"/>
      <ud nameU="CTypeBotLeftSnip" val="0"/>
      <ud nameU="CTypeBotRightSnip" val="0"/>
      <ud nameU="CornerLockHoriz" val="1"/>
      <ud nameU="CornerLockVert" val="1"/>
      <ud nameU="CornerLockDiag" val="0"/>
      <ud nameU="TopLeftOffset" val="0.35335"/>
      <ud nameU="TopRightOffset" val="0.35335"/>
      <ud nameU="BotLeftOffset" val="0.35335"/>
      <ud nameU="BotRightOffset" val="0.35335"/>
      <ud nameU="visVersion" val="15"/>
     </userDefs>
     <g transform="matrix(1,0,0,1,0,0)" v:mID="178">
      <title>Rounded Rectangle.37</title>
      <userDefs>
       <ud nameU="CTypeTopLeftSnip" val="0"/>
       <ud nameU="CTypeTopRightSnip" val="0"/>
       <ud nameU="CTypeBotLeftSnip" val="0"/>
       <ud nameU="CTypeBotRightSnip" val="0"/>
       <ud nameU="CornerLockHoriz" val="1"/>
       <ud nameU="CornerLockVert" val="1"/>
       <ud nameU="CornerLockDiag" val="0"/>
       <ud nameU="TopLeftOffset" val="0.35335"/>
       <ud nameU="TopRightOffset" val="0.35335"/>
       <ud nameU="BotLeftOffset" val="0.35335"/>
       <ud nameU="BotRightOffset" val="0.35335"/>
       <ud nameU="visVersion" val="15"/>
      </userDefs>
      <path d="M25.441200256,0 L228.970794678,0 L228.970794678,0 L228.970794678,0 L228.970794678,0 L228.970794678,0.000001073 L228.970794678,0.000001073 C235.715530396,-0.000107288 242.190948486,2.68198061 246.960266113,7.451146603 L246.960266113,7.451146603 C251.72958374,12.220313072 254.411880493,18.695648193 254.411987305,25.440376282 L254.411987305,25.440376282 C254.411987305,25.440662384 254.411987305,25.440944672 254.411987305,25.441228867 L254.411987305,25.441228867 L254.412002563,25.441200256 L254.412002563,25.441200256 L254.412002563,46.558799744 L254.412002563,46.558799744 L254.411987305,46.5587883 L254.411987305,46.5587883 C254.412094116,53.303512573 251.730026245,59.778938293 246.960861206,64.54826355 L246.960861206,64.54826355 C242.191696167,69.317581177 235.716369629,71.999885559 228.97164917,72 L228.97164917,72 C228.971374512,72 228.971069336,72 228.970794678,72 L228.970794678,72 L228.970794678,72 L228.970794678,72 L228.970794678,72 L228.970794678,72 L25.441200256,72 L25.441200256,72 L25.441200256,72 L25.441200256,72 L25.441198349,72 L25.441198349,72 C18.696472168,72.000114441 12.221047401,69.318023682 7.45172739,64.548858643 L7.45172739,64.548858643 C2.682407379,59.779697418 0.000110507,53.304359436 0.000001073,46.559635162 L0.000001073,46.559635162 C0.000001073,46.559356689 0.000001073,46.559074402 0.000002146,46.558795929 L0.000002146,46.558795929 L0,46.558799744 L0,46.558799744 L0,25.441200256 L0,25.441200256 L0,25.441200256 L0,25.441200256 C-0.000108361,18.696472168 2.681976318,12.221047401 7.451142311,7.451726913 L7.451142311,7.451726913 C12.22030735,2.682407379 18.695644379,0.000110507 25.440374374,0.000001073 L25.440374374,0.000001073 C25.440649033,0 25.440923691,0.000001073 25.441200256,0 L25.441200256,0 L25.441200256,0 L25.441200256,0 L25.441200256,0 Z" stroke="#000000" stroke-width="0.75" stroke-linecap="round" fill="none" stroke-opacity="0"/>
     </g>
     <path d="M25.441200256,0 L228.970794678,0 L228.970794678,0 L228.970794678,0 L228.970794678,0 L228.970794678,0.000001073 L228.970794678,0.000001073 C235.715530396,-0.000107288 242.190948486,2.68198061 246.960266113,7.451146603 L246.960266113,7.451146603 C251.72958374,12.220313072 254.411880493,18.695648193 254.411987305,25.440376282 L254.411987305,25.440376282 C254.411987305,25.440662384 254.411987305,25.440944672 254.411987305,25.441228867 L254.411987305,25.441228867 L254.412002563,25.441200256 L254.412002563,25.441200256 L254.412002563,46.558799744 L254.412002563,46.558799744 L254.411987305,46.5587883 L254.411987305,46.5587883 C254.412094116,53.303512573 251.730026245,59.778938293 246.960861206,64.54826355 L246.960861206,64.54826355 C242.191696167,69.317581177 235.716369629,71.999885559 228.97164917,72 L228.97164917,72 C228.971374512,72 228.971069336,72 228.970794678,72 L228.970794678,72 L228.970794678,72 L228.970794678,72 L228.970794678,72 L228.970794678,72 L25.441200256,72 L25.441200256,72 L25.441200256,72 L25.441200256,72 L25.441198349,72 L25.441198349,72 C18.696472168,72.000114441 12.221047401,69.318023682 7.45172739,64.548858643 L7.45172739,64.548858643 C2.682407379,59.779697418 0.000110507,53.304359436 0.000001073,46.559635162 L0.000001073,46.559635162 C0.000001073,46.559356689 0.000001073,46.559074402 0.000002146,46.558795929 L0.000002146,46.558795929 L0,46.558799744 L0,46.558799744 L0,25.441200256 L0,25.441200256 L0,25.441200256 L0,25.441200256 C-0.000108361,18.696472168 2.681976318,12.221047401 7.451142311,7.451726913 L7.451142311,7.451726913 C12.22030735,2.682407379 18.695644379,0.000110507 25.440374374,0.000001073 L25.440374374,0.000001073 C25.440649033,0 25.440923691,0.000001073 25.441200256,0 L25.441200256,0 L25.441200256,0 L25.441200256,0 L25.441200256,0 Z" stroke="#000000" stroke-width="0.75" stroke-linecap="round" fill="#FFFFFF" fill-rule="evenodd"/>
     <g transform="matrix(1,0,0,1,0,0)">
      <text x="40.899353" y="0" class="TextStyle0" fill="#000000" opacity="1" transform="matrix(1,0,0,-1,0,39)">Technical System Architecture: Scalability, Services,</text>
      <text x="85.70454" y="12" class="TextStyle0" fill="#000000" opacity="1" transform="matrix(1,0,0,-1,0,39)">and Smart Contracts</text>
     </g>
    </g>
    <g transform="matrix(1,0,0,1,122.23799,1585.5231)" v:mID="179">
     <title>Rounded Rectangle.38</title>
     <userDefs>
      <ud nameU="CTypeTopLeftSnip" val="0"/>
      <ud nameU="CTypeTopRightSnip" val="0"/>
      <ud nameU="CTypeBotLeftSnip" val="0"/>
      <ud nameU="CTypeBotRightSnip" val="0"/>
      <ud nameU="CornerLockHoriz" val="1"/>
      <ud nameU="CornerLockVert" val="1"/>
      <ud nameU="CornerLockDiag" val="0"/>
      <ud nameU="TopLeftOffset" val="0.16932"/>
      <ud nameU="TopRightOffset" val="0.16932"/>
      <ud nameU="BotLeftOffset" val="0.16932"/>
      <ud nameU="BotRightOffset" val="0.16932"/>
      <ud nameU="visVersion" val="15"/>
     </userDefs>
     <path d="M12.191040039,0 L109.719360352,0 L109.719360352,0 L109.719360352,0 L109.719360352,0 L109.719360352,0 L109.719360352,0 C112.951332092,-0.000053644 116.054260254,1.285159588 118.339645386,3.570470095 L118.339645386,3.570470095 C120.625030518,5.855780602 121.910346985,8.95866394 121.91040802,12.190634727 L121.91040802,12.190634727 C121.91040802,12.190771103 121.91040802,12.190907478 121.91040802,12.191043854 L121.91040802,12.191043854 L121.910400391,12.191040039 L121.910400391,12.191040039 L121.910400391,21.951358795 L121.910400391,21.951358795 L121.91040802,21.951356888 L121.91040802,21.951356888 C121.910461426,25.183328629 120.625244141,28.286254883 118.339935303,30.571641922 L118.339935303,30.571641922 C116.054626465,32.857028961 112.95174408,34.142345428 109.719772339,34.142402649 L109.719772339,34.142402649 C109.71963501,34.142402649 109.719497681,34.142402649 109.719360352,34.142402649 L109.719360352,34.142402649 L109.719360352,34.142402649 L109.719360352,34.142402649 L109.719360352,34.142402649 L109.719360352,34.142402649 L12.191040039,34.142402649 L12.191040039,34.142402649 L12.191040039,34.142402649 L12.191040039,34.142402649 L12.191040039,34.142402649 L12.191040039,34.142402649 C8.959069252,34.142456055 5.856142998,32.85723877 3.570756197,30.571929932 L3.570756197,30.571929932 C1.285369277,28.286617279 0.000053108,25.183734894 -0.000000536,21.951763153 L-0.000000536,21.951763153 C0,21.951627731 -0.000000536,21.95149231 0,21.951356888 L0,21.951356888 L0,21.951358795 L0,21.951358795 L0,12.191040039 L0,12.191040039 L0,12.191040039 L0,12.191040039 C-0.000053108,8.959068298 1.285160542,5.856142998 3.570472479,3.570756197 L3.570472479,3.570756197 C5.855783463,1.285369873 8.958666801,0.000053108 12.190638542,0 L12.190638542,0 C12.19077301,0.000000536 12.190906525,0 12.191040039,0 L12.191040039,0 L12.191040039,0 L12.191040039,0 L12.191040039,0 Z" stroke="#000000" stroke-width="0.75" stroke-linecap="round" fill="#FFFFFF" fill-rule="evenodd"/>
     <g transform="matrix(1,0,0,1,0,0)">
      <text x="50.559692" y="6" class="TextStyle0" fill="#000000" opacity="1" transform="matrix(1,0,0,-1,0,20.0712)">Local</text>
     </g>
    </g>
    <g transform="matrix(1,0,0,1,254.7396,1585.5231)" v:mID="180">
     <title>Rounded Rectangle.39</title>
     <userDefs>
      <ud nameU="CTypeTopLeftSnip" val="0"/>
      <ud nameU="CTypeTopRightSnip" val="0"/>
      <ud nameU="CTypeBotLeftSnip" val="0"/>
      <ud nameU="CTypeBotRightSnip" val="0"/>
      <ud nameU="CornerLockHoriz" val="1"/>
      <ud nameU="CornerLockVert" val="1"/>
      <ud nameU="CornerLockDiag" val="0"/>
      <ud nameU="TopLeftOffset" val="0.16932"/>
      <ud nameU="TopRightOffset" val="0.16932"/>
      <ud nameU="BotLeftOffset" val="0.16932"/>
      <ud nameU="BotRightOffset" val="0.16932"/>
      <ud nameU="visVersion" val="15"/>
     </userDefs>
     <path d="M12.191040039,0 L109.719360352,0 L109.719360352,0 L109.719360352,0 L109.719360352,0 L109.719360352,0 L109.719360352,0 C112.951332092,-0.000053644 116.054260254,1.285159588 118.339645386,3.570470095 L118.339645386,3.570470095 C120.625030518,5.855780602 121.910346985,8.95866394 121.91040802,12.190634727 L121.91040802,12.190634727 C121.91040802,12.190771103 121.91040802,12.190907478 121.91040802,12.191043854 L121.91040802,12.191043854 L121.910400391,12.191040039 L121.910400391,12.191040039 L121.910400391,21.951358795 L121.910400391,21.951358795 L121.91040802,21.951356888 L121.91040802,21.951356888 C121.910461426,25.183328629 120.625244141,28.286254883 118.339935303,30.571641922 L118.339935303,30.571641922 C116.054626465,32.857028961 112.95174408,34.142345428 109.719772339,34.142402649 L109.719772339,34.142402649 C109.71963501,34.142402649 109.719497681,34.142402649 109.719360352,34.142402649 L109.719360352,34.142402649 L109.719360352,34.142402649 L109.719360352,34.142402649 L109.719360352,34.142402649 L109.719360352,34.142402649 L12.191040039,34.142402649 L12.191040039,34.142402649 L12.191040039,34.142402649 L12.191040039,34.142402649 L12.191040039,34.142402649 L12.191040039,34.142402649 C8.959069252,34.142456055 5.856142998,32.85723877 3.570756197,30.571929932 L3.570756197,30.571929932 C1.285369277,28.286617279 0.000053108,25.183734894 -0.000000536,21.951763153 L-0.000000536,21.951763153 C0,21.951627731 -0.000000536,21.95149231 0,21.951356888 L0,21.951356888 L0,21.951358795 L0,21.951358795 L0,12.191040039 L0,12.191040039 L0,12.191040039 L0,12.191040039 C-0.000053108,8.959068298 1.285160542,5.856142998 3.570472479,3.570756197 L3.570472479,3.570756197 C5.855783463,1.285369873 8.958666801,0.000053108 12.190638542,0 L12.190638542,0 C12.19077301,0.000000536 12.190906525,0 12.191040039,0 L12.191040039,0 L12.191040039,0 L12.191040039,0 L12.191040039,0 Z" stroke="#000000" stroke-width="0.75" stroke-linecap="round" fill="#FFFFFF" fill-rule="evenodd"/>
     <g transform="matrix(1,0,0,1,0,0)">
      <text x="45.66223" y="6" class="TextStyle0" fill="#000000" opacity="1" transform="matrix(1,0,0,-1,0,20.0712)">Foreign</text>
     </g>
    </g>
    <g transform="matrix(1,0,0,1,249.444,1660.2699)" v:mID="181">
     <title>Dynamic connector.40</title>
     <path d="M-72.010795593,-43.484401703 L-66.250801086,-40.604400635 L-72.010795593,-37.724399567 Z" stroke="#000000" stroke-width="0.2376378" fill="#000000" fill-rule="evenodd" transform="matrix(-0,-1,1,0,-25.6464,-106.8552)"/>
     <path d="M0,0 L0,-13.5 L0,-13.5 L-66.250801086,-13.5 L-66.250801086,-13.5 L-66.250801086,-40.604400635 " stroke="#000000" stroke-width="0.2376378" stroke-linecap="round" fill="none"/>
    </g>
    <g transform="matrix(1,0,0,1,249.444,1660.2699)" v:mID="182">
     <title>Dynamic connector.41</title>
     <path d="M60.49079895,-43.484401703 L66.250801086,-40.604400635 L60.49079895,-37.724399567 Z" stroke="#000000" stroke-width="0.2376378" fill="#000000" fill-rule="evenodd" transform="matrix(-0,-1,1,0,106.8552,25.6464)"/>
     <path d="M0,0 L0,-13.5 L0,-13.5 L66.250801086,-13.5 L66.250801086,-13.5 L66.250801086,-40.604400635 " stroke="#000000" stroke-width="0.2376378" stroke-linecap="round" fill="none"/>
    </g>
    <g transform="matrix(1,0,0,1,122.234406,1439.9517)" v:mID="183">
     <title>Rounded Rectangle.59</title>
     <userDefs>
      <ud nameU="CTypeTopLeftSnip" val="0"/>
      <ud nameU="CTypeTopRightSnip" val="0"/>
      <ud nameU="CTypeBotLeftSnip" val="0"/>
      <ud nameU="CTypeBotRightSnip" val="0"/>
      <ud nameU="CornerLockHoriz" val="1"/>
      <ud nameU="CornerLockVert" val="1"/>
      <ud nameU="CornerLockDiag" val="0"/>
      <ud nameU="TopLeftOffset" val="0.16932"/>
      <ud nameU="TopRightOffset" val="0.16932"/>
      <ud nameU="BotLeftOffset" val="0.16932"/>
      <ud nameU="BotRightOffset" val="0.16932"/>
      <ud nameU="visVersion" val="15"/>
     </userDefs>
     <path d="M12.191040039,0 L109.719360352,0 L109.719360352,0 L109.719360352,0 L109.719360352,0 L109.719360352,0 L109.719360352,0 C112.951332092,-0.000053644 116.054260254,1.285159588 118.339645386,3.570470095 L118.339645386,3.570470095 C120.625030518,5.855780602 121.910346985,8.95866394 121.91040802,12.190634727 L121.91040802,12.190634727 C121.91040802,12.190771103 121.91040802,12.190907478 121.91040802,12.191043854 L121.91040802,12.191043854 L121.910400391,12.191040039 L121.910400391,12.191040039 L121.910400391,92.777755737 L121.910400391,92.777755737 L121.91040802,92.777763367 L121.91040802,92.777763367 C121.910461426,96.009735107 120.625236511,99.112663269 118.339927673,101.398048401 L118.339927673,101.398048401 C116.054611206,103.683441162 112.951728821,104.96875 109.71975708,104.968803406 L109.71975708,104.968803406 C109.71962738,104.968803406 109.719497681,104.968803406 109.71937561,104.968803406 L109.71937561,104.968803406 L109.719360352,104.968803406 L109.719360352,104.968803406 L109.719360352,104.968803406 L109.719360352,104.968803406 L12.191040039,104.968803406 L12.191040039,104.968803406 L12.191040039,104.968803406 L12.191040039,104.968803406 L12.191038132,104.968803406 L12.191038132,104.968803406 C8.959064484,104.968856812 5.856137753,103.683631897 3.57075119,101.398323059 L3.57075119,101.398323059 C1.285364389,99.113006592 0.000049889,96.010124207 -0.000001073,92.778152466 L-0.000001073,92.778152466 C-0.000001073,92.778015137 -0.000000536,92.777885437 -0.000001073,92.777755737 L-0.000001073,92.777755737 L0,92.777755737 L0,92.777755737 L0,12.191040039 L0,12.191040039 L0,12.191040039 L0,12.191040039 C-0.000053108,8.959068298 1.285160542,5.856142998 3.570472479,3.570756197 L3.570472479,3.570756197 C5.855783463,1.285369873 8.958666801,0.000053108 12.190638542,0 L12.190638542,0 C12.19077301,0.000000536 12.190906525,0 12.191040039,0 L12.191040039,0 L12.191040039,0 L12.191040039,0 L12.191040039,0 Z" stroke="#000000" stroke-width="0.75" stroke-linecap="round" fill="#FFFFFF" fill-rule="evenodd"/>
     <g transform="matrix(1,0,0,1,0,0)">
      <text x="7.085567" y="-30.000002" class="TextStyle0" fill="#000000" opacity="1" transform="matrix(1,0,0,-1,0,55.4844)">Rodriguez &amp; Santos (2024)</text>
      <text x="18.545532" y="-18" class="TextStyle0" fill="#000000" opacity="1" transform="matrix(1,0,0,-1,0,55.4844)">"Integration of ABCD</text>
      <text x="16.563107" y="-6.0000014" class="TextStyle0" fill="#000000" opacity="1" transform="matrix(1,0,0,-1,0,55.4844)">(Artificial Intelligence,</text>
      <text x="25.071407" y="5.999999" class="TextStyle0" fill="#000000" opacity="1" transform="matrix(1,0,0,-1,0,55.4844)">Blockchain, Cloud</text>
      <text x="17.903439" y="18" class="TextStyle0" fill="#000000" opacity="1" transform="matrix(1,0,0,-1,0,55.4844)">Computing, and Data</text>
      <text x="8.52844" y="30" class="TextStyle0" fill="#000000" opacity="1" transform="matrix(1,0,0,-1,0,55.4844)">Analytics) Technologies in</text>
      <text x="28.906857" y="42" class="TextStyle0" fill="#000000" opacity="1" transform="matrix(1,0,0,-1,0,55.4844)">the Philippines"</text>
     </g>
    </g>
    <g transform="matrix(1,0,0,1,254.73602,1439.9806)" v:mID="184">
     <title>Rounded Rectangle.60</title>
     <userDefs>
      <ud nameU="CTypeTopLeftSnip" val="0"/>
      <ud nameU="CTypeTopRightSnip" val="0"/>
      <ud nameU="CTypeBotLeftSnip" val="0"/>
      <ud nameU="CTypeBotRightSnip" val="0"/>
      <ud nameU="CornerLockHoriz" val="1"/>
      <ud nameU="CornerLockVert" val="1"/>
      <ud nameU="CornerLockDiag" val="0"/>
      <ud nameU="TopLeftOffset" val="0.16932"/>
      <ud nameU="TopRightOffset" val="0.16932"/>
      <ud nameU="BotLeftOffset" val="0.16932"/>
      <ud nameU="BotRightOffset" val="0.16932"/>
      <ud nameU="visVersion" val="15"/>
     </userDefs>
     <path d="M12.191040039,0 L109.719360352,0 L109.719360352,0 L109.719360352,0 L109.719360352,0 L109.719360352,0 L109.719360352,0 C112.951332092,-0.000053644 116.054260254,1.285159588 118.339645386,3.570470095 L118.339645386,3.570470095 C120.625030518,5.855780602 121.910346985,8.95866394 121.91040802,12.190634727 L121.91040802,12.190634727 C121.91040802,12.190771103 121.91040802,12.190907478 121.91040802,12.191043854 L121.91040802,12.191043854 L121.910400391,12.191040039 L121.910400391,12.191040039 L121.910400391,92.777755737 L121.910400391,92.777755737 L121.91040802,92.777763367 L121.91040802,92.777763367 C121.910461426,96.009735107 120.625236511,99.112663269 118.339927673,101.398048401 L118.339927673,101.398048401 C116.054611206,103.683441162 112.951728821,104.96875 109.71975708,104.968803406 L109.71975708,104.968803406 C109.71962738,104.968803406 109.719497681,104.968803406 109.71937561,104.968803406 L109.71937561,104.968803406 L109.719360352,104.968803406 L109.719360352,104.968803406 L109.719360352,104.968803406 L109.719360352,104.968803406 L12.191040039,104.968803406 L12.191040039,104.968803406 L12.191040039,104.968803406 L12.191040039,104.968803406 L12.191038132,104.968803406 L12.191038132,104.968803406 C8.959064484,104.968856812 5.856137753,103.683631897 3.57075119,101.398323059 L3.57075119,101.398323059 C1.285364389,99.113006592 0.000049889,96.010124207 -0.000001073,92.778152466 L-0.000001073,92.778152466 C-0.000001073,92.778015137 -0.000000536,92.777885437 -0.000001073,92.777755737 L-0.000001073,92.777755737 L0,92.777755737 L0,92.777755737 L0,12.191040039 L0,12.191040039 L0,12.191040039 L0,12.191040039 C-0.000053108,8.959068298 1.285160542,5.856142998 3.570472479,3.570756197 L3.570472479,3.570756197 C5.855783463,1.285369873 8.958666801,0.000053108 12.190638542,0 L12.190638542,0 C12.19077301,0.000000536 12.190906525,0 12.191040039,0 L12.191040039,0 L12.191040039,0 L12.191040039,0 L12.191040039,0 Z" stroke="#000000" stroke-width="0.75" stroke-linecap="round" fill="#FFFFFF" fill-rule="evenodd"/>
     <g transform="matrix(1,0,0,1,0,0)">
      <text x="16.826778" y="-18" class="TextStyle0" fill="#000000" opacity="1" transform="matrix(1,0,0,-1,0,55.4844)">Oyeniran et al. (2024)</text>
      <text x="29.011837" y="-6" class="TextStyle0" fill="#000000" opacity="1" transform="matrix(1,0,0,-1,0,55.4844)">"Micro-Services</text>
      <text x="7.6788287" y="5.999999" class="TextStyle0" fill="#000000" opacity="1" transform="matrix(1,0,0,-1,0,55.4844)">Architecture for Designing</text>
      <text x="11.0943575" y="18" class="TextStyle0" fill="#000000" opacity="1" transform="matrix(1,0,0,-1,0,55.4844)">Highly Scalable Software</text>
      <text x="33.958126" y="30.000002" class="TextStyle0" fill="#000000" opacity="1" transform="matrix(1,0,0,-1,0,55.4844)">Applications"</text>
     </g>
    </g>
    <g transform="matrix(1,0,0,1,192.19139,1585.5231)" v:mID="185">
     <title>Dynamic connector.66</title>
     <path d="M-14.761798859,-43.48260498 L-9.001799583,-40.602600098 L-14.761798859,-37.72259903 Z" stroke="#000000" stroke-width="0.2376378" fill="#000000" fill-rule="evenodd" transform="matrix(-0,-1,1,0,31.6008,-49.6044)"/>
     <path d="M-8.998200417,0 L-8.998200417,-13.5 L-8.998200417,-13.5 L-9.001799583,-13.5 L-9.001799583,-13.5 L-9.001799583,-40.602600098 " stroke="#000000" stroke-width="0.2376378" stroke-linecap="round" fill="none"/>
    </g>
    <g transform="matrix(1,0,0,1,324.693,1585.5231)" v:mID="186">
     <title>Dynamic connector.67</title>
     <path d="M-14.761800766,-43.453804016 L-9.001800537,-40.573802948 L-14.761800766,-37.69380188 Z" stroke="#000000" stroke-width="0.2376378" fill="#000000" fill-rule="evenodd" transform="matrix(-0,-1,1,0,31.572002,-49.575603)"/>
     <path d="M-8.998200417,0 L-8.998200417,-13.5 L-8.998200417,-13.5 L-9.001800537,-13.5 L-9.001800537,-13.5 L-9.001800537,-40.573802948 " stroke="#000000" stroke-width="0.2376378" stroke-linecap="round" fill="none"/>
    </g>
    <g transform="matrix(1,0,0,1,254.73602,1294.4469)" v:mID="187">
     <title>Rounded Rectangle.122</title>
     <userDefs>
      <ud nameU="CTypeTopLeftSnip" val="0"/>
      <ud nameU="CTypeTopRightSnip" val="0"/>
      <ud nameU="CTypeBotLeftSnip" val="0"/>
      <ud nameU="CTypeBotRightSnip" val="0"/>
      <ud nameU="CornerLockHoriz" val="1"/>
      <ud nameU="CornerLockVert" val="1"/>
      <ud nameU="CornerLockDiag" val="0"/>
      <ud nameU="TopLeftOffset" val="0.16932"/>
      <ud nameU="TopRightOffset" val="0.16932"/>
      <ud nameU="BotLeftOffset" val="0.16932"/>
      <ud nameU="BotRightOffset" val="0.16932"/>
      <ud nameU="visVersion" val="15"/>
     </userDefs>
     <path d="M12.191040039,0 L109.719360352,0 L109.719360352,0 L109.719360352,0 L109.719360352,0 L109.719360352,0 L109.719360352,0 C112.951332092,-0.000053644 116.054260254,1.285159588 118.339645386,3.570470095 L118.339645386,3.570470095 C120.625030518,5.855780602 121.910346985,8.95866394 121.91040802,12.190634727 L121.91040802,12.190634727 C121.91040802,12.190771103 121.91040802,12.190907478 121.91040802,12.191043854 L121.91040802,12.191043854 L121.910400391,12.191040039 L121.910400391,12.191040039 L121.910400391,92.777755737 L121.910400391,92.777755737 L121.91040802,92.777763367 L121.91040802,92.777763367 C121.910461426,96.009735107 120.625236511,99.112663269 118.339927673,101.398048401 L118.339927673,101.398048401 C116.054611206,103.683441162 112.951728821,104.96875 109.71975708,104.968803406 L109.71975708,104.968803406 C109.71962738,104.968803406 109.719497681,104.968803406 109.71937561,104.968803406 L109.71937561,104.968803406 L109.719360352,104.968803406 L109.719360352,104.968803406 L109.719360352,104.968803406 L109.719360352,104.968803406 L12.191040039,104.968803406 L12.191040039,104.968803406 L12.191040039,104.968803406 L12.191040039,104.968803406 L12.191038132,104.968803406 L12.191038132,104.968803406 C8.959064484,104.968856812 5.856137753,103.683631897 3.57075119,101.398323059 L3.57075119,101.398323059 C1.285364389,99.113006592 0.000049889,96.010124207 -0.000001073,92.778152466 L-0.000001073,92.778152466 C-0.000001073,92.778015137 -0.000000536,92.777885437 -0.000001073,92.777755737 L-0.000001073,92.777755737 L0,92.777755737 L0,92.777755737 L0,12.191040039 L0,12.191040039 L0,12.191040039 L0,12.191040039 C-0.000053108,8.959068298 1.285160542,5.856142998 3.570472479,3.570756197 L3.570472479,3.570756197 C5.855783463,1.285369873 8.958666801,0.000053108 12.190638542,0 L12.190638542,0 C12.19077301,0.000000536 12.190906525,0 12.191040039,0 L12.191040039,0 L12.191040039,0 L12.191040039,0 L12.191040039,0 Z" stroke="#000000" stroke-width="0.75" stroke-linecap="round" fill="#FFFFFF" fill-rule="evenodd"/>
     <g transform="matrix(1,0,0,1,0,0)">
      <text x="6.7193575" y="-30.000002" class="TextStyle0" fill="#000000" opacity="1" transform="matrix(1,0,0,-1,0,55.4844)">Genieee (2024) "Building a</text>
      <text x="17.0343" y="-18" class="TextStyle0" fill="#000000" opacity="1" transform="matrix(1,0,0,-1,0,55.4844)">Scalable Game Server</text>
      <text x="17.498169" y="-6.0000014" class="TextStyle0" fill="#000000" opacity="1" transform="matrix(1,0,0,-1,0,55.4844)">Backend: A Complete</text>
      <text x="4.197386" y="5.999999" class="TextStyle0" fill="#000000" opacity="1" transform="matrix(1,0,0,-1,0,55.4844)">Guide" Politecnico di Torino</text>
      <text x="7.825316" y="18" class="TextStyle0" fill="#000000" opacity="1" transform="matrix(1,0,0,-1,0,55.4844)">(2025) "CLoud Application</text>
      <text x="5.191039" y="30" class="TextStyle0" fill="#000000" opacity="1" transform="matrix(1,0,0,-1,0,55.4844)">lAtency Prediction (CLAAP):</text>
      <text x="25.244747" y="42" class="TextStyle0" fill="#000000" opacity="1" transform="matrix(1,0,0,-1,0,55.4844)">A Novel Solution"</text>
     </g>
    </g>
    <g transform="matrix(1,0,0,1,254.72879,1148.8054)" v:mID="188">
     <title>Rounded Rectangle.123</title>
     <userDefs>
      <ud nameU="CTypeTopLeftSnip" val="0"/>
      <ud nameU="CTypeTopRightSnip" val="0"/>
      <ud nameU="CTypeBotLeftSnip" val="0"/>
      <ud nameU="CTypeBotRightSnip" val="0"/>
      <ud nameU="CornerLockHoriz" val="1"/>
      <ud nameU="CornerLockVert" val="1"/>
      <ud nameU="CornerLockDiag" val="0"/>
      <ud nameU="TopLeftOffset" val="0.16932"/>
      <ud nameU="TopRightOffset" val="0.16932"/>
      <ud nameU="BotLeftOffset" val="0.16932"/>
      <ud nameU="BotRightOffset" val="0.16932"/>
      <ud nameU="visVersion" val="15"/>
     </userDefs>
     <path d="M12.191040039,0 L109.719360352,0 L109.719360352,0 L109.719360352,0 L109.719360352,0 L109.719360352,0 L109.719360352,0 C112.951332092,-0.000053644 116.054260254,1.285159588 118.339645386,3.570470095 L118.339645386,3.570470095 C120.625030518,5.855780602 121.910346985,8.95866394 121.91040802,12.190634727 L121.91040802,12.190634727 C121.91040802,12.190771103 121.91040802,12.190907478 121.91040802,12.191043854 L121.91040802,12.191043854 L121.910400391,12.191040039 L121.910400391,12.191040039 L121.910400391,92.777755737 L121.910400391,92.777755737 L121.91040802,92.777763367 L121.91040802,92.777763367 C121.910461426,96.009735107 120.625236511,99.112663269 118.339927673,101.398048401 L118.339927673,101.398048401 C116.054611206,103.683441162 112.951728821,104.96875 109.71975708,104.968803406 L109.71975708,104.968803406 C109.71962738,104.968803406 109.719497681,104.968803406 109.71937561,104.968803406 L109.71937561,104.968803406 L109.719360352,104.968803406 L109.719360352,104.968803406 L109.719360352,104.968803406 L109.719360352,104.968803406 L12.191040039,104.968803406 L12.191040039,104.968803406 L12.191040039,104.968803406 L12.191040039,104.968803406 L12.191038132,104.968803406 L12.191038132,104.968803406 C8.959064484,104.968856812 5.856137753,103.683631897 3.57075119,101.398323059 L3.57075119,101.398323059 C1.285364389,99.113006592 0.000049889,96.010124207 -0.000001073,92.778152466 L-0.000001073,92.778152466 C-0.000001073,92.778015137 -0.000000536,92.777885437 -0.000001073,92.777755737 L-0.000001073,92.777755737 L0,92.777755737 L0,92.777755737 L0,12.191040039 L0,12.191040039 L0,12.191040039 L0,12.191040039 C-0.000053108,8.959068298 1.285160542,5.856142998 3.570472479,3.570756197 L3.570472479,3.570756197 C5.855783463,1.285369873 8.958666801,0.000053108 12.190638542,0 L12.190638542,0 C12.19077301,0.000000536 12.190906525,0 12.191040039,0 L12.191040039,0 L12.191040039,0 L12.191040039,0 L12.191040039,0 Z" stroke="#000000" stroke-width="0.75" stroke-linecap="round" fill="#FFFFFF" fill-rule="evenodd"/>
     <g transform="matrix(1,0,0,1,0,0)">
      <text x="6.7852755" y="-12" class="TextStyle0" fill="#000000" opacity="1" transform="matrix(1,0,0,-1,0,55.4844)">Ably (2024) "ASP.NET Core</text>
      <text x="23.025509" y="0" class="TextStyle0" fill="#000000" opacity="1" transform="matrix(1,0,0,-1,0,55.4844)">SignalR Deep Dive:</text>
      <text x="21.851192" y="11.999999" class="TextStyle0" fill="#000000" opacity="1" transform="matrix(1,0,0,-1,0,55.4844)">Scalability and Best</text>
      <text x="40.735474" y="24" class="TextStyle0" fill="#000000" opacity="1" transform="matrix(1,0,0,-1,0,55.4844)">Practices"</text>
     </g>
    </g>
    <g transform="matrix(1,0,0,1,254.73602,1003.36536)" v:mID="189">
     <title>Rounded Rectangle.124</title>
     <userDefs>
      <ud nameU="CTypeTopLeftSnip" val="0"/>
      <ud nameU="CTypeTopRightSnip" val="0"/>
      <ud nameU="CTypeBotLeftSnip" val="0"/>
      <ud nameU="CTypeBotRightSnip" val="0"/>
      <ud nameU="CornerLockHoriz" val="1"/>
      <ud nameU="CornerLockVert" val="1"/>
      <ud nameU="CornerLockDiag" val="0"/>
      <ud nameU="TopLeftOffset" val="0.16932"/>
      <ud nameU="TopRightOffset" val="0.16932"/>
      <ud nameU="BotLeftOffset" val="0.16932"/>
      <ud nameU="BotRightOffset" val="0.16932"/>
      <ud nameU="visVersion" val="15"/>
     </userDefs>
     <path d="M12.191040039,0 L109.719360352,0 L109.719360352,0 L109.719360352,0 L109.719360352,0 L109.719360352,0 L109.719360352,0 C112.951332092,-0.000053644 116.054260254,1.285159588 118.339645386,3.570470095 L118.339645386,3.570470095 C120.625030518,5.855780602 121.910346985,8.95866394 121.91040802,12.190634727 L121.91040802,12.190634727 C121.91040802,12.190771103 121.91040802,12.190907478 121.91040802,12.191043854 L121.91040802,12.191043854 L121.910400391,12.191040039 L121.910400391,12.191040039 L121.910400391,92.777755737 L121.910400391,92.777755737 L121.91040802,92.777763367 L121.91040802,92.777763367 C121.910461426,96.009735107 120.625236511,99.112663269 118.339927673,101.398048401 L118.339927673,101.398048401 C116.054611206,103.683441162 112.951728821,104.96875 109.71975708,104.968803406 L109.71975708,104.968803406 C109.71962738,104.968803406 109.719497681,104.968803406 109.71937561,104.968803406 L109.71937561,104.968803406 L109.719360352,104.968803406 L109.719360352,104.968803406 L109.719360352,104.968803406 L109.719360352,104.968803406 L12.191040039,104.968803406 L12.191040039,104.968803406 L12.191040039,104.968803406 L12.191040039,104.968803406 L12.191038132,104.968803406 L12.191038132,104.968803406 C8.959064484,104.968856812 5.856137753,103.683631897 3.57075119,101.398323059 L3.57075119,101.398323059 C1.285364389,99.113006592 0.000049889,96.010124207 -0.000001073,92.778152466 L-0.000001073,92.778152466 C-0.000001073,92.778015137 -0.000000536,92.777885437 -0.000001073,92.777755737 L-0.000001073,92.777755737 L0,92.777755737 L0,92.777755737 L0,12.191040039 L0,12.191040039 L0,12.191040039 L0,12.191040039 C-0.000053108,8.959068298 1.285160542,5.856142998 3.570472479,3.570756197 L3.570472479,3.570756197 C5.855783463,1.285369873 8.958666801,0.000053108 12.190638542,0 L12.190638542,0 C12.19077301,0.000000536 12.190906525,0 12.191040039,0 L12.191040039,0 L12.191040039,0 L12.191040039,0 L12.191040039,0 Z" stroke="#000000" stroke-width="0.75" stroke-linecap="round" fill="#FFFFFF" fill-rule="evenodd"/>
     <g transform="matrix(1,0,0,1,0,0)">
      <text x="7.461544" y="-30.000002" class="TextStyle0" fill="#000000" opacity="1" transform="matrix(1,0,0,-1,0,55.4844)">Tandon et al. (2024) "Sybil</text>
      <text x="24.583126" y="-18" class="TextStyle0" fill="#000000" opacity="1" transform="matrix(1,0,0,-1,0,55.4844)">in the Haystack: A</text>
      <text x="8.11584" y="-6.0000014" class="TextStyle0" fill="#000000" opacity="1" transform="matrix(1,0,0,-1,0,55.4844)">Comprehensive Review of</text>
      <text x="16.484983" y="5.999999" class="TextStyle0" fill="#000000" opacity="1" transform="matrix(1,0,0,-1,0,55.4844)">Blockchain Consensus</text>
      <text x="10.383907" y="18" class="TextStyle0" fill="#000000" opacity="1" transform="matrix(1,0,0,-1,0,55.4844)">Mechanisms in Search of</text>
      <text x="22.854612" y="30" class="TextStyle0" fill="#000000" opacity="1" transform="matrix(1,0,0,-1,0,55.4844)">Strong Sybil Attack</text>
      <text x="37.390743" y="42" class="TextStyle0" fill="#000000" opacity="1" transform="matrix(1,0,0,-1,0,55.4844)">Resistance"</text>
     </g>
    </g>
    <g transform="matrix(1,0,0,1,254.73602,857.68774)" v:mID="190">
     <title>Rounded Rectangle.125</title>
     <userDefs>
      <ud nameU="CTypeTopLeftSnip" val="0"/>
      <ud nameU="CTypeTopRightSnip" val="0"/>
      <ud nameU="CTypeBotLeftSnip" val="0"/>
      <ud nameU="CTypeBotRightSnip" val="0"/>
      <ud nameU="CornerLockHoriz" val="1"/>
      <ud nameU="CornerLockVert" val="1"/>
      <ud nameU="CornerLockDiag" val="0"/>
      <ud nameU="TopLeftOffset" val="0.16932"/>
      <ud nameU="TopRightOffset" val="0.16932"/>
      <ud nameU="BotLeftOffset" val="0.16932"/>
      <ud nameU="BotRightOffset" val="0.16932"/>
      <ud nameU="visVersion" val="15"/>
     </userDefs>
     <path d="M12.191040039,0 L109.719360352,0 L109.719360352,0 L109.719360352,0 L109.719360352,0 L109.719360352,0 L109.719360352,0 C112.951332092,-0.000053644 116.054260254,1.285159588 118.339645386,3.570470095 L118.339645386,3.570470095 C120.625030518,5.855780602 121.910346985,8.95866394 121.91040802,12.190634727 L121.91040802,12.190634727 C121.91040802,12.190771103 121.91040802,12.190907478 121.91040802,12.191043854 L121.91040802,12.191043854 L121.910400391,12.191040039 L121.910400391,12.191040039 L121.910400391,92.777755737 L121.910400391,92.777755737 L121.91040802,92.777763367 L121.91040802,92.777763367 C121.910461426,96.009735107 120.625236511,99.112663269 118.339927673,101.398048401 L118.339927673,101.398048401 C116.054611206,103.683441162 112.951728821,104.96875 109.71975708,104.968803406 L109.71975708,104.968803406 C109.71962738,104.968803406 109.719497681,104.968803406 109.71937561,104.968803406 L109.71937561,104.968803406 L109.719360352,104.968803406 L109.719360352,104.968803406 L109.719360352,104.968803406 L109.719360352,104.968803406 L12.191040039,104.968803406 L12.191040039,104.968803406 L12.191040039,104.968803406 L12.191040039,104.968803406 L12.191038132,104.968803406 L12.191038132,104.968803406 C8.959064484,104.968856812 5.856137753,103.683631897 3.57075119,101.398323059 L3.57075119,101.398323059 C1.285364389,99.113006592 0.000049889,96.010124207 -0.000001073,92.778152466 L-0.000001073,92.778152466 C-0.000001073,92.778015137 -0.000000536,92.777885437 -0.000001073,92.777755737 L-0.000001073,92.777755737 L0,92.777755737 L0,92.777755737 L0,12.191040039 L0,12.191040039 L0,12.191040039 L0,12.191040039 C-0.000053108,8.959068298 1.285160542,5.856142998 3.570472479,3.570756197 L3.570472479,3.570756197 C5.855783463,1.285369873 8.958666801,0.000053108 12.190638542,0 L12.190638542,0 C12.19077301,0.000000536 12.190906525,0 12.191040039,0 L12.191040039,0 L12.191040039,0 L12.191040039,0 L12.191040039,0 Z" stroke="#000000" stroke-width="0.75" stroke-linecap="round" fill="#FFFFFF" fill-rule="evenodd"/>
     <g transform="matrix(1,0,0,1,0,0)">
      <text x="10.420531" y="-18" class="TextStyle0" fill="#000000" opacity="1" transform="matrix(1,0,0,-1,0,55.4844)">Abou Safaqa (2024) "The</text>
      <text x="18.540648" y="-6" class="TextStyle0" fill="#000000" opacity="1" transform="matrix(1,0,0,-1,0,55.4844)">Role of Digital Media</text>
      <text x="11.270139" y="5.999999" class="TextStyle0" fill="#000000" opacity="1" transform="matrix(1,0,0,-1,0,55.4844)">Platforms in Shaping the</text>
      <text x="20.569458" y="18" class="TextStyle0" fill="#000000" opacity="1" transform="matrix(1,0,0,-1,0,55.4844)">Values of University</text>
      <text x="27.847286" y="30.000002" class="TextStyle0" fill="#000000" opacity="1" transform="matrix(1,0,0,-1,0,55.4844)">Students Youth"</text>
     </g>
    </g>
    <g transform="matrix(1,0,0,1,254.72879,712.2405)" v:mID="191">
     <title>Rounded Rectangle.126</title>
     <userDefs>
      <ud nameU="CTypeTopLeftSnip" val="0"/>
      <ud nameU="CTypeTopRightSnip" val="0"/>
      <ud nameU="CTypeBotLeftSnip" val="0"/>
      <ud nameU="CTypeBotRightSnip" val="0"/>
      <ud nameU="CornerLockHoriz" val="1"/>
      <ud nameU="CornerLockVert" val="1"/>
      <ud nameU="CornerLockDiag" val="0"/>
      <ud nameU="TopLeftOffset" val="0.16932"/>
      <ud nameU="TopRightOffset" val="0.16932"/>
      <ud nameU="BotLeftOffset" val="0.16932"/>
      <ud nameU="BotRightOffset" val="0.16932"/>
      <ud nameU="visVersion" val="15"/>
     </userDefs>
     <path d="M12.191040039,0 L109.719360352,0 L109.719360352,0 L109.719360352,0 L109.719360352,0 L109.719360352,0 L109.719360352,0 C112.951332092,-0.000053644 116.054260254,1.285159588 118.339645386,3.570470095 L118.339645386,3.570470095 C120.625030518,5.855780602 121.910346985,8.95866394 121.91040802,12.190634727 L121.91040802,12.190634727 C121.91040802,12.190771103 121.91040802,12.190907478 121.91040802,12.191043854 L121.91040802,12.191043854 L121.910400391,12.191040039 L121.910400391,12.191040039 L121.910400391,92.777755737 L121.910400391,92.777755737 L121.91040802,92.777763367 L121.91040802,92.777763367 C121.910461426,96.009735107 120.625236511,99.112663269 118.339927673,101.398048401 L118.339927673,101.398048401 C116.054611206,103.683441162 112.951728821,104.96875 109.71975708,104.968803406 L109.71975708,104.968803406 C109.71962738,104.968803406 109.719497681,104.968803406 109.71937561,104.968803406 L109.71937561,104.968803406 L109.719360352,104.968803406 L109.719360352,104.968803406 L109.719360352,104.968803406 L109.719360352,104.968803406 L12.191040039,104.968803406 L12.191040039,104.968803406 L12.191040039,104.968803406 L12.191040039,104.968803406 L12.191038132,104.968803406 L12.191038132,104.968803406 C8.959064484,104.968856812 5.856137753,103.683631897 3.57075119,101.398323059 L3.57075119,101.398323059 C1.285364389,99.113006592 0.000049889,96.010124207 -0.000001073,92.778152466 L-0.000001073,92.778152466 C-0.000001073,92.778015137 -0.000000536,92.777885437 -0.000001073,92.777755737 L-0.000001073,92.777755737 L0,92.777755737 L0,92.777755737 L0,12.191040039 L0,12.191040039 L0,12.191040039 L0,12.191040039 C-0.000053108,8.959068298 1.285160542,5.856142998 3.570472479,3.570756197 L3.570472479,3.570756197 C5.855783463,1.285369873 8.958666801,0.000053108 12.190638542,0 L12.190638542,0 C12.19077301,0.000000536 12.190906525,0 12.191040039,0 L12.191040039,0 L12.191040039,0 L12.191040039,0 L12.191040039,0 Z" stroke="#000000" stroke-width="0.75" stroke-linecap="round" fill="#FFFFFF" fill-rule="evenodd"/>
     <g transform="matrix(1,0,0,1,0,0)">
      <text x="16.758419" y="-12" class="TextStyle0" fill="#000000" opacity="1" transform="matrix(1,0,0,-1,0,55.4844)">Liu et al. (2025) "Last-</text>
      <text x="14.319454" y="0" class="TextStyle0" fill="#000000" opacity="1" transform="matrix(1,0,0,-1,0,55.4844)">Iterate Convergence of</text>
      <text x="5.6915264" y="11.999999" class="TextStyle0" fill="#000000" opacity="1" transform="matrix(1,0,0,-1,0,55.4844)">Online Learning Algorithms</text>
      <text x="7.727658" y="24" class="TextStyle0" fill="#000000" opacity="1" transform="matrix(1,0,0,-1,0,55.4844)">in Games Under Self-Play"</text>
     </g>
    </g>
    <g transform="matrix(1,0,0,1,254.72879,566.5413)" v:mID="192">
     <title>Rounded Rectangle.127</title>
     <userDefs>
      <ud nameU="CTypeTopLeftSnip" val="0"/>
      <ud nameU="CTypeTopRightSnip" val="0"/>
      <ud nameU="CTypeBotLeftSnip" val="0"/>
      <ud nameU="CTypeBotRightSnip" val="0"/>
      <ud nameU="CornerLockHoriz" val="1"/>
      <ud nameU="CornerLockVert" val="1"/>
      <ud nameU="CornerLockDiag" val="0"/>
      <ud nameU="TopLeftOffset" val="0.16932"/>
      <ud nameU="TopRightOffset" val="0.16932"/>
      <ud nameU="BotLeftOffset" val="0.16932"/>
      <ud nameU="BotRightOffset" val="0.16932"/>
      <ud nameU="visVersion" val="15"/>
     </userDefs>
     <path d="M12.191040039,0 L109.719360352,0 L109.719360352,0 L109.719360352,0 L109.719360352,0 L109.719360352,0 L109.719360352,0 C112.951332092,-0.000053644 116.054260254,1.285159588 118.339645386,3.570470095 L118.339645386,3.570470095 C120.625030518,5.855780602 121.910346985,8.95866394 121.91040802,12.190634727 L121.91040802,12.190634727 C121.91040802,12.190771103 121.91040802,12.190907478 121.91040802,12.191043854 L121.91040802,12.191043854 L121.910400391,12.191040039 L121.910400391,12.191040039 L121.910400391,92.777755737 L121.910400391,92.777755737 L121.91040802,92.777763367 L121.91040802,92.777763367 C121.910461426,96.009735107 120.625236511,99.112663269 118.339927673,101.398048401 L118.339927673,101.398048401 C116.054611206,103.683441162 112.951728821,104.96875 109.71975708,104.968803406 L109.71975708,104.968803406 C109.71962738,104.968803406 109.719497681,104.968803406 109.71937561,104.968803406 L109.71937561,104.968803406 L109.719360352,104.968803406 L109.719360352,104.968803406 L109.719360352,104.968803406 L109.719360352,104.968803406 L12.191040039,104.968803406 L12.191040039,104.968803406 L12.191040039,104.968803406 L12.191040039,104.968803406 L12.191038132,104.968803406 L12.191038132,104.968803406 C8.959064484,104.968856812 5.856137753,103.683631897 3.57075119,101.398323059 L3.57075119,101.398323059 C1.285364389,99.113006592 0.000049889,96.010124207 -0.000001073,92.778152466 L-0.000001073,92.778152466 C-0.000001073,92.778015137 -0.000000536,92.777885437 -0.000001073,92.777755737 L-0.000001073,92.777755737 L0,92.777755737 L0,92.777755737 L0,12.191040039 L0,12.191040039 L0,12.191040039 L0,12.191040039 C-0.000053108,8.959068298 1.285160542,5.856142998 3.570472479,3.570756197 L3.570472479,3.570756197 C5.855783463,1.285369873 8.958666801,0.000053108 12.190638542,0 L12.190638542,0 C12.19077301,0.000000536 12.190906525,0 12.191040039,0 L12.191040039,0 L12.191040039,0 L12.191040039,0 L12.191040039,0 Z" stroke="#000000" stroke-width="0.75" stroke-linecap="round" fill="#FFFFFF" fill-rule="evenodd"/>
     <g transform="matrix(1,0,0,1,0,0)">
      <text x="23.274534" y="-6" class="TextStyle0" fill="#000000" opacity="1" transform="matrix(1,0,0,-1,0,55.4844)">Victor et al. (2020)</text>
      <text x="21.653439" y="6" class="TextStyle0" fill="#000000" opacity="1" transform="matrix(1,0,0,-1,0,55.4844)">"Address clustering</text>
      <text x="11.22131" y="18" class="TextStyle0" fill="#000000" opacity="1" transform="matrix(1,0,0,-1,0,55.4844)">heuristics for Ethereum"</text>
     </g>
    </g>
    <g transform="matrix(1,0,0,1,406.7352,1439.9517)" v:mID="193">
     <title>Rounded Rectangle.129</title>
     <userDefs>
      <ud nameU="CTypeTopLeftSnip" val="0"/>
      <ud nameU="CTypeTopRightSnip" val="0"/>
      <ud nameU="CTypeBotLeftSnip" val="0"/>
      <ud nameU="CTypeBotRightSnip" val="0"/>
      <ud nameU="CornerLockHoriz" val="1"/>
      <ud nameU="CornerLockVert" val="1"/>
      <ud nameU="CornerLockDiag" val="0"/>
      <ud nameU="TopLeftOffset" val="0.16932"/>
      <ud nameU="TopRightOffset" val="0.16932"/>
      <ud nameU="BotLeftOffset" val="0.16932"/>
      <ud nameU="BotRightOffset" val="0.16932"/>
      <ud nameU="visVersion" val="15"/>
     </userDefs>
     <path d="M12.191040039,0 L109.719360352,0 L109.719360352,0 L109.719360352,0 L109.719360352,0 L109.719360352,0 L109.719360352,0 C112.951332092,-0.000053644 116.054260254,1.285159588 118.339645386,3.570470095 L118.339645386,3.570470095 C120.625030518,5.855780602 121.910346985,8.95866394 121.91040802,12.190634727 L121.91040802,12.190634727 C121.91040802,12.190771103 121.91040802,12.190907478 121.91040802,12.191043854 L121.91040802,12.191043854 L121.910400391,12.191040039 L121.910400391,12.191040039 L121.910400391,92.777755737 L121.910400391,92.777755737 L121.91040802,92.777763367 L121.91040802,92.777763367 C121.910461426,96.009735107 120.625236511,99.112663269 118.339927673,101.398048401 L118.339927673,101.398048401 C116.054611206,103.683441162 112.951728821,104.96875 109.71975708,104.968803406 L109.71975708,104.968803406 C109.71962738,104.968803406 109.719497681,104.968803406 109.71937561,104.968803406 L109.71937561,104.968803406 L109.719360352,104.968803406 L109.719360352,104.968803406 L109.719360352,104.968803406 L109.719360352,104.968803406 L12.191040039,104.968803406 L12.191040039,104.968803406 L12.191040039,104.968803406 L12.191040039,104.968803406 L12.191038132,104.968803406 L12.191038132,104.968803406 C8.959064484,104.968856812 5.856137753,103.683631897 3.57075119,101.398323059 L3.57075119,101.398323059 C1.285364389,99.113006592 0.000049889,96.010124207 -0.000001073,92.778152466 L-0.000001073,92.778152466 C-0.000001073,92.778015137 -0.000000536,92.777885437 -0.000001073,92.777755737 L-0.000001073,92.777755737 L0,92.777755737 L0,92.777755737 L0,12.191040039 L0,12.191040039 L0,12.191040039 L0,12.191040039 C-0.000053108,8.959068298 1.285160542,5.856142998 3.570472479,3.570756197 L3.570472479,3.570756197 C5.855783463,1.285369873 8.958666801,0.000053108 12.190638542,0 L12.190638542,0 C12.19077301,0.000000536 12.190906525,0 12.191040039,0 L12.191040039,0 L12.191040039,0 L12.191040039,0 L12.191040039,0 Z" stroke="#000000" stroke-width="0.75" stroke-linecap="round" fill="#FFFFFF" fill-rule="evenodd"/>
     <g transform="matrix(1,0,0,1,0,0)">
      <text x="11.528927" y="-6" class="TextStyle0" fill="#000000" opacity="1" transform="matrix(1,0,0,-1,0,55.4844)">Humanode (2024) "Sybil</text>
      <text x="11.008909" y="6" class="TextStyle0" fill="#000000" opacity="1" transform="matrix(1,0,0,-1,0,55.4844)">Attacks and the Fight for</text>
      <text x="5.9820547" y="18" class="TextStyle0" fill="#000000" opacity="1" transform="matrix(1,0,0,-1,0,55.4844)">Sybil Resistance Explained"</text>
     </g>
    </g>
    <g transform="matrix(1,0,0,1,406.7352,1294.4397)" v:mID="194">
     <title>Rounded Rectangle.130</title>
     <userDefs>
      <ud nameU="CTypeTopLeftSnip" val="0"/>
      <ud nameU="CTypeTopRightSnip" val="0"/>
      <ud nameU="CTypeBotLeftSnip" val="0"/>
      <ud nameU="CTypeBotRightSnip" val="0"/>
      <ud nameU="CornerLockHoriz" val="1"/>
      <ud nameU="CornerLockVert" val="1"/>
      <ud nameU="CornerLockDiag" val="0"/>
      <ud nameU="TopLeftOffset" val="0.16932"/>
      <ud nameU="TopRightOffset" val="0.16932"/>
      <ud nameU="BotLeftOffset" val="0.16932"/>
      <ud nameU="BotRightOffset" val="0.16932"/>
      <ud nameU="visVersion" val="15"/>
     </userDefs>
     <path d="M12.191040039,0 L109.719360352,0 L109.719360352,0 L109.719360352,0 L109.719360352,0 L109.719360352,0 L109.719360352,0 C112.951332092,-0.000053644 116.054260254,1.285159588 118.339645386,3.570470095 L118.339645386,3.570470095 C120.625030518,5.855780602 121.910346985,8.95866394 121.91040802,12.190634727 L121.91040802,12.190634727 C121.91040802,12.190771103 121.91040802,12.190907478 121.91040802,12.191043854 L121.91040802,12.191043854 L121.910400391,12.191040039 L121.910400391,12.191040039 L121.910400391,92.777755737 L121.910400391,92.777755737 L121.91040802,92.777763367 L121.91040802,92.777763367 C121.910461426,96.009735107 120.625236511,99.112663269 118.339927673,101.398048401 L118.339927673,101.398048401 C116.054611206,103.683441162 112.951728821,104.96875 109.71975708,104.968803406 L109.71975708,104.968803406 C109.71962738,104.968803406 109.719497681,104.968803406 109.71937561,104.968803406 L109.71937561,104.968803406 L109.719360352,104.968803406 L109.719360352,104.968803406 L109.719360352,104.968803406 L109.719360352,104.968803406 L12.191040039,104.968803406 L12.191040039,104.968803406 L12.191040039,104.968803406 L12.191040039,104.968803406 L12.191038132,104.968803406 L12.191038132,104.968803406 C8.959064484,104.968856812 5.856137753,103.683631897 3.57075119,101.398323059 L3.57075119,101.398323059 C1.285364389,99.113006592 0.000049889,96.010124207 -0.000001073,92.778152466 L-0.000001073,92.778152466 C-0.000001073,92.778015137 -0.000000536,92.777885437 -0.000001073,92.777755737 L-0.000001073,92.777755737 L0,92.777755737 L0,92.777755737 L0,12.191040039 L0,12.191040039 L0,12.191040039 L0,12.191040039 C-0.000053108,8.959068298 1.285160542,5.856142998 3.570472479,3.570756197 L3.570472479,3.570756197 C5.855783463,1.285369873 8.958666801,0.000053108 12.190638542,0 L12.190638542,0 C12.19077301,0.000000536 12.190906525,0 12.191040039,0 L12.191040039,0 L12.191040039,0 L12.191040039,0 L12.191040039,0 Z" stroke="#000000" stroke-width="0.75" stroke-linecap="round" fill="#FFFFFF" fill-rule="evenodd"/>
     <g transform="matrix(1,0,0,1,0,0)">
      <text x="4.9175997" y="-18" class="TextStyle0" fill="#000000" opacity="1" transform="matrix(1,0,0,-1,0,55.4844)">Hassan et al. (2025) "AI and</text>
      <text x="6.8316627" y="-6" class="TextStyle0" fill="#000000" opacity="1" transform="matrix(1,0,0,-1,0,55.4844)">Machine Learning In Fraud</text>
      <text x="7.090451" y="5.999999" class="TextStyle0" fill="#000000" opacity="1" transform="matrix(1,0,0,-1,0,55.4844)">Detection: Securing Digital</text>
      <text x="11.353146" y="18" class="TextStyle0" fill="#000000" opacity="1" transform="matrix(1,0,0,-1,0,55.4844)">Payments and Economic</text>
      <text x="42.576294" y="30.000002" class="TextStyle0" fill="#000000" opacity="1" transform="matrix(1,0,0,-1,0,55.4844)">Stability"</text>
     </g>
    </g>
    <g transform="matrix(1,0,0,1,306.69122,1439.9805)" v:mID="195">
     <title>Dynamic connector.131</title>
     <path d="M3.239999533,-43.444801331 L9,-40.564796448 L3.239999533,-37.68479538 Z" stroke="#000000" stroke-width="0.2376378" fill="#000000" fill-rule="evenodd" transform="matrix(-0,-1,1,0,49.564796,-31.564796)"/>
     <path d="M9,0 L9,-40.564796448 " stroke="#000000" stroke-width="0.2376378" stroke-linecap="round" fill="none"/>
    </g>
    <g transform="matrix(1,0,0,1,315.68402,566.54126)" v:mID="196">
     <title>Dynamic connector.132</title>
     <path d="M146.246414185,975.499206543 L152.006408691,978.379211426 L146.246414185,981.259216309 Z" stroke="#000000" stroke-width="0.2376378" fill="#000000" fill-rule="evenodd" transform="matrix(-0,-1,1,0,-826.3728,1130.3856)"/>
     <path d="M0,0 L0,-13.5 L0,-13.5 L74.455200195,-13.5 L74.455200195,-13.5 L74.455200195,991.879211426 L74.455200195,991.879211426 L152.006408691,991.879211426 L152.006408691,991.879211426 L152.006408691,978.379211426 " stroke="#000000" stroke-width="0.2376378" stroke-linecap="round" fill="none"/>
    </g>
    <g transform="matrix(1,0,0,1,406.7352,1148.7981)" v:mID="197">
     <title>Rounded Rectangle.133</title>
     <userDefs>
      <ud nameU="CTypeTopLeftSnip" val="0"/>
      <ud nameU="CTypeTopRightSnip" val="0"/>
      <ud nameU="CTypeBotLeftSnip" val="0"/>
      <ud nameU="CTypeBotRightSnip" val="0"/>
      <ud nameU="CornerLockHoriz" val="1"/>
      <ud nameU="CornerLockVert" val="1"/>
      <ud nameU="CornerLockDiag" val="0"/>
      <ud nameU="TopLeftOffset" val="0.16932"/>
      <ud nameU="TopRightOffset" val="0.16932"/>
      <ud nameU="BotLeftOffset" val="0.16932"/>
      <ud nameU="BotRightOffset" val="0.16932"/>
      <ud nameU="visVersion" val="15"/>
     </userDefs>
     <path d="M12.191040039,0 L109.719360352,0 L109.719360352,0 L109.719360352,0 L109.719360352,0 L109.719360352,0 L109.719360352,0 C112.951332092,-0.000053644 116.054260254,1.285159588 118.339645386,3.570470095 L118.339645386,3.570470095 C120.625030518,5.855780602 121.910346985,8.95866394 121.91040802,12.190634727 L121.91040802,12.190634727 C121.91040802,12.190771103 121.91040802,12.190907478 121.91040802,12.191043854 L121.91040802,12.191043854 L121.910400391,12.191040039 L121.910400391,12.191040039 L121.910400391,92.777755737 L121.910400391,92.777755737 L121.91040802,92.777763367 L121.91040802,92.777763367 C121.910461426,96.009735107 120.625236511,99.112663269 118.339927673,101.398048401 L118.339927673,101.398048401 C116.054611206,103.683441162 112.951728821,104.96875 109.71975708,104.968803406 L109.71975708,104.968803406 C109.71962738,104.968803406 109.719497681,104.968803406 109.71937561,104.968803406 L109.71937561,104.968803406 L109.719360352,104.968803406 L109.719360352,104.968803406 L109.719360352,104.968803406 L109.719360352,104.968803406 L12.191040039,104.968803406 L12.191040039,104.968803406 L12.191040039,104.968803406 L12.191040039,104.968803406 L12.191038132,104.968803406 L12.191038132,104.968803406 C8.959064484,104.968856812 5.856137753,103.683631897 3.57075119,101.398323059 L3.57075119,101.398323059 C1.285364389,99.113006592 0.000049889,96.010124207 -0.000001073,92.778152466 L-0.000001073,92.778152466 C-0.000001073,92.778015137 -0.000000536,92.777885437 -0.000001073,92.777755737 L-0.000001073,92.777755737 L0,92.777755737 L0,92.777755737 L0,12.191040039 L0,12.191040039 L0,12.191040039 L0,12.191040039 C-0.000053108,8.959068298 1.285160542,5.856142998 3.570472479,3.570756197 L3.570472479,3.570756197 C5.855783463,1.285369873 8.958666801,0.000053108 12.190638542,0 L12.190638542,0 C12.19077301,0.000000536 12.190906525,0 12.191040039,0 L12.191040039,0 L12.191040039,0 L12.191040039,0 L12.191040039,0 Z" stroke="#000000" stroke-width="0.75" stroke-linecap="round" fill="#FFFFFF" fill-rule="evenodd"/>
     <g transform="matrix(1,0,0,1,0,0)">
      <text x="16.9635" y="-12" class="TextStyle0" fill="#000000" opacity="1" transform="matrix(1,0,0,-1,0,55.4844)">Boopathi et al. (2024)</text>
      <text x="11.08459" y="0" class="TextStyle0" fill="#000000" opacity="1" transform="matrix(1,0,0,-1,0,55.4844)">"Advancements in Fraud</text>
      <text x="7.9107647" y="11.999999" class="TextStyle0" fill="#000000" opacity="1" transform="matrix(1,0,0,-1,0,55.4844)">Detection and Explainable</text>
      <text x="54.797974" y="24" class="TextStyle0" fill="#000000" opacity="1" transform="matrix(1,0,0,-1,0,55.4844)">AI"</text>
     </g>
    </g>
    <g transform="matrix(1,0,0,1,406.7352,1003.1493)" v:mID="198">
     <title>Rounded Rectangle.134</title>
     <userDefs>
      <ud nameU="CTypeTopLeftSnip" val="0"/>
      <ud nameU="CTypeTopRightSnip" val="0"/>
      <ud nameU="CTypeBotLeftSnip" val="0"/>
      <ud nameU="CTypeBotRightSnip" val="0"/>
      <ud nameU="CornerLockHoriz" val="1"/>
      <ud nameU="CornerLockVert" val="1"/>
      <ud nameU="CornerLockDiag" val="0"/>
      <ud nameU="TopLeftOffset" val="0.16932"/>
      <ud nameU="TopRightOffset" val="0.16932"/>
      <ud nameU="BotLeftOffset" val="0.16932"/>
      <ud nameU="BotRightOffset" val="0.16932"/>
      <ud nameU="visVersion" val="15"/>
     </userDefs>
     <path d="M12.191040039,0 L109.719360352,0 L109.719360352,0 L109.719360352,0 L109.719360352,0 L109.719360352,0 L109.719360352,0 C112.951332092,-0.000053644 116.054260254,1.285159588 118.339645386,3.570470095 L118.339645386,3.570470095 C120.625030518,5.855780602 121.910346985,8.95866394 121.91040802,12.190634727 L121.91040802,12.190634727 C121.91040802,12.190771103 121.91040802,12.190907478 121.91040802,12.191043854 L121.91040802,12.191043854 L121.910400391,12.191040039 L121.910400391,12.191040039 L121.910400391,92.777755737 L121.910400391,92.777755737 L121.91040802,92.777763367 L121.91040802,92.777763367 C121.910461426,96.009735107 120.625236511,99.112663269 118.339927673,101.398048401 L118.339927673,101.398048401 C116.054611206,103.683441162 112.951728821,104.96875 109.71975708,104.968803406 L109.71975708,104.968803406 C109.71962738,104.968803406 109.719497681,104.968803406 109.71937561,104.968803406 L109.71937561,104.968803406 L109.719360352,104.968803406 L109.719360352,104.968803406 L109.719360352,104.968803406 L109.719360352,104.968803406 L12.191040039,104.968803406 L12.191040039,104.968803406 L12.191040039,104.968803406 L12.191040039,104.968803406 L12.191038132,104.968803406 L12.191038132,104.968803406 C8.959064484,104.968856812 5.856137753,103.683631897 3.57075119,101.398323059 L3.57075119,101.398323059 C1.285364389,99.113006592 0.000049889,96.010124207 -0.000001073,92.778152466 L-0.000001073,92.778152466 C-0.000001073,92.778015137 -0.000000536,92.777885437 -0.000001073,92.777755737 L-0.000001073,92.777755737 L0,92.777755737 L0,92.777755737 L0,12.191040039 L0,12.191040039 L0,12.191040039 L0,12.191040039 C-0.000053108,8.959068298 1.285160542,5.856142998 3.570472479,3.570756197 L3.570472479,3.570756197 C5.855783463,1.285369873 8.958666801,0.000053108 12.190638542,0 L12.190638542,0 C12.19077301,0.000000536 12.190906525,0 12.191040039,0 L12.191040039,0 L12.191040039,0 L12.191040039,0 L12.191040039,0 Z" stroke="#000000" stroke-width="0.75" stroke-linecap="round" fill="#FFFFFF" fill-rule="evenodd"/>
     <g transform="matrix(1,0,0,1,0,0)">
      <text x="24.151" y="-6" class="TextStyle0" fill="#000000" opacity="1" transform="matrix(1,0,0,-1,0,55.4844)">Sager et al. (2025)</text>
      <text x="4.7589073" y="6" class="TextStyle0" fill="#000000" opacity="1" transform="matrix(1,0,0,-1,0,55.4844)">"Economics Arena for Large</text>
      <text x="23.350216" y="18" class="TextStyle0" fill="#000000" opacity="1" transform="matrix(1,0,0,-1,0,55.4844)">Language Models"</text>
     </g>
    </g>
    <g transform="matrix(1,0,0,1,406.7352,857.68774)" v:mID="199">
     <title>Rounded Rectangle.135</title>
     <userDefs>
      <ud nameU="CTypeTopLeftSnip" val="0"/>
      <ud nameU="CTypeTopRightSnip" val="0"/>
      <ud nameU="CTypeBotLeftSnip" val="0"/>
      <ud nameU="CTypeBotRightSnip" val="0"/>
      <ud nameU="CornerLockHoriz" val="1"/>
      <ud nameU="CornerLockVert" val="1"/>
      <ud nameU="CornerLockDiag" val="0"/>
      <ud nameU="TopLeftOffset" val="0.16932"/>
      <ud nameU="TopRightOffset" val="0.16932"/>
      <ud nameU="BotLeftOffset" val="0.16932"/>
      <ud nameU="BotRightOffset" val="0.16932"/>
      <ud nameU="visVersion" val="15"/>
     </userDefs>
     <path d="M12.191040039,0 L109.719360352,0 L109.719360352,0 L109.719360352,0 L109.719360352,0 L109.719360352,0 L109.719360352,0 C112.951332092,-0.000053644 116.054260254,1.285159588 118.339645386,3.570470095 L118.339645386,3.570470095 C120.625030518,5.855780602 121.910346985,8.95866394 121.91040802,12.190634727 L121.91040802,12.190634727 C121.91040802,12.190771103 121.91040802,12.190907478 121.91040802,12.191043854 L121.91040802,12.191043854 L121.910400391,12.191040039 L121.910400391,12.191040039 L121.910400391,92.777755737 L121.910400391,92.777755737 L121.91040802,92.777763367 L121.91040802,92.777763367 C121.910461426,96.009735107 120.625236511,99.112663269 118.339927673,101.398048401 L118.339927673,101.398048401 C116.054611206,103.683441162 112.951728821,104.96875 109.71975708,104.968803406 L109.71975708,104.968803406 C109.71962738,104.968803406 109.719497681,104.968803406 109.71937561,104.968803406 L109.71937561,104.968803406 L109.719360352,104.968803406 L109.719360352,104.968803406 L109.719360352,104.968803406 L109.719360352,104.968803406 L12.191040039,104.968803406 L12.191040039,104.968803406 L12.191040039,104.968803406 L12.191040039,104.968803406 L12.191038132,104.968803406 L12.191038132,104.968803406 C8.959064484,104.968856812 5.856137753,103.683631897 3.57075119,101.398323059 L3.57075119,101.398323059 C1.285364389,99.113006592 0.000049889,96.010124207 -0.000001073,92.778152466 L-0.000001073,92.778152466 C-0.000001073,92.778015137 -0.000000536,92.777885437 -0.000001073,92.777755737 L-0.000001073,92.777755737 L0,92.777755737 L0,92.777755737 L0,12.191040039 L0,12.191040039 L0,12.191040039 L0,12.191040039 C-0.000053108,8.959068298 1.285160542,5.856142998 3.570472479,3.570756197 L3.570472479,3.570756197 C5.855783463,1.285369873 8.958666801,0.000053108 12.190638542,0 L12.190638542,0 C12.19077301,0.000000536 12.190906525,0 12.191040039,0 L12.191040039,0 L12.191040039,0 L12.191040039,0 L12.191040039,0 Z" stroke="#000000" stroke-width="0.75" stroke-linecap="round" fill="#FFFFFF" fill-rule="evenodd"/>
     <g transform="matrix(1,0,0,1,0,0)">
      <text x="18.948364" y="-12" class="TextStyle0" fill="#000000" opacity="1" transform="matrix(1,0,0,-1,0,55.4844)">Saharan et al. (2025)</text>
      <text x="21.582642" y="0" class="TextStyle0" fill="#000000" opacity="1" transform="matrix(1,0,0,-1,0,55.4844)">"Dynamic Pricing in</text>
      <text x="8.870235" y="11.999999" class="TextStyle0" fill="#000000" opacity="1" transform="matrix(1,0,0,-1,0,55.4844)">Intelligent Transportation</text>
      <text x="21.160278" y="24" class="TextStyle0" fill="#000000" opacity="1" transform="matrix(1,0,0,-1,0,55.4844)">Systems: A Review"</text>
     </g>
    </g>
    <g transform="matrix(1,0,0,1,406.7352,712.2405)" v:mID="200">
     <title>Rounded Rectangle.137</title>
     <userDefs>
      <ud nameU="CTypeTopLeftSnip" val="0"/>
      <ud nameU="CTypeTopRightSnip" val="0"/>
      <ud nameU="CTypeBotLeftSnip" val="0"/>
      <ud nameU="CTypeBotRightSnip" val="0"/>
      <ud nameU="CornerLockHoriz" val="1"/>
      <ud nameU="CornerLockVert" val="1"/>
      <ud nameU="CornerLockDiag" val="0"/>
      <ud nameU="TopLeftOffset" val="0.16932"/>
      <ud nameU="TopRightOffset" val="0.16932"/>
      <ud nameU="BotLeftOffset" val="0.16932"/>
      <ud nameU="BotRightOffset" val="0.16932"/>
      <ud nameU="visVersion" val="15"/>
     </userDefs>
     <path d="M12.191040039,0 L109.719360352,0 L109.719360352,0 L109.719360352,0 L109.719360352,0 L109.719360352,0 L109.719360352,0 C112.951332092,-0.000053644 116.054260254,1.285159588 118.339645386,3.570470095 L118.339645386,3.570470095 C120.625030518,5.855780602 121.910346985,8.95866394 121.91040802,12.190634727 L121.91040802,12.190634727 C121.91040802,12.190771103 121.91040802,12.190907478 121.91040802,12.191043854 L121.91040802,12.191043854 L121.910400391,12.191040039 L121.910400391,12.191040039 L121.910400391,92.777755737 L121.910400391,92.777755737 L121.91040802,92.777763367 L121.91040802,92.777763367 C121.910461426,96.009735107 120.625236511,99.112663269 118.339927673,101.398048401 L118.339927673,101.398048401 C116.054611206,103.683441162 112.951728821,104.96875 109.71975708,104.968803406 L109.71975708,104.968803406 C109.71962738,104.968803406 109.719497681,104.968803406 109.71937561,104.968803406 L109.71937561,104.968803406 L109.719360352,104.968803406 L109.719360352,104.968803406 L109.719360352,104.968803406 L109.719360352,104.968803406 L12.191040039,104.968803406 L12.191040039,104.968803406 L12.191040039,104.968803406 L12.191040039,104.968803406 L12.191038132,104.968803406 L12.191038132,104.968803406 C8.959064484,104.968856812 5.856137753,103.683631897 3.57075119,101.398323059 L3.57075119,101.398323059 C1.285364389,99.113006592 0.000049889,96.010124207 -0.000001073,92.778152466 L-0.000001073,92.778152466 C-0.000001073,92.778015137 -0.000000536,92.777885437 -0.000001073,92.777755737 L-0.000001073,92.777755737 L0,92.777755737 L0,92.777755737 L0,12.191040039 L0,12.191040039 L0,12.191040039 L0,12.191040039 C-0.000053108,8.959068298 1.285160542,5.856142998 3.570472479,3.570756197 L3.570472479,3.570756197 C5.855783463,1.285369873 8.958666801,0.000053108 12.190638542,0 L12.190638542,0 C12.19077301,0.000000536 12.190906525,0 12.191040039,0 L12.191040039,0 L12.191040039,0 L12.191040039,0 L12.191040039,0 Z" stroke="#000000" stroke-width="0.75" stroke-linecap="round" fill="#FFFFFF" fill-rule="evenodd"/>
     <g transform="matrix(1,0,0,1,0,0)">
      <text x="12.1051" y="-6" class="TextStyle0" fill="#000000" opacity="1" transform="matrix(1,0,0,-1,0,55.4844)">Kumari et al. (2021) "AI-</text>
      <text x="9.282832" y="6" class="TextStyle0" fill="#000000" opacity="1" transform="matrix(1,0,0,-1,0,55.4844)">driven Fraud Detection in</text>
      <text x="23.294065" y="18" class="TextStyle0" fill="#000000" opacity="1" transform="matrix(1,0,0,-1,0,55.4844)">Financial Systems"</text>
     </g>
    </g>
    <g transform="matrix(1,0,0,1,324.68762,1294.4469)" v:mID="201">
     <title>Dynamic connector.138</title>
     <path d="M-14.763599396,-43.55280304 L-9.003599167,-40.672801971 L-14.763599396,-37.792800903 Z" stroke="#000000" stroke-width="0.2376378" fill="#000000" fill-rule="evenodd" transform="matrix(-0,-1,1,0,31.669203,-49.6764)"/>
     <path d="M-8.996399879,0 L-8.996399879,-13.5 L-8.996399879,-13.5 L-9.003599167,-13.5 L-9.003599167,-13.5 L-9.003599167,-40.672801971 " stroke="#000000" stroke-width="0.2376378" stroke-linecap="round" fill="none"/>
    </g>
    <g transform="matrix(1,0,0,1,306.68762,1148.8053)" v:mID="202">
     <title>Dynamic connector.139</title>
     <path d="M3.24360013,-43.351200104 L9.003601074,-40.471199036 L3.24360013,-37.591197968 Z" stroke="#000000" stroke-width="0.2376378" fill="#000000" fill-rule="evenodd" transform="matrix(-0,-1,1,0,49.4748,-31.467598)"/>
     <path d="M8.996398926,0 L8.996398926,-13.5 L8.996398926,-13.5 L9.003601074,-13.5 L9.003601074,-13.5 L9.003601074,-40.471199036 " stroke="#000000" stroke-width="0.2376378" stroke-linecap="round" fill="none"/>
    </g>
    <g transform="matrix(1,0,0,1,324.69122,1003.36536)" v:mID="203">
     <title>Dynamic connector.140</title>
     <path d="M-14.760001183,-43.588802338 L-9,-40.70880127 L-14.760001183,-37.828800201 Z" stroke="#000000" stroke-width="0.2376378" fill="#000000" fill-rule="evenodd" transform="matrix(-0,-1,1,0,31.708801,-49.7088)"/>
     <path d="M-8.999999046,0 L-9,-40.70880127 " stroke="#000000" stroke-width="0.2376378" stroke-linecap="round" fill="none"/>
    </g>
    <g transform="matrix(1,0,0,1,324.68762,857.6877)" v:mID="204">
     <title>Dynamic connector.141</title>
     <path d="M-14.763599396,-43.358402252 L-9.003599167,-40.478401184 L-14.763599396,-37.598400116 Z" stroke="#000000" stroke-width="0.2376378" fill="#000000" fill-rule="evenodd" transform="matrix(-0,-1,1,0,31.474802,-49.482002)"/>
     <path d="M-8.996399879,0 L-8.996399879,-13.5 L-8.996399879,-13.5 L-9.003599167,-13.5 L-9.003599167,-13.5 L-9.003599167,-40.478401184 " stroke="#000000" stroke-width="0.2376378" stroke-linecap="round" fill="none"/>
    </g>
    <g transform="matrix(1,0,0,1,306.684,712.2404)" v:mID="205">
     <title>Dynamic connector.142</title>
     <path d="M3.239999533,-43.610401154 L9,-40.730400085 L3.239999533,-37.850399017 Z" stroke="#000000" stroke-width="0.2376378" fill="#000000" fill-rule="evenodd" transform="matrix(-0,-1,1,0,49.7304,-31.7304)"/>
     <path d="M9,0 L9,-40.730400085 " stroke="#000000" stroke-width="0.2376378" stroke-linecap="round" fill="none"/>
    </g>
    <g transform="matrix(1,0,0,1,458.6904,1439.9517)" v:mID="206">
     <title>Dynamic connector.143</title>
     <path d="M3.239999533,-43.4231987 L9,-40.543197632 L3.239999533,-37.663196564 Z" stroke="#000000" stroke-width="0.2376378" fill="#000000" fill-rule="evenodd" transform="matrix(-0,-1,1,0,49.543198,-31.543198)"/>
     <path d="M9,0 L9,-40.543197632 " stroke="#000000" stroke-width="0.2376378" stroke-linecap="round" fill="none"/>
    </g>
    <g transform="matrix(1,0,0,1,476.6904,1294.4397)" v:mID="207">
     <title>Dynamic connector.144</title>
     <path d="M-14.760001183,-43.55280304 L-9,-40.672801971 L-14.760001183,-37.792800903 Z" stroke="#000000" stroke-width="0.2376378" fill="#000000" fill-rule="evenodd" transform="matrix(-0,-1,1,0,31.672802,-49.672802)"/>
     <path d="M-8.999999046,0 L-9,-40.672801971 " stroke="#000000" stroke-width="0.2376378" stroke-linecap="round" fill="none"/>
    </g>
    <g transform="matrix(1,0,0,1,458.6904,1148.7981)" v:mID="208">
     <title>Dynamic connector.145</title>
     <path d="M3.239999533,-43.560001373 L9,-40.680000305 L3.239999533,-37.799999237 Z" stroke="#000000" stroke-width="0.2376378" fill="#000000" fill-rule="evenodd" transform="matrix(-0,-1,1,0,49.68,-31.68)"/>
     <path d="M9,0 L9,-40.680000305 " stroke="#000000" stroke-width="0.2376378" stroke-linecap="round" fill="none"/>
    </g>
    <g transform="matrix(1,0,0,1,458.6904,1003.1493)" v:mID="209">
     <title>Dynamic connector.146</title>
     <path d="M3.239999533,-43.37279892 L9,-40.492797852 L3.239999533,-37.612796783 Z" stroke="#000000" stroke-width="0.2376378" fill="#000000" fill-rule="evenodd" transform="matrix(-0,-1,1,0,49.492798,-31.492798)"/>
     <path d="M8.999999046,0 L9,-40.492797852 " stroke="#000000" stroke-width="0.2376378" stroke-linecap="round" fill="none"/>
    </g>
    <g transform="matrix(1,0,0,1,476.6904,857.6877)" v:mID="210">
     <title>Dynamic connector.147</title>
     <path d="M-14.760001183,-43.358402252 L-9,-40.478401184 L-14.760001183,-37.598400116 Z" stroke="#000000" stroke-width="0.2376378" fill="#000000" fill-rule="evenodd" transform="matrix(-0,-1,1,0,31.478401,-49.4784)"/>
     <path d="M-8.999999046,0 L-9,-40.478401184 " stroke="#000000" stroke-width="0.2376378" stroke-linecap="round" fill="none"/>
    </g>
   </g>
  </g>
 </g>
 <style type="text/css"><![CDATA[ .TextStyle0 {font-family:Calibri;font-size:10px;} ]]></style>
</svg>