<svg xmlns="http://www.w3.org/2000/svg" xmlns:v="http://schemas.microsoft.com/visio/2003/SVGExtensions/" xmlns:xlink="http://www.w3.org/1999/xlink" xml:space="preserve" viewBox="397.6 570.79 1236.07 680.85">
 <v:documentProperties>
  <v:userDefs>
   <v:ud v:nameU="msvNoAutoConnect" v:val="1"/>
   <v:ud v:nameU="msvWarnOnPersonalInfo" v:val="0"/>
  </v:userDefs>
 </v:documentProperties>
 <g id="SFixTitle"/>
 <g id="SContent">
  <g>
   <g transform="matrix(1,0,0,-1,0,1764)">
    <g transform="matrix(1,0,0,1,981.59753,1120.8313)" v:mID="1">
     <title>Rectangle</title>
     <userDefs>
      <ud nameU="visVersion" val="15"/>
     </userDefs>
     <g transform="matrix(1,0,0,1,0,0)" v:mID="1">
      <title>Rectangle</title>
      <userDefs>
       <ud nameU="visVersion" val="15"/>
      </userDefs>
      <path d="M0,0 L108,0 L108,0 L108,72 L108,72 L0,72 L0,72 L0,0 Z" stroke="#000000" stroke-width="0.75" stroke-linecap="round" fill="none" stroke-opacity="0"/>
     </g>
     <path d="M0,0 L108,0 L108,0 L108,72 L108,72 L0,72 L0,72 L0,0 Z" stroke="#000000" stroke-width="0.75" stroke-linecap="round" fill="#FFFFFF" fill-rule="evenodd"/>
     <g transform="matrix(1,0,0,1,0,0)">
      <text x="41.226562" y="6" class="TextStyle0" fill="#000000" opacity="1" transform="matrix(1,0,0,-1,0,39)">Player</text>
     </g>
    </g>
    <g transform="matrix(1,0,0,1,981.59753,974.25354)" v:mID="2">
     <title>Rectangle</title>
     <userDefs>
      <ud nameU="visVersion" val="15"/>
     </userDefs>
     <path d="M0,0 L108,0 L108,0 L108,72 L108,72 L0,72 L0,72 L0,0 Z" stroke="#000000" stroke-width="0.75" stroke-linecap="round" fill="#FFFFFF" fill-rule="evenodd"/>
     <g transform="matrix(1,0,0,1,0,0)">
      <text x="28.589842" y="6" class="TextStyle0" fill="#000000" opacity="1" transform="matrix(1,0,0,-1,0,39)">Game Client</text>
     </g>
    </g>
    <g transform="matrix(1,0,0,1,981.59753,827.69037)" v:mID="3">
     <title>Rectangle.3</title>
     <userDefs>
      <ud nameU="visVersion" val="15"/>
     </userDefs>
     <path d="M0,0 L108,0 L108,0 L108,72 L108,72 L0,72 L0,72 L0,0 Z" stroke="#000000" stroke-width="0.75" stroke-linecap="round" fill="#FFFFFF" fill-rule="evenodd"/>
     <g transform="matrix(1,0,0,1,0,0)">
      <text x="27.762205" y="6" class="TextStyle0" fill="#000000" opacity="1" transform="matrix(1,0,0,-1,0,39)">Game Server</text>
     </g>
    </g>
    <g transform="matrix(1,0,0,1,981.59033,663.12)" v:mID="4">
     <title>Can</title>
     <userDefs>
      <ud nameU="visVersion" val="15"/>
     </userDefs>
     <g transform="matrix(1,0,0,1,0,0)" v:mID="5">
      <title>Can</title>
      <userDefs>
       <ud nameU="ControlHalfHeight" val="0.125"/>
       <ud nameU="FillForegnd" val="#ffffff"/>
      </userDefs>
      <path d="M0,9 C0,4.618935585 19.193725586,0.842696965 45.122455597,0.122454643 L45.122455597,0.122454643 C48.056350708,0.040957332 51.025634766,0 54,0 L54,0 C56.974365234,0 59.943649292,0.040957332 62.877544403,0.122454643 L62.877544403,0.122454643 C88.806274414,0.842696965 108,4.618935585 108,9 L108,9 L108,81 L108,81 L0,81 L0,81 L0,9 Z" stroke="#000000" stroke-width="0.75" stroke-linecap="round" fill="#FFFFFF" fill-rule="evenodd"/>
     </g>
     <ellipse cx="54" cy="81" rx="54" ry="9" stroke="#000000" stroke-width="0.75" stroke-linecap="round" fill="#FFFFFF" fill-rule="evenodd"/>
     <g transform="matrix(1,0,0,1,0,0)">
      <text x="22.488768" y="0" class="TextStyle0" fill="#000000" opacity="1" transform="matrix(1,0,0,-1,0,48)">Game Database</text>
      <text x="5.386716" y="12" class="TextStyle0" fill="#000000" opacity="1" transform="matrix(1,0,0,-1,0,48)">(ASP.NET API &amp; SQL)</text>
     </g>
    </g>
    <g transform="matrix(1,0,0,1,1026.5975,1120.8312)" v:mID="6">
     <title>Dynamic connector</title>
     <path d="M3.239999533,-77.457595825 L9,-74.577598572 L3.239999533,-71.697593689 Z" stroke="#000000" stroke-width="0.2376378" fill="#000000" fill-rule="evenodd" transform="matrix(-0,-1,1,0,83.5776,-65.5776)"/>
     <path d="M9,0 L9,0 L9,0 L9,-37.288799286 L9,-37.288799286 L9,-74.577598572 " stroke="#000000" stroke-width="0.2376378" stroke-linecap="round" fill="none"/>
     <g transform="matrix(1,0,0,1,-23.870575,-46.090588)">
      <path d="M4.099088192,-2.328905821 L61.642059326,-2.328905821 L61.642059326,6.530469418 L4.099088192,6.530469418 Z" stroke="none" stroke-width="0" fill="#FFFFFF" fill-rule="evenodd" transform="matrix(1,0,0,-1,0,11.201781)"/>
      <text x="4.099088" y="4.8" class="TextStyle1" fill="#000000" opacity="1" transform="matrix(1,0,0,-1,0,11.201781)">Login Credentials</text>
     </g>
    </g>
    <g transform="matrix(1,0,0,1,972.5976,1156.8312)" v:mID="11">
     <title>Dynamic connector</title>
     <path d="M3.239999533,-149.457595825 L9,-146.577606201 L3.239999533,-143.697601318 Z" stroke="#000000" stroke-width="0.2376378" fill="#000000" fill-rule="evenodd" transform="matrix(1,0,0,1,0,0)"/>
     <path d="M9,0 L-4.5,0 L-4.5,0 L-4.5,-146.577606201 L-4.5,-146.577606201 L9,-146.577606201 " stroke="#000000" stroke-width="0.2376378" stroke-linecap="round" fill="none"/>
     <g transform="matrix(1,0,0,1,-36.43303,-86.890564)">
      <path d="M4.942792892,-7.12890625 L58.923259735,-7.12890625 L58.923259735,1.730468988 L4.942792892,1.730468988 Z" stroke="none" stroke-width="0" fill="#FFFFFF" fill-rule="evenodd" transform="matrix(1,0,0,-1,0,16.001762)"/>
      <text x="4.942793" y="0" class="TextStyle1" fill="#000000" opacity="1" transform="matrix(1,0,0,-1,0,16.001762)">Wallet Signature</text>
      <path d="M9.046308517,2.471094608 L54.819747925,2.471094608 L54.819747925,11.330469131 L9.046308517,11.330469131 Z" stroke="none" stroke-width="0" fill="#FFFFFF" fill-rule="evenodd" transform="matrix(1,0,0,-1,0,16.001762)"/>
      <text x="9.0463085" y="9.6" class="TextStyle1" fill="#000000" opacity="1" transform="matrix(1,0,0,-1,0,16.001762)"> (For Linking)</text>
     </g>
    </g>
    <g transform="matrix(1,0,0,1,972.5976,1156.8312)" v:mID="13">
     <title>Dynamic connector</title>
     <path d="M3.239999533,-149.457595825 L9,-146.577606201 L3.239999533,-143.697601318 Z" stroke="#000000" stroke-width="0.2376378" fill="#000000" fill-rule="evenodd" transform="matrix(1,0,0,1,0,0)"/>
     <path d="M9,0 L-71.293571472,0 L-71.293571472,0 L-71.293571472,-146.577606201 L-71.293571472,-146.577606201 L9,-146.577606201 " stroke="#000000" stroke-width="0.2376378" stroke-linecap="round" fill="none"/>
     <g transform="matrix(1,0,0,1,-112.955414,-84.43174)">
      <path d="M14.00385952,-7.12890625 L62.206985474,-7.12890625 L62.206985474,1.730468988 L14.00385952,1.730468988 Z" stroke="none" stroke-width="0" fill="#FFFFFF" fill-rule="evenodd" transform="matrix(1,0,0,-1,0,16.001762)"/>
      <text x="14.0038595" y="0" class="TextStyle1" fill="#000000" opacity="1" transform="matrix(1,0,0,-1,0,16.001762)">UI Interactions</text>
      <path d="M4.564406395,2.471094608 L71.646438599,2.471094608 L71.646438599,11.330469131 L4.564406395,11.330469131 Z" stroke="none" stroke-width="0" fill="#FFFFFF" fill-rule="evenodd" transform="matrix(1,0,0,-1,0,16.001762)"/>
      <text x="4.5644064" y="9.6" class="TextStyle1" fill="#000000" opacity="1" transform="matrix(1,0,0,-1,0,16.001762)">(Craft, Trade, Menu)</text>
     </g>
    </g>
    <g transform="matrix(1,0,0,1,1080.5975,1010.25354)" v:mID="17">
     <title>Dynamic connector</title>
     <path d="M3.239999533,143.697601318 L9,146.577606201 L3.239999533,149.457595825 Z" stroke="#000000" stroke-width="0.2376378" fill="#000000" fill-rule="evenodd" transform="matrix(-1,0,0,-1,18,293.1552)"/>
     <path d="M9,0 L22.5,0 L22.5,0 L22.5,146.577606201 L22.5,146.577606201 L9,146.577606201 " stroke="#000000" stroke-width="0.2376378" stroke-linecap="round" fill="none"/>
     <g transform="matrix(1,0,0,1,-11.136459,59.687042)">
      <path d="M6.091536045,-11.928905487 L63.181381226,-11.928905487 L63.181381226,-3.069530725 L6.091536045,-3.069530725 Z" stroke="none" stroke-width="0" fill="#FFFFFF" fill-rule="evenodd" transform="matrix(1,0,0,-1,0,16.001762)"/>
      <text x="6.091536" y="-4.8" class="TextStyle1" fill="#000000" opacity="1" transform="matrix(1,0,0,-1,0,16.001762)">Rendered World,</text>
      <path d="M15.195052147,-2.328905821 L54.077865601,-2.328905821 L54.077865601,6.530469418 L15.195052147,6.530469418 Z" stroke="none" stroke-width="0" fill="#FFFFFF" fill-rule="evenodd" transform="matrix(1,0,0,-1,0,16.001762)"/>
      <text x="15.195052" y="4.8" class="TextStyle1" fill="#000000" opacity="1" transform="matrix(1,0,0,-1,0,16.001762)">Entities, UI</text>
      <path d="M22.306379318,7.271095276 L44.966533661,7.271095276 L44.966533661,16.130470276 L22.306379318,16.130470276 Z" stroke="none" stroke-width="0" fill="#FFFFFF" fill-rule="evenodd" transform="matrix(1,0,0,-1,0,16.001762)"/>
      <text x="22.30638" y="14.400002" class="TextStyle1" fill="#000000" opacity="1" transform="matrix(1,0,0,-1,0,16.001762)">(HUD)</text>
     </g>
    </g>
    <g transform="matrix(1,0,0,1,1080.5975,1010.25354)" v:mID="18">
     <title>Dynamic connector</title>
     <path d="M3.239999533,143.697601318 L9,146.577606201 L3.239999533,149.457595825 Z" stroke="#000000" stroke-width="0.2376378" fill="#000000" fill-rule="evenodd" transform="matrix(-1,0,0,-1,18,293.1552)"/>
     <path d="M9,0 L91.184570313,0 L91.184570313,0 L91.184570313,146.577606201 L91.184570313,146.577606201 L9,146.577606201 " stroke="#000000" stroke-width="0.2376378" stroke-linecap="round" fill="none"/>
     <g transform="matrix(1,0,0,1,58.534546,64.48702)">
      <path d="M11.204710007,-7.12890625 L56.095336914,-7.12890625 L56.095336914,1.730468988 L11.204710007,1.730468988 Z" stroke="none" stroke-width="0" fill="#FFFFFF" fill-rule="evenodd" transform="matrix(1,0,0,-1,0,11.201781)"/>
      <text x="11.20471" y="0" class="TextStyle1" fill="#000000" opacity="1" transform="matrix(1,0,0,-1,0,11.201781)">Audio(BGM,</text>
      <path d="M23.980100632,2.471094608 L41.319946289,2.471094608 L41.319946289,11.330469131 L23.980100632,11.330469131 Z" stroke="none" stroke-width="0" fill="#FFFFFF" fill-rule="evenodd" transform="matrix(1,0,0,-1,0,11.201781)"/>
      <text x="23.9801" y="9.6" class="TextStyle1" fill="#000000" opacity="1" transform="matrix(1,0,0,-1,0,11.201781)">SFX)</text>
     </g>
    </g>
    <g transform="matrix(1,0,0,1,1080.5975,1010.25354)" v:mID="19">
     <title>Dynamic connector</title>
     <path d="M3.239999533,143.697601318 L9,146.577606201 L3.239999533,149.457595825 Z" stroke="#000000" stroke-width="0.2376378" fill="#000000" fill-rule="evenodd" transform="matrix(-1,0,0,-1,18,293.1552)"/>
     <path d="M9,0 L157.125137329,0 L157.125137329,0 L157.125137329,146.577606201 L157.125137329,146.577606201 L9,146.577606201 " stroke="#000000" stroke-width="0.2376378" stroke-linecap="round" fill="none"/>
     <g transform="matrix(1,0,0,1,121.39702,59.687042)">
      <path d="M6.735929012,-11.928905487 L66.720298767,-11.928905487 L66.720298767,-3.069530725 L6.735929012,-3.069530725 Z" stroke="none" stroke-width="0" fill="#FFFFFF" fill-rule="evenodd" transform="matrix(1,0,0,-1,0,16.001762)"/>
      <text x="6.735929" y="-4.8" class="TextStyle1" fill="#000000" opacity="1" transform="matrix(1,0,0,-1,0,16.001762)">Combat Feedback</text>
      <path d="M10.519133568,-2.328905821 L62.937103271,-2.328905821 L62.937103271,6.530469418 L10.519133568,6.530469418 Z" stroke="none" stroke-width="0" fill="#FFFFFF" fill-rule="evenodd" transform="matrix(1,0,0,-1,0,16.001762)"/>
      <text x="10.519134" y="4.8" class="TextStyle1" fill="#000000" opacity="1" transform="matrix(1,0,0,-1,0,16.001762)">(Damage, Heal,</text>
      <path d="M29.282804489,7.271095276 L42.173427582,7.271095276 L42.173427582,16.130470276 L29.282804489,16.130470276 Z" stroke="none" stroke-width="0" fill="#FFFFFF" fill-rule="evenodd" transform="matrix(1,0,0,-1,0,16.001762)"/>
      <text x="29.282804" y="14.400002" class="TextStyle1" fill="#000000" opacity="1" transform="matrix(1,0,0,-1,0,16.001762)">FX)</text>
     </g>
    </g>
    <g transform="matrix(1,0,0,1,1080.5975,1010.25354)" v:mID="20">
     <title>Dynamic connector</title>
     <path d="M3.239999533,143.697601318 L9,146.577606201 L3.239999533,149.457595825 Z" stroke="#000000" stroke-width="0.2376378" fill="#000000" fill-rule="evenodd" transform="matrix(-1,0,0,-1,18,293.1552)"/>
     <path d="M9,0 L235.671478271,0 L235.671478271,0 L235.671478271,146.577606201 L235.671478271,146.577606201 L9,146.577606201 " stroke="#000000" stroke-width="0.2376378" stroke-linecap="round" fill="none"/>
     <g transform="matrix(1,0,0,1,192.48232,59.148262)">
      <path d="M19.866912842,-11.928905487 L66.968475342,-11.928905487 L66.968475342,-3.069530725 L19.866912842,-3.069530725 Z" stroke="none" stroke-width="0" fill="#FFFFFF" fill-rule="evenodd" transform="matrix(1,0,0,-1,0,16.001762)"/>
      <text x="19.866913" y="-4.8" class="TextStyle1" fill="#000000" opacity="1" transform="matrix(1,0,0,-1,0,16.001762)">Tokenomy UI</text>
      <path d="M12.753630638,-2.328905821 L74.081756592,-2.328905821 L74.081756592,6.530469418 L12.753630638,6.530469418 Z" stroke="none" stroke-width="0" fill="#FFFFFF" fill-rule="evenodd" transform="matrix(1,0,0,-1,0,16.001762)"/>
      <text x="12.753631" y="4.8" class="TextStyle1" fill="#000000" opacity="1" transform="matrix(1,0,0,-1,0,16.001762)">(Baku Forge,NFT </text>
      <path d="M33.306365967,7.271095276 L51.529022217,7.271095276 L51.529022217,16.130470276 L33.306365967,16.130470276 Z" stroke="none" stroke-width="0" fill="#FFFFFF" fill-rule="evenodd" transform="matrix(1,0,0,-1,0,16.001762)"/>
      <text x="33.306366" y="14.400002" class="TextStyle1" fill="#000000" opacity="1" transform="matrix(1,0,0,-1,0,16.001762)">Mint)</text>
     </g>
    </g>
    <g transform="matrix(1,0,0,1,1080.7476,880.49786)" v:mID="22">
     <title>Dynamic connector</title>
     <path d="M3.239999533,103.018173218 L9,105.898170471 L3.239999533,108.778167725 Z" stroke="#000000" stroke-width="0.2376378" fill="#000000" fill-rule="evenodd" transform="matrix(-1,0,0,-1,18,211.79634)"/>
     <path d="M9,0 L40.754871368,0 L40.754871368,0 L40.754871368,105.898170471 L40.754871368,105.898170471 L9,105.898170471 " stroke="#000000" stroke-width="0.2376378" stroke-linecap="round" fill="none"/>
     <g transform="matrix(1,0,0,1,8.847992,39.64823)">
      <path d="M4.847319126,-7.12890625 L61.956695557,-7.12890625 L61.956695557,1.730468988 L4.847319126,1.730468988 Z" stroke="none" stroke-width="0" fill="#FFFFFF" fill-rule="evenodd" transform="matrix(1,0,0,-1,0,16.001762)"/>
      <text x="4.847319" y="0" class="TextStyle1" fill="#000000" opacity="1" transform="matrix(1,0,0,-1,0,16.001762)">Session Token &amp;</text>
      <path d="M9.634428978,2.471094608 L55.169586182,2.471094608 L55.169586182,11.330469131 L9.634428978,11.330469131 Z" stroke="none" stroke-width="0" fill="#FFFFFF" fill-rule="evenodd" transform="matrix(1,0,0,-1,0,16.001762)"/>
      <text x="9.634429" y="9.6" class="TextStyle1" fill="#000000" opacity="1" transform="matrix(1,0,0,-1,0,16.001762)">Character List</text>
     </g>
    </g>
    <g transform="matrix(1,0,0,1,1080.7476,880.49786)" v:mID="23">
     <title>Dynamic connector</title>
     <path d="M3.239999533,103.018173218 L9,105.898170471 L3.239999533,108.778167725 Z" stroke="#000000" stroke-width="0.2376378" fill="#000000" fill-rule="evenodd" transform="matrix(-1,0,0,-1,18,211.79634)"/>
     <path d="M9,0 L119.883560181,0 L119.883560181,0 L119.883560181,105.898170471 L119.883560181,105.898170471 L9,105.898170471 " stroke="#000000" stroke-width="0.2376378" stroke-linecap="round" fill="none"/>
     <g transform="matrix(1,0,0,1,72.46716,39.64823)">
      <path d="M7.460569859,-11.928905487 L86.10509491,-11.928905487 L86.10509491,-3.069530725 L7.460569859,-3.069530725 Z" stroke="none" stroke-width="0" fill="#FFFFFF" fill-rule="evenodd" transform="matrix(1,0,0,-1,0,16.001762)"/>
      <text x="7.46057" y="-4.8" class="TextStyle1" fill="#000000" opacity="1" transform="matrix(1,0,0,-1,0,16.001762)">Authorative World State</text>
      <path d="M11.230101585,-2.328905821 L84.335571289,-2.328905821 L84.335571289,6.530469418 L11.230101585,6.530469418 Z" stroke="none" stroke-width="0" fill="#FFFFFF" fill-rule="evenodd" transform="matrix(1,0,0,-1,0,16.001762)"/>
      <text x="11.230102" y="4.8" class="TextStyle1" fill="#000000" opacity="1" transform="matrix(1,0,0,-1,0,16.001762)">(Entities, NPC, Player</text>
      <path d="M39.669555664,7.271095276 L53.896114349,7.271095276 L53.896114349,16.130470276 L39.669555664,16.130470276 Z" stroke="none" stroke-width="0" fill="#FFFFFF" fill-rule="evenodd" transform="matrix(1,0,0,-1,0,16.001762)"/>
      <text x="39.669556" y="14.400002" class="TextStyle1" fill="#000000" opacity="1" transform="matrix(1,0,0,-1,0,16.001762)">Pos)</text>
     </g>
    </g>
    <g transform="matrix(1,0,0,1,1080.7476,880.49786)" v:mID="24">
     <title>Dynamic connector</title>
     <path d="M3.239999533,102.923599243 L9,105.803588867 L3.239999533,108.68359375 Z" stroke="#000000" stroke-width="0.2376378" fill="#000000" fill-rule="evenodd" transform="matrix(-1,0,0,-1,18,211.60718)"/>
     <path d="M9,0 L212.200393677,0 L212.200393677,0 L212.200393677,105.803588867 L212.200393677,105.803588867 L9,105.803588867 " stroke="#000000" stroke-width="0.2376378" stroke-linecap="round" fill="none"/>
     <g transform="matrix(1,0,0,1,173.6117,40.40574)">
      <path d="M12.892210007,-11.928905487 L64.884399414,-11.928905487 L64.884399414,-3.069530725 L12.892210007,-3.069530725 Z" stroke="none" stroke-width="0" fill="#FFFFFF" fill-rule="evenodd" transform="matrix(1,0,0,-1,0,16.001762)"/>
      <text x="12.89221" y="-4.8" class="TextStyle1" fill="#000000" opacity="1" transform="matrix(1,0,0,-1,0,16.001762)">Player Runtime</text>
      <path d="M14.663695335,-2.328905821 L63.112915039,-2.328905821 L63.112915039,6.530469418 L14.663695335,6.530469418 Z" stroke="none" stroke-width="0" fill="#FFFFFF" fill-rule="evenodd" transform="matrix(1,0,0,-1,0,16.001762)"/>
      <text x="14.663695" y="4.8" class="TextStyle1" fill="#000000" opacity="1" transform="matrix(1,0,0,-1,0,16.001762)">State(HP, MP,</text>
      <path d="M27.667598724,7.271095276 L48.109004974,7.271095276 L48.109004974,16.130470276 L27.667598724,16.130470276 Z" stroke="none" stroke-width="0" fill="#FFFFFF" fill-rule="evenodd" transform="matrix(1,0,0,-1,0,16.001762)"/>
      <text x="27.667599" y="14.400002" class="TextStyle1" fill="#000000" opacity="1" transform="matrix(1,0,0,-1,0,16.001762)">Buffs)</text>
     </g>
    </g>
    <g transform="matrix(1,0,0,1,1080.7476,880.4979)" v:mID="25">
     <title>Dynamic connector</title>
     <path d="M3.239999533,103.49319458 L9,106.373191833 L3.239999533,109.253189087 Z" stroke="#000000" stroke-width="0.2376378" fill="#000000" fill-rule="evenodd" transform="matrix(-1,0,0,-1,18,212.74638)"/>
     <path d="M9,0 L303.692962646,0 L303.692962646,0 L303.692962646,106.373191833 L303.692962646,106.373191833 L9,106.373191833 " stroke="#000000" stroke-width="0.2376378" stroke-linecap="round" fill="none"/>
     <g transform="matrix(1,0,0,1,255.47522,38.15573)">
      <path d="M4.694701672,-7.12890625 L87.354850769,-7.12890625 L87.354850769,1.730468988 L4.694701672,1.730468988 Z" stroke="none" stroke-width="0" fill="#FFFFFF" fill-rule="evenodd" transform="matrix(1,0,0,-1,0,16.001762)"/>
      <text x="4.6947017" y="0" class="TextStyle1" fill="#000000" opacity="1" transform="matrix(1,0,0,-1,0,16.001762)">Combat Event Resolution</text>
      <path d="M18.255247116,2.471094608 L73.794311523,2.471094608 L73.794311523,11.330469131 L18.255247116,11.330469131 Z" stroke="none" stroke-width="0" fill="#FFFFFF" fill-rule="evenodd" transform="matrix(1,0,0,-1,0,16.001762)"/>
      <text x="18.255247" y="9.6" class="TextStyle1" fill="#000000" opacity="1" transform="matrix(1,0,0,-1,0,16.001762)">(Damage, Status)</text>
     </g>
    </g>
    <g transform="matrix(1,0,0,1,1080.7476,880.4979)" v:mID="26">
     <title>Dynamic connector</title>
     <path d="M3.239999533,102.959350586 L9,105.839347839 L3.239999533,108.719345093 Z" stroke="#000000" stroke-width="0.2376378" fill="#000000" fill-rule="evenodd" transform="matrix(-1,0,0,-1,18,211.6787)"/>
     <path d="M9,0 L395.185577393,0 L395.185577393,0 L395.185577393,105.839347839 L395.185577393,105.839347839 L9,105.839347839 " stroke="#000000" stroke-width="0.2376378" stroke-linecap="round" fill="none"/>
     <g transform="matrix(1,0,0,1,351.82483,39.31791)">
      <path d="M5.593151569,-7.12890625 L83.128303528,-7.12890625 L83.128303528,1.730468988 L5.593151569,1.730468988 Z" stroke="none" stroke-width="0" fill="#FFFFFF" fill-rule="evenodd" transform="matrix(1,0,0,-1,0,16.001762)"/>
      <text x="5.5931516" y="0" class="TextStyle1" fill="#000000" opacity="1" transform="matrix(1,0,0,-1,0,16.001762)">Gameplay System Data</text>
      <path d="M11.366591454,2.471094608 L75.354873657,2.471094608 L75.354873657,11.330469131 L11.366591454,11.330469131 Z" stroke="none" stroke-width="0" fill="#FFFFFF" fill-rule="evenodd" transform="matrix(1,0,0,-1,0,16.001762)"/>
      <text x="11.366591" y="9.6" class="TextStyle1" fill="#000000" opacity="1" transform="matrix(1,0,0,-1,0,16.001762)">(Quest, Loot, Party)</text>
     </g>
    </g>
    <g transform="matrix(1,0,0,1,1080.7476,880.4979)" v:mID="27">
     <title>Dynamic connector</title>
     <path d="M3.239999533,103.125061035 L9,106.005050659 L3.239999533,108.885055542 Z" stroke="#000000" stroke-width="0.2376378" fill="#000000" fill-rule="evenodd" transform="matrix(-1,0,0,-1,18,212.0101)"/>
     <path d="M9,0 L496.200195313,0 L496.200195313,0 L496.200195313,106.005050659 L496.200195313,106.005050659 L9,106.005050659 " stroke="#000000" stroke-width="0.2376378" stroke-linecap="round" fill="none"/>
     <g transform="matrix(1,0,0,1,462.76492,39.400764)">
      <path d="M5.005582333,-7.12890625 L63.864955902,-7.12890625 L63.864955902,1.730468988 L5.005582333,1.730468988 Z" stroke="none" stroke-width="0" fill="#FFFFFF" fill-rule="evenodd" transform="matrix(1,0,0,-1,0,16.001762)"/>
      <text x="5.0055823" y="0" class="TextStyle1" fill="#000000" opacity="1" transform="matrix(1,0,0,-1,0,16.001762)">Trade &amp; Talipapa</text>
      <path d="M9.329801559,2.471094608 L57.540740967,2.471094608 L57.540740967,11.330469131 L9.329801559,11.330469131 Z" stroke="none" stroke-width="0" fill="#FFFFFF" fill-rule="evenodd" transform="matrix(1,0,0,-1,0,16.001762)"/>
      <text x="9.329802" y="9.6" class="TextStyle1" fill="#000000" opacity="1" transform="matrix(1,0,0,-1,0,16.001762)">Data (Listings)</text>
     </g>
    </g>
    <g transform="matrix(1,0,0,1,972.7476,987.75354)" v:mID="28">
     <title>Dynamic connector</title>
     <path d="M3.239999533,-106.271530151 L9,-103.391532898 L3.239999533,-100.511535645 Z" stroke="#000000" stroke-width="0.2376378" fill="#000000" fill-rule="evenodd" transform="matrix(1,0,0,1,0,0)"/>
     <path d="M9,0 L-29.969535828,0 L-29.969535828,0 L-29.969535828,-103.391532898 L-29.969535828,-103.391532898 L9,-103.391532898 " stroke="#000000" stroke-width="0.2376378" stroke-linecap="round" fill="none"/>
     <g transform="matrix(1,0,0,1,-55.82081,-65.29753)">
      <path d="M10.405958176,-11.928905487 L43.296581268,-11.928905487 L43.296581268,-3.069530725 L10.405958176,-3.069530725 Z" stroke="none" stroke-width="0" fill="#FFFFFF" fill-rule="evenodd" transform="matrix(1,0,0,-1,0,16.001762)"/>
      <text x="10.405958" y="-4.8" class="TextStyle1" fill="#000000" opacity="1" transform="matrix(1,0,0,-1,0,16.001762)">BAKU &amp;</text>
      <path d="M18.294631958,-2.328905821 L35.407913208,-2.328905821 L35.407913208,6.530469418 L18.294631958,6.530469418 Z" stroke="none" stroke-width="0" fill="#FFFFFF" fill-rule="evenodd" transform="matrix(1,0,0,-1,0,16.001762)"/>
      <text x="18.294632" y="4.8" class="TextStyle1" fill="#000000" opacity="1" transform="matrix(1,0,0,-1,0,16.001762)">NFT</text>
      <path d="M5.966506481,7.271095276 L45.736038208,7.271095276 L45.736038208,16.130470276 L5.966506481,16.130470276 Z" stroke="none" stroke-width="0" fill="#FFFFFF" fill-rule="evenodd" transform="matrix(1,0,0,-1,0,16.001762)"/>
      <text x="5.9665065" y="14.400002" class="TextStyle1" fill="#000000" opacity="1" transform="matrix(1,0,0,-1,0,16.001762)">mint request</text>
     </g>
    </g>
    <g transform="matrix(1,0,0,1,972.7476,987.75366)" v:mID="29">
     <title>Dynamic connector</title>
     <path d="M3.239999533,-106.149101257 L9,-103.269104004 L3.239999533,-100.38910675 Z" stroke="#000000" stroke-width="0.2376378" fill="#000000" fill-rule="evenodd" transform="matrix(1,0,0,1,0,0)"/>
     <path d="M9,0 L-91.251266479,0 L-91.251266479,0 L-91.251266479,-103.269104004 L-91.251266479,-103.269104004 L9,-103.269104004 " stroke="#000000" stroke-width="0.2376378" stroke-linecap="round" fill="none"/>
     <g transform="matrix(1,0,0,1,-124.62584,-65.23631)">
      <path d="M4.94488287,-7.12890625 L61.804260254,-7.12890625 L61.804260254,1.730468988 L4.94488287,1.730468988 Z" stroke="none" stroke-width="0" fill="#FFFFFF" fill-rule="evenodd" transform="matrix(1,0,0,-1,0,16.001762)"/>
      <text x="4.944883" y="0" class="TextStyle1" fill="#000000" opacity="1" transform="matrix(1,0,0,-1,0,16.001762)">Trade &amp; Talipapa</text>
      <path d="M5.2730093,2.471094608 L61.476131439,2.471094608 L61.476131439,11.330469131 L5.2730093,11.330469131 Z" stroke="none" stroke-width="0" fill="#FFFFFF" fill-rule="evenodd" transform="matrix(1,0,0,-1,0,16.001762)"/>
      <text x="5.2730093" y="9.6" class="TextStyle1" fill="#000000" opacity="1" transform="matrix(1,0,0,-1,0,16.001762)">(Market) Request</text>
     </g>
    </g>
    <g transform="matrix(1,0,0,1,972.7476,987.75366)" v:mID="30">
     <title>Dynamic connector</title>
     <path d="M3.239999533,-106.149101257 L9,-103.269104004 L3.239999533,-100.38910675 Z" stroke="#000000" stroke-width="0.2376378" fill="#000000" fill-rule="evenodd" transform="matrix(1,0,0,1,0,0)"/>
     <path d="M9,0 L-161.53074646,0 L-161.53074646,0 L-161.53074646,-103.269104004 L-161.53074646,-103.269104004 L9,-103.269104004 " stroke="#000000" stroke-width="0.2376378" stroke-linecap="round" fill="none"/>
     <g transform="matrix(1,0,0,1,-194.46367,-65.23631)">
      <path d="M5.718078136,-7.12890625 L62.147766113,-7.12890625 L62.147766113,1.730468988 L5.718078136,1.730468988 Z" stroke="none" stroke-width="0" fill="#FFFFFF" fill-rule="evenodd" transform="matrix(1,0,0,-1,0,16.001762)"/>
      <text x="5.718078" y="0" class="TextStyle1" fill="#000000" opacity="1" transform="matrix(1,0,0,-1,0,16.001762)">Client- Predicted</text>
      <path d="M15.602842331,2.471094608 L50.263000488,2.471094608 L50.263000488,11.330469131 L15.602842331,11.330469131 Z" stroke="none" stroke-width="0" fill="#FFFFFF" fill-rule="evenodd" transform="matrix(1,0,0,-1,0,16.001762)"/>
      <text x="15.602842" y="9.6" class="TextStyle1" fill="#000000" opacity="1" transform="matrix(1,0,0,-1,0,16.001762)">Movement</text>
     </g>
    </g>
    <g transform="matrix(1,0,0,1,972.7476,987.75366)" v:mID="31">
     <title>Dynamic connector</title>
     <path d="M3.239999533,-106.149101257 L9,-103.269104004 L3.239999533,-100.38910675 Z" stroke="#000000" stroke-width="0.2376378" fill="#000000" fill-rule="evenodd" transform="matrix(1,0,0,1,0,0)"/>
     <path d="M9,0 L-223.54208374,0 L-223.54208374,0 L-223.54208374,-103.269104004 L-223.54208374,-103.269104004 L9,-103.269104004 " stroke="#000000" stroke-width="0.2376378" stroke-linecap="round" fill="none"/>
     <g transform="matrix(1,0,0,1,-253.63518,-65.23631)">
      <path d="M5.32160902,-7.12890625 L54.864578247,-7.12890625 L54.864578247,1.730468988 L5.32160902,1.730468988 Z" stroke="none" stroke-width="0" fill="#FFFFFF" fill-rule="evenodd" transform="matrix(1,0,0,-1,0,16.001762)"/>
      <text x="5.321609" y="0" class="TextStyle1" fill="#000000" opacity="1" transform="matrix(1,0,0,-1,0,16.001762)">Authentication </text>
      <path d="M17.206373215,2.471094608 L42.979812622,2.471094608 L42.979812622,11.330469131 L17.206373215,11.330469131 Z" stroke="none" stroke-width="0" fill="#FFFFFF" fill-rule="evenodd" transform="matrix(1,0,0,-1,0,16.001762)"/>
      <text x="17.206373" y="9.6" class="TextStyle1" fill="#000000" opacity="1" transform="matrix(1,0,0,-1,0,16.001762)">Request</text>
     </g>
    </g>
    <g transform="matrix(1,0,0,1,972.7476,987.75366)" v:mID="32">
     <title>Dynamic connector</title>
     <path d="M3.239999533,-105.638511658 L9,-102.758514404 L3.239999533,-99.878517151 Z" stroke="#000000" stroke-width="0.2376378" fill="#000000" fill-rule="evenodd" transform="matrix(1,0,0,1,0,0)"/>
     <path d="M9,0 L-279.686401367,-0 L-279.686401367,-0 L-279.686401367,-102.758514404 L-279.686401367,-102.758514404 L9,-102.758514404 " stroke="#000000" stroke-width="0.2376378" stroke-linecap="round" fill="none"/>
     <g transform="matrix(1,0,0,1,-311.80524,-64.98102)">
      <path d="M6.009458065,-7.12890625 L60.228206635,-7.12890625 L60.228206635,1.730468988 L6.009458065,1.730468988 Z" stroke="none" stroke-width="0" fill="#FFFFFF" fill-rule="evenodd" transform="matrix(1,0,0,-1,0,16.001762)"/>
      <text x="6.009458" y="0" class="TextStyle1" fill="#000000" opacity="1" transform="matrix(1,0,0,-1,0,16.001762)">Input Command</text>
      <path d="M21.679382324,2.471094608 L42.558288574,2.471094608 L42.558288574,11.330469131 L21.679382324,11.330469131 Z" stroke="none" stroke-width="0" fill="#FFFFFF" fill-rule="evenodd" transform="matrix(1,0,0,-1,0,16.001762)"/>
      <text x="21.679382" y="9.6" class="TextStyle1" fill="#000000" opacity="1" transform="matrix(1,0,0,-1,0,16.001762)">Queue</text>
     </g>
    </g>
    <g transform="matrix(1,0,0,1,981.59753,516.5424)" v:mID="33">
     <title>Rectangle</title>
     <userDefs>
      <ud nameU="visVersion" val="15"/>
     </userDefs>
     <path d="M0,0 L108,0 L108,0 L108,72 L108,72 L0,72 L0,72 L0,0 Z" stroke="#000000" stroke-width="0.75" stroke-linecap="round" fill="#FFFFFF" fill-rule="evenodd"/>
     <g transform="matrix(1,0,0,1,0,0)">
      <text x="12.759765" y="6" class="TextStyle0" fill="#000000" opacity="1" transform="matrix(1,0,0,-1,0,39)">Game Administrator</text>
     </g>
    </g>
    <g transform="matrix(1,0,0,1,614.124,717.7392)" v:mID="34">
     <title>Rectangle.34</title>
     <userDefs>
      <ud nameU="visVersion" val="15"/>
     </userDefs>
     <path d="M0,0 L108,0 L108,0 L108,72 L108,72 L0,72 L0,72 L0,0 Z" stroke="#000000" stroke-width="0.75" stroke-linecap="round" fill="#FFFFFF" fill-rule="evenodd"/>
     <g transform="matrix(1,0,0,1,0,0)">
      <text x="12.769528" y="6" class="TextStyle0" fill="#000000" opacity="1" transform="matrix(1,0,0,-1,0,39)">Token Infrastructure</text>
     </g>
    </g>
    <g transform="matrix(1,0,0,1,1044.594,827.6904)" v:mID="36">
     <title>Dynamic connector</title>
     <path d="M-14.763599396,-77.450393677 L-9.003599167,-74.570396423 L-14.763599396,-71.69039917 Z" stroke="#000000" stroke-width="0.2376378" fill="#000000" fill-rule="evenodd" transform="matrix(-0,-1,1,0,65.566795,-83.574)"/>
     <path d="M-8.996399879,0 L-8.996399879,-13.5 L-8.996399879,-13.5 L-9.003599167,-13.5 L-9.003599167,-13.5 L-9.003599167,-74.570396423 " stroke="#000000" stroke-width="0.2376378" stroke-linecap="round" fill="none"/>
     <g transform="matrix(1,0,0,1,-45.88968,-50.88336)">
      <path d="M5.677091599,-7.12890625 L70.095062256,-7.12890625 L70.095062256,1.730468988 L5.677091599,1.730468988 Z" stroke="none" stroke-width="0" fill="#FFFFFF" fill-rule="evenodd" transform="matrix(1,0,0,-1,0,16.001762)"/>
      <text x="5.6770916" y="0" class="TextStyle1" fill="#000000" opacity="1" transform="matrix(1,0,0,-1,0,16.001762)">Validate Credential</text>
      <path d="M15.333342552,2.471094608 L58.438812256,2.471094608 L58.438812256,11.330469131 L15.333342552,11.330469131 Z" stroke="none" stroke-width="0" fill="#FFFFFF" fill-rule="evenodd" transform="matrix(1,0,0,-1,0,16.001762)"/>
      <text x="15.333343" y="9.6" class="TextStyle1" fill="#000000" opacity="1" transform="matrix(1,0,0,-1,0,16.001762)">(via DB API)</text>
     </g>
    </g>
    <g transform="matrix(1,0,0,1,483.5088,579.9888)" v:mID="37">
     <title>Rectangle.37</title>
     <userDefs>
      <ud nameU="visVersion" val="15"/>
     </userDefs>
     <path d="M0,0 L108,0 L108,0 L108,72 L108,72 L0,72 L0,72 L0,0 Z" stroke="#000000" stroke-width="0.75" stroke-linecap="round" fill="#FFFFFF" fill-rule="evenodd"/>
     <g transform="matrix(1,0,0,1,0,0)">
      <text x="21.36328" y="6" class="TextStyle0" fill="#000000" opacity="1" transform="matrix(1,0,0,-1,0,39)">Polygon Testnet</text>
     </g>
    </g>
    <g transform="matrix(1,0,0,1,614.124,753.7392)" v:mID="38">
     <title>Dynamic connector</title>
     <path d="M-82.375205994,-104.630401611 L-76.615203857,-101.750404358 L-82.375205994,-98.870407104 Z" stroke="#000000" stroke-width="0.2376378" fill="#000000" fill-rule="evenodd" transform="matrix(-0,-1,1,0,25.1352,-178.3656)"/>
     <path d="M0,0 L-76.615203857,0 L-76.615203857,0 L-76.615203857,-101.750404358 " stroke="#000000" stroke-width="0.2376378" stroke-linecap="round" fill="none"/>
     <g transform="matrix(1,0,0,1,-126.34225,-63.83676)">
      <path d="M5.833327293,-7.12890625 L97.591140747,-7.12890625 L97.591140747,1.730468988 L5.833327293,1.730468988 Z" stroke="none" stroke-width="0" fill="#FFFFFF" fill-rule="evenodd" transform="matrix(1,0,0,-1,0,16.001762)"/>
      <text x="5.8333273" y="0" class="TextStyle1" fill="#000000" opacity="1" transform="matrix(1,0,0,-1,0,16.001762)">Signed Transaction Request</text>
      <path d="M25.61067009,2.471094608 L75.813789368,2.471094608 L75.813789368,11.330469131 L25.61067009,11.330469131 Z" stroke="none" stroke-width="0" fill="#FFFFFF" fill-rule="evenodd" transform="matrix(1,0,0,-1,0,16.001762)"/>
      <text x="25.61067" y="9.6" class="TextStyle1" fill="#000000" opacity="1" transform="matrix(1,0,0,-1,0,16.001762)">(Mint/Transfer)</text>
     </g>
    </g>
    <g transform="matrix(1,0,0,1,591.5088,615.98883)" v:mID="39">
     <title>Dynamic connector</title>
     <path d="M70.855201721,98.870407104 L76.615203857,101.750404358 L70.855201721,104.630401611 Z" stroke="#000000" stroke-width="0.2376378" fill="#000000" fill-rule="evenodd" transform="matrix(0,1,-1,-0,178.3656,25.1352)"/>
     <path d="M0,0 L76.615203857,0 L76.615203857,0 L76.615203857,101.750404358 " stroke="#000000" stroke-width="0.2376378" stroke-linecap="round" fill="none"/>
     <g transform="matrix(1,0,0,1,1.9709053,-8.59178)">
      <path d="M4.835494041,-7.12890625 L87.702682495,-7.12890625 L87.702682495,1.730468988 L4.835494041,1.730468988 Z" stroke="none" stroke-width="0" fill="#FFFFFF" fill-rule="evenodd" transform="matrix(1,0,0,-1,0,16.001762)"/>
      <text x="4.835494" y="0" class="TextStyle1" fill="#000000" opacity="1" transform="matrix(1,0,0,-1,0,16.001762)">Transaction Confirmation</text>
      <path d="M32.940963745,2.471094608 L59.597213745,2.471094608 L59.597213745,11.330469131 L32.940963745,11.330469131 Z" stroke="none" stroke-width="0" fill="#FFFFFF" fill-rule="evenodd" transform="matrix(1,0,0,-1,0,16.001762)"/>
      <text x="32.940964" y="9.6" class="TextStyle1" fill="#000000" opacity="1" transform="matrix(1,0,0,-1,0,16.001762)">/Receipt</text>
     </g>
    </g>
    <g transform="matrix(1,0,0,1,981.5976,863.6904)" v:mID="40">
     <title>Dynamic connector</title>
     <path d="M-373.233642578,-97.831207275 L-367.47366333,-94.951210022 L-373.233642578,-92.071212769 Z" stroke="#000000" stroke-width="0.2376378" fill="#000000" fill-rule="evenodd" transform="matrix(1,0,0,1,0,0)"/>
     <path d="M0,0 L-445.003875732,0 L-445.003875732,0 L-445.003875732,-94.951210022 L-445.003875732,-94.951210022 L-367.47366333,-94.951210022 " stroke="#000000" stroke-width="0.2376378" stroke-linecap="round" fill="none"/>
     <g transform="matrix(1,0,0,1,-480.45908,-61.294266)">
      <path d="M6.653654099,-7.12890625 L67.079437256,-7.12890625 L67.079437256,1.730468988 L6.653654099,1.730468988 Z" stroke="none" stroke-width="0" fill="#FFFFFF" fill-rule="evenodd" transform="matrix(1,0,0,-1,0,16.001762)"/>
      <text x="6.653654" y="0" class="TextStyle1" fill="#000000" opacity="1" transform="matrix(1,0,0,-1,0,16.001762)">Wallet Ownership</text>
      <path d="M4.430997372,2.471094608 L67.302093506,2.471094608 L67.302093506,11.330469131 L4.430997372,11.330469131 Z" stroke="none" stroke-width="0" fill="#FFFFFF" fill-rule="evenodd" transform="matrix(1,0,0,-1,0,16.001762)"/>
      <text x="4.4309974" y="9.6" class="TextStyle1" fill="#000000" opacity="1" transform="matrix(1,0,0,-1,0,16.001762)">Verification Rquest</text>
     </g>
    </g>
    <g transform="matrix(1,0,0,1,614.25146,789.7467)" v:mID="41">
     <title>Dynamic connector</title>
     <path d="M361.586120605,48.56370163 L367.346099854,51.443702698 L361.586120605,54.323707581 Z" stroke="#000000" stroke-width="0.2376378" fill="#000000" fill-rule="evenodd" transform="matrix(1,0,0,1,0,0)"/>
     <path d="M0,0 L0,51.443702698 L0,51.443702698 L367.346099854,51.443702698 " stroke="#000000" stroke-width="0.2376378" stroke-linecap="round" fill="none"/>
     <g transform="matrix(1,0,0,1,-37.857155,21.655706)">
      <path d="M5.083692551,-7.12890625 L72.630569458,-7.12890625 L72.630569458,1.730468988 L5.083692551,1.730468988 Z" stroke="none" stroke-width="0" fill="#FFFFFF" fill-rule="evenodd" transform="matrix(1,0,0,-1,0,16.001762)"/>
      <text x="5.0836926" y="0" class="TextStyle1" fill="#000000" opacity="1" transform="matrix(1,0,0,-1,0,16.001762)">Token/NFT Request</text>
      <path d="M23.859083176,2.471094608 L51.855178833,2.471094608 L51.855178833,11.330469131 L23.859083176,11.330469131 Z" stroke="none" stroke-width="0" fill="#FFFFFF" fill-rule="evenodd" transform="matrix(1,0,0,-1,0,16.001762)"/>
      <text x="23.859083" y="9.6" class="TextStyle1" fill="#000000" opacity="1" transform="matrix(1,0,0,-1,0,16.001762)">Ack/Fail</text>
     </g>
    </g>
    <g transform="matrix(1,0,0,1,668.124,789.7392)" v:mID="42">
     <title>Dynamic connector</title>
     <path d="M307.713592529,48.571201324 L313.473571777,51.451202393 L307.713592529,54.331203461 Z" stroke="#000000" stroke-width="0.2376378" fill="#000000" fill-rule="evenodd" transform="matrix(1,0,0,1,0,0)"/>
     <path d="M0,0 L0,51.451202393 L0,51.451202393 L313.473571777,51.451202393 " stroke="#000000" stroke-width="0.2376378" stroke-linecap="round" fill="none"/>
     <g transform="matrix(1,0,0,1,-35.688557,5.1557293)">
      <path d="M6.155850887,-7.12890625 L67.476158142,-7.12890625 L67.476158142,1.730468988 L6.155850887,1.730468988 Z" stroke="none" stroke-width="0" fill="#FFFFFF" fill-rule="evenodd" transform="matrix(1,0,0,-1,0,16.001762)"/>
      <text x="6.155851" y="0" class="TextStyle1" fill="#000000" opacity="1" transform="matrix(1,0,0,-1,0,16.001762)">Transaction Status</text>
      <path d="M12.597257614,2.471094608 L59.034759521,2.471094608 L59.034759521,11.330469131 L12.597257614,11.330469131 Z" stroke="none" stroke-width="0" fill="#FFFFFF" fill-rule="evenodd" transform="matrix(1,0,0,-1,0,16.001762)"/>
      <text x="12.597258" y="9.6" class="TextStyle1" fill="#000000" opacity="1" transform="matrix(1,0,0,-1,0,16.001762)">(From Router)</text>
     </g>
    </g>
    <g transform="matrix(1,0,0,1,683.25146,717.7467)" v:mID="43">
     <title>Dynamic connector</title>
     <path d="M292.578918457,-48.506698608 L298.338928223,-45.62669754 L292.578918457,-42.746696472 Z" stroke="#000000" stroke-width="0.2376378" fill="#000000" fill-rule="evenodd" transform="matrix(1,0,0,1,0,0)"/>
     <path d="M0,0 L0,-45.62669754 L0,-45.62669754 L298.338928223,-45.62669754 " stroke="#000000" stroke-width="0.2376378" stroke-linecap="round" fill="none"/>
     <g transform="matrix(1,0,0,1,96.90889,-53.801785)">
      <path d="M7.714139462,-7.12890625 L85.468048096,-7.12890625 L85.468048096,1.730468988 L7.714139462,1.730468988 Z" stroke="none" stroke-width="0" fill="#FFFFFF" fill-rule="evenodd" transform="matrix(1,0,0,-1,0,11.201781)"/>
      <text x="7.7141395" y="0" class="TextStyle1" fill="#000000" opacity="1" transform="matrix(1,0,0,-1,0,11.201781)">Link Wallet to Account</text>
      <path d="M42.259059906,2.471094608 L48.923122406,2.471094608 L48.923122406,11.330469131 L42.259059906,11.330469131 Z" stroke="none" stroke-width="0" fill="#FFFFFF" fill-rule="evenodd" transform="matrix(1,0,0,-1,0,11.201781)"/>
      <text x="42.25906" y="9.6" class="TextStyle1" fill="#000000" opacity="1" transform="matrix(1,0,0,-1,0,11.201781)">Id</text>
     </g>
    </g>
    <g transform="matrix(1,0,0,1,981.7478,683.99994)" v:mID="44">
     <title>Dynamic connector</title>
     <path d="M-295.38381958,30.859203339 L-289.623809814,33.739204407 L-295.38381958,36.619205475 Z" stroke="#000000" stroke-width="0.2376378" fill="#000000" fill-rule="evenodd" transform="matrix(0,1,-1,-0,-255.88461,323.363)"/>
     <path d="M0,0 L0,4.32732296 L0,4.32732296 L-289.623809814,4.32732296 L-289.623809814,4.32732296 L-289.623809814,33.739204407 " stroke="#000000" stroke-width="0.2376378" stroke-linecap="round" fill="none"/>
     <g transform="matrix(1,0,0,1,-212.85728,-4.4744587)">
      <path d="M17.964031219,-7.12890625 L95.042152405,-7.12890625 L95.042152405,1.730468988 L17.964031219,1.730468988 Z" stroke="none" stroke-width="0" fill="#FFFFFF" fill-rule="evenodd" transform="matrix(1,0,0,-1,0,11.201781)"/>
      <text x="17.964031" y="0" class="TextStyle1" fill="#000000" opacity="1" transform="matrix(1,0,0,-1,0,11.201781)">Retrieve Linked Wallet</text>
      <path d="M42.393722534,2.471094608 L68.612472534,2.471094608 L68.612472534,11.330469131 L42.393722534,11.330469131 Z" stroke="none" stroke-width="0" fill="#FFFFFF" fill-rule="evenodd" transform="matrix(1,0,0,-1,0,11.201781)"/>
      <text x="42.393723" y="9.6" class="TextStyle1" fill="#000000" opacity="1" transform="matrix(1,0,0,-1,0,11.201781)">Address</text>
     </g>
    </g>
    <g transform="matrix(1,0,0,1,996.0166,827.99786)" v:mID="46">
     <title>Dynamic connector</title>
     <path d="M-19.99098587,-85.993423462 L-14.230986595,-83.113426208 L-19.99098587,-80.233428955 Z" stroke="#000000" stroke-width="0.2376378" fill="#000000" fill-rule="evenodd" transform="matrix(1,0,0,1,0,0)"/>
     <path d="M-3.769013643,0 L-3.769013643,-9.132124901 L-3.769013643,-9.132124901 L-27.926177979,-9.132124901 L-27.926177979,-9.132124901 L-27.926177979,-83.113426208 L-27.926177979,-83.113426208 L-14.230986595,-83.113426208 " stroke="#000000" stroke-width="0.2376378" stroke-linecap="round" fill="none"/>
     <g transform="matrix(1,0,0,1,-70.245285,-70.60176)">
      <path d="M12.988080978,-7.12890625 L70.972457886,-7.12890625 L70.972457886,1.730468988 L12.988080978,1.730468988 Z" stroke="none" stroke-width="0" fill="#FFFFFF" fill-rule="evenodd" transform="matrix(1,0,0,-1,0,16.001762)"/>
      <text x="12.988081" y="0" class="TextStyle1" fill="#000000" opacity="1" transform="matrix(1,0,0,-1,0,16.001762)">Save Player State</text>
      <path d="M4.095504761,2.471094608 L77.865036011,2.471094608 L77.865036011,11.330469131 L4.095504761,11.330469131 Z" stroke="none" stroke-width="0" fill="#FFFFFF" fill-rule="evenodd" transform="matrix(1,0,0,-1,0,16.001762)"/>
      <text x="4.0955048" y="9.6" class="TextStyle1" fill="#000000" opacity="1" transform="matrix(1,0,0,-1,0,16.001762)">(Inventory, XP, Quests</text>
     </g>
    </g>
    <g transform="matrix(1,0,0,1,683.25146,717.7467)" v:mID="47">
     <title>Dynamic connector</title>
     <path d="M323.570068359,-56.651126862 L329.330047607,-53.771125793 L323.570068359,-50.891120911 Z" stroke="#000000" stroke-width="0.2376378" fill="#000000" fill-rule="evenodd" transform="matrix(0,1,-1,-0,275.55893,-383.10117)"/>
     <path d="M0,0 L0,-68.126693726 L0,-68.126693726 L329.330047607,-68.126693726 L329.330047607,-68.126693726 L329.330047607,-53.771125793 " stroke="#000000" stroke-width="0.2376378" stroke-linecap="round" fill="none"/>
     <g transform="matrix(1,0,0,1,63.333214,-76.928474)">
      <path d="M4.131815434,-2.328905821 L144.76071167,-2.328905821 L144.76071167,6.530469418 L4.131815434,6.530469418 Z" stroke="none" stroke-width="0" fill="#FFFFFF" fill-rule="evenodd" transform="matrix(1,0,0,-1,0,11.201781)"/>
      <text x="4.1318154" y="4.8" class="TextStyle1" fill="#000000" opacity="1" transform="matrix(1,0,0,-1,0,11.201781)">Log On-Chain Transaction Request/Receipt</text>
     </g>
    </g>
    <g transform="matrix(1,0,0,1,1080.5953,844.19037)" v:mID="48">
     <title>Dynamic connector</title>
     <path d="M3.242288113,-103.641708374 L9.002288818,-100.761711121 L3.242288113,-97.881713867 Z" stroke="#000000" stroke-width="0.2376378" fill="#000000" fill-rule="evenodd" transform="matrix(-1,0,0,-1,18.004578,-201.52342)"/>
     <path d="M8.997711182,0 L35.476192474,0 L35.476192474,0 L35.476192474,-100.761711121 L35.476192474,-100.761711121 L9.002288818,-100.761711121 " stroke="#000000" stroke-width="0.2376378" stroke-linecap="round" fill="none"/>
     <g transform="matrix(1,0,0,1,-11.8628845,-74.23401)">
      <path d="M4.610836506,-7.12890625 L91.919425964,-7.12890625 L91.919425964,1.730468988 L4.610836506,1.730468988 Z" stroke="none" stroke-width="0" fill="#FFFFFF" fill-rule="evenodd" transform="matrix(1,0,0,-1,0,16.001762)"/>
      <text x="4.6108365" y="0" class="TextStyle1" fill="#000000" opacity="1" transform="matrix(1,0,0,-1,0,16.001762)">Log Economy Transaction</text>
      <path d="M25.056148529,2.471094608 L69.474121094,2.471094608 L69.474121094,11.330469131 L25.056148529,11.330469131 Z" stroke="none" stroke-width="0" fill="#FFFFFF" fill-rule="evenodd" transform="matrix(1,0,0,-1,0,16.001762)"/>
      <text x="25.056149" y="9.6" class="TextStyle1" fill="#000000" opacity="1" transform="matrix(1,0,0,-1,0,16.001762)">(Craft, Trade)</text>
     </g>
    </g>
    <g transform="matrix(1,0,0,1,1080.5942,844.19037)" v:mID="49">
     <title>Dynamic connector</title>
     <path d="M3.241206646,-102.950401306 L9.001207352,-100.070404053 L3.241206646,-97.190406799 Z" stroke="#000000" stroke-width="0.2376378" fill="#000000" fill-rule="evenodd" transform="matrix(-1,0,0,-1,18.002415,-200.14081)"/>
     <path d="M8.998793602,0 L123.715797424,0 L123.715797424,0 L123.715797424,-100.070404053 L123.715797424,-100.070404053 L9.001207352,-100.070404053 " stroke="#000000" stroke-width="0.2376378" stroke-linecap="round" fill="none"/>
     <g transform="matrix(1,0,0,1,83.779785,-74.8698)">
      <path d="M15.849028587,-11.928905487 L63.395904541,-11.928905487 L63.395904541,-3.069530725 L15.849028587,-3.069530725 Z" stroke="none" stroke-width="0" fill="#FFFFFF" fill-rule="evenodd" transform="matrix(1,0,0,-1,0,16.001762)"/>
      <text x="15.849029" y="-4.8" class="TextStyle1" fill="#000000" opacity="1" transform="matrix(1,0,0,-1,0,16.001762)">Log Analytics</text>
      <path d="M27.735746384,-2.328905821 L51.509185791,-2.328905821 L51.509185791,6.530469418 L27.735746384,6.530469418 Z" stroke="none" stroke-width="0" fill="#FFFFFF" fill-rule="evenodd" transform="matrix(1,0,0,-1,0,16.001762)"/>
      <text x="27.735746" y="4.8" class="TextStyle1" fill="#000000" opacity="1" transform="matrix(1,0,0,-1,0,16.001762)">Events</text>
      <path d="M13.292387009,7.271095276 L63.952545166,7.271095276 L63.952545166,16.130470276 L13.292387009,16.130470276 Z" stroke="none" stroke-width="0" fill="#FFFFFF" fill-rule="evenodd" transform="matrix(1,0,0,-1,0,16.001762)"/>
      <text x="13.292387" y="14.400002" class="TextStyle1" fill="#000000" opacity="1" transform="matrix(1,0,0,-1,0,16.001762)">(Boss Kill, etc.)</text>
     </g>
    </g>
    <g transform="matrix(1,0,0,1,1080.5942,844.19037)" v:mID="50">
     <title>Dynamic connector</title>
     <path d="M3.241206646,-102.950401306 L9.001207352,-100.070404053 L3.241206646,-97.190406799 Z" stroke="#000000" stroke-width="0.2376378" fill="#000000" fill-rule="evenodd" transform="matrix(-1,0,0,-1,18.002415,-200.14081)"/>
     <path d="M8.998793602,0 L198.94367981,0 L198.94367981,0 L198.94367981,-100.070404053 L198.94367981,-100.070404053 L9.001207352,-100.070404053 " stroke="#000000" stroke-width="0.2376378" stroke-linecap="round" fill="none"/>
     <g transform="matrix(1,0,0,1,141.17639,-74.3493)">
      <path d="M27.346950531,-11.928905487 L87.104766846,-11.928905487 L87.104766846,-3.069530725 L27.346950531,-3.069530725 Z" stroke="none" stroke-width="0" fill="#FFFFFF" fill-rule="evenodd" transform="matrix(1,0,0,-1,0,16.001762)"/>
      <text x="27.34695" y="-4.8" class="TextStyle1" fill="#000000" opacity="1" transform="matrix(1,0,0,-1,0,16.001762)">Update Item State</text>
      <path d="M13.577422142,-2.328905821 L100.874290466,-2.328905821 L100.874290466,6.530469418 L13.577422142,6.530469418 Z" stroke="none" stroke-width="0" fill="#FFFFFF" fill-rule="evenodd" transform="matrix(1,0,0,-1,0,16.001762)"/>
      <text x="13.577422" y="4.8" class="TextStyle1" fill="#000000" opacity="1" transform="matrix(1,0,0,-1,0,16.001762)">(Set 'Tokenized' after NFT</text>
      <path d="M47.559844971,7.271095276 L64.891876221,7.271095276 L64.891876221,16.130470276 L47.559844971,16.130470276 Z" stroke="none" stroke-width="0" fill="#FFFFFF" fill-rule="evenodd" transform="matrix(1,0,0,-1,0,16.001762)"/>
      <text x="47.559845" y="14.400002" class="TextStyle1" fill="#000000" opacity="1" transform="matrix(1,0,0,-1,0,16.001762)">mint)</text>
     </g>
    </g>
    <g transform="matrix(1,0,0,1,1080.594,708.12)" v:mID="52">
     <title>Dynamic connector</title>
     <path d="M3.243599176,152.690414429 L9.003599167,155.570404053 L3.243599176,158.450408936 Z" stroke="#000000" stroke-width="0.2376378" fill="#000000" fill-rule="evenodd" transform="matrix(-1,0,0,-1,18.007198,311.1408)"/>
     <path d="M8.996399879,0 L285.984832764,0 L285.984832764,0 L285.984832764,155.570404053 L285.984832764,155.570404053 L9.003599167,155.570404053 " stroke="#000000" stroke-width="0.2376378" stroke-linecap="round" fill="none"/>
     <g transform="matrix(1,0,0,1,256.45474,64.278244)">
      <path d="M10.01522541,-7.12890625 L50.890224457,-7.12890625 L50.890224457,1.730468988 L10.01522541,1.730468988 Z" stroke="none" stroke-width="0" fill="#FFFFFF" fill-rule="evenodd" transform="matrix(1,0,0,-1,0,16.001762)"/>
      <text x="10.015225" y="0" class="TextStyle1" fill="#000000" opacity="1" transform="matrix(1,0,0,-1,0,16.001762)">Load Player</text>
      <path d="M4.126554012,2.471094608 L54.778900146,2.471094608 L54.778900146,11.330469131 L4.126554012,11.330469131 Z" stroke="none" stroke-width="0" fill="#FFFFFF" fill-rule="evenodd" transform="matrix(1,0,0,-1,0,16.001762)"/>
      <text x="4.126554" y="9.6" class="TextStyle1" fill="#000000" opacity="1" transform="matrix(1,0,0,-1,0,16.001762)">Data (On login)</text>
     </g>
    </g>
    <g transform="matrix(1,0,0,1,1080.594,708.12)" v:mID="53">
     <title>Dynamic connector</title>
     <path d="M3.243599176,152.690414429 L9.003599167,155.570404053 L3.243599176,158.450408936 Z" stroke="#000000" stroke-width="0.2376378" fill="#000000" fill-rule="evenodd" transform="matrix(-1,0,0,-1,18.007198,311.1408)"/>
     <path d="M8.996399879,0 L349.378143311,0 L349.378143311,0 L349.378143311,155.570404053 L349.378143311,155.570404053 L9.003599167,155.570404053 " stroke="#000000" stroke-width="0.2376378" stroke-linecap="round" fill="none"/>
     <g transform="matrix(1,0,0,1,306.74594,64.17984)">
      <path d="M5.202514648,-7.12890625 L82.061889648,-7.12890625 L82.061889648,1.730468988 L5.202514648,1.730468988 Z" stroke="none" stroke-width="0" fill="#FFFFFF" fill-rule="evenodd" transform="matrix(1,0,0,-1,0,16.001762)"/>
      <text x="5.2025146" y="0" class="TextStyle1" fill="#000000" opacity="1" transform="matrix(1,0,0,-1,0,16.001762)">Load Static Game Data</text>
      <path d="M5.081420422,2.471094608 L80.182975769,2.471094608 L80.182975769,11.330469131 L5.081420422,11.330469131 Z" stroke="none" stroke-width="0" fill="#FFFFFF" fill-rule="evenodd" transform="matrix(1,0,0,-1,0,16.001762)"/>
      <text x="5.0814204" y="9.6" class="TextStyle1" fill="#000000" opacity="1" transform="matrix(1,0,0,-1,0,16.001762)">(Recipes, Items, NPCs)</text>
     </g>
    </g>
    <g transform="matrix(1,0,0,1,1080.594,708.12)" v:mID="54">
     <title>Dynamic connector</title>
     <path d="M3.243599176,152.690414429 L9.003599167,155.570404053 L3.243599176,158.450408936 Z" stroke="#000000" stroke-width="0.2376378" fill="#000000" fill-rule="evenodd" transform="matrix(-1,0,0,-1,18.007198,311.1408)"/>
     <path d="M8.996399879,0 L421.477905273,0 L421.477905273,0 L421.477905273,155.570404053 L421.477905273,155.570404053 L9.003599167,155.570404053 " stroke="#000000" stroke-width="0.2376378" stroke-linecap="round" fill="none"/>
     <g transform="matrix(1,0,0,1,390.8318,64.17984)">
      <path d="M4.767211437,-7.12890625 L56.525024414,-7.12890625 L56.525024414,1.730468988 L4.767211437,1.730468988 Z" stroke="none" stroke-width="0" fill="#FFFFFF" fill-rule="evenodd" transform="matrix(1,0,0,-1,0,16.001762)"/>
      <text x="4.7672114" y="0" class="TextStyle1" fill="#000000" opacity="1" transform="matrix(1,0,0,-1,0,16.001762)">Return Talipapa</text>
      <path d="M17.755491257,2.471094608 L43.536743164,2.471094608 L43.536743164,11.330469131 L17.755491257,11.330469131 Z" stroke="none" stroke-width="0" fill="#FFFFFF" fill-rule="evenodd" transform="matrix(1,0,0,-1,0,16.001762)"/>
      <text x="17.755491" y="9.6" class="TextStyle1" fill="#000000" opacity="1" transform="matrix(1,0,0,-1,0,16.001762)">Listings</text>
     </g>
    </g>
    <g transform="matrix(1,0,0,1,722.25146,789.7467)" v:mID="55">
     <title>Dynamic connector</title>
     <path d="M253.586120605,48.563690186 L259.346099854,51.443691254 L253.586120605,54.323692322 Z" stroke="#000000" stroke-width="0.2376378" fill="#000000" fill-rule="evenodd" transform="matrix(1,0,0,1,0,0)"/>
     <path d="M0,0 L0,51.443691254 L0,51.443691254 L259.346099854,51.443691254 " stroke="#000000" stroke-width="0.2376378" stroke-linecap="round" fill="none"/>
     <g transform="matrix(1,0,0,1,-37.179115,21.655706)">
      <path d="M5.583388329,-7.12890625 L67.774795532,-7.12890625 L67.774795532,1.730468988 L5.583388329,1.730468988 Z" stroke="none" stroke-width="0" fill="#FFFFFF" fill-rule="evenodd" transform="matrix(1,0,0,-1,0,16.001762)"/>
      <text x="5.5833883" y="0" class="TextStyle1" fill="#000000" opacity="1" transform="matrix(1,0,0,-1,0,16.001762)">Wallet verification</text>
      <path d="M25.45643425,2.471094608 L45.901744843,2.471094608 L45.901744843,11.330469131 L25.45643425,11.330469131 Z" stroke="none" stroke-width="0" fill="#FFFFFF" fill-rule="evenodd" transform="matrix(1,0,0,-1,0,16.001762)"/>
      <text x="25.456434" y="9.6" class="TextStyle1" fill="#000000" opacity="1" transform="matrix(1,0,0,-1,0,16.001762)">Result</text>
     </g>
    </g>
    <g transform="matrix(1,0,0,1,1080.594,708.12)" v:mID="56">
     <title>Dynamic connector</title>
     <path d="M3.243599176,152.690414429 L9.003599167,155.570404053 L3.243599176,158.450408936 Z" stroke="#000000" stroke-width="0.2376378" fill="#000000" fill-rule="evenodd" transform="matrix(-1,0,0,-1,18.007198,311.1408)"/>
     <path d="M8.996399879,0 L496.012939453,0 L496.012939453,0 L496.012939453,155.570404053 L496.012939453,155.570404053 L9.003599167,155.570404053 " stroke="#000000" stroke-width="0.2376378" stroke-linecap="round" fill="none"/>
     <g transform="matrix(1,0,0,1,449.86127,68.97982)">
      <path d="M4.266904354,-2.328905821 L88.036437988,-2.328905821 L88.036437988,6.530469418 L4.266904354,6.530469418 Z" stroke="none" stroke-width="0" fill="#FFFFFF" fill-rule="evenodd" transform="matrix(1,0,0,-1,0,11.201781)"/>
      <text x="4.2669044" y="4.8" class="TextStyle1" fill="#000000" opacity="1" transform="matrix(1,0,0,-1,0,11.201781)">Return Auth Success/ Fail</text>
     </g>
    </g>
    <g transform="matrix(1,0,0,1,1080.5975,552.5425)" v:mID="59">
     <title>Dynamic connector</title>
     <path d="M3.239999533,308.268005371 L9,311.147979736 L3.239999533,314.027984619 Z" stroke="#000000" stroke-width="0.2376378" fill="#000000" fill-rule="evenodd" transform="matrix(-1,0,0,-1,18,622.29596)"/>
     <path d="M9,0 L552.952209473,0 L552.952209473,0 L552.952209473,311.147979736 L552.952209473,311.147979736 L9,311.147979736 " stroke="#000000" stroke-width="0.2376378" stroke-linecap="round" fill="none"/>
     <g transform="matrix(1,0,0,1,211.63889,-8.599259)">
      <path d="M5.417357445,-2.328905821 L135.604858398,-2.328905821 L135.604858398,6.530469418 L5.417357445,6.530469418 Z" stroke="none" stroke-width="0" fill="#FFFFFF" fill-rule="evenodd" transform="matrix(1,0,0,-1,0,11.201781)"/>
      <text x="5.4173574" y="4.8" class="TextStyle1" fill="#000000" opacity="1" transform="matrix(1,0,0,-1,0,11.201781)">Manage Commands (Broadcast, Restart)</text>
     </g>
    </g>
    <g transform="matrix(1,0,0,1,990.5976,863.6904)" v:mID="60">
     <title>Dynamic connector</title>
     <path d="M-14.760001183,-314.027984619 L-9,-311.147979736 L-14.760001183,-308.268005371 Z" stroke="#000000" stroke-width="0.2376378" fill="#000000" fill-rule="evenodd" transform="matrix(1,0,0,1,0,0)"/>
     <path d="M-9,0 L-565.717163086,0 L-565.717163086,0 L-565.717163086,-311.147979736 L-565.717163086,-311.147979736 L-9,-311.147979736 " stroke="#000000" stroke-width="0.2376378" stroke-linecap="round" fill="none"/>
     <g transform="matrix(1,0,0,1,-276.55676,-326.04425)">
      <path d="M4.626646519,-7.12890625 L55.286804199,-7.12890625 L55.286804199,1.730468988 L4.626646519,1.730468988 Z" stroke="none" stroke-width="0" fill="#FFFFFF" fill-rule="evenodd" transform="matrix(1,0,0,-1,0,16.001762)"/>
      <text x="4.6266465" y="0" class="TextStyle1" fill="#000000" opacity="1" transform="matrix(1,0,0,-1,0,16.001762)">Server Status &amp;</text>
      <path d="M5.185241222,2.471094608 L54.728210449,2.471094608 L54.728210449,11.330469131 L5.185241222,11.330469131 Z" stroke="none" stroke-width="0" fill="#FFFFFF" fill-rule="evenodd" transform="matrix(1,0,0,-1,0,16.001762)"/>
      <text x="5.185241" y="9.6" class="TextStyle1" fill="#000000" opacity="1" transform="matrix(1,0,0,-1,0,16.001762)">Real-time Logs</text>
     </g>
    </g>
    <g transform="matrix(1,0,0,1,1021.58154,588.75244)" v:mID="62">
     <title>Dynamic connector</title>
     <path d="M-14.760001183,72.343154907 L-9,75.223144531 L-14.760001183,78.103149414 Z" stroke="#000000" stroke-width="0.2376378" fill="#000000" fill-rule="evenodd" transform="matrix(0,1,-1,-0,66.223145,84.223145)"/>
     <path d="M-9,0 L-9,75.223144531 " stroke="#000000" stroke-width="0.2376378" stroke-linecap="round" fill="none"/>
     <g transform="matrix(1,0,0,1,-35.759293,24.00981)">
      <path d="M20.091321945,-11.928905487 L35.427261353,-11.928905487 L35.427261353,-3.069530725 L20.091321945,-3.069530725 Z" stroke="none" stroke-width="0" fill="#FFFFFF" fill-rule="evenodd" transform="matrix(1,0,0,-1,0,16.001762)"/>
      <text x="20.091322" y="-4.8" class="TextStyle1" fill="#000000" opacity="1" transform="matrix(1,0,0,-1,0,16.001762)">Run</text>
      <path d="M11.429213524,-2.328905821 L42.089370728,-2.328905821 L42.089370728,6.530469418 L11.429213524,6.530469418 Z" stroke="none" stroke-width="0" fill="#FFFFFF" fill-rule="evenodd" transform="matrix(1,0,0,-1,0,16.001762)"/>
      <text x="11.429214" y="4.8" class="TextStyle1" fill="#000000" opacity="1" transform="matrix(1,0,0,-1,0,16.001762)">Analytics</text>
      <path d="M16.763196945,7.271095276 L36.755386353,7.271095276 L36.755386353,16.130470276 L16.763196945,16.130470276 Z" stroke="none" stroke-width="0" fill="#FFFFFF" fill-rule="evenodd" transform="matrix(1,0,0,-1,0,16.001762)"/>
      <text x="16.763197" y="14.400002" class="TextStyle1" fill="#000000" opacity="1" transform="matrix(1,0,0,-1,0,16.001762)">Query</text>
     </g>
    </g>
    <g transform="matrix(1,0,0,1,1050.5977,662.58844)" v:mID="66">
     <title>Dynamic connector</title>
     <path d="M3.239999533,-76.926063538 L9,-74.046066284 L3.239999533,-71.166061401 Z" stroke="#000000" stroke-width="0.2376378" fill="#000000" fill-rule="evenodd" transform="matrix(-0,-1,1,0,83.04607,-65.04607)"/>
     <path d="M9,0 L9,-74.046066284 " stroke="#000000" stroke-width="0.2376378" stroke-linecap="round" fill="none"/>
     <g transform="matrix(1,0,0,1,-22.72461,-61.939285)">
      <path d="M5.901914597,-7.12890625 L58.347229004,-7.12890625 L58.347229004,1.730468988 L5.901914597,1.730468988 Z" stroke="none" stroke-width="0" fill="#FFFFFF" fill-rule="evenodd" transform="matrix(1,0,0,-1,0,16.001762)"/>
      <text x="5.9019146" y="0" class="TextStyle1" fill="#000000" opacity="1" transform="matrix(1,0,0,-1,0,16.001762)">System Reports</text>
      <path d="M11.683164597,2.471094608 L50.565979004,2.471094608 L50.565979004,11.330469131 L11.683164597,11.330469131 Z" stroke="none" stroke-width="0" fill="#FFFFFF" fill-rule="evenodd" transform="matrix(1,0,0,-1,0,16.001762)"/>
      <text x="11.683165" y="9.6" class="TextStyle1" fill="#000000" opacity="1" transform="matrix(1,0,0,-1,0,16.001762)">&amp; Analytics</text>
     </g>
    </g>
    <g transform="matrix(1,0,0,1,614.124,753.73914)" v:mID="67">
     <title>Dynamic connector</title>
     <path d="M361.713592529,-204.076797485 L367.473571777,-201.196792603 L361.713592529,-198.316802979 Z" stroke="#000000" stroke-width="0.2376378" fill="#000000" fill-rule="evenodd" transform="matrix(1,0,0,1,0,0)"/>
     <path d="M0,0 L-146.137878418,0 L-146.137878418,0 L-146.137878418,-201.196792603 L-146.137878418,-201.196792603 L367.473571777,-201.196792603 " stroke="#000000" stroke-width="0.2376378" stroke-linecap="round" fill="none"/>
     <g transform="matrix(1,0,0,1,-180.0853,-39.086746)">
      <path d="M5.642439842,-7.12890625 L64.283065796,-7.12890625 L64.283065796,1.730468988 L5.642439842,1.730468988 Z" stroke="none" stroke-width="0" fill="#FFFFFF" fill-rule="evenodd" transform="matrix(1,0,0,-1,0,16.001762)"/>
      <text x="5.64244" y="0" class="TextStyle1" fill="#000000" opacity="1" transform="matrix(1,0,0,-1,0,16.001762)">Transaction Error</text>
      <path d="M12.85532856,2.471094608 L55.070175171,2.471094608 L55.070175171,11.330469131 L12.85532856,11.330469131 Z" stroke="none" stroke-width="0" fill="#FFFFFF" fill-rule="evenodd" transform="matrix(1,0,0,-1,0,16.001762)"/>
      <text x="12.855329" y="9.6" class="TextStyle1" fill="#000000" opacity="1" transform="matrix(1,0,0,-1,0,16.001762)">&amp; Gas Alerts</text>
     </g>
    </g>
    <g transform="matrix(1,0,0,1,981.7476,516.7524)" v:mID="68">
     <title>Dynamic connector</title>
     <path d="M-373.383605957,249.106765747 L-367.623626709,251.98677063 L-373.383605957,254.866760254 Z" stroke="#000000" stroke-width="0.2376378" fill="#000000" fill-rule="evenodd" transform="matrix(1,0,0,1,0,0)"/>
     <path d="M0,0 L-584.025756836,0 L-584.025756836,0 L-584.025756836,251.98677063 L-584.025756836,251.98677063 L-559.867126465,251.98677063 L-559.867126465,251.98677063 L-559.867126465,251.98677063 L-559.867126465,251.98677063 C-559.86706543,252.782104492 -559.550842285,253.545684814 -558.98840332,254.108093262 L-558.98840332,254.108093262 C-558.426025391,254.67048645 -557.662475586,254.98677063 -556.867126465,254.98677063 L-556.867126465,254.98677063 C-556.071777344,254.98677063 -555.308166504,254.670471191 -554.745788574,254.108093262 L-554.745788574,254.108093262 C-554.183410645,253.545684814 -553.867126465,252.782104492 -553.86706543,251.98677063 L-553.86706543,251.98677063 L-553.867126465,251.98677063 L-553.867126465,251.98677063 L-367.623626709,251.98677063 " stroke="#000000" stroke-width="0.2376378" stroke-linecap="round" fill="none"/>
     <g transform="matrix(1,0,0,1,-414.1169,-8.80177)">
      <path d="M4.593108177,-2.328905821 L133.655609131,-2.328905821 L133.655609131,6.530469418 L4.593108177,6.530469418 Z" stroke="none" stroke-width="0" fill="#FFFFFF" fill-rule="evenodd" transform="matrix(1,0,0,-1,0,11.201781)"/>
      <text x="4.593108" y="4.8" class="TextStyle1" fill="#000000" opacity="1" transform="matrix(1,0,0,-1,0,11.201781)">VIiew Transaction Queue / Manage Gas</text>
     </g>
    </g>
    <g transform="matrix(1,0,0,1,685.5768,1047.1536)" v:mID="69">
     <title>Rectangle.69</title>
     <userDefs>
      <ud nameU="visVersion" val="15"/>
     </userDefs>
     <path d="M0,0 L108,0 L108,0 L108,72 L108,72 L0,72 L0,72 L0,0 Z" stroke="#000000" stroke-width="0.75" stroke-linecap="round" fill="#FFFFFF" fill-rule="evenodd"/>
     <g transform="matrix(1,0,0,1,0,0)">
      <text x="34.568844" y="6" class="TextStyle0" fill="#000000" opacity="1" transform="matrix(1,0,0,-1,0,39)">Character</text>
     </g>
    </g>
    <g transform="matrix(1,0,0,1,981.59753,1156.8312)" v:mID="70">
     <title>Dynamic connector</title>
     <path d="M-247.780792236,-40.557601929 L-242.020797729,-37.677600861 L-247.780792236,-34.797599792 Z" stroke="#000000" stroke-width="0.2376378" fill="#000000" fill-rule="evenodd" transform="matrix(-0,-1,1,0,-204.3432,-279.6984)"/>
     <path d="M0,0 L-242.020797729,0 L-242.020797729,0 L-242.020797729,-37.677600861 " stroke="#000000" stroke-width="0.2376378" stroke-linecap="round" fill="none"/>
     <g transform="matrix(1,0,0,1,-205.9765,-10.181731)">
      <path d="M6.302306175,-7.12890625 L86.950744629,-7.12890625 L86.950744629,1.730468988 L6.302306175,1.730468988 Z" stroke="none" stroke-width="0" fill="#FFFFFF" fill-rule="evenodd" transform="matrix(1,0,0,-1,0,16.001762)"/>
      <text x="6.302306" y="0" class="TextStyle1" fill="#000000" opacity="1" transform="matrix(1,0,0,-1,0,16.001762)">Player Input(Movement,</text>
      <path d="M22.956602097,2.471094608 L68.296447754,2.471094608 L68.296447754,11.330469131 L22.956602097,11.330469131 Z" stroke="none" stroke-width="0" fill="#FFFFFF" fill-rule="evenodd" transform="matrix(1,0,0,-1,0,16.001762)"/>
      <text x="22.956602" y="9.6" class="TextStyle1" fill="#000000" opacity="1" transform="matrix(1,0,0,-1,0,16.001762)">Skills, Clicks)</text>
     </g>
    </g>
    <g transform="matrix(1,0,0,1,739.5768,1047.1536)" v:mID="71">
     <title>Dynamic connector</title>
     <path d="M236.260803223,-39.779998779 L242.020797729,-36.899997711 L236.260803223,-34.020000458 Z" stroke="#000000" stroke-width="0.2376378" fill="#000000" fill-rule="evenodd" transform="matrix(1,0,0,1,0,0)"/>
     <path d="M0,0 L0,-36.899997711 L0,-36.899997711 L242.020797729,-36.899997711 " stroke="#000000" stroke-width="0.2376378" stroke-linecap="round" fill="none"/>
     <g transform="matrix(1,0,0,1,28.298584,-46.75173)">
      <path d="M6.44677639,-7.12890625 L105.306152344,-7.12890625 L105.306152344,1.730468988 L6.44677639,1.730468988 Z" stroke="none" stroke-width="0" fill="#FFFFFF" fill-rule="evenodd" transform="matrix(1,0,0,-1,0,16.001762)"/>
      <text x="6.4467764" y="0" class="TextStyle1" fill="#000000" opacity="1" transform="matrix(1,0,0,-1,0,16.001762)">Character State Data (Postion,</text>
      <path d="M22.667476654,2.471094608 L87.085449219,2.471094608 L87.085449219,11.330469131 L22.667476654,11.330469131 Z" stroke="none" stroke-width="0" fill="#FFFFFF" fill-rule="evenodd" transform="matrix(1,0,0,-1,0,16.001762)"/>
      <text x="22.667477" y="9.6" class="TextStyle1" fill="#000000" opacity="1" transform="matrix(1,0,0,-1,0,16.001762)">Status, Appearance)</text>
     </g>
    </g>
   </g>
  </g>
 </g>
 <style type="text/css"><![CDATA[ .TextStyle0 {font-family:Times New Roman;font-size:10px;}.TextStyle1 {font-family:Times New Roman;font-size:8px;} ]]></style>
</svg>