<?xml version="1.0" encoding="UTF-8" standalone="no"?>
<svg
   width="1920"
   zoomAndPan="magnify"
   viewBox="0 0 1440 374.99999"
   height="500"
   preserveAspectRatio="xMidYMid"
   version="1.0"
   id="svg291"
   sodipodi:docname="rapid-application-development.svg"
   inkscape:export-filename="rapid-application-development.pdf"
   inkscape:export-xdpi="96"
   inkscape:export-ydpi="96"
   inkscape:version="1.4.2 (ebf0e940d0, 2025-05-08)"
   xmlns:inkscape="http://www.inkscape.org/namespaces/inkscape"
   xmlns:sodipodi="http://sodipodi.sourceforge.net/DTD/sodipodi-0.dtd"
   xmlns="http://www.w3.org/2000/svg"
   xmlns:svg="http://www.w3.org/2000/svg">
  <sodipodi:namedview
     id="namedview291"
     pagecolor="#ffffff"
     bordercolor="#000000"
     borderopacity="0.25"
     inkscape:showpageshadow="2"
     inkscape:pageopacity="0.0"
     inkscape:pagecheckerboard="0"
     inkscape:deskcolor="#d1d1d1"
     inkscape:zoom="0.52083333"
     inkscape:cx="1058.88"
     inkscape:cy="397.44"
     inkscape:window-width="1908"
     inkscape:window-height="1028"
     inkscape:window-x="0"
     inkscape:window-y="0"
     inkscape:window-maximized="1"
     inkscape:current-layer="svg291" />
  <defs
     id="defs36">
    <g
       id="g1" />
    <clipPath
       id="0623f36de5">
      <path
         d="M 142.07031,354.51953 H 491 V 457.37891 H 142.07031 Z m 0,0"
         clip-rule="nonzero"
         id="path1" />
    </clipPath>
    <clipPath
       id="b41922f195">
      <path
         d="m 142.07031,354.51953 h 297.42188 l 51.42968,51.42969 -51.42968,51.42969 H 142.07031 l 51.4336,-51.42969 z m 0,0"
         clip-rule="nonzero"
         id="path2" />
    </clipPath>
    <clipPath
       id="c3a17e5681">
      <path
         d="M 0.0703125,0.519531 H 349 V 103.37891 H 0.0703125 Z m 0,0"
         clip-rule="nonzero"
         id="path3" />
    </clipPath>
    <clipPath
       id="60814977d8">
      <path
         d="M 0.0703125,0.519531 H 297.49219 l 51.42968,51.429688 -51.42968,51.429691 H 0.0703125 L 51.503906,51.949219 Z m 0,0"
         clip-rule="nonzero"
         id="path4" />
    </clipPath>
    <clipPath
       id="842f3f67f0">
      <rect
         x="0"
         width="349"
         y="0"
         height="104"
         id="rect4" />
    </clipPath>
    <clipPath
       id="1e4af87d7f">
      <path
         d="M 640.16406,353.53125 H 770.75 V 456.39453 H 640.16406 Z m 0,0"
         clip-rule="nonzero"
         id="path5" />
    </clipPath>
    <clipPath
       id="df527312f1">
      <path
         d="m 640.16406,353.53125 h 78.85156 l 51.42969,51.43359 -51.42969,51.42969 h -78.85156 l 51.42969,-51.42969 z m 0,0"
         clip-rule="nonzero"
         id="path6" />
    </clipPath>
    <clipPath
       id="d8085cd37e">
      <path
         d="M 0.164062,0.53125 H 130.64062 V 103.39453 H 0.164062 Z m 0,0"
         clip-rule="nonzero"
         id="path7" />
    </clipPath>
    <clipPath
       id="62a3ad37c7">
      <path
         d="M 0.164062,0.53125 H 79.015625 L 130.44531,51.964844 79.015625,103.39453 H 0.164062 L 51.59375,51.964844 Z m 0,0"
         clip-rule="nonzero"
         id="path8" />
    </clipPath>
    <clipPath
       id="6c66c2b4d9">
      <rect
         x="0"
         width="131"
         y="0"
         height="104"
         id="rect8" />
    </clipPath>
    <clipPath
       id="5c995f1a04">
      <path
         d="M 424.85547,263.21094 H 577.58203 V 406.95312 H 424.85547 Z m 0,0"
         clip-rule="nonzero"
         id="path9" />
    </clipPath>
    <clipPath
       id="4886528233">
      <path
         d="m 424.85547,406.95312 c 0,-37.85546 16.2539,-74.875 44.63281,-101.64453 28.37891,-26.76562 67.62109,-42.09765 107.75391,-42.09765 v 73.33203 c -19.65625,0 -38.87891,7.50781 -52.78125,20.62109 -13.90235,13.11328 -21.86328,31.2461 -21.86328,49.78906 z m 0,0"
         clip-rule="nonzero"
         id="path10" />
    </clipPath>
    <clipPath
       id="a673da6438">
      <path
         d="M 0.855469,0.210938 H 153.44141 V 143.95312 H 0.855469 Z m 0,0"
         clip-rule="nonzero"
         id="path11" />
    </clipPath>
    <clipPath
       id="dd155021a9">
      <path
         d="m 0.855469,143.95312 c 0,-37.85546 16.253906,-74.874995 44.632812,-101.644526 C 73.867188,15.542969 113.10938,0.210938 153.24219,0.210938 v 73.332031 c -19.65625,0 -38.87891,7.507812 -52.78125,20.621093 C 86.558594,107.27734 78.597656,125.41016 78.597656,143.95312 Z m 0,0"
         clip-rule="nonzero"
         id="path12" />
    </clipPath>
    <clipPath
       id="eb12cee134">
      <rect
         x="0"
         width="154"
         y="0"
         height="144"
         id="rect12" />
    </clipPath>
    <clipPath
       id="cff30e75f1">
      <path
         d="M 573.14453,262.95312 H 722 v 144 H 573.14453 Z m 0,0"
         clip-rule="nonzero"
         id="path13" />
    </clipPath>
    <clipPath
       id="d05f221cd0">
      <path
         d="m 573.25,262.95312 c 39.08203,0 77.29687,15.35938 104.92969,42.17579 27.63672,26.8164 43.46484,63.89843 43.46484,101.82421 H 645.9375 c 0,-18.57812 -7.75391,-36.74218 -21.28906,-49.8789 C 611.11328,343.94141 592.39453,336.41406 573.25,336.41406 Z m 0,0"
         clip-rule="nonzero"
         id="path14" />
    </clipPath>
    <clipPath
       id="1054d5a91a">
      <path
         d="M 0.144531,0.953125 H 148.67969 V 144.95312 H 0.144531 Z m 0,0"
         clip-rule="nonzero"
         id="path15" />
    </clipPath>
    <clipPath
       id="cbb18866fd">
      <path
         d="m 0.25,0.953125 c 39.082031,0 77.296875,15.359375 104.92969,42.175781 27.63672,26.816406 43.46484,63.898434 43.46484,101.824214 H 72.9375 C 72.9375,126.375 65.183594,108.21094 51.648438,95.074219 38.113281,81.941406 19.394531,74.414062 0.25,74.414062 Z m 0,0"
         clip-rule="nonzero"
         id="path16" />
    </clipPath>
    <clipPath
       id="0cfda7b634">
      <rect
         x="0"
         width="149"
         y="0"
         height="145"
         id="rect16" />
    </clipPath>
    <clipPath
       id="55cce847ef">
      <path
         d="M 573,402.97266 H 721.64453 V 546.71484 H 573 Z m 0,0"
         clip-rule="nonzero"
         id="path17" />
    </clipPath>
    <clipPath
       id="a666925b8a">
      <path
         d="m 721.64453,402.97266 c 0,37.85546 -15.82812,74.875 -43.46484,101.64062 -27.63282,26.76953 -65.84766,42.10156 -104.92969,42.10156 v -73.33203 c 19.14453,0 37.86328,-7.51172 51.39844,-20.62109 13.53515,-13.11328 21.28906,-31.2461 21.28906,-49.78906 z m 0,0"
         clip-rule="nonzero"
         id="path18" />
    </clipPath>
    <clipPath
       id="0d4cb2a82c">
      <path
         d="M 0.121094,0.972656 H 148.64453 V 144.71484 H 0.121094 Z m 0,0"
         clip-rule="nonzero"
         id="path19" />
    </clipPath>
    <clipPath
       id="053ba9dd88">
      <path
         d="m 148.64453,0.972656 c 0,37.855469 -15.82812,74.875 -43.46484,101.640624 C 77.546875,129.38281 39.332031,144.71484 0.25,144.71484 V 71.382812 c 19.144531,0 37.863281,-7.511718 51.398438,-20.621093 C 65.183594,37.648438 72.9375,19.515625 72.9375,0.972656 Z m 0,0"
         clip-rule="nonzero"
         id="path20" />
    </clipPath>
    <clipPath
       id="142cec9a9b">
      <rect
         x="0"
         width="149"
         y="0"
         height="145"
         id="rect20" />
    </clipPath>
    <clipPath
       id="3b4ed5f2a1">
      <path
         d="m 424.29687,402.96875 h 153 v 144 h -153 z m 0,0"
         clip-rule="nonzero"
         id="path21" />
    </clipPath>
    <clipPath
       id="f073f458d9">
      <path
         d="m 577.04687,546.96875 c -40.07812,0 -79.27343,-15.35938 -107.61328,-42.17578 -28.33984,-26.81641 -44.57422,-63.89844 -44.57422,-101.82422 H 502.5 c 0,18.57812 7.95312,36.74219 21.83594,49.87891 13.88281,13.13281 33.07812,20.65625 52.71093,20.65625 z m 0,0"
         clip-rule="nonzero"
         id="path22" />
    </clipPath>
    <clipPath
       id="4fac304355">
      <path
         d="M 0.800781,0.96875 H 153.19922 v 144 H 0.800781 Z m 0,0"
         clip-rule="nonzero"
         id="path23" />
    </clipPath>
    <clipPath
       id="c849048f81">
      <path
         d="m 153.04687,144.96875 c -40.07812,0 -79.273432,-15.35938 -107.613276,-42.17578 C 17.09375,75.976562 0.859375,38.894531 0.859375,0.96875 H 78.5 c 0,18.578125 7.953125,36.742188 21.83594,49.878906 13.88281,13.132813 33.07812,20.65625 52.71093,20.65625 z m 0,0"
         clip-rule="nonzero"
         id="path24" />
    </clipPath>
    <clipPath
       id="b39642578c">
      <rect
         x="0"
         width="154"
         y="0"
         height="145"
         id="rect24" />
    </clipPath>
    <clipPath
       id="5eafac44bd">
      <path
         d="m 434.33594,374 h 56.25 v 31.94141 h -56.25 z m 0,0"
         clip-rule="nonzero"
         id="path25" />
    </clipPath>
    <clipPath
       id="d62b421b09">
      <path
         d="M 649.96484,374 H 706 v 32 h -56.03516 z m 0,0"
         clip-rule="nonzero"
         id="path26" />
    </clipPath>
    <clipPath
       id="d6f93f5ae8">
      <path
         d="m 557,484.28516 h 32 v 56.25 h -32 z m 0,0"
         clip-rule="nonzero"
         id="path27" />
    </clipPath>
    <clipPath
       id="e837b2d4d6">
      <rect
         x="0"
         width="159"
         y="0"
         height="60"
         id="rect27" />
    </clipPath>
    <clipPath
       id="42e9d65f50">
      <rect
         x="0"
         width="106"
         y="0"
         height="106"
         id="rect28" />
    </clipPath>
    <clipPath
       id="623bd783cc">
      <rect
         x="0"
         width="82"
         y="0"
         height="77"
         id="rect29" />
    </clipPath>
    <clipPath
       id="073f3c11ea">
      <path
         d="M 734.47656,353.53125 H 1025.3789 V 456.39453 H 734.47656 Z m 0,0"
         clip-rule="nonzero"
         id="path29" />
    </clipPath>
    <clipPath
       id="9690d3e53b">
      <path
         d="m 734.47656,353.53125 h 239.42969 l 51.42965,51.43359 -51.42965,51.42969 H 734.47656 l 51.42969,-51.42969 z m 0,0"
         clip-rule="nonzero"
         id="path30" />
    </clipPath>
    <clipPath
       id="c46ba74b53">
      <path
         d="M 0.476562,0.53125 H 291.37891 V 103.39453 H 0.476562 Z m 0,0"
         clip-rule="nonzero"
         id="path31" />
    </clipPath>
    <clipPath
       id="ff302bbbc2">
      <path
         d="M 0.476562,0.53125 H 239.90625 l 51.42969,51.433594 -51.42969,51.429686 H 0.476562 L 51.90625,51.964844 Z m 0,0"
         clip-rule="nonzero"
         id="path32" />
    </clipPath>
    <clipPath
       id="1d1cf1cac7">
      <rect
         x="0"
         width="292"
         y="0"
         height="104"
         id="rect32" />
    </clipPath>
    <clipPath
       id="3f91aba3ac">
      <path
         d="M 988.10937,353.53125 H 1296.6914 V 456.39453 H 988.10937 Z m 0,0"
         clip-rule="nonzero"
         id="path33" />
    </clipPath>
    <clipPath
       id="0cd22de6e1">
      <path
         d="m 988.10937,353.53125 h 257.08983 l 51.4336,51.43359 -51.4336,51.42969 H 988.10937 l 51.42973,-51.42969 z m 0,0"
         clip-rule="nonzero"
         id="path34" />
    </clipPath>
    <clipPath
       id="bccec7a152">
      <path
         d="M 0.109375,0.53125 H 308.69141 V 103.39453 H 0.109375 Z m 0,0"
         clip-rule="nonzero"
         id="path35" />
    </clipPath>
    <clipPath
       id="b41fcf30cb">
      <path
         d="M 0.109375,0.53125 H 257.19922 l 51.43359,51.433594 -51.43359,51.429686 H 0.109375 L 51.539062,51.964844 Z m 0,0"
         clip-rule="nonzero"
         id="path36" />
    </clipPath>
    <clipPath
       id="1febd68455">
      <rect
         x="0"
         width="309"
         y="0"
         height="104"
         id="rect36" />
    </clipPath>
  </defs>
  <g
     clip-path="url(#0623f36de5)"
     id="g42"
     transform="matrix(1.1626941,0,0,1.1626941,-108.14736,-286.45734)">
    <g
       clip-path="url(#b41922f195)"
       id="g41">
      <g
         transform="translate(142,354)"
         id="g40">
        <g
           clip-path="url(#842f3f67f0)"
           id="g39">
          <g
             clip-path="url(#c3a17e5681)"
             id="g38">
            <g
               clip-path="url(#60814977d8)"
               id="g37">
              <path
                 fill="#e63946"
                 d="M 0.0703125,0.519531 H 348.83203 V 103.37891 H 0.0703125 Z m 0,0"
                 fill-opacity="1"
                 fill-rule="nonzero"
                 id="path37" />
            </g>
          </g>
        </g>
      </g>
    </g>
  </g>
  <g
     fill="#f1faee"
     fill-opacity="1"
     id="g45"
     transform="matrix(1.1626941,0,0,1.1626941,-108.14736,-286.45734)">
    <g
       transform="translate(241.2128,396.51976)"
       id="g44">
      <g
         id="g43">
        <path
           d="m 10.09375,-20.625 c 3.351562,0 5.910156,0.867188 7.671875,2.59375 1.757813,1.730469 2.640625,4.304688 2.640625,7.71875 0,3.40625 -0.882812,5.980469 -2.640625,7.71875 C 16.003906,-0.863281 13.445312,0 10.09375,0 H 2.6875 V -20.625 Z M 9.859375,-3.421875 c 2.125,0 3.710937,-0.539063 4.765625,-1.625 1.050781,-1.09375 1.578125,-2.847656 1.578125,-5.265625 0,-2.414062 -0.527344,-4.164062 -1.578125,-5.25 -1.054688,-1.09375 -2.640625,-1.640625 -4.765625,-1.640625 H 6.75 v 13.78125 z m 0,0"
           id="path42" />
      </g>
    </g>
  </g>
  <g
     fill="#f1faee"
     fill-opacity="1"
     id="g48"
     transform="matrix(1.1626941,0,0,1.1626941,-108.14736,-286.45734)">
    <g
       transform="translate(263.25867,396.51976)"
       id="g47">
      <g
         id="g46">
        <path
           d="m 15.375,-6.890625 h -10 c 0.113281,1.355469 0.5,2.339844 1.15625,2.953125 0.65625,0.617188 1.550781,0.921875 2.6875,0.921875 0.894531,0 1.617188,-0.164063 2.171875,-0.5 0.5625,-0.332031 1.007813,-0.835937 1.34375,-1.515625 H 13.03125 L 15.625,-3.375 c -0.5,1.09375 -1.265625,1.980469 -2.296875,2.65625 -1.023437,0.6796875 -2.390625,1.015625 -4.109375,1.015625 -1.605469,0 -2.996094,-0.30078125 -4.171875,-0.90625 C 3.878906,-1.222656 2.976562,-2.132812 2.34375,-3.34375 1.707031,-4.550781 1.390625,-6.023438 1.390625,-7.765625 c 0,-1.769531 0.332031,-3.257813 1,-4.46875 0.675781,-1.21875 1.582031,-2.125 2.71875,-2.71875 1.132813,-0.601563 2.410156,-0.90625 3.828125,-0.90625 2.207031,0 3.894531,0.585937 5.0625,1.75 1.164062,1.167969 1.75,2.882813 1.75,5.140625 0,0.8125 -0.02734,1.449219 -0.07813,1.90625 z m -3.359375,-2.53125 c -0.03125,-1.1875 -0.308594,-2.050781 -0.828125,-2.59375 -0.511719,-0.539063 -1.261719,-0.8125 -2.25,-0.8125 -1.96875,0 -3.132812,1.136719 -3.484375,3.40625 z m 0,0"
           id="path45" />
      </g>
    </g>
  </g>
  <g
     fill="#f1faee"
     fill-opacity="1"
     id="g51"
     transform="matrix(1.1626941,0,0,1.1626941,-108.14736,-286.45734)">
    <g
       transform="translate(280.17038,396.51976)"
       id="g50">
      <g
         id="g49">
        <path
           d="M 10.734375,-3.703125 11.75,-0.8125 C 11.320312,-0.46875 10.789062,-0.195312 10.15625,0 9.519531,0.195312 8.796875,0.296875 7.984375,0.296875 c -1.6875,0 -2.96875,-0.457031 -3.84375,-1.375 -0.875,-0.914063 -1.3125,-2.25 -1.3125,-4 V -12.46875 H 0.46875 v -3.109375 h 2.359375 v -3.03125 l 3.921875,-0.625 v 3.65625 h 4.40625 v 3.109375 H 6.75 v 7.109375 c 0,0.773437 0.15625,1.335937 0.46875,1.6875 0.320312,0.355469 0.789062,0.53125 1.40625,0.53125 0.6875,0 1.289062,-0.1875 1.8125,-0.5625 z m 0,0"
           id="path48" />
      </g>
    </g>
  </g>
  <g
     fill="#f1faee"
     fill-opacity="1"
     id="g54"
     transform="matrix(1.1626941,0,0,1.1626941,-108.14736,-286.45734)">
    <g
       transform="translate(292.07481,396.51976)"
       id="g53">
      <g
         id="g52">
        <path
           d="m 15.375,-6.890625 h -10 c 0.113281,1.355469 0.5,2.339844 1.15625,2.953125 0.65625,0.617188 1.550781,0.921875 2.6875,0.921875 0.894531,0 1.617188,-0.164063 2.171875,-0.5 0.5625,-0.332031 1.007813,-0.835937 1.34375,-1.515625 H 13.03125 L 15.625,-3.375 c -0.5,1.09375 -1.265625,1.980469 -2.296875,2.65625 -1.023437,0.6796875 -2.390625,1.015625 -4.109375,1.015625 -1.605469,0 -2.996094,-0.30078125 -4.171875,-0.90625 C 3.878906,-1.222656 2.976562,-2.132812 2.34375,-3.34375 1.707031,-4.550781 1.390625,-6.023438 1.390625,-7.765625 c 0,-1.769531 0.332031,-3.257813 1,-4.46875 0.675781,-1.21875 1.582031,-2.125 2.71875,-2.71875 1.132813,-0.601563 2.410156,-0.90625 3.828125,-0.90625 2.207031,0 3.894531,0.585937 5.0625,1.75 1.164062,1.167969 1.75,2.882813 1.75,5.140625 0,0.8125 -0.02734,1.449219 -0.07813,1.90625 z m -3.359375,-2.53125 c -0.03125,-1.1875 -0.308594,-2.050781 -0.828125,-2.59375 -0.511719,-0.539063 -1.261719,-0.8125 -2.25,-0.8125 -1.96875,0 -3.132812,1.136719 -3.484375,3.40625 z m 0,0"
           id="path51" />
      </g>
    </g>
  </g>
  <g
     fill="#f1faee"
     fill-opacity="1"
     id="g57"
     transform="matrix(1.1626941,0,0,1.1626941,-108.14736,-286.45734)">
    <g
       transform="translate(308.98652,396.51976)"
       id="g56">
      <g
         id="g55">
        <path
           d="m 2.25,0 v -15.5625 h 3.78125 v 2.3125 l 0.296875,0.0625 c 0.375,-0.863281 0.867187,-1.5 1.484375,-1.90625 0.613281,-0.40625 1.359375,-0.609375 2.234375,-0.609375 0.882813,0 1.554687,0.152344 2.015625,0.453125 l -0.671875,3.375 -0.28125,0.04687 c -0.261719,-0.101563 -0.511719,-0.175781 -0.75,-0.21875 -0.230469,-0.05078 -0.511719,-0.07813 -0.84375,-0.07813 -1.09375,0 -1.929687,0.386719 -2.5,1.15625 -0.574219,0.773438 -0.859375,2 -0.859375,3.6875 V 0 Z m 0,0"
           id="path54" />
      </g>
    </g>
  </g>
  <g
     fill="#f1faee"
     fill-opacity="1"
     id="g60"
     transform="matrix(1.1626941,0,0,1.1626941,-108.14736,-286.45734)">
    <g
       transform="translate(321.18722,396.51976)"
       id="g59">
      <g
         id="g58">
        <path
           d="M 2.25,0 V -15.5625 H 6 v 2.09375 l 0.296875,0.04687 c 0.5,-0.832031 1.085937,-1.445313 1.765625,-1.84375 0.6875,-0.394531 1.5625,-0.59375 2.625,-0.59375 1.175781,0 2.117188,0.234375 2.828125,0.703125 0.71875,0.46875 1.242187,1.148438 1.578125,2.03125 h 0.296875 c 0.476563,-0.925781 1.09375,-1.613281 1.84375,-2.0625 0.757813,-0.445312 1.707031,-0.671875 2.84375,-0.671875 3.21875,0 4.828125,1.796875 4.828125,5.390625 V 0 H 21 v -9.96875 c 0,-0.914062 -0.179688,-1.578125 -0.53125,-1.984375 -0.355469,-0.40625 -0.929688,-0.609375 -1.71875,-0.609375 -2.148438,0 -3.21875,1.4375 -3.21875,4.3125 V 0 H 11.625 v -9.96875 c 0,-0.914062 -0.183594,-1.578125 -0.546875,-1.984375 -0.367187,-0.40625 -0.9375,-0.609375 -1.71875,-0.609375 -1.011719,0 -1.796875,0.339844 -2.359375,1.015625 -0.5625,0.679687 -0.84375,1.746094 -0.84375,3.203125 V 0 Z m 0,0"
           id="path57" />
      </g>
    </g>
  </g>
  <g
     fill="#f1faee"
     fill-opacity="1"
     id="g63"
     transform="matrix(1.1626941,0,0,1.1626941,-108.14736,-286.45734)">
    <g
       transform="translate(348.09926,396.51976)"
       id="g62">
      <g
         id="g61">
        <path
           d="m 4.1875,-17.421875 c -0.710938,0 -1.28125,-0.210937 -1.71875,-0.640625 -0.4375,-0.425781 -0.65625,-0.976562 -0.65625,-1.65625 0,-0.664062 0.21875,-1.210938 0.65625,-1.640625 C 2.90625,-21.785156 3.476562,-22 4.1875,-22 c 0.46875,0 0.882812,0.101562 1.25,0.296875 0.375,0.199219 0.660156,0.46875 0.859375,0.8125 0.207031,0.335937 0.3125,0.726563 0.3125,1.171875 0,0.4375 -0.105469,0.835938 -0.3125,1.1875 -0.199219,0.34375 -0.484375,0.617188 -0.859375,0.8125 -0.367188,0.199219 -0.78125,0.296875 -1.25,0.296875 z M 2.25,0 V -15.5625 H 6.15625 V 0 Z m 0,0"
           id="path60" />
      </g>
    </g>
  </g>
  <g
     fill="#f1faee"
     fill-opacity="1"
     id="g66"
     transform="matrix(1.1626941,0,0,1.1626941,-108.14736,-286.45734)">
    <g
       transform="translate(356.47754,396.51976)"
       id="g65">
      <g
         id="g64">
        <path
           d="M 2.25,0 V -15.5625 H 6 v 2.28125 l 0.296875,0.07813 c 0.96875,-1.769531 2.535156,-2.65625 4.703125,-2.65625 1.800781,0 3.117188,0.492187 3.953125,1.46875 0.84375,0.980469 1.265625,2.40625 1.265625,4.28125 V 0 H 12.3125 v -9.640625 c 0,-1.03125 -0.210938,-1.773437 -0.625,-2.234375 -0.40625,-0.457031 -1.070312,-0.6875 -1.984375,-0.6875 -1.117187,0 -1.984375,0.367188 -2.609375,1.09375 -0.625,0.730469 -0.9375,1.867188 -0.9375,3.40625 V 0 Z m 0,0"
           id="path63" />
      </g>
    </g>
  </g>
  <g
     fill="#f1faee"
     fill-opacity="1"
     id="g69"
     transform="matrix(1.1626941,0,0,1.1626941,-108.14736,-286.45734)">
    <g
       transform="translate(374.70099,396.51976)"
       id="g68">
      <g
         id="g67">
        <path
           d="m 4.1875,-17.421875 c -0.710938,0 -1.28125,-0.210937 -1.71875,-0.640625 -0.4375,-0.425781 -0.65625,-0.976562 -0.65625,-1.65625 0,-0.664062 0.21875,-1.210938 0.65625,-1.640625 C 2.90625,-21.785156 3.476562,-22 4.1875,-22 c 0.46875,0 0.882812,0.101562 1.25,0.296875 0.375,0.199219 0.660156,0.46875 0.859375,0.8125 0.207031,0.335937 0.3125,0.726563 0.3125,1.171875 0,0.4375 -0.105469,0.835938 -0.3125,1.1875 -0.199219,0.34375 -0.484375,0.617188 -0.859375,0.8125 -0.367188,0.199219 -0.78125,0.296875 -1.25,0.296875 z M 2.25,0 V -15.5625 H 6.15625 V 0 Z m 0,0"
           id="path66" />
      </g>
    </g>
  </g>
  <g
     fill="#f1faee"
     fill-opacity="1"
     id="g72"
     transform="matrix(1.1626941,0,0,1.1626941,-108.14736,-286.45734)">
    <g
       transform="translate(383.07927,396.51976)"
       id="g71">
      <g
         id="g70">
        <path
           d="M 2.25,0 V -15.5625 H 6 v 2.28125 l 0.296875,0.07813 c 0.96875,-1.769531 2.535156,-2.65625 4.703125,-2.65625 1.800781,0 3.117188,0.492187 3.953125,1.46875 0.84375,0.980469 1.265625,2.40625 1.265625,4.28125 V 0 H 12.3125 v -9.640625 c 0,-1.03125 -0.210938,-1.773437 -0.625,-2.234375 -0.40625,-0.457031 -1.070312,-0.6875 -1.984375,-0.6875 -1.117187,0 -1.984375,0.367188 -2.609375,1.09375 -0.625,0.730469 -0.9375,1.867188 -0.9375,3.40625 V 0 Z m 0,0"
           id="path69" />
      </g>
    </g>
  </g>
  <g
     fill="#f1faee"
     fill-opacity="1"
     id="g75"
     transform="matrix(1.1626941,0,0,1.1626941,-108.14736,-286.45734)">
    <g
       transform="translate(401.30272,396.51976)"
       id="g74">
      <g
         id="g73">
        <path
           d="M 8.0625,6.609375 C 5.5,6.609375 3.601562,6.226562 2.375,5.46875 1.15625,4.71875 0.546875,3.671875 0.546875,2.328125 c 0,-0.824219 0.257813,-1.496094 0.78125,-2.015625 0.519531,-0.519531 1.269531,-0.867188 2.25,-1.046875 V -1.03125 c -0.523437,-0.320312 -0.898437,-0.675781 -1.125,-1.0625 -0.230469,-0.394531 -0.34375,-0.847656 -0.34375,-1.359375 0,-1.25 0.8125,-2.09375 2.4375,-2.53125 V -6.28125 c -0.84375,-0.476562 -1.480469,-1.070312 -1.90625,-1.78125 -0.417969,-0.707031 -0.625,-1.566406 -0.625,-2.578125 0,-1.03125 0.234375,-1.9375 0.703125,-2.71875 0.476562,-0.789063 1.175781,-1.40625 2.09375,-1.84375 0.914062,-0.4375 2.015625,-0.65625 3.296875,-0.65625 1.300781,0 2.335937,0.230469 3.109375,0.6875 0.476562,-0.695313 0.753906,-1.503906 0.828125,-2.421875 l 0.296875,-0.1875 2.8125,0.703125 c -0.08594,0.742187 -0.304688,1.367187 -0.65625,1.875 -0.34375,0.5 -0.886719,0.949219 -1.625,1.34375 v 0.296875 c 0.875,0.773438 1.3125,1.851562 1.3125,3.234375 0,0.960937 -0.242188,1.820313 -0.71875,2.578125 -0.480469,0.761719 -1.179688,1.367188 -2.09375,1.8125 -0.917969,0.4375 -2.007812,0.65625 -3.265625,0.65625 l -0.59375,-0.015625 c -0.375,-0.00781 -0.636719,-0.015625 -0.78125,-0.015625 -0.367187,0 -0.648437,0.101562 -0.84375,0.296875 -0.199219,0.1875 -0.296875,0.433594 -0.296875,0.734375 0,0.324219 0.128906,0.578125 0.390625,0.765625 0.257813,0.179687 0.644531,0.277344 1.15625,0.296875 l 3.484375,0.125 c 3.4375,0.105469 5.15625,1.589844 5.15625,4.453125 0,1 -0.257812,1.890625 -0.765625,2.671875 -0.511719,0.789062 -1.339844,1.414062 -2.484375,1.875 C 11.382812,6.375 9.894531,6.609375 8.0625,6.609375 Z m 0.046875,-14.625 c 0.75,0 1.335937,-0.21875 1.765625,-0.65625 0.425781,-0.445313 0.640625,-1.078125 0.640625,-1.890625 0,-0.820312 -0.214844,-1.453125 -0.640625,-1.890625 -0.429688,-0.4375 -1.015625,-0.65625 -1.765625,-0.65625 -0.761719,0 -1.351563,0.21875 -1.765625,0.65625 -0.40625,0.4375 -0.609375,1.070313 -0.609375,1.890625 0,0.824219 0.203125,1.453125 0.609375,1.890625 0.414062,0.4375 1.003906,0.65625 1.765625,0.65625 z M 8.0625,3.765625 c 1.34375,0 2.316406,-0.1875 2.921875,-0.5625 0.601563,-0.375 0.90625,-0.867187 0.90625,-1.46875 0,-0.492187 -0.15625,-0.851563 -0.46875,-1.078125 C 11.117188,0.425781 10.625,0.300781 9.9375,0.28125 L 6.875,0.140625 C 6.769531,0.140625 6.671875,0.132812 6.578125,0.125 6.492188,0.113281 6.40625,0.109375 6.3125,0.109375 5.65625,0.109375 5.15625,0.25 4.8125,0.53125 4.46875,0.8125 4.296875,1.203125 4.296875,1.703125 c 0,0.65625 0.3125,1.160156 0.9375,1.515625 C 5.867188,3.582031 6.8125,3.765625 8.0625,3.765625 Z m 0,0"
           id="path72" />
      </g>
    </g>
  </g>
  <g
     fill="#f1faee"
     fill-opacity="1"
     id="g78"
     transform="matrix(1.1626941,0,0,1.1626941,-108.14736,-286.45734)">
    <g
       transform="translate(230.40811,436.26975)"
       id="g77">
      <g
         id="g76">
        <path
           d="m 2.6875,0 v -20.625 h 8.28125 c 2.125,0 3.726562,0.496094 4.8125,1.484375 1.09375,0.980469 1.640625,2.335937 1.640625,4.0625 0,1.25 -0.320313,2.277344 -0.953125,3.078125 -0.636719,0.792969 -1.585938,1.402344 -2.84375,1.828125 V -9.875 c 0.644531,0.28125 1.164062,0.703125 1.5625,1.265625 0.40625,0.554687 0.785156,1.371094 1.140625,2.453125 L 18.390625,0 h -4.1875 L 12.1875,-6.171875 c -0.210938,-0.613281 -0.445312,-1.09375 -0.703125,-1.4375 -0.25,-0.34375 -0.578125,-0.59375 -0.984375,-0.75 C 10.101562,-8.515625 9.582031,-8.59375 8.9375,-8.59375 H 6.75 V 0 Z m 7.78125,-11.828125 c 1.96875,0 2.953125,-0.921875 2.953125,-2.765625 0,-1.863281 -0.984375,-2.796875 -2.953125,-2.796875 H 6.75 v 5.5625 z m 0,0"
           id="path75" />
      </g>
    </g>
  </g>
  <g
     fill="#f1faee"
     fill-opacity="1"
     id="g81"
     transform="matrix(1.1626941,0,0,1.1626941,-108.14736,-286.45734)">
    <g
       transform="translate(249.28024,436.26975)"
       id="g80">
      <g
         id="g79">
        <path
           d="m 15.375,-6.890625 h -10 c 0.113281,1.355469 0.5,2.339844 1.15625,2.953125 0.65625,0.617188 1.550781,0.921875 2.6875,0.921875 0.894531,0 1.617188,-0.164063 2.171875,-0.5 0.5625,-0.332031 1.007813,-0.835937 1.34375,-1.515625 H 13.03125 L 15.625,-3.375 c -0.5,1.09375 -1.265625,1.980469 -2.296875,2.65625 -1.023437,0.6796875 -2.390625,1.015625 -4.109375,1.015625 -1.605469,0 -2.996094,-0.30078125 -4.171875,-0.90625 C 3.878906,-1.222656 2.976562,-2.132812 2.34375,-3.34375 1.707031,-4.550781 1.390625,-6.023438 1.390625,-7.765625 c 0,-1.769531 0.332031,-3.257813 1,-4.46875 0.675781,-1.21875 1.582031,-2.125 2.71875,-2.71875 1.132813,-0.601563 2.410156,-0.90625 3.828125,-0.90625 2.207031,0 3.894531,0.585937 5.0625,1.75 1.164062,1.167969 1.75,2.882813 1.75,5.140625 0,0.8125 -0.02734,1.449219 -0.07813,1.90625 z m -3.359375,-2.53125 c -0.03125,-1.1875 -0.308594,-2.050781 -0.828125,-2.59375 -0.511719,-0.539063 -1.261719,-0.8125 -2.25,-0.8125 -1.96875,0 -3.132812,1.136719 -3.484375,3.40625 z m 0,0"
           id="path78" />
      </g>
    </g>
  </g>
  <g
     fill="#f1faee"
     fill-opacity="1"
     id="g84"
     transform="matrix(1.1626941,0,0,1.1626941,-108.14736,-286.45734)">
    <g
       transform="translate(266.19195,436.26975)"
       id="g83">
      <g
         id="g82">
        <path
           d="m 12.5,6.3125 v -8.171875 l -0.296875,-0.0625 c -0.9375,1.480469 -2.449219,2.21875 -4.53125,2.21875 C 6.453125,0.296875 5.367188,0 4.421875,-0.59375 3.472656,-1.1875 2.726562,-2.082031 2.1875,-3.28125 1.65625,-4.488281 1.390625,-5.972656 1.390625,-7.734375 c 0,-1.789063 0.273437,-3.289063 0.828125,-4.5 0.550781,-1.21875 1.3125,-2.125 2.28125,-2.71875 0.976562,-0.601563 2.109375,-0.90625 3.390625,-0.90625 0.96875,0 1.8125,0.183594 2.53125,0.546875 0.71875,0.355469 1.3125,0.914062 1.78125,1.671875 L 12.5,-13.703125 V -15.5625 h 3.90625 V 6.3125 Z M 8.953125,-3.015625 c 1.101563,0 1.972656,-0.390625 2.609375,-1.171875 0.644531,-0.78125 0.96875,-1.960938 0.96875,-3.546875 0,-1.613281 -0.324219,-2.816406 -0.96875,-3.609375 -0.636719,-0.800781 -1.507812,-1.203125 -2.609375,-1.203125 -1.15625,0 -2.039063,0.386719 -2.640625,1.15625 -0.59375,0.773437 -0.890625,1.992187 -0.890625,3.65625 0,3.148437 1.175781,4.71875 3.53125,4.71875 z m 0,0"
           id="path81" />
      </g>
    </g>
  </g>
  <g
     fill="#f1faee"
     fill-opacity="1"
     id="g87"
     transform="matrix(1.1626941,0,0,1.1626941,-108.14736,-286.45734)">
    <g
       transform="translate(284.83855,436.26975)"
       id="g86">
      <g
         id="g85">
        <path
           d="M 7.125,0.296875 C 5.375,0.296875 4.082031,-0.175781 3.25,-1.125 2.414062,-2.082031 2,-3.457031 2,-5.25 v -10.3125 h 3.90625 v 9.828125 c 0,0.949219 0.203125,1.640625 0.609375,2.078125 C 6.929688,-3.21875 7.566406,-3 8.421875,-3 c 1.082031,0 1.921875,-0.351562 2.515625,-1.0625 0.601562,-0.71875 0.90625,-1.835938 0.90625,-3.359375 V -15.5625 H 15.75 V 0 H 12 v -2.28125 l -0.296875,-0.078125 c -0.492187,0.898437 -1.101563,1.5625 -1.828125,2 -0.71875,0.4375 -1.636719,0.65625 -2.75,0.65625 z m 0,0"
           id="path84" />
      </g>
    </g>
  </g>
  <g
     fill="#f1faee"
     fill-opacity="1"
     id="g90"
     transform="matrix(1.1626941,0,0,1.1626941,-108.14736,-286.45734)">
    <g
       transform="translate(302.83633,436.26975)"
       id="g89">
      <g
         id="g88">
        <path
           d="m 4.1875,-17.421875 c -0.710938,0 -1.28125,-0.210937 -1.71875,-0.640625 -0.4375,-0.425781 -0.65625,-0.976562 -0.65625,-1.65625 0,-0.664062 0.21875,-1.210938 0.65625,-1.640625 C 2.90625,-21.785156 3.476562,-22 4.1875,-22 c 0.46875,0 0.882812,0.101562 1.25,0.296875 0.375,0.199219 0.660156,0.46875 0.859375,0.8125 0.207031,0.335937 0.3125,0.726563 0.3125,1.171875 0,0.4375 -0.105469,0.835938 -0.3125,1.1875 -0.199219,0.34375 -0.484375,0.617188 -0.859375,0.8125 -0.367188,0.199219 -0.78125,0.296875 -1.25,0.296875 z M 2.25,0 V -15.5625 H 6.15625 V 0 Z m 0,0"
           id="path87" />
      </g>
    </g>
  </g>
  <g
     fill="#f1faee"
     fill-opacity="1"
     id="g93"
     transform="matrix(1.1626941,0,0,1.1626941,-108.14736,-286.45734)">
    <g
       transform="translate(311.21461,436.26975)"
       id="g92">
      <g
         id="g91">
        <path
           d="m 2.25,0 v -15.5625 h 3.78125 v 2.3125 l 0.296875,0.0625 c 0.375,-0.863281 0.867187,-1.5 1.484375,-1.90625 0.613281,-0.40625 1.359375,-0.609375 2.234375,-0.609375 0.882813,0 1.554687,0.152344 2.015625,0.453125 l -0.671875,3.375 -0.28125,0.04687 c -0.261719,-0.101563 -0.511719,-0.175781 -0.75,-0.21875 -0.230469,-0.05078 -0.511719,-0.07813 -0.84375,-0.07813 -1.09375,0 -1.929687,0.386719 -2.5,1.15625 -0.574219,0.773438 -0.859375,2 -0.859375,3.6875 V 0 Z m 0,0"
           id="path90" />
      </g>
    </g>
  </g>
  <g
     fill="#f1faee"
     fill-opacity="1"
     id="g96"
     transform="matrix(1.1626941,0,0,1.1626941,-108.14736,-286.45734)">
    <g
       transform="translate(323.00611,436.26975)"
       id="g95">
      <g
         id="g94">
        <path
           d="m 15.375,-6.890625 h -10 c 0.113281,1.355469 0.5,2.339844 1.15625,2.953125 0.65625,0.617188 1.550781,0.921875 2.6875,0.921875 0.894531,0 1.617188,-0.164063 2.171875,-0.5 0.5625,-0.332031 1.007813,-0.835937 1.34375,-1.515625 H 13.03125 L 15.625,-3.375 c -0.5,1.09375 -1.265625,1.980469 -2.296875,2.65625 -1.023437,0.6796875 -2.390625,1.015625 -4.109375,1.015625 -1.605469,0 -2.996094,-0.30078125 -4.171875,-0.90625 C 3.878906,-1.222656 2.976562,-2.132812 2.34375,-3.34375 1.707031,-4.550781 1.390625,-6.023438 1.390625,-7.765625 c 0,-1.769531 0.332031,-3.257813 1,-4.46875 0.675781,-1.21875 1.582031,-2.125 2.71875,-2.71875 1.132813,-0.601563 2.410156,-0.90625 3.828125,-0.90625 2.207031,0 3.894531,0.585937 5.0625,1.75 1.164062,1.167969 1.75,2.882813 1.75,5.140625 0,0.8125 -0.02734,1.449219 -0.07813,1.90625 z m -3.359375,-2.53125 c -0.03125,-1.1875 -0.308594,-2.050781 -0.828125,-2.59375 -0.511719,-0.539063 -1.261719,-0.8125 -2.25,-0.8125 -1.96875,0 -3.132812,1.136719 -3.484375,3.40625 z m 0,0"
           id="path93" />
      </g>
    </g>
  </g>
  <g
     fill="#f1faee"
     fill-opacity="1"
     id="g99"
     transform="matrix(1.1626941,0,0,1.1626941,-108.14736,-286.45734)">
    <g
       transform="translate(339.91782,436.26975)"
       id="g98">
      <g
         id="g97">
        <path
           d="M 2.25,0 V -15.5625 H 6 v 2.09375 l 0.296875,0.04687 c 0.5,-0.832031 1.085937,-1.445313 1.765625,-1.84375 0.6875,-0.394531 1.5625,-0.59375 2.625,-0.59375 1.175781,0 2.117188,0.234375 2.828125,0.703125 0.71875,0.46875 1.242187,1.148438 1.578125,2.03125 h 0.296875 c 0.476563,-0.925781 1.09375,-1.613281 1.84375,-2.0625 0.757813,-0.445312 1.707031,-0.671875 2.84375,-0.671875 3.21875,0 4.828125,1.796875 4.828125,5.390625 V 0 H 21 v -9.96875 c 0,-0.914062 -0.179688,-1.578125 -0.53125,-1.984375 -0.355469,-0.40625 -0.929688,-0.609375 -1.71875,-0.609375 -2.148438,0 -3.21875,1.4375 -3.21875,4.3125 V 0 H 11.625 v -9.96875 c 0,-0.914062 -0.183594,-1.578125 -0.546875,-1.984375 -0.367187,-0.40625 -0.9375,-0.609375 -1.71875,-0.609375 -1.011719,0 -1.796875,0.339844 -2.359375,1.015625 -0.5625,0.679687 -0.84375,1.746094 -0.84375,3.203125 V 0 Z m 0,0"
           id="path96" />
      </g>
    </g>
  </g>
  <g
     fill="#f1faee"
     fill-opacity="1"
     id="g102"
     transform="matrix(1.1626941,0,0,1.1626941,-108.14736,-286.45734)">
    <g
       transform="translate(366.82986,436.26975)"
       id="g101">
      <g
         id="g100">
        <path
           d="m 15.375,-6.890625 h -10 c 0.113281,1.355469 0.5,2.339844 1.15625,2.953125 0.65625,0.617188 1.550781,0.921875 2.6875,0.921875 0.894531,0 1.617188,-0.164063 2.171875,-0.5 0.5625,-0.332031 1.007813,-0.835937 1.34375,-1.515625 H 13.03125 L 15.625,-3.375 c -0.5,1.09375 -1.265625,1.980469 -2.296875,2.65625 -1.023437,0.6796875 -2.390625,1.015625 -4.109375,1.015625 -1.605469,0 -2.996094,-0.30078125 -4.171875,-0.90625 C 3.878906,-1.222656 2.976562,-2.132812 2.34375,-3.34375 1.707031,-4.550781 1.390625,-6.023438 1.390625,-7.765625 c 0,-1.769531 0.332031,-3.257813 1,-4.46875 0.675781,-1.21875 1.582031,-2.125 2.71875,-2.71875 1.132813,-0.601563 2.410156,-0.90625 3.828125,-0.90625 2.207031,0 3.894531,0.585937 5.0625,1.75 1.164062,1.167969 1.75,2.882813 1.75,5.140625 0,0.8125 -0.02734,1.449219 -0.07813,1.90625 z m -3.359375,-2.53125 c -0.03125,-1.1875 -0.308594,-2.050781 -0.828125,-2.59375 -0.511719,-0.539063 -1.261719,-0.8125 -2.25,-0.8125 -1.96875,0 -3.132812,1.136719 -3.484375,3.40625 z m 0,0"
           id="path99" />
      </g>
    </g>
  </g>
  <g
     fill="#f1faee"
     fill-opacity="1"
     id="g105"
     transform="matrix(1.1626941,0,0,1.1626941,-108.14736,-286.45734)">
    <g
       transform="translate(383.74157,436.26975)"
       id="g104">
      <g
         id="g103">
        <path
           d="M 2.25,0 V -15.5625 H 6 v 2.28125 l 0.296875,0.07813 c 0.96875,-1.769531 2.535156,-2.65625 4.703125,-2.65625 1.800781,0 3.117188,0.492187 3.953125,1.46875 0.84375,0.980469 1.265625,2.40625 1.265625,4.28125 V 0 H 12.3125 v -9.640625 c 0,-1.03125 -0.210938,-1.773437 -0.625,-2.234375 -0.40625,-0.457031 -1.070312,-0.6875 -1.984375,-0.6875 -1.117187,0 -1.984375,0.367188 -2.609375,1.09375 -0.625,0.730469 -0.9375,1.867188 -0.9375,3.40625 V 0 Z m 0,0"
           id="path102" />
      </g>
    </g>
  </g>
  <g
     fill="#f1faee"
     fill-opacity="1"
     id="g108"
     transform="matrix(1.1626941,0,0,1.1626941,-108.14736,-286.45734)">
    <g
       transform="translate(401.85214,436.26975)"
       id="g107">
      <g
         id="g106">
        <path
           d="M 10.734375,-3.703125 11.75,-0.8125 C 11.320312,-0.46875 10.789062,-0.195312 10.15625,0 9.519531,0.195312 8.796875,0.296875 7.984375,0.296875 c -1.6875,0 -2.96875,-0.457031 -3.84375,-1.375 -0.875,-0.914063 -1.3125,-2.25 -1.3125,-4 V -12.46875 H 0.46875 v -3.109375 h 2.359375 v -3.03125 l 3.921875,-0.625 v 3.65625 h 4.40625 v 3.109375 H 6.75 v 7.109375 c 0,0.773437 0.15625,1.335937 0.46875,1.6875 0.320312,0.355469 0.789062,0.53125 1.40625,0.53125 0.6875,0 1.289062,-0.1875 1.8125,-0.5625 z m 0,0"
           id="path105" />
      </g>
    </g>
  </g>
  <g
     fill="#f1faee"
     fill-opacity="1"
     id="g111"
     transform="matrix(1.1626941,0,0,1.1626941,-108.14736,-286.45734)">
    <g
       transform="translate(413.94,436.26975)"
       id="g110">
      <g
         id="g109">
        <path
           d="m 7.28125,0.296875 c -1.0625,0 -2.039062,-0.125 -2.921875,-0.375 -0.886719,-0.25 -1.640625,-0.59375 -2.265625,-1.03125 -0.625,-0.4375 -1.089844,-0.9375 -1.390625,-1.5 L 2.875,-4.953125 H 3.171875 C 3.691406,-4.253906 4.300781,-3.726562 5,-3.375 c 0.707031,0.34375 1.476562,0.515625 2.3125,0.515625 0.757812,0 1.332031,-0.132813 1.71875,-0.40625 0.382812,-0.28125 0.578125,-0.671875 0.578125,-1.171875 0,-0.394531 -0.140625,-0.726562 -0.421875,-1 -0.273438,-0.269531 -0.71875,-0.476562 -1.34375,-0.625 l -2.0625,-0.5 C 4.238281,-6.925781 3.113281,-7.484375 2.40625,-8.234375 1.695312,-8.992188 1.34375,-9.957031 1.34375,-11.125 c 0,-0.96875 0.242188,-1.8125 0.734375,-2.53125 0.5,-0.71875 1.195313,-1.265625 2.09375,-1.640625 0.894531,-0.375 1.941406,-0.5625 3.140625,-0.5625 1.394531,0 2.550781,0.203125 3.46875,0.609375 0.925781,0.40625 1.648438,0.949219 2.171875,1.625 l -2.09375,2.25 h -0.28125 c -0.429687,-0.488281 -0.914063,-0.84375 -1.453125,-1.0625 -0.542969,-0.226562 -1.148438,-0.34375 -1.8125,-0.34375 -1.542969,0 -2.3125,0.480469 -2.3125,1.4375 0,0.40625 0.140625,0.742188 0.421875,1 0.289063,0.25 0.796875,0.453125 1.515625,0.609375 L 8.859375,-9.3125 c 1.582031,0.34375 2.738281,0.890625 3.46875,1.640625 0.726563,0.742187 1.09375,1.742187 1.09375,3 0,0.992187 -0.246094,1.859375 -0.734375,2.609375 -0.492188,0.75 -1.199219,1.335938 -2.125,1.75 C 9.644531,0.09375 8.550781,0.296875 7.28125,0.296875 Z m 0,0"
           id="path108" />
      </g>
    </g>
  </g>
  <g
     clip-path="url(#1e4af87d7f)"
     id="g117"
     transform="matrix(1.1626941,0,0,1.1626941,-108.14736,-286.45734)">
    <g
       clip-path="url(#df527312f1)"
       id="g116">
      <g
         transform="translate(640,353)"
         id="g115">
        <g
           clip-path="url(#6c66c2b4d9)"
           id="g114">
          <g
             clip-path="url(#d8085cd37e)"
             id="g113">
            <g
               clip-path="url(#62a3ad37c7)"
               id="g112">
              <path
                 fill="#e63946"
                 d="M 0.164062,0.53125 H 130.34766 V 103.39453 H 0.164062 Z m 0,0"
                 fill-opacity="1"
                 fill-rule="nonzero"
                 id="path111" />
            </g>
          </g>
        </g>
      </g>
    </g>
  </g>
  <g
     clip-path="url(#5c995f1a04)"
     id="g123"
     transform="matrix(1.1626941,0,0,1.1626941,-108.14736,-286.45734)">
    <g
       clip-path="url(#4886528233)"
       id="g122">
      <g
         transform="translate(424,263)"
         id="g121">
        <g
           clip-path="url(#eb12cee134)"
           id="g120">
          <g
             clip-path="url(#a673da6438)"
             id="g119">
            <g
               clip-path="url(#dd155021a9)"
               id="g118">
              <path
                 fill="#1d3557"
                 d="M 0.855469,0.210938 H 153.01953 V 143.95312 H 0.855469 Z m 0,0"
                 fill-opacity="1"
                 fill-rule="nonzero"
                 id="path117" />
            </g>
          </g>
        </g>
      </g>
    </g>
  </g>
  <g
     clip-path="url(#cff30e75f1)"
     id="g129"
     transform="matrix(1.1626941,0,0,1.1626941,-108.14736,-286.45734)">
    <g
       clip-path="url(#d05f221cd0)"
       id="g128">
      <g
         transform="translate(573,262)"
         id="g127">
        <g
           clip-path="url(#0cfda7b634)"
           id="g126">
          <g
             clip-path="url(#1054d5a91a)"
             id="g125">
            <g
               clip-path="url(#cbb18866fd)"
               id="g124">
              <path
                 fill="#1d3557"
                 d="M 148.64453,0.953125 V 144.95312 H 0.144531 V 0.953125 Z m 0,0"
                 fill-opacity="1"
                 fill-rule="nonzero"
                 id="path123" />
            </g>
          </g>
        </g>
      </g>
    </g>
  </g>
  <g
     clip-path="url(#55cce847ef)"
     id="g135"
     transform="matrix(1.1626941,0,0,1.1626941,-108.14736,-286.45734)">
    <g
       clip-path="url(#a666925b8a)"
       id="g134">
      <g
         transform="translate(573,402)"
         id="g133">
        <g
           clip-path="url(#142cec9a9b)"
           id="g132">
          <g
             clip-path="url(#0d4cb2a82c)"
             id="g131">
            <g
               clip-path="url(#053ba9dd88)"
               id="g130">
              <path
                 fill="#1d3557"
                 d="M 148.64453,144.71484 H 0.410156 V 0.972656 H 148.64453 Z m 0,0"
                 fill-opacity="1"
                 fill-rule="nonzero"
                 id="path129" />
            </g>
          </g>
        </g>
      </g>
    </g>
  </g>
  <g
     clip-path="url(#3b4ed5f2a1)"
     id="g141"
     transform="matrix(1.1626941,0,0,1.1626941,-108.14736,-286.45734)">
    <g
       clip-path="url(#f073f458d9)"
       id="g140">
      <g
         transform="translate(424,402)"
         id="g139">
        <g
           clip-path="url(#b39642578c)"
           id="g138">
          <g
             clip-path="url(#4fac304355)"
             id="g137">
            <g
               clip-path="url(#c849048f81)"
               id="g136">
              <path
                 fill="#1d3557"
                 d="m 0.859375,144.96875 v -144 H 153.29687 v 144 z m 0,0"
                 fill-opacity="1"
                 fill-rule="nonzero"
                 id="path135" />
            </g>
          </g>
        </g>
      </g>
    </g>
  </g>
  <g
     clip-path="url(#5eafac44bd)"
     id="g142"
     transform="matrix(1.1626941,0,0,1.1626941,-108.14736,-286.45734)">
    <path
       fill="#f1faee"
       d="m 490.91406,402.625 c 0,-0.65234 -0.25,-1.30859 -0.75,-1.80859 l -25.60547,-25.60547 c -1,-1 -2.62109,-1 -3.62109,0 l -25.60547,25.60547 c -1,1 -1,2.62109 0,3.62109 1,1 2.62109,1 3.61719,0 L 462.75,380.64062 486.54297,404.4375 c 1,1 2.62109,1 3.62109,0 0.5,-0.5 0.75,-1.15625 0.75,-1.8125 z m 0,0"
       fill-opacity="1"
       fill-rule="nonzero"
       id="path141" />
  </g>
  <g
     clip-path="url(#d62b421b09)"
     id="g143"
     transform="matrix(1.1626941,0,0,1.1626941,-108.14736,-286.45734)">
    <path
       fill="#f1faee"
       d="m 649.63672,377.26562 c 0,0.65625 0.25,1.3125 0.75,1.8125 l 25.60547,25.60547 c 1,1 2.62109,1 3.62109,0 l 25.60938,-25.60547 c 0.99609,-1 0.99609,-2.62109 0,-3.62109 -1,-1 -2.6211,-1 -3.6211,0 L 677.80469,399.25 654.00781,375.45703 c -1,-1 -2.62109,-1 -3.61719,0 -0.5039,0.5 -0.7539,1.15234 -0.7539,1.80859 z m 0,0"
       fill-opacity="1"
       fill-rule="nonzero"
       id="path142" />
  </g>
  <g
     clip-path="url(#d6f93f5ae8)"
     id="g144"
     transform="matrix(1.1626941,0,0,1.1626941,-108.14736,-286.45734)">
    <path
       fill="#f1faee"
       d="m 585.92578,483.95703 c -0.65234,0 -1.30859,0.25 -1.80859,0.74609 l -25.60938,25.60938 c -0.99609,1 -0.99609,2.62109 0,3.62109 l 25.60938,25.60547 c 1,1 2.62109,1 3.62109,0 0.99609,-1 0.99609,-2.62109 0,-3.62109 l -23.79687,-23.79688 23.79687,-23.79297 c 0.99609,-1 0.99609,-2.62109 0,-3.62109 -0.5,-0.5 -1.15625,-0.75 -1.8125,-0.75 z m 0,0"
       fill-opacity="1"
       fill-rule="nonzero"
       id="path143" />
  </g>
  <g
     transform="matrix(1.1626941,0,0,1.1626941,467.38624,30.958146)"
     id="g173">
    <g
       clip-path="url(#e837b2d4d6)"
       id="g172">
      <g
         fill="#f1faee"
         fill-opacity="1"
         id="g147">
        <g
           transform="translate(15.630193,50.371869)"
           id="g146">
          <g
             id="g145">
            <path
               d="m -1,-23.171875 c 1.269531,-0.726563 2.492188,-1.117187 3.671875,-1.171875 1.1875,-0.05078 2.25,0.214844 3.1875,0.796875 0.945313,0.585937 1.738281,1.433594 2.375,2.546875 0.644531,1.117188 0.976563,2.226562 1,3.328125 0.019531,1.105469 -0.292969,2.152344 -0.9375,3.140625 -0.648437,0.992188 -1.605469,1.851562 -2.875,2.578125 l -3.375,1.921875 3.8125,6.671875 L 2.3125,-1.328125 -7.921875,-19.21875 Z m 4.359375,8.6875 c 1.957031,-1.125 2.398437,-2.617187 1.328125,-4.484375 -1.0625,-1.875 -2.574219,-2.25 -4.53125,-1.125 l -2.921875,1.65625 3.203125,5.609375 z m 0,0"
               id="path144" />
          </g>
        </g>
      </g>
      <g
         fill="#f1faee"
         fill-opacity="1"
         id="g150">
        <g
           transform="translate(31.022605,41.722887)"
           id="g149">
          <g
             id="g148">
            <path
               d="m 2.0625,-0.84375 -5.921875,-14.375 3.515625,-1.453125 0.890625,2.140625 0.296875,-0.0625 c 0.019531,-0.9375 0.234375,-1.707031 0.640625,-2.3125 0.40625,-0.601562 1.015625,-1.070312 1.828125,-1.40625 0.8125,-0.34375 1.488281,-0.460938 2.03125,-0.359375 l 0.671875,3.359375 -0.25,0.171875 c -0.292969,0 -0.554687,0.02344 -0.78125,0.0625 -0.230469,0.04297 -0.5,0.132813 -0.8125,0.265625 -1.011719,0.417969 -1.636719,1.089844 -1.875,2.015625 -0.242187,0.917969 -0.039063,2.164063 0.609375,3.734375 l 2.765625,6.71875 z m 0,0"
               id="path147" />
          </g>
        </g>
      </g>
      <g
         fill="#f1faee"
         fill-opacity="1"
         id="g153">
        <g
           transform="translate(41.162587,37.271823)"
           id="g152">
          <g
             id="g151">
            <path
               d="M 8.796875,-2.078125 C 7.328125,-1.679688 5.957031,-1.628906 4.6875,-1.921875 3.414062,-2.222656 2.3125,-2.875 1.375,-3.875 c -0.929688,-1 -1.613281,-2.328125 -2.0625,-3.984375 -0.445312,-1.644531 -0.519531,-3.132813 -0.21875,-4.46875 0.292969,-1.34375 0.91015625,-2.46875 1.859375,-3.375 0.945313,-0.90625 2.15625,-1.554687 3.625,-1.953125 1.46875,-0.394531 2.835937,-0.441406 4.109375,-0.140625 1.269531,0.304687 2.375,0.960937 3.3125,1.96875 0.9375,1 1.628906,2.324219 2.078125,3.96875 0.445313,1.65625 0.519531,3.152344 0.21875,4.484375 -0.304687,1.335938 -0.929687,2.453125 -1.875,3.359375 -0.949219,0.898437 -2.15625,1.542969 -3.625,1.9375 z M 7.9375,-5.265625 c 2.332031,-0.632813 3.082031,-2.484375 2.25,-5.546875 -0.429688,-1.582031 -1.042969,-2.660156 -1.84375,-3.234375 -0.804688,-0.582031 -1.773438,-0.71875 -2.90625,-0.40625 -2.335938,0.636719 -3.085938,2.484375 -2.25,5.546875 0.832031,3.0625 2.414062,4.277344 4.75,3.640625 z m 0,0"
               id="path150" />
          </g>
        </g>
      </g>
      <g
         fill="#f1faee"
         fill-opacity="1"
         id="g156">
        <g
           transform="translate(57.53284,32.960459)"
           id="g155">
          <g
             id="g154">
            <path
               d="m 10.09375,-5.15625 1.421875,2.71875 c -0.375,0.40625 -0.867187,0.757812 -1.46875,1.046875 C 9.441406,-1.109375 8.738281,-0.910156 7.9375,-0.796875 6.28125,-0.566406 4.953125,-0.84375 3.953125,-1.625 c -1,-0.789062 -1.621094,-2.054688 -1.859375,-3.796875 L 1.078125,-12.71875 -1.25,-12.390625 l -0.4375,-3.078125 2.328125,-0.328125 -0.40625,-3.015625 3.78125,-1.15625 0.5,3.625 L 8.875,-16.953125 9.3125,-13.875 4.953125,-13.265625 5.9375,-6.25 c 0.101562,0.773438 0.332031,1.3125 0.6875,1.625 0.363281,0.304688 0.851562,0.414062 1.46875,0.328125 0.6875,-0.09375 1.257812,-0.363281 1.71875,-0.8125 z m 0,0"
               id="path153" />
          </g>
        </g>
      </g>
      <g
         fill="#f1faee"
         fill-opacity="1"
         id="g159">
        <g
           transform="translate(68.354342,31.188754)"
           id="g158">
          <g
             id="g157">
            <path
               d="m 9.03125,0.171875 c -1.523438,0.019531 -2.859375,-0.2695312 -4.015625,-0.875 -1.15625,-0.613281 -2.0625,-1.519531 -2.71875,-2.71875 -0.648437,-1.195313 -0.980469,-2.648437 -1,-4.359375 -0.03125,-1.707031 0.257813,-3.171875 0.875,-4.390625 0.625,-1.226563 1.507813,-2.160156 2.65625,-2.796875 1.144531,-0.644531 2.476563,-0.976562 4,-1 1.519531,-0.0078 2.859375,0.292969 4.015625,0.90625 1.15625,0.605469 2.0625,1.511719 2.71875,2.71875 0.65625,1.199219 1,2.652344 1.03125,4.359375 0.01953,1.710937 -0.28125,3.171875 -0.90625,4.390625 -0.625,1.21875 -1.511719,2.152344 -2.65625,2.796875 -1.148438,0.636719 -2.480469,0.957031 -4,0.96875 z m -0.046875,-3.3125 c 2.414063,-0.03125 3.609375,-1.628906 3.578125,-4.796875 -0.03125,-1.644531 -0.359375,-2.84375 -0.984375,-3.59375 -0.625,-0.757812 -1.527344,-1.132812 -2.703125,-1.125 -2.417969,0.04297 -3.605469,1.652344 -3.5625,4.828125 0.03125,3.167969 1.253906,4.730469 3.671875,4.6875 z m 0,0"
               id="path156" />
          </g>
        </g>
      </g>
      <g
         fill="#f1faee"
         fill-opacity="1"
         id="g162">
        <g
           transform="translate(85.282454,31.08543)"
           id="g161">
          <g
             id="g160">
            <path
               d="M 11.078125,-2.46875 11.75,0.5 C 11.289062,0.800781 10.734375,1.015625 10.078125,1.140625 9.421875,1.265625 8.691406,1.28125 7.890625,1.1875 6.222656,1 5.003906,0.398438 4.234375,-0.609375 3.472656,-1.617188 3.191406,-2.992188 3.390625,-4.734375 L 4.21875,-12.0625 1.875,-12.328125 l 0.34375,-3.09375 2.34375,0.265625 0.34375,-3 3.9375,-0.1875 -0.40625,3.625 4.375,0.5 -0.34375,3.09375 -4.375,-0.5 -0.796875,7.046875 c -0.09375,0.773437 0,1.351563 0.28125,1.734375 0.28125,0.386719 0.726563,0.617188 1.34375,0.6875 0.6875,0.074219 1.304687,-0.039062 1.859375,-0.34375 z m 0,0"
               id="path159" />
          </g>
        </g>
      </g>
      <g
         fill="#f1faee"
         fill-opacity="1"
         id="g165">
        <g
           transform="translate(96.243987,32.122603)"
           id="g164">
          <g
             id="g163">
            <path
               d="M 1.828125,7.21875 C 1.179688,7.0625 0.601562,6.867188 0.09375,6.640625 c -0.5,-0.230469 -0.894531,-0.460937 -1.1875,-0.6875 L 0.25,3.015625 0.515625,3 c 0.1875,0.164062 0.441406,0.320312 0.765625,0.46875 0.332031,0.15625 0.675781,0.273438 1.03125,0.359375 0.613281,0.144531 1.140625,0.1875 1.578125,0.125 0.445313,-0.0625 0.851563,-0.246094 1.21875,-0.546875 0.375,-0.304688 0.75,-0.761719 1.125,-1.375 l -2.328125,-17.078125 3.96875,0.9375 1.28125,11.40625 0.328125,0.078125 6.15625,-9.640625 3.859375,0.90625 -9.859375,14.625 C 8.835938,4.453125 8.050781,5.375 7.28125,6.03125 6.507812,6.6875 5.679688,7.113281 4.796875,7.3125 3.921875,7.507812 2.929688,7.476562 1.828125,7.21875 Z m 0,0"
               id="path162" />
          </g>
        </g>
      </g>
      <g
         fill="#f1faee"
         fill-opacity="1"
         id="g168">
        <g
           transform="translate(111.24958,35.504961)"
           id="g167">
          <g
             id="g166">
            <path
               d="m -0.25,6.671875 8.09375,-20.28125 3.625,1.453125 -0.75,1.890625 0.25,0.15625 c 0.707031,-0.5625 1.492188,-0.882813 2.359375,-0.96875 0.875,-0.09375 1.789063,0.05469 2.75,0.4375 1.15625,0.460937 2.0625,1.140625 2.71875,2.046875 0.65625,0.898438 1,2.007812 1.03125,3.328125 0.03125,1.3125 -0.289063,2.792969 -0.953125,4.4375 -0.65625,1.65625 -1.464844,2.9375 -2.421875,3.84375 -0.949219,0.914063 -1.992187,1.46875 -3.125,1.65625 -1.125,0.195313 -2.28125,0.0625 -3.46875,-0.40625 C 8.960938,3.898438 8.242188,3.4375 7.703125,2.875 7.171875,2.3125 6.804688,1.625 6.609375,0.8125 L 6.3125,0.75 3.375,8.125 Z M 10.09375,0.78125 c 1.082031,0.4375 2.039062,0.410156 2.875,-0.078125 0.84375,-0.492187 1.566406,-1.5 2.171875,-3.03125 0.613281,-1.519531 0.78125,-2.742187 0.5,-3.671875 -0.273437,-0.9375 -0.949219,-1.625 -2.03125,-2.0625 -1.023437,-0.40625 -1.976563,-0.359375 -2.859375,0.140625 -0.875,0.5 -1.609375,1.492187 -2.203125,2.96875 C 7.960938,-3.472656 7.816406,-2.25 8.109375,-1.28125 8.410156,-0.3125 9.070312,0.375 10.09375,0.78125 Z m 0,0"
               id="path165" />
          </g>
        </g>
      </g>
      <g
         fill="#f1faee"
         fill-opacity="1"
         id="g171">
        <g
           transform="translate(127.32496,41.882645)"
           id="g170">
          <g
             id="g169">
            <path
               d="M 16.734375,1.78125 8.109375,-3.25 C 7.523438,-2.03125 7.363281,-0.988281 7.625,-0.125 c 0.257812,0.863281 0.878906,1.582031 1.859375,2.15625 0.757813,0.445312 1.460937,0.664062 2.109375,0.65625 0.65625,0 1.296875,-0.210938 1.921875,-0.625 L 13.78125,2.21875 15.1875,4.9375 C 14.207031,5.632812 13.097656,6.015625 11.859375,6.078125 10.628906,6.148438 9.28125,5.753906 7.8125,4.890625 6.425781,4.085938 5.378906,3.125 4.671875,2 3.960938,0.882812 3.640625,-0.347656 3.703125,-1.703125 3.765625,-3.066406 4.234375,-4.5 5.109375,-6 5.992188,-7.519531 7.03125,-8.640625 8.21875,-9.359375 c 1.1875,-0.71875 2.425781,-1.046875 3.71875,-0.984375 1.289062,0.0625 2.546875,0.449219 3.765625,1.15625 1.894531,1.105469 3.050781,2.460938 3.46875,4.0625 0.425781,1.59375 0.07031,3.359375 -1.0625,5.296875 -0.417969,0.707031 -0.757813,1.25 -1.015625,1.625 z M 15.09375,-2.078125 c 0.582031,-1.050781 0.785156,-1.9375 0.609375,-2.65625 -0.179687,-0.726563 -0.6875,-1.335937 -1.53125,-1.828125 -1.710937,-1 -3.289063,-0.601562 -4.734375,1.1875 z m 0,0"
               id="path168" />
          </g>
        </g>
      </g>
    </g>
  </g>
  <g
     transform="matrix(1.1626941,0,0,1.1626941,402.27538,199.54882)"
     id="g193">
    <g
       clip-path="url(#42e9d65f50)"
       id="g192">
      <g
         fill="#f1faee"
         fill-opacity="1"
         id="g176">
        <g
           transform="translate(15.431558,23.270618)"
           id="g175">
          <g
             id="g174">
            <path
               d="m 1.25,2.359375 18.203125,-9.65625 3.875,7.3125 c 1,1.882813 1.316406,3.535156 0.953125,4.953125 -0.355469,1.425781 -1.292969,2.539062 -2.8125,3.34375 -1.105469,0.59375 -2.164062,0.789062 -3.171875,0.59375 -1,-0.1875 -1.984375,-0.742188 -2.953125,-1.65625 l -0.265625,0.140625 c 0.0625,0.707031 -0.05859,1.367187 -0.359375,1.984375 -0.304688,0.613281 -0.855469,1.332031 -1.65625,2.15625 l -4.453125,4.703125 -1.96875,-3.703125 4.5,-4.671875 c 0.457031,-0.46875 0.773437,-0.898437 0.953125,-1.28125 0.1875,-0.386719 0.253906,-0.792969 0.203125,-1.21875 C 12.242188,4.929688 12.066406,4.4375 11.765625,3.875 L 10.734375,1.953125 3.15625,5.96875 Z m 14.078125,1.34375 c 0.925781,1.75 2.203125,2.191406 3.828125,1.328125 1.644531,-0.875 2.003906,-2.1875 1.078125,-3.9375 L 18.5,-2.171875 13.59375,0.4375 Z m 0,0"
               id="path173" />
          </g>
        </g>
      </g>
      <g
         fill="#f1faee"
         fill-opacity="1"
         id="g179">
        <g
           transform="translate(25.282285,41.433068)"
           id="g178">
          <g
             id="g177">
            <path
               d="m 14.671875,8.234375 -5.9375,-8.03125 c -1.023437,0.894531 -1.585937,1.789063 -1.6875,2.6875 -0.105469,0.894531 0.179687,1.800781 0.859375,2.71875 0.53125,0.707031 1.09375,1.1875 1.6875,1.4375 0.601562,0.25 1.28125,0.304687 2.03125,0.171875 l 0.171875,0.234375 0.21875,3.0625 C 10.828125,10.773438 9.65625,10.691406 8.5,10.265625 7.351562,9.847656 6.269531,8.953125 5.25,7.578125 4.300781,6.285156 3.722656,4.988281 3.515625,3.6875 3.304688,2.382812 3.492188,1.117188 4.078125,-0.109375 c 0.59375,-1.238281 1.585937,-2.375 2.984375,-3.40625 1.414062,-1.050781 2.804688,-1.664063 4.171875,-1.84375 1.375,-0.1875 2.644531,0 3.8125,0.5625 1.164063,0.554687 2.171875,1.398437 3.015625,2.53125 1.300781,1.773437 1.832031,3.46875 1.59375,5.09375 -0.242188,1.632813 -1.265625,3.125 -3.078125,4.46875 C 15.921875,7.785156 15.394531,8.144531 15,8.375 Z m 0.03125,-4.203125 c 0.9375,-0.71875 1.46875,-1.449219 1.59375,-2.1875 0.132813,-0.742188 -0.08984,-1.507812 -0.671875,-2.296875 -1.179688,-1.582031 -2.78125,-1.84375 -4.8125,-0.78125 z m 0,0"
               id="path176" />
          </g>
        </g>
      </g>
      <g
         fill="#f1faee"
         fill-opacity="1"
         id="g182">
        <g
           transform="translate(36.168128,55.731437)"
           id="g181">
          <g
             id="g180">
            <path
               d="m 1.859375,1.984375 9.0625,-8.53125 -1.5,-1.609375 2.265625,-2.140625 1.5,1.609375 c 0.375,-0.5625 0.769531,-1.035156 1.1875,-1.421875 0.71875,-0.675781 1.484375,-1.09375 2.296875,-1.25 0.820313,-0.15625 1.65625,-0.04687 2.5,0.328125 0.851563,0.367188 1.675781,0.96875 2.46875,1.8125 1.175781,1.261719 1.84375,2.402344 2,3.421875 L 20.90625,-4.5 l -0.25,-0.1875 c -0.09375,-0.707031 -0.453125,-1.390625 -1.078125,-2.046875 -0.480469,-0.519531 -0.96875,-0.789063 -1.46875,-0.8125 -0.492187,-0.019531 -0.949219,0.171875 -1.375,0.578125 -0.1875,0.179688 -0.34375,0.351562 -0.46875,0.515625 -0.125,0.167969 -0.257813,0.371094 -0.390625,0.609375 l 3.03125,3.234375 -2.265625,2.140625 -3.03125,-3.234375 -9.0625,8.53125 z m 0,0"
               id="path179" />
          </g>
        </g>
      </g>
      <g
         fill="#f1faee"
         fill-opacity="1"
         id="g185">
        <g
           transform="translate(44.431084,64.384442)"
           id="g184">
          <g
             id="g183">
            <path
               d="m 14.765625,-10.109375 c -0.53125,-0.476563 -0.820313,-1.023437 -0.859375,-1.640625 -0.04297,-0.613281 0.164062,-1.171875 0.625,-1.671875 0.445312,-0.488281 0.976562,-0.742187 1.59375,-0.765625 0.613281,-0.01953 1.1875,0.210938 1.71875,0.6875 0.34375,0.3125 0.582031,0.667969 0.71875,1.0625 0.132812,0.386719 0.160156,0.777344 0.07813,1.171875 -0.07422,0.386719 -0.257813,0.742187 -0.546875,1.0625 -0.304688,0.335937 -0.648438,0.5625 -1.03125,0.6875 -0.375,0.117187 -0.765625,0.125 -1.171875,0.03125 -0.40625,-0.101563 -0.78125,-0.3125 -1.125,-0.625 z M 1.65625,1.5 12.078125,-10.046875 14.984375,-7.4375 4.5625,4.109375 Z m 0,0"
               id="path182" />
          </g>
        </g>
      </g>
      <g
         fill="#f1faee"
         fill-opacity="1"
         id="g188">
        <g
           transform="translate(51.270462,70.847773)"
           id="g187">
          <g
             id="g186">
            <path
               d="m 1.8125,1.3125 9.078125,-12.625 3.046875,2.1875 -1.328125,1.859375 0.1875,0.234375 c 1.820313,-0.875 3.613281,-0.675781 5.375,0.59375 1.457031,1.054688 2.238281,2.226562 2.34375,3.515625 0.113281,1.28125 -0.371094,2.679687 -1.453125,4.1875 L 13.15625,9.46875 9.984375,7.1875 l 5.625,-7.8125 c 0.601563,-0.832031 0.867187,-1.554688 0.796875,-2.171875 -0.0625,-0.613281 -0.46875,-1.191406 -1.21875,-1.734375 -0.90625,-0.644531 -1.824219,-0.851562 -2.75,-0.625 -0.929688,0.21875 -1.84375,0.960938 -2.75,2.21875 L 4.984375,3.59375 Z m 0,0"
               id="path185" />
          </g>
        </g>
      </g>
      <g
         fill="#f1faee"
         fill-opacity="1"
         id="g191">
        <g
           transform="translate(67.23521,82.157748)"
           id="g190">
          <g
             id="g189">
            <path
               d="m 16.8125,0.9375 -8.875,-4.59375 c -0.53125,1.261719 -0.648438,2.320312 -0.34375,3.171875 0.3125,0.84375 0.972656,1.523437 1.984375,2.046875 0.78125,0.40625 1.492187,0.585938 2.140625,0.546875 0.644531,-0.03125 1.273438,-0.277344 1.890625,-0.734375 l 0.265625,0.140625 1.53125,2.65625 c -0.9375,0.738281 -2.023438,1.175781 -3.25,1.3125 C 10.9375,5.617188 9.566406,5.289062 8.046875,4.5 6.617188,3.757812 5.523438,2.847656 4.765625,1.765625 4.003906,0.691406 3.617188,-0.523438 3.609375,-1.890625 c 0,-1.363281 0.398437,-2.816406 1.203125,-4.359375 0.800781,-1.5625 1.773438,-2.726562 2.921875,-3.5 1.15625,-0.769531 2.375,-1.160156 3.65625,-1.171875 1.289063,-0.0078 2.566406,0.3125 3.828125,0.96875 1.945312,1.011719 3.171875,2.304687 3.671875,3.875 0.5,1.5625 0.234375,3.34375 -0.796875,5.34375 -0.375,0.73046875 -0.6875,1.285156 -0.9375,1.671875 z m -1.828125,-3.78125 c 0.507813,-1.0625 0.660156,-1.953125 0.453125,-2.671875 -0.210938,-0.71875 -0.746094,-1.300781 -1.609375,-1.75 -1.761719,-0.90625 -3.3125,-0.4375 -4.65625,1.40625 z m 0,0"
               id="path188" />
          </g>
        </g>
      </g>
    </g>
  </g>
  <g
     transform="matrix(1.1626941,0,0,1.1626941,605.74685,221.63999)"
     id="g207">
    <g
       clip-path="url(#623bd783cc)"
       id="g206">
      <g
         fill="#f1faee"
         fill-opacity="1"
         id="g196">
        <g
           transform="translate(20.806985,64.376989)"
           id="g195">
          <g
             id="g194">
            <path
               d="m 5.109375,-25.90625 1.59375,3.046875 -5.28125,2.75 7.9375,15.21875 -3.578125,1.875 -7.9375,-15.21875 -5.28125,2.75 -1.59375,-3.046875 z m 0,0"
               id="path193" />
          </g>
        </g>
      </g>
      <g
         fill="#f1faee"
         fill-opacity="1"
         id="g199">
        <g
           transform="translate(37.068342,55.777705)"
           id="g198">
          <g
             id="g197">
            <path
               d="m 8.46875,-14.546875 -8.109375,5.8125 C 1.234375,-7.691406 2.113281,-7.113281 3,-7 c 0.894531,0.117188 1.800781,-0.160156 2.71875,-0.828125 0.71875,-0.507813 1.207031,-1.0625 1.46875,-1.65625 0.257812,-0.601563 0.328125,-1.28125 0.203125,-2.03125 l 0.25,-0.171875 3.078125,-0.15625 c 0.226562,1.1875 0.125,2.355469 -0.3125,3.5 -0.4375,1.136719 -1.355469,2.203125 -2.75,3.203125 -1.304688,0.9375 -2.609375,1.5 -3.921875,1.6875 -1.304687,0.1875 -2.5625,-0.019531 -3.78125,-0.625 -1.21875,-0.613281 -2.335937,-1.628906 -3.359375,-3.046875 -1.019531,-1.425781 -1.613281,-2.820312 -1.78125,-4.1875 -0.164062,-1.375 0.042969,-2.640625 0.625,-3.796875 0.574219,-1.15625 1.4375,-2.144531 2.59375,-2.96875 1.78125,-1.28125 3.484375,-1.785156 5.109375,-1.515625 1.625,0.261719 3.09375,1.308594 4.40625,3.140625 0.476563,0.667969 0.832031,1.199219 1.0625,1.59375 z m -4.203125,-0.09375 c -0.710937,-0.945313 -1.433594,-1.488281 -2.171875,-1.625 -0.742188,-0.132813 -1.507812,0.08594 -2.296875,0.65625 -1.613281,1.148437 -1.894531,2.746094 -0.84375,4.796875 z m 0,0"
               id="path196" />
          </g>
        </g>
      </g>
      <g
         fill="#f1faee"
         fill-opacity="1"
         id="g202">
        <g
           transform="translate(51.678466,45.097471)"
           id="g201">
          <g
             id="g200">
            <path
               d="M 5.515625,-4.75 C 4.734375,-4.019531 3.9375,-3.445312 3.125,-3.03125 2.3125,-2.613281 1.523438,-2.351562 0.765625,-2.25 c -0.75,0.105469 -1.425781,0.058594 -2.03125,-0.140625 l -0.03125,-3.1875 0.21875,-0.203125 c 0.867187,0.148438 1.671875,0.109375 2.421875,-0.109375 0.75,-0.226563 1.425781,-0.625 2.03125,-1.1875 0.550781,-0.519531 0.875,-1.007813 0.96875,-1.46875 0.09375,-0.46875 -0.03125,-0.882813 -0.375,-1.25 -0.273438,-0.289063 -0.601562,-0.4375 -0.984375,-0.4375 -0.375,0 -0.84375,0.15625 -1.40625,0.46875 L -0.25,-8.734375 c -1.382812,0.78125 -2.59375,1.140625 -3.625,1.078125 -1.03125,-0.070312 -1.941406,-0.535156 -2.734375,-1.390625 -0.65625,-0.695313 -1.050781,-1.472656 -1.1875,-2.328125 C -7.941406,-12.238281 -7.8125,-13.113281 -7.40625,-14 -7,-14.882812 -6.363281,-15.734375 -5.5,-16.546875 c 1.03125,-0.957031 2.023438,-1.601563 2.96875,-1.9375 0.9375,-0.332031 1.835938,-0.429687 2.6875,-0.296875 v 3.078125 l -0.203125,0.1875 c -0.644531,-0.0625 -1.238281,0.01172 -1.78125,0.21875 -0.550781,0.199219 -1.070313,0.527344 -1.5625,0.984375 -1.125,1.054688 -1.359375,1.933594 -0.703125,2.640625 0.273438,0.292969 0.601562,0.433594 0.984375,0.421875 0.375,-0.01953 0.886719,-0.210938 1.53125,-0.578125 l 1.671875,-1 c 1.382812,-0.84375 2.597656,-1.238281 3.640625,-1.1875 1.050781,0.05469 2.003906,0.539063 2.859375,1.453125 0.675781,0.71875 1.09375,1.523438 1.25,2.40625 C 8,-9.28125 7.878906,-8.375 7.484375,-7.4375 7.097656,-6.507812 6.441406,-5.613281 5.515625,-4.75 Z m 0,0"
               id="path199" />
          </g>
        </g>
      </g>
      <g
         fill="#f1faee"
         fill-opacity="1"
         id="g205">
        <g
           transform="translate(62.801457,34.527806)"
           id="g204">
          <g
             id="g203">
            <path
               d="m 4.15625,-10.546875 2.875,1.109375 C 7.019531,-8.894531 6.878906,-8.316406 6.609375,-7.703125 6.335938,-7.085938 5.9375,-6.472656 5.40625,-5.859375 4.3125,-4.585938 3.132812,-3.914062 1.875,-3.84375 0.613281,-3.769531 -0.679688,-4.304688 -2.015625,-5.453125 L -7.609375,-10.25 -9.140625,-8.46875 -11.5,-10.484375 l 1.53125,-1.78125 -2.296875,-1.96875 2.0625,-3.390625 2.78125,2.390625 2.859375,-3.34375 2.359375,2.015625 -2.859375,3.34375 5.390625,4.625 c 0.582031,0.5 1.109375,0.746094 1.578125,0.734375 0.46875,-0.019531 0.90625,-0.257813 1.3125,-0.71875 0.445312,-0.53125 0.695312,-1.109375 0.75,-1.734375 z m 0,0"
               id="path202" />
          </g>
        </g>
      </g>
    </g>
  </g>
  <g
     clip-path="url(#073f3c11ea)"
     id="g213"
     transform="matrix(1.1626941,0,0,1.1626941,-108.14736,-286.45734)">
    <g
       clip-path="url(#9690d3e53b)"
       id="g212">
      <g
         transform="translate(734,353)"
         id="g211">
        <g
           clip-path="url(#1d1cf1cac7)"
           id="g210">
          <g
             clip-path="url(#c46ba74b53)"
             id="g209">
            <g
               clip-path="url(#ff302bbbc2)"
               id="g208">
              <path
                 fill="#a8dadc"
                 d="M 0.476562,0.53125 H 291.37891 V 103.39453 H 0.476562 Z m 0,0"
                 fill-opacity="1"
                 fill-rule="nonzero"
                 id="path207" />
            </g>
          </g>
        </g>
      </g>
    </g>
  </g>
  <g
     fill="#1d3557"
     fill-opacity="1"
     id="g216"
     transform="matrix(1.1626941,0,0,1.1626941,-108.14736,-286.45734)">
    <g
       transform="translate(852.08551,395.5328)"
       id="g215">
      <g
         id="g214">
        <path
           d="m 2.6875,0 v -20.625 h 8.28125 c 2.125,0 3.726562,0.496094 4.8125,1.484375 1.09375,0.980469 1.640625,2.335937 1.640625,4.0625 0,1.25 -0.320313,2.277344 -0.953125,3.078125 -0.636719,0.792969 -1.585938,1.402344 -2.84375,1.828125 V -9.875 c 0.644531,0.28125 1.164062,0.703125 1.5625,1.265625 0.40625,0.554687 0.785156,1.371094 1.140625,2.453125 L 18.390625,0 h -4.1875 L 12.1875,-6.171875 c -0.210938,-0.613281 -0.445312,-1.09375 -0.703125,-1.4375 -0.25,-0.34375 -0.578125,-0.59375 -0.984375,-0.75 C 10.101562,-8.515625 9.582031,-8.59375 8.9375,-8.59375 H 6.75 V 0 Z m 7.78125,-11.828125 c 1.96875,0 2.953125,-0.921875 2.953125,-2.765625 0,-1.863281 -0.984375,-2.796875 -2.953125,-2.796875 H 6.75 v 5.5625 z m 0,0"
           id="path213" />
      </g>
    </g>
  </g>
  <g
     fill="#1d3557"
     fill-opacity="1"
     id="g219"
     transform="matrix(1.1626941,0,0,1.1626941,-108.14736,-286.45734)">
    <g
       transform="translate(871.36684,395.5328)"
       id="g218">
      <g
         id="g217">
        <path
           d="M 6.0625,0.296875 C 5.070312,0.296875 4.207031,0.113281 3.46875,-0.25 2.738281,-0.613281 2.175781,-1.148438 1.78125,-1.859375 1.382812,-2.578125 1.1875,-3.429688 1.1875,-4.421875 1.1875,-5.347656 1.382812,-6.125 1.78125,-6.75 2.175781,-7.375 2.785156,-7.882812 3.609375,-8.28125 4.441406,-8.6875 5.523438,-9 6.859375,-9.21875 7.785156,-9.363281 8.488281,-9.523438 8.96875,-9.703125 c 0.488281,-0.175781 0.816406,-0.378906 0.984375,-0.609375 0.175781,-0.226562 0.265625,-0.515625 0.265625,-0.859375 0,-0.5 -0.179688,-0.878906 -0.53125,-1.140625 -0.34375,-0.257812 -0.921875,-0.390625 -1.734375,-0.390625 -0.867187,0 -1.6875,0.195313 -2.46875,0.578125 -0.78125,0.386719 -1.460937,0.890625 -2.03125,1.515625 h -0.28125 l -1.640625,-2.46875 c 0.789062,-0.875 1.753906,-1.554687 2.890625,-2.046875 1.144531,-0.488281 2.390625,-0.734375 3.734375,-0.734375 2.0625,0 3.550781,0.4375 4.46875,1.3125 0.925781,0.875 1.390625,2.121094 1.390625,3.734375 v 6.75 c 0,0.699219 0.300781,1.046875 0.90625,1.046875 0.238281,0 0.46875,-0.039063 0.6875,-0.125 l 0.203125,0.046875 0.28125,2.734375 c -0.21875,0.136719 -0.523438,0.25 -0.90625,0.34375 -0.386719,0.0820312 -0.808594,0.125 -1.265625,0.125 -0.929687,0 -1.652344,-0.1757812 -2.171875,-0.53125 -0.523438,-0.351563 -0.898438,-0.914063 -1.125,-1.6875 L 10.328125,-2.125 C 9.566406,-0.507812 8.144531,0.296875 6.0625,0.296875 Z M 7.3125,-2.625 c 0.894531,0 1.613281,-0.300781 2.15625,-0.90625 0.539062,-0.601562 0.8125,-1.445312 0.8125,-2.53125 v -1.578125 l -0.265625,-0.0625 c -0.242187,0.1875 -0.554687,0.34375 -0.9375,0.46875 -0.375,0.125 -0.917969,0.25 -1.625,0.375 C 6.597656,-6.710938 5.984375,-6.46875 5.609375,-6.125 5.242188,-5.78125 5.0625,-5.296875 5.0625,-4.671875 c 0,0.667969 0.195312,1.179687 0.59375,1.53125 C 6.050781,-2.796875 6.601562,-2.625 7.3125,-2.625 Z m 0,0"
           id="path216" />
      </g>
    </g>
  </g>
  <g
     fill="#1d3557"
     fill-opacity="1"
     id="g222"
     transform="matrix(1.1626941,0,0,1.1626941,-108.14736,-286.45734)">
    <g
       transform="translate(887.77078,395.5328)"
       id="g221">
      <g
         id="g220">
        <path
           d="m 2.25,6.3125 v -21.875 h 3.90625 v 2.03125 l 0.296875,0.0625 C 6.910156,-14.257812 7.523438,-14.851562 8.296875,-15.25 9.066406,-15.65625 9.96875,-15.859375 11,-15.859375 c 1.25,0 2.34375,0.296875 3.28125,0.890625 0.9375,0.59375 1.664062,1.496094 2.1875,2.703125 0.519531,1.210937 0.78125,2.710937 0.78125,4.5 0,1.773437 -0.277344,3.261719 -0.828125,4.46875 -0.542969,1.199219 -1.304687,2.101563 -2.28125,2.703125 C 13.160156,0 12.03125,0.296875 10.75,0.296875 9.78125,0.296875 8.941406,0.132812 8.234375,-0.1875 7.535156,-0.507812 6.941406,-1.015625 6.453125,-1.703125 L 6.15625,-1.65625 V 6.3125 Z m 7.40625,-9.328125 c 1.164062,0 2.050781,-0.378906 2.65625,-1.140625 0.601562,-0.757812 0.90625,-1.960938 0.90625,-3.609375 0,-1.644531 -0.304688,-2.851563 -0.90625,-3.625 -0.605469,-0.769531 -1.492188,-1.15625 -2.65625,-1.15625 -1.085938,0 -1.949219,0.398437 -2.59375,1.1875 -0.636719,0.792969 -0.953125,1.992187 -0.953125,3.59375 0,1.585937 0.316406,2.773437 0.953125,3.5625 0.644531,0.792969 1.507812,1.1875 2.59375,1.1875 z m 0,0"
           id="path219" />
      </g>
    </g>
  </g>
  <g
     fill="#1d3557"
     fill-opacity="1"
     id="g225"
     transform="matrix(1.1626941,0,0,1.1626941,-108.14736,-286.45734)">
    <g
       transform="translate(906.40328,395.5328)"
       id="g224">
      <g
         id="g223">
        <path
           d="m 4.1875,-17.421875 c -0.710938,0 -1.28125,-0.210937 -1.71875,-0.640625 -0.4375,-0.425781 -0.65625,-0.976562 -0.65625,-1.65625 0,-0.664062 0.21875,-1.210938 0.65625,-1.640625 C 2.90625,-21.785156 3.476562,-22 4.1875,-22 c 0.46875,0 0.882812,0.101562 1.25,0.296875 0.375,0.199219 0.660156,0.46875 0.859375,0.8125 0.207031,0.335937 0.3125,0.726563 0.3125,1.171875 0,0.4375 -0.105469,0.835938 -0.3125,1.1875 -0.199219,0.34375 -0.484375,0.617188 -0.859375,0.8125 -0.367188,0.199219 -0.78125,0.296875 -1.25,0.296875 z M 2.25,0 V -15.5625 H 6.15625 V 0 Z m 0,0"
           id="path222" />
      </g>
    </g>
  </g>
  <g
     fill="#1d3557"
     fill-opacity="1"
     id="g228"
     transform="matrix(1.1626941,0,0,1.1626941,-108.14736,-286.45734)">
    <g
       transform="translate(914.78156,395.5328)"
       id="g227">
      <g
         id="g226">
        <path
           d="M 7.6875,0.296875 C 6.457031,0.296875 5.367188,0 4.421875,-0.59375 3.472656,-1.195312 2.726562,-2.101562 2.1875,-3.3125 1.65625,-4.519531 1.390625,-6.003906 1.390625,-7.765625 c 0,-1.78125 0.273437,-3.273437 0.828125,-4.484375 0.550781,-1.207031 1.3125,-2.109375 2.28125,-2.703125 0.976562,-0.601563 2.109375,-0.90625 3.390625,-0.90625 0.96875,0 1.804687,0.167969 2.515625,0.5 0.707031,0.335937 1.304688,0.855469 1.796875,1.5625 L 12.5,-13.859375 V -21.8125 h 3.90625 V 0 H 12.5 v -2.015625 l -0.296875,-0.0625 c -0.4375,0.742187 -1.03125,1.324219 -1.78125,1.75 -0.75,0.4140625 -1.664063,0.625 -2.734375,0.625 z m 1.265625,-3.3125 c 1.101563,0 1.972656,-0.390625 2.609375,-1.171875 0.644531,-0.789062 0.96875,-1.984375 0.96875,-3.578125 0,-1.601563 -0.324219,-2.800781 -0.96875,-3.59375 -0.636719,-0.789063 -1.507812,-1.1875 -2.609375,-1.1875 -1.148437,0 -2.023437,0.386719 -2.625,1.15625 -0.605469,0.773437 -0.90625,1.980469 -0.90625,3.625 0,1.636719 0.300781,2.839844 0.90625,3.609375 0.601563,0.761719 1.476563,1.140625 2.625,1.140625 z m 0,0"
           id="path225" />
      </g>
    </g>
  </g>
  <g
     fill="#1d3557"
     fill-opacity="1"
     id="g231"
     transform="matrix(1.1626941,0,0,1.1626941,-108.14736,-286.45734)">
    <g
       transform="translate(799.77302,435.2828)"
       id="g230">
      <g
         id="g229">
        <path
           d="M 11.265625,0.296875 C 9.367188,0.296875 7.695312,-0.0976562 6.25,-0.890625 4.800781,-1.679688 3.664062,-2.867188 2.84375,-4.453125 2.03125,-6.035156 1.625,-7.988281 1.625,-10.3125 c 0,-2.320312 0.40625,-4.273438 1.21875,-5.859375 0.820312,-1.582031 1.957031,-2.769531 3.40625,-3.5625 1.445312,-0.789063 3.117188,-1.1875 5.015625,-1.1875 1.988281,0 3.675781,0.390625 5.0625,1.171875 1.382813,0.773438 2.375,1.953125 2.96875,3.546875 l -2.96875,1.8125 -0.359375,-0.01563 c -0.4375,-1.070312 -1.039062,-1.835938 -1.796875,-2.296875 -0.761719,-0.46875 -1.730469,-0.703125 -2.90625,-0.703125 -1.710937,0 -3.042969,0.570312 -4,1.703125 -0.960937,1.125 -1.4375,2.921875 -1.4375,5.390625 0,2.460938 0.476563,4.257812 1.4375,5.390625 0.957031,1.125 2.289063,1.6875 4,1.6875 2.6875,0 4.328125,-1.300781 4.921875,-3.90625 h 0.359375 l 3,1.5625 c -0.5625,1.960937 -1.527344,3.429687 -2.890625,4.40625 -1.367188,0.980469 -3.164062,1.46875 -5.390625,1.46875 z m 0,0"
           id="path228" />
      </g>
    </g>
  </g>
  <g
     fill="#1d3557"
     fill-opacity="1"
     id="g234"
     transform="matrix(1.1626941,0,0,1.1626941,-108.14736,-286.45734)">
    <g
       transform="translate(819.99936,435.2828)"
       id="g233">
      <g
         id="g232">
        <path
           d="m 9.046875,0.296875 c -1.53125,0 -2.875,-0.3125 -4.03125,-0.9375 -1.148437,-0.625 -2.039063,-1.539063 -2.671875,-2.75 -0.636719,-1.207031 -0.953125,-2.664063 -0.953125,-4.375 0,-1.71875 0.316406,-3.179687 0.953125,-4.390625 0.632812,-1.21875 1.523438,-2.140625 2.671875,-2.765625 1.15625,-0.625 2.5,-0.9375 4.03125,-0.9375 1.519531,0 2.851563,0.3125 4,0.9375 1.15625,0.625 2.050781,1.546875 2.6875,2.765625 0.644531,1.210938 0.96875,2.671875 0.96875,4.390625 0,1.710937 -0.324219,3.167969 -0.96875,4.375 -0.636719,1.210937 -1.53125,2.125 -2.6875,2.75 -1.148437,0.625 -2.480469,0.9375 -4,0.9375 z m 0,-3.3125 c 2.414063,0 3.625,-1.582031 3.625,-4.75 0,-1.644531 -0.3125,-2.851563 -0.9375,-3.625 -0.617187,-0.769531 -1.511719,-1.15625 -2.6875,-1.15625 -2.417969,0 -3.625,1.59375 -3.625,4.78125 0,3.167969 1.207031,4.75 3.625,4.75 z m 0,0"
           id="path231" />
      </g>
    </g>
  </g>
  <g
     fill="#1d3557"
     fill-opacity="1"
     id="g237"
     transform="matrix(1.1626941,0,0,1.1626941,-108.14736,-286.45734)">
    <g
       transform="translate(838.08177,435.2828)"
       id="g236">
      <g
         id="g235">
        <path
           d="M 2.25,0 V -15.5625 H 6 v 2.28125 l 0.296875,0.07813 c 0.96875,-1.769531 2.535156,-2.65625 4.703125,-2.65625 1.800781,0 3.117188,0.492187 3.953125,1.46875 0.84375,0.980469 1.265625,2.40625 1.265625,4.28125 V 0 H 12.3125 v -9.640625 c 0,-1.03125 -0.210938,-1.773437 -0.625,-2.234375 -0.40625,-0.457031 -1.070312,-0.6875 -1.984375,-0.6875 -1.117187,0 -1.984375,0.367188 -2.609375,1.09375 -0.625,0.730469 -0.9375,1.867188 -0.9375,3.40625 V 0 Z m 0,0"
           id="path234" />
      </g>
    </g>
  </g>
  <g
     fill="#1d3557"
     fill-opacity="1"
     id="g240"
     transform="matrix(1.1626941,0,0,1.1626941,-108.14736,-286.45734)">
    <g
       transform="translate(856.30523,435.2828)"
       id="g239">
      <g
         id="g238">
        <path
           d="m 7.28125,0.296875 c -1.0625,0 -2.039062,-0.125 -2.921875,-0.375 -0.886719,-0.25 -1.640625,-0.59375 -2.265625,-1.03125 -0.625,-0.4375 -1.089844,-0.9375 -1.390625,-1.5 L 2.875,-4.953125 H 3.171875 C 3.691406,-4.253906 4.300781,-3.726562 5,-3.375 c 0.707031,0.34375 1.476562,0.515625 2.3125,0.515625 0.757812,0 1.332031,-0.132813 1.71875,-0.40625 0.382812,-0.28125 0.578125,-0.671875 0.578125,-1.171875 0,-0.394531 -0.140625,-0.726562 -0.421875,-1 -0.273438,-0.269531 -0.71875,-0.476562 -1.34375,-0.625 l -2.0625,-0.5 C 4.238281,-6.925781 3.113281,-7.484375 2.40625,-8.234375 1.695312,-8.992188 1.34375,-9.957031 1.34375,-11.125 c 0,-0.96875 0.242188,-1.8125 0.734375,-2.53125 0.5,-0.71875 1.195313,-1.265625 2.09375,-1.640625 0.894531,-0.375 1.941406,-0.5625 3.140625,-0.5625 1.394531,0 2.550781,0.203125 3.46875,0.609375 0.925781,0.40625 1.648438,0.949219 2.171875,1.625 l -2.09375,2.25 h -0.28125 c -0.429687,-0.488281 -0.914063,-0.84375 -1.453125,-1.0625 -0.542969,-0.226562 -1.148438,-0.34375 -1.8125,-0.34375 -1.542969,0 -2.3125,0.480469 -2.3125,1.4375 0,0.40625 0.140625,0.742188 0.421875,1 0.289063,0.25 0.796875,0.453125 1.515625,0.609375 L 8.859375,-9.3125 c 1.582031,0.34375 2.738281,0.890625 3.46875,1.640625 0.726563,0.742187 1.09375,1.742187 1.09375,3 0,0.992187 -0.246094,1.859375 -0.734375,2.609375 -0.492188,0.75 -1.199219,1.335938 -2.125,1.75 C 9.644531,0.09375 8.550781,0.296875 7.28125,0.296875 Z m 0,0"
           id="path237" />
      </g>
    </g>
  </g>
  <g
     fill="#1d3557"
     fill-opacity="1"
     id="g243"
     transform="matrix(1.1626941,0,0,1.1626941,-108.14736,-286.45734)">
    <g
       transform="translate(870.64986,435.2828)"
       id="g242">
      <g
         id="g241">
        <path
           d="M 10.734375,-3.703125 11.75,-0.8125 C 11.320312,-0.46875 10.789062,-0.195312 10.15625,0 9.519531,0.195312 8.796875,0.296875 7.984375,0.296875 c -1.6875,0 -2.96875,-0.457031 -3.84375,-1.375 -0.875,-0.914063 -1.3125,-2.25 -1.3125,-4 V -12.46875 H 0.46875 v -3.109375 h 2.359375 v -3.03125 l 3.921875,-0.625 v 3.65625 h 4.40625 v 3.109375 H 6.75 v 7.109375 c 0,0.773437 0.15625,1.335937 0.46875,1.6875 0.320312,0.355469 0.789062,0.53125 1.40625,0.53125 0.6875,0 1.289062,-0.1875 1.8125,-0.5625 z m 0,0"
           id="path240" />
      </g>
    </g>
  </g>
  <g
     fill="#1d3557"
     fill-opacity="1"
     id="g246"
     transform="matrix(1.1626941,0,0,1.1626941,-108.14736,-286.45734)">
    <g
       transform="translate(882.73771,435.2828)"
       id="g245">
      <g
         id="g244">
        <path
           d="m 2.25,0 v -15.5625 h 3.78125 v 2.3125 l 0.296875,0.0625 c 0.375,-0.863281 0.867187,-1.5 1.484375,-1.90625 0.613281,-0.40625 1.359375,-0.609375 2.234375,-0.609375 0.882813,0 1.554687,0.152344 2.015625,0.453125 l -0.671875,3.375 -0.28125,0.04687 c -0.261719,-0.101563 -0.511719,-0.175781 -0.75,-0.21875 -0.230469,-0.05078 -0.511719,-0.07813 -0.84375,-0.07813 -1.09375,0 -1.929687,0.386719 -2.5,1.15625 -0.574219,0.773438 -0.859375,2 -0.859375,3.6875 V 0 Z m 0,0"
           id="path243" />
      </g>
    </g>
  </g>
  <g
     fill="#1d3557"
     fill-opacity="1"
     id="g249"
     transform="matrix(1.1626941,0,0,1.1626941,-108.14736,-286.45734)">
    <g
       transform="translate(894.93841,435.2828)"
       id="g248">
      <g
         id="g247">
        <path
           d="M 7.125,0.296875 C 5.375,0.296875 4.082031,-0.175781 3.25,-1.125 2.414062,-2.082031 2,-3.457031 2,-5.25 v -10.3125 h 3.90625 v 9.828125 c 0,0.949219 0.203125,1.640625 0.609375,2.078125 C 6.929688,-3.21875 7.566406,-3 8.421875,-3 c 1.082031,0 1.921875,-0.351562 2.515625,-1.0625 0.601562,-0.71875 0.90625,-1.835938 0.90625,-3.359375 V -15.5625 H 15.75 V 0 H 12 v -2.28125 l -0.296875,-0.078125 c -0.492187,0.898437 -1.101563,1.5625 -1.828125,2 -0.71875,0.4375 -1.636719,0.65625 -2.75,0.65625 z m 0,0"
           id="path246" />
      </g>
    </g>
  </g>
  <g
     fill="#1d3557"
     fill-opacity="1"
     id="g252"
     transform="matrix(1.1626941,0,0,1.1626941,-108.14736,-286.45734)">
    <g
       transform="translate(912.93619,435.2828)"
       id="g251">
      <g
         id="g250">
        <path
           d="m 9.078125,0.296875 c -1.511719,0 -2.84375,-0.3125 -4,-0.9375 -1.15625,-0.625 -2.0625,-1.539063 -2.71875,-2.75 -0.648437,-1.21875 -0.96875,-2.675781 -0.96875,-4.375 0,-1.71875 0.320313,-3.179687 0.96875,-4.390625 0.65625,-1.21875 1.554687,-2.140625 2.703125,-2.765625 1.144531,-0.625 2.457031,-0.9375 3.9375,-0.9375 3.28125,0 5.382812,1.195313 6.3125,3.578125 L 12.625,-10.375 h -0.296875 c -0.324219,-0.726562 -0.742187,-1.269531 -1.25,-1.625 C 10.566406,-12.363281 9.875,-12.546875 9,-12.546875 c -1.125,0 -2.007812,0.390625 -2.640625,1.171875 -0.625,0.78125 -0.9375,1.984375 -0.9375,3.609375 0,1.59375 0.316406,2.789063 0.953125,3.578125 0.632812,0.78125 1.535156,1.171875 2.703125,1.171875 0.84375,0 1.554687,-0.226563 2.140625,-0.6875 0.59375,-0.457031 1.015625,-1.113281 1.265625,-1.96875 l 0.296875,-0.03125 2.78125,1.53125 c -0.398438,1.3125 -1.132812,2.386719 -2.203125,3.21875 -1.0625,0.835937 -2.492187,1.25 -4.28125,1.25 z m 0,0"
           id="path249" />
      </g>
    </g>
  </g>
  <g
     fill="#1d3557"
     fill-opacity="1"
     id="g255"
     transform="matrix(1.1626941,0,0,1.1626941,-108.14736,-286.45734)">
    <g
       transform="translate(928.9734,435.2828)"
       id="g254">
      <g
         id="g253">
        <path
           d="M 10.734375,-3.703125 11.75,-0.8125 C 11.320312,-0.46875 10.789062,-0.195312 10.15625,0 9.519531,0.195312 8.796875,0.296875 7.984375,0.296875 c -1.6875,0 -2.96875,-0.457031 -3.84375,-1.375 -0.875,-0.914063 -1.3125,-2.25 -1.3125,-4 V -12.46875 H 0.46875 v -3.109375 h 2.359375 v -3.03125 l 3.921875,-0.625 v 3.65625 h 4.40625 v 3.109375 H 6.75 v 7.109375 c 0,0.773437 0.15625,1.335937 0.46875,1.6875 0.320312,0.355469 0.789062,0.53125 1.40625,0.53125 0.6875,0 1.289062,-0.1875 1.8125,-0.5625 z m 0,0"
           id="path252" />
      </g>
    </g>
  </g>
  <g
     fill="#1d3557"
     fill-opacity="1"
     id="g258"
     transform="matrix(1.1626941,0,0,1.1626941,-108.14736,-286.45734)">
    <g
       transform="translate(941.06125,435.2828)"
       id="g257">
      <g
         id="g256">
        <path
           d="m 4.1875,-17.421875 c -0.710938,0 -1.28125,-0.210937 -1.71875,-0.640625 -0.4375,-0.425781 -0.65625,-0.976562 -0.65625,-1.65625 0,-0.664062 0.21875,-1.210938 0.65625,-1.640625 C 2.90625,-21.785156 3.476562,-22 4.1875,-22 c 0.46875,0 0.882812,0.101562 1.25,0.296875 0.375,0.199219 0.660156,0.46875 0.859375,0.8125 0.207031,0.335937 0.3125,0.726563 0.3125,1.171875 0,0.4375 -0.105469,0.835938 -0.3125,1.1875 -0.199219,0.34375 -0.484375,0.617188 -0.859375,0.8125 -0.367188,0.199219 -0.78125,0.296875 -1.25,0.296875 z M 2.25,0 V -15.5625 H 6.15625 V 0 Z m 0,0"
           id="path255" />
      </g>
    </g>
  </g>
  <g
     fill="#1d3557"
     fill-opacity="1"
     id="g261"
     transform="matrix(1.1626941,0,0,1.1626941,-108.14736,-286.45734)">
    <g
       transform="translate(949.43953,435.2828)"
       id="g260">
      <g
         id="g259">
        <path
           d="m 9.046875,0.296875 c -1.53125,0 -2.875,-0.3125 -4.03125,-0.9375 -1.148437,-0.625 -2.039063,-1.539063 -2.671875,-2.75 -0.636719,-1.207031 -0.953125,-2.664063 -0.953125,-4.375 0,-1.71875 0.316406,-3.179687 0.953125,-4.390625 0.632812,-1.21875 1.523438,-2.140625 2.671875,-2.765625 1.15625,-0.625 2.5,-0.9375 4.03125,-0.9375 1.519531,0 2.851563,0.3125 4,0.9375 1.15625,0.625 2.050781,1.546875 2.6875,2.765625 0.644531,1.210938 0.96875,2.671875 0.96875,4.390625 0,1.710937 -0.324219,3.167969 -0.96875,4.375 -0.636719,1.210937 -1.53125,2.125 -2.6875,2.75 -1.148437,0.625 -2.480469,0.9375 -4,0.9375 z m 0,-3.3125 c 2.414063,0 3.625,-1.582031 3.625,-4.75 0,-1.644531 -0.3125,-2.851563 -0.9375,-3.625 -0.617187,-0.769531 -1.511719,-1.15625 -2.6875,-1.15625 -2.417969,0 -3.625,1.59375 -3.625,4.78125 0,3.167969 1.207031,4.75 3.625,4.75 z m 0,0"
           id="path258" />
      </g>
    </g>
  </g>
  <g
     fill="#1d3557"
     fill-opacity="1"
     id="g264"
     transform="matrix(1.1626941,0,0,1.1626941,-108.14736,-286.45734)">
    <g
       transform="translate(967.52194,435.2828)"
       id="g263">
      <g
         id="g262">
        <path
           d="M 2.25,0 V -15.5625 H 6 v 2.28125 l 0.296875,0.07813 c 0.96875,-1.769531 2.535156,-2.65625 4.703125,-2.65625 1.800781,0 3.117188,0.492187 3.953125,1.46875 0.84375,0.980469 1.265625,2.40625 1.265625,4.28125 V 0 H 12.3125 v -9.640625 c 0,-1.03125 -0.210938,-1.773437 -0.625,-2.234375 -0.40625,-0.457031 -1.070312,-0.6875 -1.984375,-0.6875 -1.117187,0 -1.984375,0.367188 -2.609375,1.09375 -0.625,0.730469 -0.9375,1.867188 -0.9375,3.40625 V 0 Z m 0,0"
           id="path261" />
      </g>
    </g>
  </g>
  <g
     clip-path="url(#3f91aba3ac)"
     id="g270"
     transform="matrix(1.1626941,0,0,1.1626941,-108.14736,-286.45734)">
    <g
       clip-path="url(#0cd22de6e1)"
       id="g269">
      <g
         transform="translate(988,353)"
         id="g268">
        <g
           clip-path="url(#1febd68455)"
           id="g267">
          <g
             clip-path="url(#bccec7a152)"
             id="g266">
            <g
               clip-path="url(#b41fcf30cb)"
               id="g265">
              <path
                 fill="#457b9d"
                 d="M 0.109375,0.53125 H 308.69141 V 103.39453 H 0.109375 Z m 0,0"
                 fill-opacity="1"
                 fill-rule="nonzero"
                 id="path264" />
            </g>
          </g>
        </g>
      </g>
    </g>
  </g>
  <g
     fill="#f1faee"
     fill-opacity="1"
     id="g273"
     transform="matrix(1.1626941,0,0,1.1626941,-108.14736,-286.45734)">
    <g
       transform="translate(1098.4894,415.0328)"
       id="g272">
      <g
         id="g271">
        <path
           d="M 11.265625,0.296875 C 9.367188,0.296875 7.695312,-0.0976562 6.25,-0.890625 4.800781,-1.679688 3.664062,-2.867188 2.84375,-4.453125 2.03125,-6.035156 1.625,-7.988281 1.625,-10.3125 c 0,-2.320312 0.40625,-4.273438 1.21875,-5.859375 0.820312,-1.582031 1.957031,-2.769531 3.40625,-3.5625 1.445312,-0.789063 3.117188,-1.1875 5.015625,-1.1875 1.988281,0 3.675781,0.390625 5.0625,1.171875 1.382813,0.773438 2.375,1.953125 2.96875,3.546875 l -2.96875,1.8125 -0.359375,-0.01563 c -0.4375,-1.070312 -1.039062,-1.835938 -1.796875,-2.296875 -0.761719,-0.46875 -1.730469,-0.703125 -2.90625,-0.703125 -1.710937,0 -3.042969,0.570312 -4,1.703125 -0.960937,1.125 -1.4375,2.921875 -1.4375,5.390625 0,2.460938 0.476563,4.257812 1.4375,5.390625 0.957031,1.125 2.289063,1.6875 4,1.6875 2.6875,0 4.328125,-1.300781 4.921875,-3.90625 h 0.359375 l 3,1.5625 c -0.5625,1.960937 -1.527344,3.429687 -2.890625,4.40625 -1.367188,0.980469 -3.164062,1.46875 -5.390625,1.46875 z m 0,0"
           id="path270" />
      </g>
    </g>
  </g>
  <g
     fill="#f1faee"
     fill-opacity="1"
     id="g276"
     transform="matrix(1.1626941,0,0,1.1626941,-108.14736,-286.45734)">
    <g
       transform="translate(1118.7158,415.0328)"
       id="g275">
      <g
         id="g274">
        <path
           d="M 7.125,0.296875 C 5.375,0.296875 4.082031,-0.175781 3.25,-1.125 2.414062,-2.082031 2,-3.457031 2,-5.25 v -10.3125 h 3.90625 v 9.828125 c 0,0.949219 0.203125,1.640625 0.609375,2.078125 C 6.929688,-3.21875 7.566406,-3 8.421875,-3 c 1.082031,0 1.921875,-0.351562 2.515625,-1.0625 0.601562,-0.71875 0.90625,-1.835938 0.90625,-3.359375 V -15.5625 H 15.75 V 0 H 12 v -2.28125 l -0.296875,-0.078125 c -0.492187,0.898437 -1.101563,1.5625 -1.828125,2 -0.71875,0.4375 -1.636719,0.65625 -2.75,0.65625 z m 0,0"
           id="path273" />
      </g>
    </g>
  </g>
  <g
     fill="#f1faee"
     fill-opacity="1"
     id="g279"
     transform="matrix(1.1626941,0,0,1.1626941,-108.14736,-286.45734)">
    <g
       transform="translate(1136.7136,415.0328)"
       id="g278">
      <g
         id="g277">
        <path
           d="M 10.734375,-3.703125 11.75,-0.8125 C 11.320312,-0.46875 10.789062,-0.195312 10.15625,0 9.519531,0.195312 8.796875,0.296875 7.984375,0.296875 c -1.6875,0 -2.96875,-0.457031 -3.84375,-1.375 -0.875,-0.914063 -1.3125,-2.25 -1.3125,-4 V -12.46875 H 0.46875 v -3.109375 h 2.359375 v -3.03125 l 3.921875,-0.625 v 3.65625 h 4.40625 v 3.109375 H 6.75 v 7.109375 c 0,0.773437 0.15625,1.335937 0.46875,1.6875 0.320312,0.355469 0.789062,0.53125 1.40625,0.53125 0.6875,0 1.289062,-0.1875 1.8125,-0.5625 z m 0,0"
           id="path276" />
      </g>
    </g>
  </g>
  <g
     fill="#f1faee"
     fill-opacity="1"
     id="g282"
     transform="matrix(1.1626941,0,0,1.1626941,-108.14736,-286.45734)">
    <g
       transform="translate(1148.618,415.0328)"
       id="g281">
      <g
         id="g280">
        <path
           d="m 9.046875,0.296875 c -1.53125,0 -2.875,-0.3125 -4.03125,-0.9375 -1.148437,-0.625 -2.039063,-1.539063 -2.671875,-2.75 -0.636719,-1.207031 -0.953125,-2.664063 -0.953125,-4.375 0,-1.71875 0.316406,-3.179687 0.953125,-4.390625 0.632812,-1.21875 1.523438,-2.140625 2.671875,-2.765625 1.15625,-0.625 2.5,-0.9375 4.03125,-0.9375 1.519531,0 2.851563,0.3125 4,0.9375 1.15625,0.625 2.050781,1.546875 2.6875,2.765625 0.644531,1.210938 0.96875,2.671875 0.96875,4.390625 0,1.710937 -0.324219,3.167969 -0.96875,4.375 -0.636719,1.210937 -1.53125,2.125 -2.6875,2.75 -1.148437,0.625 -2.480469,0.9375 -4,0.9375 z m 0,-3.3125 c 2.414063,0 3.625,-1.582031 3.625,-4.75 0,-1.644531 -0.3125,-2.851563 -0.9375,-3.625 -0.617187,-0.769531 -1.511719,-1.15625 -2.6875,-1.15625 -2.417969,0 -3.625,1.59375 -3.625,4.78125 0,3.167969 1.207031,4.75 3.625,4.75 z m 0,0"
           id="path279" />
      </g>
    </g>
  </g>
  <g
     fill="#f1faee"
     fill-opacity="1"
     id="g285"
     transform="matrix(1.1626941,0,0,1.1626941,-108.14736,-286.45734)">
    <g
       transform="translate(1166.4041,415.0328)"
       id="g284">
      <g
         id="g283">
        <path
           d="m 10.703125,0 h -4.65625 l -5.75,-15.5625 h 4.09375 L 8.25,-4.46875 h 0.328125 l 3.875,-11.09375 h 4 z m 0,0"
           id="path282" />
      </g>
    </g>
  </g>
  <g
     fill="#f1faee"
     fill-opacity="1"
     id="g288"
     transform="matrix(1.1626941,0,0,1.1626941,-108.14736,-286.45734)">
    <g
       transform="translate(1182.8361,415.0328)"
       id="g287">
      <g
         id="g286">
        <path
           d="m 15.375,-6.890625 h -10 c 0.113281,1.355469 0.5,2.339844 1.15625,2.953125 0.65625,0.617188 1.550781,0.921875 2.6875,0.921875 0.894531,0 1.617188,-0.164063 2.171875,-0.5 0.5625,-0.332031 1.007813,-0.835937 1.34375,-1.515625 H 13.03125 L 15.625,-3.375 c -0.5,1.09375 -1.265625,1.980469 -2.296875,2.65625 -1.023437,0.6796875 -2.390625,1.015625 -4.109375,1.015625 -1.605469,0 -2.996094,-0.30078125 -4.171875,-0.90625 C 3.878906,-1.222656 2.976562,-2.132812 2.34375,-3.34375 1.707031,-4.550781 1.390625,-6.023438 1.390625,-7.765625 c 0,-1.769531 0.332031,-3.257813 1,-4.46875 0.675781,-1.21875 1.582031,-2.125 2.71875,-2.71875 1.132813,-0.601563 2.410156,-0.90625 3.828125,-0.90625 2.207031,0 3.894531,0.585937 5.0625,1.75 1.164062,1.167969 1.75,2.882813 1.75,5.140625 0,0.8125 -0.02734,1.449219 -0.07813,1.90625 z m -3.359375,-2.53125 c -0.03125,-1.1875 -0.308594,-2.050781 -0.828125,-2.59375 -0.511719,-0.539063 -1.261719,-0.8125 -2.25,-0.8125 -1.96875,0 -3.132812,1.136719 -3.484375,3.40625 z m 0,0"
           id="path285" />
      </g>
    </g>
  </g>
  <g
     fill="#f1faee"
     fill-opacity="1"
     id="g291"
     transform="matrix(1.1626941,0,0,1.1626941,-108.14736,-286.45734)">
    <g
       transform="translate(1199.7478,415.0328)"
       id="g290">
      <g
         id="g289">
        <path
           d="m 2.25,0 v -15.5625 h 3.78125 v 2.3125 l 0.296875,0.0625 c 0.375,-0.863281 0.867187,-1.5 1.484375,-1.90625 0.613281,-0.40625 1.359375,-0.609375 2.234375,-0.609375 0.882813,0 1.554687,0.152344 2.015625,0.453125 l -0.671875,3.375 -0.28125,0.04687 c -0.261719,-0.101563 -0.511719,-0.175781 -0.75,-0.21875 -0.230469,-0.05078 -0.511719,-0.07813 -0.84375,-0.07813 -1.09375,0 -1.929687,0.386719 -2.5,1.15625 -0.574219,0.773438 -0.859375,2 -0.859375,3.6875 V 0 Z m 0,0"
           id="path288" />
      </g>
    </g>
  </g>
</svg>
