<svg xmlns="http://www.w3.org/2000/svg" xmlns:xlink="http://www.w3.org/1999/xlink" width="1920" zoomAndPan="magnify" viewBox="0 0 1440 809.999993" height="1080" preserveAspectRatio="xMidYMid meet" version="1.0"><defs><g/><clipPath id="0623f36de5"><path d="M 142.070312 354.519531 L 491 354.519531 L 491 457.378906 L 142.070312 457.378906 Z M 142.070312 354.519531 " clip-rule="nonzero"/></clipPath><clipPath id="b41922f195"><path d="M 142.070312 354.519531 L 439.492188 354.519531 L 490.921875 405.949219 L 439.492188 457.378906 L 142.070312 457.378906 L 193.503906 405.949219 Z M 142.070312 354.519531 " clip-rule="nonzero"/></clipPath><clipPath id="c3a17e5681"><path d="M 0.0703125 0.519531 L 349 0.519531 L 349 103.378906 L 0.0703125 103.378906 Z M 0.0703125 0.519531 " clip-rule="nonzero"/></clipPath><clipPath id="60814977d8"><path d="M 0.0703125 0.519531 L 297.492188 0.519531 L 348.921875 51.949219 L 297.492188 103.378906 L 0.0703125 103.378906 L 51.503906 51.949219 Z M 0.0703125 0.519531 " clip-rule="nonzero"/></clipPath><clipPath id="842f3f67f0"><rect x="0" width="349" y="0" height="104"/></clipPath><clipPath id="1e4af87d7f"><path d="M 640.164062 353.53125 L 770.75 353.53125 L 770.75 456.394531 L 640.164062 456.394531 Z M 640.164062 353.53125 " clip-rule="nonzero"/></clipPath><clipPath id="df527312f1"><path d="M 640.164062 353.53125 L 719.015625 353.53125 L 770.445312 404.964844 L 719.015625 456.394531 L 640.164062 456.394531 L 691.59375 404.964844 Z M 640.164062 353.53125 " clip-rule="nonzero"/></clipPath><clipPath id="d8085cd37e"><path d="M 0.164062 0.53125 L 130.640625 0.53125 L 130.640625 103.394531 L 0.164062 103.394531 Z M 0.164062 0.53125 " clip-rule="nonzero"/></clipPath><clipPath id="62a3ad37c7"><path d="M 0.164062 0.53125 L 79.015625 0.53125 L 130.445312 51.964844 L 79.015625 103.394531 L 0.164062 103.394531 L 51.59375 51.964844 Z M 0.164062 0.53125 " clip-rule="nonzero"/></clipPath><clipPath id="6c66c2b4d9"><rect x="0" width="131" y="0" height="104"/></clipPath><clipPath id="5c995f1a04"><path d="M 424.855469 263.210938 L 577.582031 263.210938 L 577.582031 406.953125 L 424.855469 406.953125 Z M 424.855469 263.210938 " clip-rule="nonzero"/></clipPath><clipPath id="4886528233"><path d="M 424.855469 406.953125 C 424.855469 369.097656 441.109375 332.078125 469.488281 305.308594 C 497.867188 278.542969 537.109375 263.210938 577.242188 263.210938 L 577.242188 336.542969 C 557.585938 336.542969 538.363281 344.050781 524.460938 357.164062 C 510.558594 370.277344 502.597656 388.410156 502.597656 406.953125 Z M 424.855469 406.953125 " clip-rule="nonzero"/></clipPath><clipPath id="a673da6438"><path d="M 0.855469 0.210938 L 153.441406 0.210938 L 153.441406 143.953125 L 0.855469 143.953125 Z M 0.855469 0.210938 " clip-rule="nonzero"/></clipPath><clipPath id="dd155021a9"><path d="M 0.855469 143.953125 C 0.855469 106.097656 17.109375 69.078125 45.488281 42.308594 C 73.867188 15.542969 113.109375 0.210938 153.242188 0.210938 L 153.242188 73.542969 C 133.585938 73.542969 114.363281 81.050781 100.460938 94.164062 C 86.558594 107.277344 78.597656 125.410156 78.597656 143.953125 Z M 0.855469 143.953125 " clip-rule="nonzero"/></clipPath><clipPath id="eb12cee134"><rect x="0" width="154" y="0" height="144"/></clipPath><clipPath id="cff30e75f1"><path d="M 573.144531 262.953125 L 722 262.953125 L 722 406.953125 L 573.144531 406.953125 Z M 573.144531 262.953125 " clip-rule="nonzero"/></clipPath><clipPath id="d05f221cd0"><path d="M 573.25 262.953125 C 612.332031 262.953125 650.546875 278.3125 678.179688 305.128906 C 705.816406 331.945312 721.644531 369.027344 721.644531 406.953125 L 645.9375 406.953125 C 645.9375 388.375 638.183594 370.210938 624.648438 357.074219 C 611.113281 343.941406 592.394531 336.414062 573.25 336.414062 Z M 573.25 262.953125 " clip-rule="nonzero"/></clipPath><clipPath id="1054d5a91a"><path d="M 0.144531 0.953125 L 148.679688 0.953125 L 148.679688 144.953125 L 0.144531 144.953125 Z M 0.144531 0.953125 " clip-rule="nonzero"/></clipPath><clipPath id="cbb18866fd"><path d="M 0.25 0.953125 C 39.332031 0.953125 77.546875 16.3125 105.179688 43.128906 C 132.816406 69.945312 148.644531 107.027344 148.644531 144.953125 L 72.9375 144.953125 C 72.9375 126.375 65.183594 108.210938 51.648438 95.074219 C 38.113281 81.941406 19.394531 74.414062 0.25 74.414062 Z M 0.25 0.953125 " clip-rule="nonzero"/></clipPath><clipPath id="0cfda7b634"><rect x="0" width="149" y="0" height="145"/></clipPath><clipPath id="55cce847ef"><path d="M 573 402.972656 L 721.644531 402.972656 L 721.644531 546.714844 L 573 546.714844 Z M 573 402.972656 " clip-rule="nonzero"/></clipPath><clipPath id="a666925b8a"><path d="M 721.644531 402.972656 C 721.644531 440.828125 705.816406 477.847656 678.179688 504.613281 C 650.546875 531.382812 612.332031 546.714844 573.25 546.714844 L 573.25 473.382812 C 592.394531 473.382812 611.113281 465.871094 624.648438 452.761719 C 638.183594 439.648438 645.9375 421.515625 645.9375 402.972656 Z M 721.644531 402.972656 " clip-rule="nonzero"/></clipPath><clipPath id="0d4cb2a82c"><path d="M 0.121094 0.972656 L 148.644531 0.972656 L 148.644531 144.714844 L 0.121094 144.714844 Z M 0.121094 0.972656 " clip-rule="nonzero"/></clipPath><clipPath id="053ba9dd88"><path d="M 148.644531 0.972656 C 148.644531 38.828125 132.816406 75.847656 105.179688 102.613281 C 77.546875 129.382812 39.332031 144.714844 0.25 144.714844 L 0.25 71.382812 C 19.394531 71.382812 38.113281 63.871094 51.648438 50.761719 C 65.183594 37.648438 72.9375 19.515625 72.9375 0.972656 Z M 148.644531 0.972656 " clip-rule="nonzero"/></clipPath><clipPath id="142cec9a9b"><rect x="0" width="149" y="0" height="145"/></clipPath><clipPath id="3b4ed5f2a1"><path d="M 424.296875 402.96875 L 577.296875 402.96875 L 577.296875 546.96875 L 424.296875 546.96875 Z M 424.296875 402.96875 " clip-rule="nonzero"/></clipPath><clipPath id="f073f458d9"><path d="M 577.046875 546.96875 C 536.96875 546.96875 497.773438 531.609375 469.433594 504.792969 C 441.09375 477.976562 424.859375 440.894531 424.859375 402.96875 L 502.5 402.96875 C 502.5 421.546875 510.453125 439.710938 524.335938 452.847656 C 538.21875 465.980469 557.414062 473.503906 577.046875 473.503906 Z M 577.046875 546.96875 " clip-rule="nonzero"/></clipPath><clipPath id="4fac304355"><path d="M 0.800781 0.96875 L 153.199219 0.96875 L 153.199219 144.96875 L 0.800781 144.96875 Z M 0.800781 0.96875 " clip-rule="nonzero"/></clipPath><clipPath id="c849048f81"><path d="M 153.046875 144.96875 C 112.96875 144.96875 73.773438 129.609375 45.433594 102.792969 C 17.09375 75.976562 0.859375 38.894531 0.859375 0.96875 L 78.5 0.96875 C 78.5 19.546875 86.453125 37.710938 100.335938 50.847656 C 114.21875 63.980469 133.414062 71.503906 153.046875 71.503906 Z M 153.046875 144.96875 " clip-rule="nonzero"/></clipPath><clipPath id="b39642578c"><rect x="0" width="154" y="0" height="145"/></clipPath><clipPath id="5eafac44bd"><path d="M 434.335938 374 L 490.585938 374 L 490.585938 405.941406 L 434.335938 405.941406 Z M 434.335938 374 " clip-rule="nonzero"/></clipPath><clipPath id="d62b421b09"><path d="M 649.964844 374 L 706 374 L 706 406 L 649.964844 406 Z M 649.964844 374 " clip-rule="nonzero"/></clipPath><clipPath id="d6f93f5ae8"><path d="M 557 484.285156 L 589 484.285156 L 589 540.535156 L 557 540.535156 Z M 557 484.285156 " clip-rule="nonzero"/></clipPath><clipPath id="e837b2d4d6"><rect x="0" width="159" y="0" height="60"/></clipPath><clipPath id="42e9d65f50"><rect x="0" width="106" y="0" height="106"/></clipPath><clipPath id="623bd783cc"><rect x="0" width="82" y="0" height="77"/></clipPath><clipPath id="073f3c11ea"><path d="M 734.476562 353.53125 L 1025.378906 353.53125 L 1025.378906 456.394531 L 734.476562 456.394531 Z M 734.476562 353.53125 " clip-rule="nonzero"/></clipPath><clipPath id="9690d3e53b"><path d="M 734.476562 353.53125 L 973.90625 353.53125 L 1025.335938 404.964844 L 973.90625 456.394531 L 734.476562 456.394531 L 785.90625 404.964844 Z M 734.476562 353.53125 " clip-rule="nonzero"/></clipPath><clipPath id="c46ba74b53"><path d="M 0.476562 0.53125 L 291.378906 0.53125 L 291.378906 103.394531 L 0.476562 103.394531 Z M 0.476562 0.53125 " clip-rule="nonzero"/></clipPath><clipPath id="ff302bbbc2"><path d="M 0.476562 0.53125 L 239.90625 0.53125 L 291.335938 51.964844 L 239.90625 103.394531 L 0.476562 103.394531 L 51.90625 51.964844 Z M 0.476562 0.53125 " clip-rule="nonzero"/></clipPath><clipPath id="1d1cf1cac7"><rect x="0" width="292" y="0" height="104"/></clipPath><clipPath id="3f91aba3ac"><path d="M 988.109375 353.53125 L 1296.691406 353.53125 L 1296.691406 456.394531 L 988.109375 456.394531 Z M 988.109375 353.53125 " clip-rule="nonzero"/></clipPath><clipPath id="0cd22de6e1"><path d="M 988.109375 353.53125 L 1245.199219 353.53125 L 1296.632812 404.964844 L 1245.199219 456.394531 L 988.109375 456.394531 L 1039.539062 404.964844 Z M 988.109375 353.53125 " clip-rule="nonzero"/></clipPath><clipPath id="bccec7a152"><path d="M 0.109375 0.53125 L 308.691406 0.53125 L 308.691406 103.394531 L 0.109375 103.394531 Z M 0.109375 0.53125 " clip-rule="nonzero"/></clipPath><clipPath id="b41fcf30cb"><path d="M 0.109375 0.53125 L 257.199219 0.53125 L 308.632812 51.964844 L 257.199219 103.394531 L 0.109375 103.394531 L 51.539062 51.964844 Z M 0.109375 0.53125 " clip-rule="nonzero"/></clipPath><clipPath id="1febd68455"><rect x="0" width="309" y="0" height="104"/></clipPath></defs><rect x="-144" width="1728" fill="#ffffff" y="-80.999999" height="971.999992" fill-opacity="1"/><g clip-path="url(#0623f36de5)"><g clip-path="url(#b41922f195)"><g transform="matrix(1, 0, 0, 1, 142, 354)"><g clip-path="url(#842f3f67f0)"><g clip-path="url(#c3a17e5681)"><g clip-path="url(#60814977d8)"><path fill="#e63946" d="M 0.0703125 0.519531 L 348.832031 0.519531 L 348.832031 103.378906 L 0.0703125 103.378906 Z M 0.0703125 0.519531 " fill-opacity="1" fill-rule="nonzero"/></g></g></g></g></g></g><g fill="#f1faee" fill-opacity="1"><g transform="translate(241.212797, 396.519756)"><g><path d="M 10.09375 -20.625 C 13.445312 -20.625 16.003906 -19.757812 17.765625 -18.03125 C 19.523438 -16.300781 20.40625 -13.726562 20.40625 -10.3125 C 20.40625 -6.90625 19.523438 -4.332031 17.765625 -2.59375 C 16.003906 -0.863281 13.445312 0 10.09375 0 L 2.6875 0 L 2.6875 -20.625 Z M 9.859375 -3.421875 C 11.984375 -3.421875 13.570312 -3.960938 14.625 -5.046875 C 15.675781 -6.140625 16.203125 -7.894531 16.203125 -10.3125 C 16.203125 -12.726562 15.675781 -14.476562 14.625 -15.5625 C 13.570312 -16.65625 11.984375 -17.203125 9.859375 -17.203125 L 6.75 -17.203125 L 6.75 -3.421875 Z M 9.859375 -3.421875 "/></g></g></g><g fill="#f1faee" fill-opacity="1"><g transform="translate(263.258672, 396.519756)"><g><path d="M 15.375 -6.890625 L 5.375 -6.890625 C 5.488281 -5.535156 5.875 -4.550781 6.53125 -3.9375 C 7.1875 -3.320312 8.082031 -3.015625 9.21875 -3.015625 C 10.113281 -3.015625 10.835938 -3.179688 11.390625 -3.515625 C 11.953125 -3.847656 12.398438 -4.351562 12.734375 -5.03125 L 13.03125 -5.03125 L 15.625 -3.375 C 15.125 -2.28125 14.359375 -1.394531 13.328125 -0.71875 C 12.304688 -0.0390625 10.9375 0.296875 9.21875 0.296875 C 7.613281 0.296875 6.222656 -0.00390625 5.046875 -0.609375 C 3.878906 -1.222656 2.976562 -2.132812 2.34375 -3.34375 C 1.707031 -4.550781 1.390625 -6.023438 1.390625 -7.765625 C 1.390625 -9.535156 1.722656 -11.023438 2.390625 -12.234375 C 3.066406 -13.453125 3.972656 -14.359375 5.109375 -14.953125 C 6.242188 -15.554688 7.519531 -15.859375 8.9375 -15.859375 C 11.144531 -15.859375 12.832031 -15.273438 14 -14.109375 C 15.164062 -12.941406 15.75 -11.226562 15.75 -8.96875 C 15.75 -8.15625 15.722656 -7.519531 15.671875 -7.0625 Z M 12.015625 -9.421875 C 11.984375 -10.609375 11.707031 -11.472656 11.1875 -12.015625 C 10.675781 -12.554688 9.925781 -12.828125 8.9375 -12.828125 C 6.96875 -12.828125 5.804688 -11.691406 5.453125 -9.421875 Z M 12.015625 -9.421875 "/></g></g></g><g fill="#f1faee" fill-opacity="1"><g transform="translate(280.170384, 396.519756)"><g><path d="M 10.734375 -3.703125 L 11.75 -0.8125 C 11.320312 -0.46875 10.789062 -0.195312 10.15625 0 C 9.519531 0.195312 8.796875 0.296875 7.984375 0.296875 C 6.296875 0.296875 5.015625 -0.160156 4.140625 -1.078125 C 3.265625 -1.992188 2.828125 -3.328125 2.828125 -5.078125 L 2.828125 -12.46875 L 0.46875 -12.46875 L 0.46875 -15.578125 L 2.828125 -15.578125 L 2.828125 -18.609375 L 6.75 -19.234375 L 6.75 -15.578125 L 11.15625 -15.578125 L 11.15625 -12.46875 L 6.75 -12.46875 L 6.75 -5.359375 C 6.75 -4.585938 6.90625 -4.023438 7.21875 -3.671875 C 7.539062 -3.316406 8.007812 -3.140625 8.625 -3.140625 C 9.3125 -3.140625 9.914062 -3.328125 10.4375 -3.703125 Z M 10.734375 -3.703125 "/></g></g></g><g fill="#f1faee" fill-opacity="1"><g transform="translate(292.074814, 396.519756)"><g><path d="M 15.375 -6.890625 L 5.375 -6.890625 C 5.488281 -5.535156 5.875 -4.550781 6.53125 -3.9375 C 7.1875 -3.320312 8.082031 -3.015625 9.21875 -3.015625 C 10.113281 -3.015625 10.835938 -3.179688 11.390625 -3.515625 C 11.953125 -3.847656 12.398438 -4.351562 12.734375 -5.03125 L 13.03125 -5.03125 L 15.625 -3.375 C 15.125 -2.28125 14.359375 -1.394531 13.328125 -0.71875 C 12.304688 -0.0390625 10.9375 0.296875 9.21875 0.296875 C 7.613281 0.296875 6.222656 -0.00390625 5.046875 -0.609375 C 3.878906 -1.222656 2.976562 -2.132812 2.34375 -3.34375 C 1.707031 -4.550781 1.390625 -6.023438 1.390625 -7.765625 C 1.390625 -9.535156 1.722656 -11.023438 2.390625 -12.234375 C 3.066406 -13.453125 3.972656 -14.359375 5.109375 -14.953125 C 6.242188 -15.554688 7.519531 -15.859375 8.9375 -15.859375 C 11.144531 -15.859375 12.832031 -15.273438 14 -14.109375 C 15.164062 -12.941406 15.75 -11.226562 15.75 -8.96875 C 15.75 -8.15625 15.722656 -7.519531 15.671875 -7.0625 Z M 12.015625 -9.421875 C 11.984375 -10.609375 11.707031 -11.472656 11.1875 -12.015625 C 10.675781 -12.554688 9.925781 -12.828125 8.9375 -12.828125 C 6.96875 -12.828125 5.804688 -11.691406 5.453125 -9.421875 Z M 12.015625 -9.421875 "/></g></g></g><g fill="#f1faee" fill-opacity="1"><g transform="translate(308.986525, 396.519756)"><g><path d="M 2.25 0 L 2.25 -15.5625 L 6.03125 -15.5625 L 6.03125 -13.25 L 6.328125 -13.1875 C 6.703125 -14.050781 7.195312 -14.6875 7.8125 -15.09375 C 8.425781 -15.5 9.171875 -15.703125 10.046875 -15.703125 C 10.929688 -15.703125 11.601562 -15.550781 12.0625 -15.25 L 11.390625 -11.875 L 11.109375 -11.828125 C 10.847656 -11.929688 10.597656 -12.003906 10.359375 -12.046875 C 10.128906 -12.097656 9.847656 -12.125 9.515625 -12.125 C 8.421875 -12.125 7.585938 -11.738281 7.015625 -10.96875 C 6.441406 -10.195312 6.15625 -8.96875 6.15625 -7.28125 L 6.15625 0 Z M 2.25 0 "/></g></g></g><g fill="#f1faee" fill-opacity="1"><g transform="translate(321.18722, 396.519756)"><g><path d="M 2.25 0 L 2.25 -15.5625 L 6 -15.5625 L 6 -13.46875 L 6.296875 -13.421875 C 6.796875 -14.253906 7.382812 -14.867188 8.0625 -15.265625 C 8.75 -15.660156 9.625 -15.859375 10.6875 -15.859375 C 11.863281 -15.859375 12.804688 -15.625 13.515625 -15.15625 C 14.234375 -14.6875 14.757812 -14.007812 15.09375 -13.125 L 15.390625 -13.125 C 15.867188 -14.050781 16.484375 -14.738281 17.234375 -15.1875 C 17.992188 -15.632812 18.941406 -15.859375 20.078125 -15.859375 C 23.296875 -15.859375 24.90625 -14.0625 24.90625 -10.46875 L 24.90625 0 L 21 0 L 21 -9.96875 C 21 -10.882812 20.820312 -11.546875 20.46875 -11.953125 C 20.113281 -12.359375 19.539062 -12.5625 18.75 -12.5625 C 16.601562 -12.5625 15.53125 -11.125 15.53125 -8.25 L 15.53125 0 L 11.625 0 L 11.625 -9.96875 C 11.625 -10.882812 11.441406 -11.546875 11.078125 -11.953125 C 10.710938 -12.359375 10.140625 -12.5625 9.359375 -12.5625 C 8.347656 -12.5625 7.5625 -12.222656 7 -11.546875 C 6.4375 -10.867188 6.15625 -9.800781 6.15625 -8.34375 L 6.15625 0 Z M 2.25 0 "/></g></g></g><g fill="#f1faee" fill-opacity="1"><g transform="translate(348.099259, 396.519756)"><g><path d="M 4.1875 -17.421875 C 3.476562 -17.421875 2.90625 -17.632812 2.46875 -18.0625 C 2.03125 -18.488281 1.8125 -19.039062 1.8125 -19.71875 C 1.8125 -20.382812 2.03125 -20.929688 2.46875 -21.359375 C 2.90625 -21.785156 3.476562 -22 4.1875 -22 C 4.65625 -22 5.070312 -21.898438 5.4375 -21.703125 C 5.8125 -21.503906 6.097656 -21.234375 6.296875 -20.890625 C 6.503906 -20.554688 6.609375 -20.164062 6.609375 -19.71875 C 6.609375 -19.28125 6.503906 -18.882812 6.296875 -18.53125 C 6.097656 -18.1875 5.8125 -17.914062 5.4375 -17.71875 C 5.070312 -17.519531 4.65625 -17.421875 4.1875 -17.421875 Z M 2.25 0 L 2.25 -15.5625 L 6.15625 -15.5625 L 6.15625 0 Z M 2.25 0 "/></g></g></g><g fill="#f1faee" fill-opacity="1"><g transform="translate(356.477536, 396.519756)"><g><path d="M 2.25 0 L 2.25 -15.5625 L 6 -15.5625 L 6 -13.28125 L 6.296875 -13.203125 C 7.265625 -14.972656 8.832031 -15.859375 11 -15.859375 C 12.800781 -15.859375 14.117188 -15.367188 14.953125 -14.390625 C 15.796875 -13.410156 16.21875 -11.984375 16.21875 -10.109375 L 16.21875 0 L 12.3125 0 L 12.3125 -9.640625 C 12.3125 -10.671875 12.101562 -11.414062 11.6875 -11.875 C 11.28125 -12.332031 10.617188 -12.5625 9.703125 -12.5625 C 8.585938 -12.5625 7.71875 -12.195312 7.09375 -11.46875 C 6.46875 -10.738281 6.15625 -9.601562 6.15625 -8.0625 L 6.15625 0 Z M 2.25 0 "/></g></g></g><g fill="#f1faee" fill-opacity="1"><g transform="translate(374.700992, 396.519756)"><g><path d="M 4.1875 -17.421875 C 3.476562 -17.421875 2.90625 -17.632812 2.46875 -18.0625 C 2.03125 -18.488281 1.8125 -19.039062 1.8125 -19.71875 C 1.8125 -20.382812 2.03125 -20.929688 2.46875 -21.359375 C 2.90625 -21.785156 3.476562 -22 4.1875 -22 C 4.65625 -22 5.070312 -21.898438 5.4375 -21.703125 C 5.8125 -21.503906 6.097656 -21.234375 6.296875 -20.890625 C 6.503906 -20.554688 6.609375 -20.164062 6.609375 -19.71875 C 6.609375 -19.28125 6.503906 -18.882812 6.296875 -18.53125 C 6.097656 -18.1875 5.8125 -17.914062 5.4375 -17.71875 C 5.070312 -17.519531 4.65625 -17.421875 4.1875 -17.421875 Z M 2.25 0 L 2.25 -15.5625 L 6.15625 -15.5625 L 6.15625 0 Z M 2.25 0 "/></g></g></g><g fill="#f1faee" fill-opacity="1"><g transform="translate(383.079268, 396.519756)"><g><path d="M 2.25 0 L 2.25 -15.5625 L 6 -15.5625 L 6 -13.28125 L 6.296875 -13.203125 C 7.265625 -14.972656 8.832031 -15.859375 11 -15.859375 C 12.800781 -15.859375 14.117188 -15.367188 14.953125 -14.390625 C 15.796875 -13.410156 16.21875 -11.984375 16.21875 -10.109375 L 16.21875 0 L 12.3125 0 L 12.3125 -9.640625 C 12.3125 -10.671875 12.101562 -11.414062 11.6875 -11.875 C 11.28125 -12.332031 10.617188 -12.5625 9.703125 -12.5625 C 8.585938 -12.5625 7.71875 -12.195312 7.09375 -11.46875 C 6.46875 -10.738281 6.15625 -9.601562 6.15625 -8.0625 L 6.15625 0 Z M 2.25 0 "/></g></g></g><g fill="#f1faee" fill-opacity="1"><g transform="translate(401.302725, 396.519756)"><g><path d="M 8.0625 6.609375 C 5.5 6.609375 3.601562 6.226562 2.375 5.46875 C 1.15625 4.71875 0.546875 3.671875 0.546875 2.328125 C 0.546875 1.503906 0.804688 0.832031 1.328125 0.3125 C 1.847656 -0.207031 2.597656 -0.554688 3.578125 -0.734375 L 3.578125 -1.03125 C 3.054688 -1.351562 2.679688 -1.707031 2.453125 -2.09375 C 2.222656 -2.488281 2.109375 -2.941406 2.109375 -3.453125 C 2.109375 -4.703125 2.921875 -5.546875 4.546875 -5.984375 L 4.546875 -6.28125 C 3.703125 -6.757812 3.066406 -7.351562 2.640625 -8.0625 C 2.222656 -8.769531 2.015625 -9.628906 2.015625 -10.640625 C 2.015625 -11.671875 2.25 -12.578125 2.71875 -13.359375 C 3.195312 -14.148438 3.894531 -14.765625 4.8125 -15.203125 C 5.726562 -15.640625 6.828125 -15.859375 8.109375 -15.859375 C 9.410156 -15.859375 10.445312 -15.628906 11.21875 -15.171875 C 11.695312 -15.867188 11.972656 -16.675781 12.046875 -17.59375 L 12.34375 -17.78125 L 15.15625 -17.078125 C 15.070312 -16.335938 14.851562 -15.710938 14.5 -15.203125 C 14.15625 -14.703125 13.613281 -14.253906 12.875 -13.859375 L 12.875 -13.5625 C 13.75 -12.789062 14.1875 -11.710938 14.1875 -10.328125 C 14.1875 -9.367188 13.945312 -8.507812 13.46875 -7.75 C 12.988281 -6.988281 12.289062 -6.382812 11.375 -5.9375 C 10.457031 -5.5 9.367188 -5.28125 8.109375 -5.28125 L 7.515625 -5.296875 C 7.140625 -5.304688 6.878906 -5.3125 6.734375 -5.3125 C 6.367188 -5.3125 6.085938 -5.210938 5.890625 -5.015625 C 5.691406 -4.828125 5.59375 -4.582031 5.59375 -4.28125 C 5.59375 -3.957031 5.722656 -3.703125 5.984375 -3.515625 C 6.242188 -3.335938 6.628906 -3.238281 7.140625 -3.21875 L 10.625 -3.09375 C 14.0625 -2.988281 15.78125 -1.503906 15.78125 1.359375 C 15.78125 2.359375 15.523438 3.25 15.015625 4.03125 C 14.503906 4.820312 13.675781 5.445312 12.53125 5.90625 C 11.382812 6.375 9.894531 6.609375 8.0625 6.609375 Z M 8.109375 -8.015625 C 8.859375 -8.015625 9.445312 -8.234375 9.875 -8.671875 C 10.300781 -9.117188 10.515625 -9.75 10.515625 -10.5625 C 10.515625 -11.382812 10.300781 -12.015625 9.875 -12.453125 C 9.445312 -12.890625 8.859375 -13.109375 8.109375 -13.109375 C 7.347656 -13.109375 6.757812 -12.890625 6.34375 -12.453125 C 5.9375 -12.015625 5.734375 -11.382812 5.734375 -10.5625 C 5.734375 -9.738281 5.9375 -9.109375 6.34375 -8.671875 C 6.757812 -8.234375 7.347656 -8.015625 8.109375 -8.015625 Z M 8.0625 3.765625 C 9.40625 3.765625 10.378906 3.578125 10.984375 3.203125 C 11.585938 2.828125 11.890625 2.335938 11.890625 1.734375 C 11.890625 1.242188 11.734375 0.882812 11.421875 0.65625 C 11.117188 0.425781 10.625 0.300781 9.9375 0.28125 L 6.875 0.140625 C 6.769531 0.140625 6.671875 0.132812 6.578125 0.125 C 6.492188 0.113281 6.40625 0.109375 6.3125 0.109375 C 5.65625 0.109375 5.15625 0.25 4.8125 0.53125 C 4.46875 0.8125 4.296875 1.203125 4.296875 1.703125 C 4.296875 2.359375 4.609375 2.863281 5.234375 3.21875 C 5.867188 3.582031 6.8125 3.765625 8.0625 3.765625 Z M 8.0625 3.765625 "/></g></g></g><g fill="#f1faee" fill-opacity="1"><g transform="translate(230.408111, 436.269754)"><g><path d="M 2.6875 0 L 2.6875 -20.625 L 10.96875 -20.625 C 13.09375 -20.625 14.695312 -20.128906 15.78125 -19.140625 C 16.875 -18.160156 17.421875 -16.804688 17.421875 -15.078125 C 17.421875 -13.828125 17.101562 -12.800781 16.46875 -12 C 15.832031 -11.207031 14.882812 -10.597656 13.625 -10.171875 L 13.625 -9.875 C 14.269531 -9.59375 14.789062 -9.171875 15.1875 -8.609375 C 15.59375 -8.054688 15.972656 -7.238281 16.328125 -6.15625 L 18.390625 0 L 14.203125 0 L 12.1875 -6.171875 C 11.976562 -6.785156 11.742188 -7.265625 11.484375 -7.609375 C 11.234375 -7.953125 10.90625 -8.203125 10.5 -8.359375 C 10.101562 -8.515625 9.582031 -8.59375 8.9375 -8.59375 L 6.75 -8.59375 L 6.75 0 Z M 10.46875 -11.828125 C 12.4375 -11.828125 13.421875 -12.75 13.421875 -14.59375 C 13.421875 -16.457031 12.4375 -17.390625 10.46875 -17.390625 L 6.75 -17.390625 L 6.75 -11.828125 Z M 10.46875 -11.828125 "/></g></g></g><g fill="#f1faee" fill-opacity="1"><g transform="translate(249.280241, 436.269754)"><g><path d="M 15.375 -6.890625 L 5.375 -6.890625 C 5.488281 -5.535156 5.875 -4.550781 6.53125 -3.9375 C 7.1875 -3.320312 8.082031 -3.015625 9.21875 -3.015625 C 10.113281 -3.015625 10.835938 -3.179688 11.390625 -3.515625 C 11.953125 -3.847656 12.398438 -4.351562 12.734375 -5.03125 L 13.03125 -5.03125 L 15.625 -3.375 C 15.125 -2.28125 14.359375 -1.394531 13.328125 -0.71875 C 12.304688 -0.0390625 10.9375 0.296875 9.21875 0.296875 C 7.613281 0.296875 6.222656 -0.00390625 5.046875 -0.609375 C 3.878906 -1.222656 2.976562 -2.132812 2.34375 -3.34375 C 1.707031 -4.550781 1.390625 -6.023438 1.390625 -7.765625 C 1.390625 -9.535156 1.722656 -11.023438 2.390625 -12.234375 C 3.066406 -13.453125 3.972656 -14.359375 5.109375 -14.953125 C 6.242188 -15.554688 7.519531 -15.859375 8.9375 -15.859375 C 11.144531 -15.859375 12.832031 -15.273438 14 -14.109375 C 15.164062 -12.941406 15.75 -11.226562 15.75 -8.96875 C 15.75 -8.15625 15.722656 -7.519531 15.671875 -7.0625 Z M 12.015625 -9.421875 C 11.984375 -10.609375 11.707031 -11.472656 11.1875 -12.015625 C 10.675781 -12.554688 9.925781 -12.828125 8.9375 -12.828125 C 6.96875 -12.828125 5.804688 -11.691406 5.453125 -9.421875 Z M 12.015625 -9.421875 "/></g></g></g><g fill="#f1faee" fill-opacity="1"><g transform="translate(266.191953, 436.269754)"><g><path d="M 12.5 6.3125 L 12.5 -1.859375 L 12.203125 -1.921875 C 11.265625 -0.441406 9.753906 0.296875 7.671875 0.296875 C 6.453125 0.296875 5.367188 0 4.421875 -0.59375 C 3.472656 -1.1875 2.726562 -2.082031 2.1875 -3.28125 C 1.65625 -4.488281 1.390625 -5.972656 1.390625 -7.734375 C 1.390625 -9.523438 1.664062 -11.023438 2.21875 -12.234375 C 2.769531 -13.453125 3.53125 -14.359375 4.5 -14.953125 C 5.476562 -15.554688 6.609375 -15.859375 7.890625 -15.859375 C 8.859375 -15.859375 9.703125 -15.675781 10.421875 -15.3125 C 11.140625 -14.957031 11.734375 -14.398438 12.203125 -13.640625 L 12.5 -13.703125 L 12.5 -15.5625 L 16.40625 -15.5625 L 16.40625 6.3125 Z M 8.953125 -3.015625 C 10.054688 -3.015625 10.925781 -3.40625 11.5625 -4.1875 C 12.207031 -4.96875 12.53125 -6.148438 12.53125 -7.734375 C 12.53125 -9.347656 12.207031 -10.550781 11.5625 -11.34375 C 10.925781 -12.144531 10.054688 -12.546875 8.953125 -12.546875 C 7.796875 -12.546875 6.914062 -12.160156 6.3125 -11.390625 C 5.71875 -10.617188 5.421875 -9.398438 5.421875 -7.734375 C 5.421875 -4.585938 6.597656 -3.015625 8.953125 -3.015625 Z M 8.953125 -3.015625 "/></g></g></g><g fill="#f1faee" fill-opacity="1"><g transform="translate(284.838555, 436.269754)"><g><path d="M 7.125 0.296875 C 5.375 0.296875 4.082031 -0.175781 3.25 -1.125 C 2.414062 -2.082031 2 -3.457031 2 -5.25 L 2 -15.5625 L 5.90625 -15.5625 L 5.90625 -5.734375 C 5.90625 -4.785156 6.109375 -4.09375 6.515625 -3.65625 C 6.929688 -3.21875 7.566406 -3 8.421875 -3 C 9.503906 -3 10.34375 -3.351562 10.9375 -4.0625 C 11.539062 -4.78125 11.84375 -5.898438 11.84375 -7.421875 L 11.84375 -15.5625 L 15.75 -15.5625 L 15.75 0 L 12 0 L 12 -2.28125 L 11.703125 -2.359375 C 11.210938 -1.460938 10.601562 -0.796875 9.875 -0.359375 C 9.15625 0.078125 8.238281 0.296875 7.125 0.296875 Z M 7.125 0.296875 "/></g></g></g><g fill="#f1faee" fill-opacity="1"><g transform="translate(302.836334, 436.269754)"><g><path d="M 4.1875 -17.421875 C 3.476562 -17.421875 2.90625 -17.632812 2.46875 -18.0625 C 2.03125 -18.488281 1.8125 -19.039062 1.8125 -19.71875 C 1.8125 -20.382812 2.03125 -20.929688 2.46875 -21.359375 C 2.90625 -21.785156 3.476562 -22 4.1875 -22 C 4.65625 -22 5.070312 -21.898438 5.4375 -21.703125 C 5.8125 -21.503906 6.097656 -21.234375 6.296875 -20.890625 C 6.503906 -20.554688 6.609375 -20.164062 6.609375 -19.71875 C 6.609375 -19.28125 6.503906 -18.882812 6.296875 -18.53125 C 6.097656 -18.1875 5.8125 -17.914062 5.4375 -17.71875 C 5.070312 -17.519531 4.65625 -17.421875 4.1875 -17.421875 Z M 2.25 0 L 2.25 -15.5625 L 6.15625 -15.5625 L 6.15625 0 Z M 2.25 0 "/></g></g></g><g fill="#f1faee" fill-opacity="1"><g transform="translate(311.21461, 436.269754)"><g><path d="M 2.25 0 L 2.25 -15.5625 L 6.03125 -15.5625 L 6.03125 -13.25 L 6.328125 -13.1875 C 6.703125 -14.050781 7.195312 -14.6875 7.8125 -15.09375 C 8.425781 -15.5 9.171875 -15.703125 10.046875 -15.703125 C 10.929688 -15.703125 11.601562 -15.550781 12.0625 -15.25 L 11.390625 -11.875 L 11.109375 -11.828125 C 10.847656 -11.929688 10.597656 -12.003906 10.359375 -12.046875 C 10.128906 -12.097656 9.847656 -12.125 9.515625 -12.125 C 8.421875 -12.125 7.585938 -11.738281 7.015625 -10.96875 C 6.441406 -10.195312 6.15625 -8.96875 6.15625 -7.28125 L 6.15625 0 Z M 2.25 0 "/></g></g></g><g fill="#f1faee" fill-opacity="1"><g transform="translate(323.00611, 436.269754)"><g><path d="M 15.375 -6.890625 L 5.375 -6.890625 C 5.488281 -5.535156 5.875 -4.550781 6.53125 -3.9375 C 7.1875 -3.320312 8.082031 -3.015625 9.21875 -3.015625 C 10.113281 -3.015625 10.835938 -3.179688 11.390625 -3.515625 C 11.953125 -3.847656 12.398438 -4.351562 12.734375 -5.03125 L 13.03125 -5.03125 L 15.625 -3.375 C 15.125 -2.28125 14.359375 -1.394531 13.328125 -0.71875 C 12.304688 -0.0390625 10.9375 0.296875 9.21875 0.296875 C 7.613281 0.296875 6.222656 -0.00390625 5.046875 -0.609375 C 3.878906 -1.222656 2.976562 -2.132812 2.34375 -3.34375 C 1.707031 -4.550781 1.390625 -6.023438 1.390625 -7.765625 C 1.390625 -9.535156 1.722656 -11.023438 2.390625 -12.234375 C 3.066406 -13.453125 3.972656 -14.359375 5.109375 -14.953125 C 6.242188 -15.554688 7.519531 -15.859375 8.9375 -15.859375 C 11.144531 -15.859375 12.832031 -15.273438 14 -14.109375 C 15.164062 -12.941406 15.75 -11.226562 15.75 -8.96875 C 15.75 -8.15625 15.722656 -7.519531 15.671875 -7.0625 Z M 12.015625 -9.421875 C 11.984375 -10.609375 11.707031 -11.472656 11.1875 -12.015625 C 10.675781 -12.554688 9.925781 -12.828125 8.9375 -12.828125 C 6.96875 -12.828125 5.804688 -11.691406 5.453125 -9.421875 Z M 12.015625 -9.421875 "/></g></g></g><g fill="#f1faee" fill-opacity="1"><g transform="translate(339.917821, 436.269754)"><g><path d="M 2.25 0 L 2.25 -15.5625 L 6 -15.5625 L 6 -13.46875 L 6.296875 -13.421875 C 6.796875 -14.253906 7.382812 -14.867188 8.0625 -15.265625 C 8.75 -15.660156 9.625 -15.859375 10.6875 -15.859375 C 11.863281 -15.859375 12.804688 -15.625 13.515625 -15.15625 C 14.234375 -14.6875 14.757812 -14.007812 15.09375 -13.125 L 15.390625 -13.125 C 15.867188 -14.050781 16.484375 -14.738281 17.234375 -15.1875 C 17.992188 -15.632812 18.941406 -15.859375 20.078125 -15.859375 C 23.296875 -15.859375 24.90625 -14.0625 24.90625 -10.46875 L 24.90625 0 L 21 0 L 21 -9.96875 C 21 -10.882812 20.820312 -11.546875 20.46875 -11.953125 C 20.113281 -12.359375 19.539062 -12.5625 18.75 -12.5625 C 16.601562 -12.5625 15.53125 -11.125 15.53125 -8.25 L 15.53125 0 L 11.625 0 L 11.625 -9.96875 C 11.625 -10.882812 11.441406 -11.546875 11.078125 -11.953125 C 10.710938 -12.359375 10.140625 -12.5625 9.359375 -12.5625 C 8.347656 -12.5625 7.5625 -12.222656 7 -11.546875 C 6.4375 -10.867188 6.15625 -9.800781 6.15625 -8.34375 L 6.15625 0 Z M 2.25 0 "/></g></g></g><g fill="#f1faee" fill-opacity="1"><g transform="translate(366.829861, 436.269754)"><g><path d="M 15.375 -6.890625 L 5.375 -6.890625 C 5.488281 -5.535156 5.875 -4.550781 6.53125 -3.9375 C 7.1875 -3.320312 8.082031 -3.015625 9.21875 -3.015625 C 10.113281 -3.015625 10.835938 -3.179688 11.390625 -3.515625 C 11.953125 -3.847656 12.398438 -4.351562 12.734375 -5.03125 L 13.03125 -5.03125 L 15.625 -3.375 C 15.125 -2.28125 14.359375 -1.394531 13.328125 -0.71875 C 12.304688 -0.0390625 10.9375 0.296875 9.21875 0.296875 C 7.613281 0.296875 6.222656 -0.00390625 5.046875 -0.609375 C 3.878906 -1.222656 2.976562 -2.132812 2.34375 -3.34375 C 1.707031 -4.550781 1.390625 -6.023438 1.390625 -7.765625 C 1.390625 -9.535156 1.722656 -11.023438 2.390625 -12.234375 C 3.066406 -13.453125 3.972656 -14.359375 5.109375 -14.953125 C 6.242188 -15.554688 7.519531 -15.859375 8.9375 -15.859375 C 11.144531 -15.859375 12.832031 -15.273438 14 -14.109375 C 15.164062 -12.941406 15.75 -11.226562 15.75 -8.96875 C 15.75 -8.15625 15.722656 -7.519531 15.671875 -7.0625 Z M 12.015625 -9.421875 C 11.984375 -10.609375 11.707031 -11.472656 11.1875 -12.015625 C 10.675781 -12.554688 9.925781 -12.828125 8.9375 -12.828125 C 6.96875 -12.828125 5.804688 -11.691406 5.453125 -9.421875 Z M 12.015625 -9.421875 "/></g></g></g><g fill="#f1faee" fill-opacity="1"><g transform="translate(383.741572, 436.269754)"><g><path d="M 2.25 0 L 2.25 -15.5625 L 6 -15.5625 L 6 -13.28125 L 6.296875 -13.203125 C 7.265625 -14.972656 8.832031 -15.859375 11 -15.859375 C 12.800781 -15.859375 14.117188 -15.367188 14.953125 -14.390625 C 15.796875 -13.410156 16.21875 -11.984375 16.21875 -10.109375 L 16.21875 0 L 12.3125 0 L 12.3125 -9.640625 C 12.3125 -10.671875 12.101562 -11.414062 11.6875 -11.875 C 11.28125 -12.332031 10.617188 -12.5625 9.703125 -12.5625 C 8.585938 -12.5625 7.71875 -12.195312 7.09375 -11.46875 C 6.46875 -10.738281 6.15625 -9.601562 6.15625 -8.0625 L 6.15625 0 Z M 2.25 0 "/></g></g></g><g fill="#f1faee" fill-opacity="1"><g transform="translate(401.852144, 436.269754)"><g><path d="M 10.734375 -3.703125 L 11.75 -0.8125 C 11.320312 -0.46875 10.789062 -0.195312 10.15625 0 C 9.519531 0.195312 8.796875 0.296875 7.984375 0.296875 C 6.296875 0.296875 5.015625 -0.160156 4.140625 -1.078125 C 3.265625 -1.992188 2.828125 -3.328125 2.828125 -5.078125 L 2.828125 -12.46875 L 0.46875 -12.46875 L 0.46875 -15.578125 L 2.828125 -15.578125 L 2.828125 -18.609375 L 6.75 -19.234375 L 6.75 -15.578125 L 11.15625 -15.578125 L 11.15625 -12.46875 L 6.75 -12.46875 L 6.75 -5.359375 C 6.75 -4.585938 6.90625 -4.023438 7.21875 -3.671875 C 7.539062 -3.316406 8.007812 -3.140625 8.625 -3.140625 C 9.3125 -3.140625 9.914062 -3.328125 10.4375 -3.703125 Z M 10.734375 -3.703125 "/></g></g></g><g fill="#f1faee" fill-opacity="1"><g transform="translate(413.939999, 436.269754)"><g><path d="M 7.28125 0.296875 C 6.21875 0.296875 5.242188 0.171875 4.359375 -0.078125 C 3.472656 -0.328125 2.71875 -0.671875 2.09375 -1.109375 C 1.46875 -1.546875 1.003906 -2.046875 0.703125 -2.609375 L 2.875 -4.953125 L 3.171875 -4.953125 C 3.691406 -4.253906 4.300781 -3.726562 5 -3.375 C 5.707031 -3.03125 6.476562 -2.859375 7.3125 -2.859375 C 8.070312 -2.859375 8.644531 -2.992188 9.03125 -3.265625 C 9.414062 -3.546875 9.609375 -3.9375 9.609375 -4.4375 C 9.609375 -4.832031 9.46875 -5.164062 9.1875 -5.4375 C 8.914062 -5.707031 8.46875 -5.914062 7.84375 -6.0625 L 5.78125 -6.5625 C 4.238281 -6.925781 3.113281 -7.484375 2.40625 -8.234375 C 1.695312 -8.992188 1.34375 -9.957031 1.34375 -11.125 C 1.34375 -12.09375 1.585938 -12.9375 2.078125 -13.65625 C 2.578125 -14.375 3.273438 -14.921875 4.171875 -15.296875 C 5.066406 -15.671875 6.113281 -15.859375 7.3125 -15.859375 C 8.707031 -15.859375 9.863281 -15.65625 10.78125 -15.25 C 11.707031 -14.84375 12.429688 -14.300781 12.953125 -13.625 L 10.859375 -11.375 L 10.578125 -11.375 C 10.148438 -11.863281 9.664062 -12.21875 9.125 -12.4375 C 8.582031 -12.664062 7.976562 -12.78125 7.3125 -12.78125 C 5.769531 -12.78125 5 -12.300781 5 -11.34375 C 5 -10.9375 5.140625 -10.601562 5.421875 -10.34375 C 5.710938 -10.09375 6.21875 -9.890625 6.9375 -9.734375 L 8.859375 -9.3125 C 10.441406 -8.96875 11.597656 -8.421875 12.328125 -7.671875 C 13.054688 -6.929688 13.421875 -5.929688 13.421875 -4.671875 C 13.421875 -3.679688 13.175781 -2.8125 12.6875 -2.0625 C 12.195312 -1.3125 11.488281 -0.726562 10.5625 -0.3125 C 9.644531 0.09375 8.550781 0.296875 7.28125 0.296875 Z M 7.28125 0.296875 "/></g></g></g><g clip-path="url(#1e4af87d7f)"><g clip-path="url(#df527312f1)"><g transform="matrix(1, 0, 0, 1, 640, 353)"><g clip-path="url(#6c66c2b4d9)"><g clip-path="url(#d8085cd37e)"><g clip-path="url(#62a3ad37c7)"><path fill="#e63946" d="M 0.164062 0.53125 L 130.347656 0.53125 L 130.347656 103.394531 L 0.164062 103.394531 Z M 0.164062 0.53125 " fill-opacity="1" fill-rule="nonzero"/></g></g></g></g></g></g><g clip-path="url(#5c995f1a04)"><g clip-path="url(#4886528233)"><g transform="matrix(1, 0, 0, 1, 424, 263)"><g clip-path="url(#eb12cee134)"><g clip-path="url(#a673da6438)"><g clip-path="url(#dd155021a9)"><path fill="#1d3557" d="M 0.855469 0.210938 L 153.019531 0.210938 L 153.019531 143.953125 L 0.855469 143.953125 Z M 0.855469 0.210938 " fill-opacity="1" fill-rule="nonzero"/></g></g></g></g></g></g><g clip-path="url(#cff30e75f1)"><g clip-path="url(#d05f221cd0)"><g transform="matrix(1, 0, 0, 1, 573, 262)"><g clip-path="url(#0cfda7b634)"><g clip-path="url(#1054d5a91a)"><g clip-path="url(#cbb18866fd)"><path fill="#1d3557" d="M 148.644531 0.953125 L 148.644531 144.953125 L 0.144531 144.953125 L 0.144531 0.953125 Z M 148.644531 0.953125 " fill-opacity="1" fill-rule="nonzero"/></g></g></g></g></g></g><g clip-path="url(#55cce847ef)"><g clip-path="url(#a666925b8a)"><g transform="matrix(1, 0, 0, 1, 573, 402)"><g clip-path="url(#142cec9a9b)"><g clip-path="url(#0d4cb2a82c)"><g clip-path="url(#053ba9dd88)"><path fill="#1d3557" d="M 148.644531 144.714844 L 0.410156 144.714844 L 0.410156 0.972656 L 148.644531 0.972656 Z M 148.644531 144.714844 " fill-opacity="1" fill-rule="nonzero"/></g></g></g></g></g></g><g clip-path="url(#3b4ed5f2a1)"><g clip-path="url(#f073f458d9)"><g transform="matrix(1, 0, 0, 1, 424, 402)"><g clip-path="url(#b39642578c)"><g clip-path="url(#4fac304355)"><g clip-path="url(#c849048f81)"><path fill="#1d3557" d="M 0.859375 144.96875 L 0.859375 0.96875 L 153.296875 0.96875 L 153.296875 144.96875 Z M 0.859375 144.96875 " fill-opacity="1" fill-rule="nonzero"/></g></g></g></g></g></g><g clip-path="url(#5eafac44bd)"><path fill="#f1faee" d="M 490.914062 402.625 C 490.914062 401.972656 490.664062 401.316406 490.164062 400.816406 L 464.558594 375.210938 C 463.558594 374.210938 461.9375 374.210938 460.9375 375.210938 L 435.332031 400.816406 C 434.332031 401.816406 434.332031 403.4375 435.332031 404.4375 C 436.332031 405.4375 437.953125 405.4375 438.949219 404.4375 L 462.75 380.640625 L 486.542969 404.4375 C 487.542969 405.4375 489.164062 405.4375 490.164062 404.4375 C 490.664062 403.9375 490.914062 403.28125 490.914062 402.625 Z M 490.914062 402.625 " fill-opacity="1" fill-rule="nonzero"/></g><g clip-path="url(#d62b421b09)"><path fill="#f1faee" d="M 649.636719 377.265625 C 649.636719 377.921875 649.886719 378.578125 650.386719 379.078125 L 675.992188 404.683594 C 676.992188 405.683594 678.613281 405.683594 679.613281 404.683594 L 705.222656 379.078125 C 706.21875 378.078125 706.21875 376.457031 705.222656 375.457031 C 704.222656 374.457031 702.601562 374.457031 701.601562 375.457031 L 677.804688 399.25 L 654.007812 375.457031 C 653.007812 374.457031 651.386719 374.457031 650.390625 375.457031 C 649.886719 375.957031 649.636719 376.609375 649.636719 377.265625 Z M 649.636719 377.265625 " fill-opacity="1" fill-rule="nonzero"/></g><g clip-path="url(#d6f93f5ae8)"><path fill="#f1faee" d="M 585.925781 483.957031 C 585.273438 483.957031 584.617188 484.207031 584.117188 484.703125 L 558.507812 510.3125 C 557.511719 511.3125 557.511719 512.933594 558.507812 513.933594 L 584.117188 539.539062 C 585.117188 540.539062 586.738281 540.539062 587.738281 539.539062 C 588.734375 538.539062 588.734375 536.917969 587.738281 535.917969 L 563.941406 512.121094 L 587.738281 488.328125 C 588.734375 487.328125 588.734375 485.707031 587.738281 484.707031 C 587.238281 484.207031 586.582031 483.957031 585.925781 483.957031 Z M 585.925781 483.957031 " fill-opacity="1" fill-rule="nonzero"/></g><g transform="matrix(1, 0, 0, 1, 495, 273)"><g clip-path="url(#e837b2d4d6)"><g fill="#f1faee" fill-opacity="1"><g transform="translate(15.630193, 50.371869)"><g><path d="M -1 -23.171875 C 0.269531 -23.898438 1.492188 -24.289062 2.671875 -24.34375 C 3.859375 -24.394531 4.921875 -24.128906 5.859375 -23.546875 C 6.804688 -22.960938 7.597656 -22.113281 8.234375 -21 C 8.878906 -19.882812 9.210938 -18.773438 9.234375 -17.671875 C 9.253906 -16.566406 8.941406 -15.519531 8.296875 -14.53125 C 7.648438 -13.539062 6.691406 -12.679688 5.421875 -11.953125 L 2.046875 -10.03125 L 5.859375 -3.359375 L 2.3125 -1.328125 L -7.921875 -19.21875 Z M 3.359375 -14.484375 C 5.316406 -15.609375 5.757812 -17.101562 4.6875 -18.96875 C 3.625 -20.84375 2.113281 -21.21875 0.15625 -20.09375 L -2.765625 -18.4375 L 0.4375 -12.828125 Z M 3.359375 -14.484375 "/></g></g></g><g fill="#f1faee" fill-opacity="1"><g transform="translate(31.022605, 41.722887)"><g><path d="M 2.0625 -0.84375 L -3.859375 -15.21875 L -0.34375 -16.671875 L 0.546875 -14.53125 L 0.84375 -14.59375 C 0.863281 -15.53125 1.078125 -16.300781 1.484375 -16.90625 C 1.890625 -17.507812 2.5 -17.976562 3.3125 -18.3125 C 4.125 -18.65625 4.800781 -18.773438 5.34375 -18.671875 L 6.015625 -15.3125 L 5.765625 -15.140625 C 5.472656 -15.140625 5.210938 -15.117188 4.984375 -15.078125 C 4.753906 -15.035156 4.484375 -14.945312 4.171875 -14.8125 C 3.160156 -14.394531 2.535156 -13.722656 2.296875 -12.796875 C 2.054688 -11.878906 2.257812 -10.632812 2.90625 -9.0625 L 5.671875 -2.34375 Z M 2.0625 -0.84375 "/></g></g></g><g fill="#f1faee" fill-opacity="1"><g transform="translate(41.162587, 37.271823)"><g><path d="M 8.796875 -2.078125 C 7.328125 -1.679688 5.957031 -1.628906 4.6875 -1.921875 C 3.414062 -2.222656 2.3125 -2.875 1.375 -3.875 C 0.445312 -4.875 -0.238281 -6.203125 -0.6875 -7.859375 C -1.132812 -9.503906 -1.207031 -10.992188 -0.90625 -12.328125 C -0.613281 -13.671875 0.00390625 -14.796875 0.953125 -15.703125 C 1.898438 -16.609375 3.109375 -17.257812 4.578125 -17.65625 C 6.046875 -18.050781 7.414062 -18.097656 8.6875 -17.796875 C 9.957031 -17.492188 11.0625 -16.835938 12 -15.828125 C 12.9375 -14.828125 13.628906 -13.503906 14.078125 -11.859375 C 14.523438 -10.203125 14.597656 -8.707031 14.296875 -7.375 C 13.992188 -6.039062 13.367188 -4.921875 12.421875 -4.015625 C 11.472656 -3.117188 10.265625 -2.472656 8.796875 -2.078125 Z M 7.9375 -5.265625 C 10.269531 -5.898438 11.019531 -7.75 10.1875 -10.8125 C 9.757812 -12.394531 9.144531 -13.472656 8.34375 -14.046875 C 7.539062 -14.628906 6.570312 -14.765625 5.4375 -14.453125 C 3.101562 -13.816406 2.351562 -11.96875 3.1875 -8.90625 C 4.019531 -5.84375 5.601562 -4.628906 7.9375 -5.265625 Z M 7.9375 -5.265625 "/></g></g></g><g fill="#f1faee" fill-opacity="1"><g transform="translate(57.53284, 32.960459)"><g><path d="M 10.09375 -5.15625 L 11.515625 -2.4375 C 11.140625 -2.03125 10.648438 -1.679688 10.046875 -1.390625 C 9.441406 -1.109375 8.738281 -0.910156 7.9375 -0.796875 C 6.28125 -0.566406 4.953125 -0.84375 3.953125 -1.625 C 2.953125 -2.414062 2.332031 -3.679688 2.09375 -5.421875 L 1.078125 -12.71875 L -1.25 -12.390625 L -1.6875 -15.46875 L 0.640625 -15.796875 L 0.234375 -18.8125 L 4.015625 -19.96875 L 4.515625 -16.34375 L 8.875 -16.953125 L 9.3125 -13.875 L 4.953125 -13.265625 L 5.9375 -6.25 C 6.039062 -5.476562 6.269531 -4.9375 6.625 -4.625 C 6.988281 -4.320312 7.476562 -4.210938 8.09375 -4.296875 C 8.78125 -4.390625 9.351562 -4.660156 9.8125 -5.109375 Z M 10.09375 -5.15625 "/></g></g></g><g fill="#f1faee" fill-opacity="1"><g transform="translate(68.354342, 31.188754)"><g><path d="M 9.03125 0.171875 C 7.507812 0.191406 6.171875 -0.0976562 5.015625 -0.703125 C 3.859375 -1.316406 2.953125 -2.222656 2.296875 -3.421875 C 1.648438 -4.617188 1.316406 -6.070312 1.296875 -7.78125 C 1.265625 -9.488281 1.554688 -10.953125 2.171875 -12.171875 C 2.796875 -13.398438 3.679688 -14.332031 4.828125 -14.96875 C 5.972656 -15.613281 7.304688 -15.945312 8.828125 -15.96875 C 10.347656 -15.976562 11.6875 -15.675781 12.84375 -15.0625 C 14 -14.457031 14.90625 -13.550781 15.5625 -12.34375 C 16.21875 -11.144531 16.5625 -9.691406 16.59375 -7.984375 C 16.613281 -6.273438 16.3125 -4.8125 15.6875 -3.59375 C 15.0625 -2.375 14.175781 -1.441406 13.03125 -0.796875 C 11.882812 -0.160156 10.550781 0.160156 9.03125 0.171875 Z M 8.984375 -3.140625 C 11.398438 -3.171875 12.59375 -4.769531 12.5625 -7.9375 C 12.53125 -9.582031 12.203125 -10.78125 11.578125 -11.53125 C 10.953125 -12.289062 10.050781 -12.664062 8.875 -12.65625 C 6.457031 -12.613281 5.269531 -11.003906 5.3125 -7.828125 C 5.34375 -4.660156 6.566406 -3.097656 8.984375 -3.140625 Z M 8.984375 -3.140625 "/></g></g></g><g fill="#f1faee" fill-opacity="1"><g transform="translate(85.282454, 31.08543)"><g><path d="M 11.078125 -2.46875 L 11.75 0.5 C 11.289062 0.800781 10.734375 1.015625 10.078125 1.140625 C 9.421875 1.265625 8.691406 1.28125 7.890625 1.1875 C 6.222656 1 5.003906 0.398438 4.234375 -0.609375 C 3.472656 -1.617188 3.191406 -2.992188 3.390625 -4.734375 L 4.21875 -12.0625 L 1.875 -12.328125 L 2.21875 -15.421875 L 4.5625 -15.15625 L 4.90625 -18.15625 L 8.84375 -18.34375 L 8.4375 -14.71875 L 12.8125 -14.21875 L 12.46875 -11.125 L 8.09375 -11.625 L 7.296875 -4.578125 C 7.203125 -3.804688 7.296875 -3.226562 7.578125 -2.84375 C 7.859375 -2.457031 8.304688 -2.226562 8.921875 -2.15625 C 9.609375 -2.082031 10.226562 -2.195312 10.78125 -2.5 Z M 11.078125 -2.46875 "/></g></g></g><g fill="#f1faee" fill-opacity="1"><g transform="translate(96.243987, 32.122603)"><g><path d="M 1.828125 7.21875 C 1.179688 7.0625 0.601562 6.867188 0.09375 6.640625 C -0.40625 6.410156 -0.800781 6.179688 -1.09375 5.953125 L 0.25 3.015625 L 0.515625 3 C 0.703125 3.164062 0.957031 3.320312 1.28125 3.46875 C 1.613281 3.625 1.957031 3.742188 2.3125 3.828125 C 2.925781 3.972656 3.453125 4.015625 3.890625 3.953125 C 4.335938 3.890625 4.742188 3.707031 5.109375 3.40625 C 5.484375 3.101562 5.859375 2.644531 6.234375 2.03125 L 3.90625 -15.046875 L 7.875 -14.109375 L 9.15625 -2.703125 L 9.484375 -2.625 L 15.640625 -12.265625 L 19.5 -11.359375 L 9.640625 3.265625 C 8.835938 4.453125 8.050781 5.375 7.28125 6.03125 C 6.507812 6.6875 5.679688 7.113281 4.796875 7.3125 C 3.921875 7.507812 2.929688 7.476562 1.828125 7.21875 Z M 1.828125 7.21875 "/></g></g></g><g fill="#f1faee" fill-opacity="1"><g transform="translate(111.249584, 35.504961)"><g><path d="M -0.25 6.671875 L 7.84375 -13.609375 L 11.46875 -12.15625 L 10.71875 -10.265625 L 10.96875 -10.109375 C 11.675781 -10.671875 12.460938 -10.992188 13.328125 -11.078125 C 14.203125 -11.171875 15.117188 -11.023438 16.078125 -10.640625 C 17.234375 -10.179688 18.140625 -9.5 18.796875 -8.59375 C 19.453125 -7.695312 19.796875 -6.585938 19.828125 -5.265625 C 19.859375 -3.953125 19.539062 -2.472656 18.875 -0.828125 C 18.21875 0.828125 17.410156 2.109375 16.453125 3.015625 C 15.503906 3.929688 14.460938 4.484375 13.328125 4.671875 C 12.203125 4.867188 11.046875 4.734375 9.859375 4.265625 C 8.960938 3.898438 8.242188 3.4375 7.703125 2.875 C 7.171875 2.3125 6.804688 1.625 6.609375 0.8125 L 6.3125 0.75 L 3.375 8.125 Z M 10.09375 0.78125 C 11.175781 1.21875 12.132812 1.191406 12.96875 0.703125 C 13.8125 0.210938 14.535156 -0.796875 15.140625 -2.328125 C 15.753906 -3.847656 15.921875 -5.070312 15.640625 -6 C 15.367188 -6.9375 14.691406 -7.625 13.609375 -8.0625 C 12.585938 -8.46875 11.632812 -8.421875 10.75 -7.921875 C 9.875 -7.421875 9.140625 -6.429688 8.546875 -4.953125 C 7.960938 -3.472656 7.816406 -2.25 8.109375 -1.28125 C 8.410156 -0.3125 9.070312 0.375 10.09375 0.78125 Z M 10.09375 0.78125 "/></g></g></g><g fill="#f1faee" fill-opacity="1"><g transform="translate(127.324963, 41.882645)"><g><path d="M 16.734375 1.78125 L 8.109375 -3.25 C 7.523438 -2.03125 7.363281 -0.988281 7.625 -0.125 C 7.882812 0.738281 8.503906 1.457031 9.484375 2.03125 C 10.242188 2.476562 10.945312 2.695312 11.59375 2.6875 C 12.25 2.6875 12.890625 2.476562 13.515625 2.0625 L 13.78125 2.21875 L 15.1875 4.9375 C 14.207031 5.632812 13.097656 6.015625 11.859375 6.078125 C 10.628906 6.148438 9.28125 5.753906 7.8125 4.890625 C 6.425781 4.085938 5.378906 3.125 4.671875 2 C 3.960938 0.882812 3.640625 -0.347656 3.703125 -1.703125 C 3.765625 -3.066406 4.234375 -4.5 5.109375 -6 C 5.992188 -7.519531 7.03125 -8.640625 8.21875 -9.359375 C 9.40625 -10.078125 10.644531 -10.40625 11.9375 -10.34375 C 13.226562 -10.28125 14.484375 -9.894531 15.703125 -9.1875 C 17.597656 -8.082031 18.753906 -6.726562 19.171875 -5.125 C 19.597656 -3.53125 19.242188 -1.765625 18.109375 0.171875 C 17.691406 0.878906 17.351562 1.421875 17.09375 1.796875 Z M 15.09375 -2.078125 C 15.675781 -3.128906 15.878906 -4.015625 15.703125 -4.734375 C 15.523438 -5.460938 15.015625 -6.070312 14.171875 -6.5625 C 12.460938 -7.5625 10.882812 -7.164062 9.4375 -5.375 Z M 15.09375 -2.078125 "/></g></g></g></g></g><g transform="matrix(1, 0, 0, 1, 439, 418)"><g clip-path="url(#42e9d65f50)"><g fill="#f1faee" fill-opacity="1"><g transform="translate(15.431558, 23.270618)"><g><path d="M 1.25 2.359375 L 19.453125 -7.296875 L 23.328125 0.015625 C 24.328125 1.898438 24.644531 3.550781 24.28125 4.96875 C 23.925781 6.394531 22.988281 7.507812 21.46875 8.3125 C 20.363281 8.90625 19.304688 9.101562 18.296875 8.90625 C 17.296875 8.71875 16.3125 8.164062 15.34375 7.25 L 15.078125 7.390625 C 15.140625 8.097656 15.019531 8.757812 14.71875 9.375 C 14.414062 9.988281 13.863281 10.707031 13.0625 11.53125 L 8.609375 16.234375 L 6.640625 12.53125 L 11.140625 7.859375 C 11.597656 7.390625 11.914062 6.960938 12.09375 6.578125 C 12.28125 6.191406 12.347656 5.785156 12.296875 5.359375 C 12.242188 4.929688 12.066406 4.4375 11.765625 3.875 L 10.734375 1.953125 L 3.15625 5.96875 Z M 15.328125 3.703125 C 16.253906 5.453125 17.53125 5.894531 19.15625 5.03125 C 20.800781 4.15625 21.160156 2.84375 20.234375 1.09375 L 18.5 -2.171875 L 13.59375 0.4375 Z M 15.328125 3.703125 "/></g></g></g><g fill="#f1faee" fill-opacity="1"><g transform="translate(25.282285, 41.433068)"><g><path d="M 14.671875 8.234375 L 8.734375 0.203125 C 7.710938 1.097656 7.148438 1.992188 7.046875 2.890625 C 6.941406 3.785156 7.226562 4.691406 7.90625 5.609375 C 8.4375 6.316406 9 6.796875 9.59375 7.046875 C 10.195312 7.296875 10.875 7.351562 11.625 7.21875 L 11.796875 7.453125 L 12.015625 10.515625 C 10.828125 10.773438 9.65625 10.691406 8.5 10.265625 C 7.351562 9.847656 6.269531 8.953125 5.25 7.578125 C 4.300781 6.285156 3.722656 4.988281 3.515625 3.6875 C 3.304688 2.382812 3.492188 1.117188 4.078125 -0.109375 C 4.671875 -1.347656 5.664062 -2.484375 7.0625 -3.515625 C 8.476562 -4.566406 9.867188 -5.179688 11.234375 -5.359375 C 12.609375 -5.546875 13.878906 -5.359375 15.046875 -4.796875 C 16.210938 -4.242188 17.21875 -3.398438 18.0625 -2.265625 C 19.363281 -0.492188 19.894531 1.203125 19.65625 2.828125 C 19.414062 4.460938 18.390625 5.953125 16.578125 7.296875 C 15.921875 7.785156 15.394531 8.144531 15 8.375 Z M 14.703125 4.03125 C 15.640625 3.3125 16.171875 2.582031 16.296875 1.84375 C 16.429688 1.101562 16.207031 0.335938 15.625 -0.453125 C 14.445312 -2.035156 12.84375 -2.296875 10.8125 -1.234375 Z M 14.703125 4.03125 "/></g></g></g><g fill="#f1faee" fill-opacity="1"><g transform="translate(36.168128, 55.731437)"><g><path d="M 1.859375 1.984375 L 10.921875 -6.546875 L 9.421875 -8.15625 L 11.6875 -10.296875 L 13.1875 -8.6875 C 13.5625 -9.25 13.957031 -9.722656 14.375 -10.109375 C 15.09375 -10.785156 15.859375 -11.203125 16.671875 -11.359375 C 17.492188 -11.515625 18.328125 -11.40625 19.171875 -11.03125 C 20.023438 -10.664062 20.847656 -10.0625 21.640625 -9.21875 C 22.816406 -7.957031 23.484375 -6.816406 23.640625 -5.796875 L 20.90625 -4.5 L 20.65625 -4.6875 C 20.5625 -5.394531 20.203125 -6.078125 19.578125 -6.734375 C 19.097656 -7.253906 18.609375 -7.523438 18.109375 -7.546875 C 17.617188 -7.566406 17.160156 -7.375 16.734375 -6.96875 C 16.546875 -6.789062 16.390625 -6.617188 16.265625 -6.453125 C 16.140625 -6.285156 16.007812 -6.082031 15.875 -5.84375 L 18.90625 -2.609375 L 16.640625 -0.46875 L 13.609375 -3.703125 L 4.546875 4.828125 Z M 1.859375 1.984375 "/></g></g></g><g fill="#f1faee" fill-opacity="1"><g transform="translate(44.431084, 64.384442)"><g><path d="M 14.765625 -10.109375 C 14.234375 -10.585938 13.945312 -11.132812 13.90625 -11.75 C 13.863281 -12.363281 14.070312 -12.921875 14.53125 -13.421875 C 14.976562 -13.910156 15.507812 -14.164062 16.125 -14.1875 C 16.738281 -14.207031 17.3125 -13.976562 17.84375 -13.5 C 18.1875 -13.1875 18.425781 -12.832031 18.5625 -12.4375 C 18.695312 -12.050781 18.722656 -11.660156 18.640625 -11.265625 C 18.566406 -10.878906 18.382812 -10.523438 18.09375 -10.203125 C 17.789062 -9.867188 17.445312 -9.640625 17.0625 -9.515625 C 16.6875 -9.398438 16.296875 -9.390625 15.890625 -9.484375 C 15.484375 -9.585938 15.109375 -9.796875 14.765625 -10.109375 Z M 1.65625 1.5 L 12.078125 -10.046875 L 14.984375 -7.4375 L 4.5625 4.109375 Z M 1.65625 1.5 "/></g></g></g><g fill="#f1faee" fill-opacity="1"><g transform="translate(51.270462, 70.847773)"><g><path d="M 1.8125 1.3125 L 10.890625 -11.3125 L 13.9375 -9.125 L 12.609375 -7.265625 L 12.796875 -7.03125 C 14.617188 -7.90625 16.410156 -7.707031 18.171875 -6.4375 C 19.628906 -5.382812 20.410156 -4.210938 20.515625 -2.921875 C 20.628906 -1.640625 20.144531 -0.242188 19.0625 1.265625 L 13.15625 9.46875 L 9.984375 7.1875 L 15.609375 -0.625 C 16.210938 -1.457031 16.476562 -2.179688 16.40625 -2.796875 C 16.34375 -3.410156 15.9375 -3.988281 15.1875 -4.53125 C 14.28125 -5.175781 13.363281 -5.382812 12.4375 -5.15625 C 11.507812 -4.9375 10.59375 -4.195312 9.6875 -2.9375 L 4.984375 3.59375 Z M 1.8125 1.3125 "/></g></g></g><g fill="#f1faee" fill-opacity="1"><g transform="translate(67.23521, 82.157748)"><g><path d="M 16.8125 0.9375 L 7.9375 -3.65625 C 7.40625 -2.394531 7.289062 -1.335938 7.59375 -0.484375 C 7.90625 0.359375 8.566406 1.039062 9.578125 1.5625 C 10.359375 1.96875 11.070312 2.148438 11.71875 2.109375 C 12.363281 2.078125 12.992188 1.832031 13.609375 1.375 L 13.875 1.515625 L 15.40625 4.171875 C 14.46875 4.910156 13.382812 5.347656 12.15625 5.484375 C 10.9375 5.617188 9.566406 5.289062 8.046875 4.5 C 6.617188 3.757812 5.523438 2.847656 4.765625 1.765625 C 4.003906 0.691406 3.617188 -0.523438 3.609375 -1.890625 C 3.609375 -3.253906 4.007812 -4.707031 4.8125 -6.25 C 5.613281 -7.8125 6.585938 -8.976562 7.734375 -9.75 C 8.890625 -10.519531 10.109375 -10.910156 11.390625 -10.921875 C 12.679688 -10.929688 13.957031 -10.609375 15.21875 -9.953125 C 17.164062 -8.941406 18.390625 -7.648438 18.890625 -6.078125 C 19.390625 -4.515625 19.125 -2.734375 18.09375 -0.734375 C 17.71875 -0.00390625 17.40625 0.550781 17.15625 0.9375 Z M 14.984375 -2.84375 C 15.492188 -3.90625 15.644531 -4.796875 15.4375 -5.515625 C 15.226562 -6.234375 14.691406 -6.816406 13.828125 -7.265625 C 12.066406 -8.171875 10.515625 -7.703125 9.171875 -5.859375 Z M 14.984375 -2.84375 "/></g></g></g></g></g><g transform="matrix(1, 0, 0, 1, 614, 437)"><g clip-path="url(#623bd783cc)"><g fill="#f1faee" fill-opacity="1"><g transform="translate(20.806985, 64.376989)"><g><path d="M 5.109375 -25.90625 L 6.703125 -22.859375 L 1.421875 -20.109375 L 9.359375 -4.890625 L 5.78125 -3.015625 L -2.15625 -18.234375 L -7.4375 -15.484375 L -9.03125 -18.53125 Z M 5.109375 -25.90625 "/></g></g></g><g fill="#f1faee" fill-opacity="1"><g transform="translate(37.068342, 55.777705)"><g><path d="M 8.46875 -14.546875 L 0.359375 -8.734375 C 1.234375 -7.691406 2.113281 -7.113281 3 -7 C 3.894531 -6.882812 4.800781 -7.160156 5.71875 -7.828125 C 6.4375 -8.335938 6.925781 -8.890625 7.1875 -9.484375 C 7.445312 -10.085938 7.515625 -10.765625 7.390625 -11.515625 L 7.640625 -11.6875 L 10.71875 -11.84375 C 10.945312 -10.65625 10.84375 -9.488281 10.40625 -8.34375 C 9.96875 -7.207031 9.050781 -6.140625 7.65625 -5.140625 C 6.351562 -4.203125 5.046875 -3.640625 3.734375 -3.453125 C 2.429688 -3.265625 1.171875 -3.472656 -0.046875 -4.078125 C -1.265625 -4.691406 -2.382812 -5.707031 -3.40625 -7.125 C -4.425781 -8.550781 -5.019531 -9.945312 -5.1875 -11.3125 C -5.351562 -12.6875 -5.144531 -13.953125 -4.5625 -15.109375 C -3.988281 -16.265625 -3.125 -17.253906 -1.96875 -18.078125 C -0.1875 -19.359375 1.515625 -19.863281 3.140625 -19.59375 C 4.765625 -19.332031 6.234375 -18.285156 7.546875 -16.453125 C 8.023438 -15.785156 8.378906 -15.253906 8.609375 -14.859375 Z M 4.265625 -14.640625 C 3.554688 -15.585938 2.832031 -16.128906 2.09375 -16.265625 C 1.351562 -16.398438 0.585938 -16.179688 -0.203125 -15.609375 C -1.816406 -14.460938 -2.097656 -12.863281 -1.046875 -10.8125 Z M 4.265625 -14.640625 "/></g></g></g><g fill="#f1faee" fill-opacity="1"><g transform="translate(51.678466, 45.097471)"><g><path d="M 5.515625 -4.75 C 4.734375 -4.019531 3.9375 -3.445312 3.125 -3.03125 C 2.3125 -2.613281 1.523438 -2.351562 0.765625 -2.25 C 0.015625 -2.144531 -0.660156 -2.191406 -1.265625 -2.390625 L -1.296875 -5.578125 L -1.078125 -5.78125 C -0.210938 -5.632812 0.59375 -5.671875 1.34375 -5.890625 C 2.09375 -6.117188 2.769531 -6.515625 3.375 -7.078125 C 3.925781 -7.597656 4.25 -8.085938 4.34375 -8.546875 C 4.4375 -9.015625 4.3125 -9.429688 3.96875 -9.796875 C 3.695312 -10.085938 3.367188 -10.234375 2.984375 -10.234375 C 2.609375 -10.234375 2.140625 -10.078125 1.578125 -9.765625 L -0.25 -8.734375 C -1.632812 -7.953125 -2.84375 -7.59375 -3.875 -7.65625 C -4.90625 -7.726562 -5.816406 -8.191406 -6.609375 -9.046875 C -7.265625 -9.742188 -7.660156 -10.519531 -7.796875 -11.375 C -7.941406 -12.238281 -7.8125 -13.113281 -7.40625 -14 C -7 -14.882812 -6.363281 -15.734375 -5.5 -16.546875 C -4.46875 -17.503906 -3.476562 -18.148438 -2.53125 -18.484375 C -1.59375 -18.816406 -0.695312 -18.914062 0.15625 -18.78125 L 0.15625 -15.703125 L -0.046875 -15.515625 C -0.691406 -15.578125 -1.285156 -15.503906 -1.828125 -15.296875 C -2.378906 -15.097656 -2.898438 -14.769531 -3.390625 -14.3125 C -4.515625 -13.257812 -4.75 -12.378906 -4.09375 -11.671875 C -3.820312 -11.378906 -3.492188 -11.238281 -3.109375 -11.25 C -2.734375 -11.269531 -2.222656 -11.460938 -1.578125 -11.828125 L 0.09375 -12.828125 C 1.476562 -13.671875 2.691406 -14.066406 3.734375 -14.015625 C 4.785156 -13.960938 5.738281 -13.476562 6.59375 -12.5625 C 7.269531 -11.84375 7.6875 -11.039062 7.84375 -10.15625 C 8 -9.28125 7.878906 -8.375 7.484375 -7.4375 C 7.097656 -6.507812 6.441406 -5.613281 5.515625 -4.75 Z M 5.515625 -4.75 "/></g></g></g><g fill="#f1faee" fill-opacity="1"><g transform="translate(62.801457, 34.527806)"><g><path d="M 4.15625 -10.546875 L 7.03125 -9.4375 C 7.019531 -8.894531 6.878906 -8.316406 6.609375 -7.703125 C 6.335938 -7.085938 5.9375 -6.472656 5.40625 -5.859375 C 4.3125 -4.585938 3.132812 -3.914062 1.875 -3.84375 C 0.613281 -3.769531 -0.679688 -4.304688 -2.015625 -5.453125 L -7.609375 -10.25 L -9.140625 -8.46875 L -11.5 -10.484375 L -9.96875 -12.265625 L -12.265625 -14.234375 L -10.203125 -17.625 L -7.421875 -15.234375 L -4.5625 -18.578125 L -2.203125 -16.5625 L -5.0625 -13.21875 L 0.328125 -8.59375 C 0.910156 -8.09375 1.4375 -7.847656 1.90625 -7.859375 C 2.375 -7.878906 2.8125 -8.117188 3.21875 -8.578125 C 3.664062 -9.109375 3.914062 -9.6875 3.96875 -10.3125 Z M 4.15625 -10.546875 "/></g></g></g></g></g><g clip-path="url(#073f3c11ea)"><g clip-path="url(#9690d3e53b)"><g transform="matrix(1, 0, 0, 1, 734, 353)"><g clip-path="url(#1d1cf1cac7)"><g clip-path="url(#c46ba74b53)"><g clip-path="url(#ff302bbbc2)"><path fill="#a8dadc" d="M 0.476562 0.53125 L 291.378906 0.53125 L 291.378906 103.394531 L 0.476562 103.394531 Z M 0.476562 0.53125 " fill-opacity="1" fill-rule="nonzero"/></g></g></g></g></g></g><g fill="#1d3557" fill-opacity="1"><g transform="translate(852.085514, 395.532802)"><g><path d="M 2.6875 0 L 2.6875 -20.625 L 10.96875 -20.625 C 13.09375 -20.625 14.695312 -20.128906 15.78125 -19.140625 C 16.875 -18.160156 17.421875 -16.804688 17.421875 -15.078125 C 17.421875 -13.828125 17.101562 -12.800781 16.46875 -12 C 15.832031 -11.207031 14.882812 -10.597656 13.625 -10.171875 L 13.625 -9.875 C 14.269531 -9.59375 14.789062 -9.171875 15.1875 -8.609375 C 15.59375 -8.054688 15.972656 -7.238281 16.328125 -6.15625 L 18.390625 0 L 14.203125 0 L 12.1875 -6.171875 C 11.976562 -6.785156 11.742188 -7.265625 11.484375 -7.609375 C 11.234375 -7.953125 10.90625 -8.203125 10.5 -8.359375 C 10.101562 -8.515625 9.582031 -8.59375 8.9375 -8.59375 L 6.75 -8.59375 L 6.75 0 Z M 10.46875 -11.828125 C 12.4375 -11.828125 13.421875 -12.75 13.421875 -14.59375 C 13.421875 -16.457031 12.4375 -17.390625 10.46875 -17.390625 L 6.75 -17.390625 L 6.75 -11.828125 Z M 10.46875 -11.828125 "/></g></g></g><g fill="#1d3557" fill-opacity="1"><g transform="translate(871.36684, 395.532802)"><g><path d="M 6.0625 0.296875 C 5.070312 0.296875 4.207031 0.113281 3.46875 -0.25 C 2.738281 -0.613281 2.175781 -1.148438 1.78125 -1.859375 C 1.382812 -2.578125 1.1875 -3.429688 1.1875 -4.421875 C 1.1875 -5.347656 1.382812 -6.125 1.78125 -6.75 C 2.175781 -7.375 2.785156 -7.882812 3.609375 -8.28125 C 4.441406 -8.6875 5.523438 -9 6.859375 -9.21875 C 7.785156 -9.363281 8.488281 -9.523438 8.96875 -9.703125 C 9.457031 -9.878906 9.785156 -10.082031 9.953125 -10.3125 C 10.128906 -10.539062 10.21875 -10.828125 10.21875 -11.171875 C 10.21875 -11.671875 10.039062 -12.050781 9.6875 -12.3125 C 9.34375 -12.570312 8.765625 -12.703125 7.953125 -12.703125 C 7.085938 -12.703125 6.265625 -12.507812 5.484375 -12.125 C 4.703125 -11.738281 4.023438 -11.234375 3.453125 -10.609375 L 3.171875 -10.609375 L 1.53125 -13.078125 C 2.320312 -13.953125 3.285156 -14.632812 4.421875 -15.125 C 5.566406 -15.613281 6.8125 -15.859375 8.15625 -15.859375 C 10.21875 -15.859375 11.707031 -15.421875 12.625 -14.546875 C 13.550781 -13.671875 14.015625 -12.425781 14.015625 -10.8125 L 14.015625 -4.0625 C 14.015625 -3.363281 14.316406 -3.015625 14.921875 -3.015625 C 15.160156 -3.015625 15.390625 -3.054688 15.609375 -3.140625 L 15.8125 -3.09375 L 16.09375 -0.359375 C 15.875 -0.222656 15.570312 -0.109375 15.1875 -0.015625 C 14.800781 0.0664062 14.378906 0.109375 13.921875 0.109375 C 12.992188 0.109375 12.269531 -0.0664062 11.75 -0.421875 C 11.226562 -0.773438 10.851562 -1.335938 10.625 -2.109375 L 10.328125 -2.125 C 9.566406 -0.507812 8.144531 0.296875 6.0625 0.296875 Z M 7.3125 -2.625 C 8.207031 -2.625 8.925781 -2.925781 9.46875 -3.53125 C 10.007812 -4.132812 10.28125 -4.976562 10.28125 -6.0625 L 10.28125 -7.640625 L 10.015625 -7.703125 C 9.773438 -7.515625 9.460938 -7.359375 9.078125 -7.234375 C 8.703125 -7.109375 8.160156 -6.984375 7.453125 -6.859375 C 6.597656 -6.710938 5.984375 -6.46875 5.609375 -6.125 C 5.242188 -5.78125 5.0625 -5.296875 5.0625 -4.671875 C 5.0625 -4.003906 5.257812 -3.492188 5.65625 -3.140625 C 6.050781 -2.796875 6.601562 -2.625 7.3125 -2.625 Z M 7.3125 -2.625 "/></g></g></g><g fill="#1d3557" fill-opacity="1"><g transform="translate(887.770777, 395.532802)"><g><path d="M 2.25 6.3125 L 2.25 -15.5625 L 6.15625 -15.5625 L 6.15625 -13.53125 L 6.453125 -13.46875 C 6.910156 -14.257812 7.523438 -14.851562 8.296875 -15.25 C 9.066406 -15.65625 9.96875 -15.859375 11 -15.859375 C 12.25 -15.859375 13.34375 -15.5625 14.28125 -14.96875 C 15.21875 -14.375 15.945312 -13.472656 16.46875 -12.265625 C 16.988281 -11.054688 17.25 -9.554688 17.25 -7.765625 C 17.25 -5.992188 16.972656 -4.503906 16.421875 -3.296875 C 15.878906 -2.097656 15.117188 -1.195312 14.140625 -0.59375 C 13.160156 0 12.03125 0.296875 10.75 0.296875 C 9.78125 0.296875 8.941406 0.132812 8.234375 -0.1875 C 7.535156 -0.507812 6.941406 -1.015625 6.453125 -1.703125 L 6.15625 -1.65625 L 6.15625 6.3125 Z M 9.65625 -3.015625 C 10.820312 -3.015625 11.707031 -3.394531 12.3125 -4.15625 C 12.914062 -4.914062 13.21875 -6.117188 13.21875 -7.765625 C 13.21875 -9.410156 12.914062 -10.617188 12.3125 -11.390625 C 11.707031 -12.160156 10.820312 -12.546875 9.65625 -12.546875 C 8.570312 -12.546875 7.707031 -12.148438 7.0625 -11.359375 C 6.425781 -10.566406 6.109375 -9.367188 6.109375 -7.765625 C 6.109375 -6.179688 6.425781 -4.992188 7.0625 -4.203125 C 7.707031 -3.410156 8.570312 -3.015625 9.65625 -3.015625 Z M 9.65625 -3.015625 "/></g></g></g><g fill="#1d3557" fill-opacity="1"><g transform="translate(906.40328, 395.532802)"><g><path d="M 4.1875 -17.421875 C 3.476562 -17.421875 2.90625 -17.632812 2.46875 -18.0625 C 2.03125 -18.488281 1.8125 -19.039062 1.8125 -19.71875 C 1.8125 -20.382812 2.03125 -20.929688 2.46875 -21.359375 C 2.90625 -21.785156 3.476562 -22 4.1875 -22 C 4.65625 -22 5.070312 -21.898438 5.4375 -21.703125 C 5.8125 -21.503906 6.097656 -21.234375 6.296875 -20.890625 C 6.503906 -20.554688 6.609375 -20.164062 6.609375 -19.71875 C 6.609375 -19.28125 6.503906 -18.882812 6.296875 -18.53125 C 6.097656 -18.1875 5.8125 -17.914062 5.4375 -17.71875 C 5.070312 -17.519531 4.65625 -17.421875 4.1875 -17.421875 Z M 2.25 0 L 2.25 -15.5625 L 6.15625 -15.5625 L 6.15625 0 Z M 2.25 0 "/></g></g></g><g fill="#1d3557" fill-opacity="1"><g transform="translate(914.781556, 395.532802)"><g><path d="M 7.6875 0.296875 C 6.457031 0.296875 5.367188 0 4.421875 -0.59375 C 3.472656 -1.195312 2.726562 -2.101562 2.1875 -3.3125 C 1.65625 -4.519531 1.390625 -6.003906 1.390625 -7.765625 C 1.390625 -9.546875 1.664062 -11.039062 2.21875 -12.25 C 2.769531 -13.457031 3.53125 -14.359375 4.5 -14.953125 C 5.476562 -15.554688 6.609375 -15.859375 7.890625 -15.859375 C 8.859375 -15.859375 9.695312 -15.691406 10.40625 -15.359375 C 11.113281 -15.023438 11.710938 -14.503906 12.203125 -13.796875 L 12.5 -13.859375 L 12.5 -21.8125 L 16.40625 -21.8125 L 16.40625 0 L 12.5 0 L 12.5 -2.015625 L 12.203125 -2.078125 C 11.765625 -1.335938 11.171875 -0.753906 10.421875 -0.328125 C 9.671875 0.0859375 8.757812 0.296875 7.6875 0.296875 Z M 8.953125 -3.015625 C 10.054688 -3.015625 10.925781 -3.40625 11.5625 -4.1875 C 12.207031 -4.976562 12.53125 -6.171875 12.53125 -7.765625 C 12.53125 -9.367188 12.207031 -10.566406 11.5625 -11.359375 C 10.925781 -12.148438 10.054688 -12.546875 8.953125 -12.546875 C 7.804688 -12.546875 6.929688 -12.160156 6.328125 -11.390625 C 5.722656 -10.617188 5.421875 -9.410156 5.421875 -7.765625 C 5.421875 -6.128906 5.722656 -4.925781 6.328125 -4.15625 C 6.929688 -3.394531 7.804688 -3.015625 8.953125 -3.015625 Z M 8.953125 -3.015625 "/></g></g></g><g fill="#1d3557" fill-opacity="1"><g transform="translate(799.773017, 435.2828)"><g><path d="M 11.265625 0.296875 C 9.367188 0.296875 7.695312 -0.0976562 6.25 -0.890625 C 4.800781 -1.679688 3.664062 -2.867188 2.84375 -4.453125 C 2.03125 -6.035156 1.625 -7.988281 1.625 -10.3125 C 1.625 -12.632812 2.03125 -14.585938 2.84375 -16.171875 C 3.664062 -17.753906 4.800781 -18.941406 6.25 -19.734375 C 7.695312 -20.523438 9.367188 -20.921875 11.265625 -20.921875 C 13.253906 -20.921875 14.941406 -20.53125 16.328125 -19.75 C 17.710938 -18.976562 18.703125 -17.796875 19.296875 -16.203125 L 16.328125 -14.390625 L 15.96875 -14.40625 C 15.53125 -15.476562 14.929688 -16.242188 14.171875 -16.703125 C 13.410156 -17.171875 12.441406 -17.40625 11.265625 -17.40625 C 9.554688 -17.40625 8.222656 -16.835938 7.265625 -15.703125 C 6.304688 -14.578125 5.828125 -12.78125 5.828125 -10.3125 C 5.828125 -7.851562 6.304688 -6.054688 7.265625 -4.921875 C 8.222656 -3.796875 9.554688 -3.234375 11.265625 -3.234375 C 13.953125 -3.234375 15.59375 -4.535156 16.1875 -7.140625 L 16.546875 -7.140625 L 19.546875 -5.578125 C 18.984375 -3.617188 18.019531 -2.148438 16.65625 -1.171875 C 15.289062 -0.191406 13.492188 0.296875 11.265625 0.296875 Z M 11.265625 0.296875 "/></g></g></g><g fill="#1d3557" fill-opacity="1"><g transform="translate(819.999361, 435.2828)"><g><path d="M 9.046875 0.296875 C 7.515625 0.296875 6.171875 -0.015625 5.015625 -0.640625 C 3.867188 -1.265625 2.976562 -2.179688 2.34375 -3.390625 C 1.707031 -4.597656 1.390625 -6.054688 1.390625 -7.765625 C 1.390625 -9.484375 1.707031 -10.945312 2.34375 -12.15625 C 2.976562 -13.375 3.867188 -14.296875 5.015625 -14.921875 C 6.171875 -15.546875 7.515625 -15.859375 9.046875 -15.859375 C 10.566406 -15.859375 11.898438 -15.546875 13.046875 -14.921875 C 14.203125 -14.296875 15.097656 -13.375 15.734375 -12.15625 C 16.378906 -10.945312 16.703125 -9.484375 16.703125 -7.765625 C 16.703125 -6.054688 16.378906 -4.597656 15.734375 -3.390625 C 15.097656 -2.179688 14.203125 -1.265625 13.046875 -0.640625 C 11.898438 -0.015625 10.566406 0.296875 9.046875 0.296875 Z M 9.046875 -3.015625 C 11.460938 -3.015625 12.671875 -4.597656 12.671875 -7.765625 C 12.671875 -9.410156 12.359375 -10.617188 11.734375 -11.390625 C 11.117188 -12.160156 10.222656 -12.546875 9.046875 -12.546875 C 6.628906 -12.546875 5.421875 -10.953125 5.421875 -7.765625 C 5.421875 -4.597656 6.628906 -3.015625 9.046875 -3.015625 Z M 9.046875 -3.015625 "/></g></g></g><g fill="#1d3557" fill-opacity="1"><g transform="translate(838.081769, 435.2828)"><g><path d="M 2.25 0 L 2.25 -15.5625 L 6 -15.5625 L 6 -13.28125 L 6.296875 -13.203125 C 7.265625 -14.972656 8.832031 -15.859375 11 -15.859375 C 12.800781 -15.859375 14.117188 -15.367188 14.953125 -14.390625 C 15.796875 -13.410156 16.21875 -11.984375 16.21875 -10.109375 L 16.21875 0 L 12.3125 0 L 12.3125 -9.640625 C 12.3125 -10.671875 12.101562 -11.414062 11.6875 -11.875 C 11.28125 -12.332031 10.617188 -12.5625 9.703125 -12.5625 C 8.585938 -12.5625 7.71875 -12.195312 7.09375 -11.46875 C 6.46875 -10.738281 6.15625 -9.601562 6.15625 -8.0625 L 6.15625 0 Z M 2.25 0 "/></g></g></g><g fill="#1d3557" fill-opacity="1"><g transform="translate(856.305226, 435.2828)"><g><path d="M 7.28125 0.296875 C 6.21875 0.296875 5.242188 0.171875 4.359375 -0.078125 C 3.472656 -0.328125 2.71875 -0.671875 2.09375 -1.109375 C 1.46875 -1.546875 1.003906 -2.046875 0.703125 -2.609375 L 2.875 -4.953125 L 3.171875 -4.953125 C 3.691406 -4.253906 4.300781 -3.726562 5 -3.375 C 5.707031 -3.03125 6.476562 -2.859375 7.3125 -2.859375 C 8.070312 -2.859375 8.644531 -2.992188 9.03125 -3.265625 C 9.414062 -3.546875 9.609375 -3.9375 9.609375 -4.4375 C 9.609375 -4.832031 9.46875 -5.164062 9.1875 -5.4375 C 8.914062 -5.707031 8.46875 -5.914062 7.84375 -6.0625 L 5.78125 -6.5625 C 4.238281 -6.925781 3.113281 -7.484375 2.40625 -8.234375 C 1.695312 -8.992188 1.34375 -9.957031 1.34375 -11.125 C 1.34375 -12.09375 1.585938 -12.9375 2.078125 -13.65625 C 2.578125 -14.375 3.273438 -14.921875 4.171875 -15.296875 C 5.066406 -15.671875 6.113281 -15.859375 7.3125 -15.859375 C 8.707031 -15.859375 9.863281 -15.65625 10.78125 -15.25 C 11.707031 -14.84375 12.429688 -14.300781 12.953125 -13.625 L 10.859375 -11.375 L 10.578125 -11.375 C 10.148438 -11.863281 9.664062 -12.21875 9.125 -12.4375 C 8.582031 -12.664062 7.976562 -12.78125 7.3125 -12.78125 C 5.769531 -12.78125 5 -12.300781 5 -11.34375 C 5 -10.9375 5.140625 -10.601562 5.421875 -10.34375 C 5.710938 -10.09375 6.21875 -9.890625 6.9375 -9.734375 L 8.859375 -9.3125 C 10.441406 -8.96875 11.597656 -8.421875 12.328125 -7.671875 C 13.054688 -6.929688 13.421875 -5.929688 13.421875 -4.671875 C 13.421875 -3.679688 13.175781 -2.8125 12.6875 -2.0625 C 12.195312 -1.3125 11.488281 -0.726562 10.5625 -0.3125 C 9.644531 0.09375 8.550781 0.296875 7.28125 0.296875 Z M 7.28125 0.296875 "/></g></g></g><g fill="#1d3557" fill-opacity="1"><g transform="translate(870.649856, 435.2828)"><g><path d="M 10.734375 -3.703125 L 11.75 -0.8125 C 11.320312 -0.46875 10.789062 -0.195312 10.15625 0 C 9.519531 0.195312 8.796875 0.296875 7.984375 0.296875 C 6.296875 0.296875 5.015625 -0.160156 4.140625 -1.078125 C 3.265625 -1.992188 2.828125 -3.328125 2.828125 -5.078125 L 2.828125 -12.46875 L 0.46875 -12.46875 L 0.46875 -15.578125 L 2.828125 -15.578125 L 2.828125 -18.609375 L 6.75 -19.234375 L 6.75 -15.578125 L 11.15625 -15.578125 L 11.15625 -12.46875 L 6.75 -12.46875 L 6.75 -5.359375 C 6.75 -4.585938 6.90625 -4.023438 7.21875 -3.671875 C 7.539062 -3.316406 8.007812 -3.140625 8.625 -3.140625 C 9.3125 -3.140625 9.914062 -3.328125 10.4375 -3.703125 Z M 10.734375 -3.703125 "/></g></g></g><g fill="#1d3557" fill-opacity="1"><g transform="translate(882.737712, 435.2828)"><g><path d="M 2.25 0 L 2.25 -15.5625 L 6.03125 -15.5625 L 6.03125 -13.25 L 6.328125 -13.1875 C 6.703125 -14.050781 7.195312 -14.6875 7.8125 -15.09375 C 8.425781 -15.5 9.171875 -15.703125 10.046875 -15.703125 C 10.929688 -15.703125 11.601562 -15.550781 12.0625 -15.25 L 11.390625 -11.875 L 11.109375 -11.828125 C 10.847656 -11.929688 10.597656 -12.003906 10.359375 -12.046875 C 10.128906 -12.097656 9.847656 -12.125 9.515625 -12.125 C 8.421875 -12.125 7.585938 -11.738281 7.015625 -10.96875 C 6.441406 -10.195312 6.15625 -8.96875 6.15625 -7.28125 L 6.15625 0 Z M 2.25 0 "/></g></g></g><g fill="#1d3557" fill-opacity="1"><g transform="translate(894.938406, 435.2828)"><g><path d="M 7.125 0.296875 C 5.375 0.296875 4.082031 -0.175781 3.25 -1.125 C 2.414062 -2.082031 2 -3.457031 2 -5.25 L 2 -15.5625 L 5.90625 -15.5625 L 5.90625 -5.734375 C 5.90625 -4.785156 6.109375 -4.09375 6.515625 -3.65625 C 6.929688 -3.21875 7.566406 -3 8.421875 -3 C 9.503906 -3 10.34375 -3.351562 10.9375 -4.0625 C 11.539062 -4.78125 11.84375 -5.898438 11.84375 -7.421875 L 11.84375 -15.5625 L 15.75 -15.5625 L 15.75 0 L 12 0 L 12 -2.28125 L 11.703125 -2.359375 C 11.210938 -1.460938 10.601562 -0.796875 9.875 -0.359375 C 9.15625 0.078125 8.238281 0.296875 7.125 0.296875 Z M 7.125 0.296875 "/></g></g></g><g fill="#1d3557" fill-opacity="1"><g transform="translate(912.936185, 435.2828)"><g><path d="M 9.078125 0.296875 C 7.566406 0.296875 6.234375 -0.015625 5.078125 -0.640625 C 3.921875 -1.265625 3.015625 -2.179688 2.359375 -3.390625 C 1.710938 -4.609375 1.390625 -6.066406 1.390625 -7.765625 C 1.390625 -9.484375 1.710938 -10.945312 2.359375 -12.15625 C 3.015625 -13.375 3.914062 -14.296875 5.0625 -14.921875 C 6.207031 -15.546875 7.519531 -15.859375 9 -15.859375 C 12.28125 -15.859375 14.382812 -14.664062 15.3125 -12.28125 L 12.625 -10.375 L 12.328125 -10.375 C 12.003906 -11.101562 11.585938 -11.644531 11.078125 -12 C 10.566406 -12.363281 9.875 -12.546875 9 -12.546875 C 7.875 -12.546875 6.992188 -12.15625 6.359375 -11.375 C 5.734375 -10.59375 5.421875 -9.390625 5.421875 -7.765625 C 5.421875 -6.171875 5.738281 -4.976562 6.375 -4.1875 C 7.007812 -3.40625 7.910156 -3.015625 9.078125 -3.015625 C 9.921875 -3.015625 10.632812 -3.242188 11.21875 -3.703125 C 11.8125 -4.160156 12.234375 -4.816406 12.484375 -5.671875 L 12.78125 -5.703125 L 15.5625 -4.171875 C 15.164062 -2.859375 14.429688 -1.785156 13.359375 -0.953125 C 12.296875 -0.117188 10.867188 0.296875 9.078125 0.296875 Z M 9.078125 0.296875 "/></g></g></g><g fill="#1d3557" fill-opacity="1"><g transform="translate(928.973397, 435.2828)"><g><path d="M 10.734375 -3.703125 L 11.75 -0.8125 C 11.320312 -0.46875 10.789062 -0.195312 10.15625 0 C 9.519531 0.195312 8.796875 0.296875 7.984375 0.296875 C 6.296875 0.296875 5.015625 -0.160156 4.140625 -1.078125 C 3.265625 -1.992188 2.828125 -3.328125 2.828125 -5.078125 L 2.828125 -12.46875 L 0.46875 -12.46875 L 0.46875 -15.578125 L 2.828125 -15.578125 L 2.828125 -18.609375 L 6.75 -19.234375 L 6.75 -15.578125 L 11.15625 -15.578125 L 11.15625 -12.46875 L 6.75 -12.46875 L 6.75 -5.359375 C 6.75 -4.585938 6.90625 -4.023438 7.21875 -3.671875 C 7.539062 -3.316406 8.007812 -3.140625 8.625 -3.140625 C 9.3125 -3.140625 9.914062 -3.328125 10.4375 -3.703125 Z M 10.734375 -3.703125 "/></g></g></g><g fill="#1d3557" fill-opacity="1"><g transform="translate(941.061253, 435.2828)"><g><path d="M 4.1875 -17.421875 C 3.476562 -17.421875 2.90625 -17.632812 2.46875 -18.0625 C 2.03125 -18.488281 1.8125 -19.039062 1.8125 -19.71875 C 1.8125 -20.382812 2.03125 -20.929688 2.46875 -21.359375 C 2.90625 -21.785156 3.476562 -22 4.1875 -22 C 4.65625 -22 5.070312 -21.898438 5.4375 -21.703125 C 5.8125 -21.503906 6.097656 -21.234375 6.296875 -20.890625 C 6.503906 -20.554688 6.609375 -20.164062 6.609375 -19.71875 C 6.609375 -19.28125 6.503906 -18.882812 6.296875 -18.53125 C 6.097656 -18.1875 5.8125 -17.914062 5.4375 -17.71875 C 5.070312 -17.519531 4.65625 -17.421875 4.1875 -17.421875 Z M 2.25 0 L 2.25 -15.5625 L 6.15625 -15.5625 L 6.15625 0 Z M 2.25 0 "/></g></g></g><g fill="#1d3557" fill-opacity="1"><g transform="translate(949.439529, 435.2828)"><g><path d="M 9.046875 0.296875 C 7.515625 0.296875 6.171875 -0.015625 5.015625 -0.640625 C 3.867188 -1.265625 2.976562 -2.179688 2.34375 -3.390625 C 1.707031 -4.597656 1.390625 -6.054688 1.390625 -7.765625 C 1.390625 -9.484375 1.707031 -10.945312 2.34375 -12.15625 C 2.976562 -13.375 3.867188 -14.296875 5.015625 -14.921875 C 6.171875 -15.546875 7.515625 -15.859375 9.046875 -15.859375 C 10.566406 -15.859375 11.898438 -15.546875 13.046875 -14.921875 C 14.203125 -14.296875 15.097656 -13.375 15.734375 -12.15625 C 16.378906 -10.945312 16.703125 -9.484375 16.703125 -7.765625 C 16.703125 -6.054688 16.378906 -4.597656 15.734375 -3.390625 C 15.097656 -2.179688 14.203125 -1.265625 13.046875 -0.640625 C 11.898438 -0.015625 10.566406 0.296875 9.046875 0.296875 Z M 9.046875 -3.015625 C 11.460938 -3.015625 12.671875 -4.597656 12.671875 -7.765625 C 12.671875 -9.410156 12.359375 -10.617188 11.734375 -11.390625 C 11.117188 -12.160156 10.222656 -12.546875 9.046875 -12.546875 C 6.628906 -12.546875 5.421875 -10.953125 5.421875 -7.765625 C 5.421875 -4.597656 6.628906 -3.015625 9.046875 -3.015625 Z M 9.046875 -3.015625 "/></g></g></g><g fill="#1d3557" fill-opacity="1"><g transform="translate(967.521937, 435.2828)"><g><path d="M 2.25 0 L 2.25 -15.5625 L 6 -15.5625 L 6 -13.28125 L 6.296875 -13.203125 C 7.265625 -14.972656 8.832031 -15.859375 11 -15.859375 C 12.800781 -15.859375 14.117188 -15.367188 14.953125 -14.390625 C 15.796875 -13.410156 16.21875 -11.984375 16.21875 -10.109375 L 16.21875 0 L 12.3125 0 L 12.3125 -9.640625 C 12.3125 -10.671875 12.101562 -11.414062 11.6875 -11.875 C 11.28125 -12.332031 10.617188 -12.5625 9.703125 -12.5625 C 8.585938 -12.5625 7.71875 -12.195312 7.09375 -11.46875 C 6.46875 -10.738281 6.15625 -9.601562 6.15625 -8.0625 L 6.15625 0 Z M 2.25 0 "/></g></g></g><g clip-path="url(#3f91aba3ac)"><g clip-path="url(#0cd22de6e1)"><g transform="matrix(1, 0, 0, 1, 988, 353)"><g clip-path="url(#1febd68455)"><g clip-path="url(#bccec7a152)"><g clip-path="url(#b41fcf30cb)"><path fill="#457b9d" d="M 0.109375 0.53125 L 308.691406 0.53125 L 308.691406 103.394531 L 0.109375 103.394531 Z M 0.109375 0.53125 " fill-opacity="1" fill-rule="nonzero"/></g></g></g></g></g></g><g fill="#f1faee" fill-opacity="1"><g transform="translate(1098.489433, 415.032801)"><g><path d="M 11.265625 0.296875 C 9.367188 0.296875 7.695312 -0.0976562 6.25 -0.890625 C 4.800781 -1.679688 3.664062 -2.867188 2.84375 -4.453125 C 2.03125 -6.035156 1.625 -7.988281 1.625 -10.3125 C 1.625 -12.632812 2.03125 -14.585938 2.84375 -16.171875 C 3.664062 -17.753906 4.800781 -18.941406 6.25 -19.734375 C 7.695312 -20.523438 9.367188 -20.921875 11.265625 -20.921875 C 13.253906 -20.921875 14.941406 -20.53125 16.328125 -19.75 C 17.710938 -18.976562 18.703125 -17.796875 19.296875 -16.203125 L 16.328125 -14.390625 L 15.96875 -14.40625 C 15.53125 -15.476562 14.929688 -16.242188 14.171875 -16.703125 C 13.410156 -17.171875 12.441406 -17.40625 11.265625 -17.40625 C 9.554688 -17.40625 8.222656 -16.835938 7.265625 -15.703125 C 6.304688 -14.578125 5.828125 -12.78125 5.828125 -10.3125 C 5.828125 -7.851562 6.304688 -6.054688 7.265625 -4.921875 C 8.222656 -3.796875 9.554688 -3.234375 11.265625 -3.234375 C 13.953125 -3.234375 15.59375 -4.535156 16.1875 -7.140625 L 16.546875 -7.140625 L 19.546875 -5.578125 C 18.984375 -3.617188 18.019531 -2.148438 16.65625 -1.171875 C 15.289062 -0.191406 13.492188 0.296875 11.265625 0.296875 Z M 11.265625 0.296875 "/></g></g></g><g fill="#f1faee" fill-opacity="1"><g transform="translate(1118.715777, 415.032801)"><g><path d="M 7.125 0.296875 C 5.375 0.296875 4.082031 -0.175781 3.25 -1.125 C 2.414062 -2.082031 2 -3.457031 2 -5.25 L 2 -15.5625 L 5.90625 -15.5625 L 5.90625 -5.734375 C 5.90625 -4.785156 6.109375 -4.09375 6.515625 -3.65625 C 6.929688 -3.21875 7.566406 -3 8.421875 -3 C 9.503906 -3 10.34375 -3.351562 10.9375 -4.0625 C 11.539062 -4.78125 11.84375 -5.898438 11.84375 -7.421875 L 11.84375 -15.5625 L 15.75 -15.5625 L 15.75 0 L 12 0 L 12 -2.28125 L 11.703125 -2.359375 C 11.210938 -1.460938 10.601562 -0.796875 9.875 -0.359375 C 9.15625 0.078125 8.238281 0.296875 7.125 0.296875 Z M 7.125 0.296875 "/></g></g></g><g fill="#f1faee" fill-opacity="1"><g transform="translate(1136.713556, 415.032801)"><g><path d="M 10.734375 -3.703125 L 11.75 -0.8125 C 11.320312 -0.46875 10.789062 -0.195312 10.15625 0 C 9.519531 0.195312 8.796875 0.296875 7.984375 0.296875 C 6.296875 0.296875 5.015625 -0.160156 4.140625 -1.078125 C 3.265625 -1.992188 2.828125 -3.328125 2.828125 -5.078125 L 2.828125 -12.46875 L 0.46875 -12.46875 L 0.46875 -15.578125 L 2.828125 -15.578125 L 2.828125 -18.609375 L 6.75 -19.234375 L 6.75 -15.578125 L 11.15625 -15.578125 L 11.15625 -12.46875 L 6.75 -12.46875 L 6.75 -5.359375 C 6.75 -4.585938 6.90625 -4.023438 7.21875 -3.671875 C 7.539062 -3.316406 8.007812 -3.140625 8.625 -3.140625 C 9.3125 -3.140625 9.914062 -3.328125 10.4375 -3.703125 Z M 10.734375 -3.703125 "/></g></g></g><g fill="#f1faee" fill-opacity="1"><g transform="translate(1148.617986, 415.032801)"><g><path d="M 9.046875 0.296875 C 7.515625 0.296875 6.171875 -0.015625 5.015625 -0.640625 C 3.867188 -1.265625 2.976562 -2.179688 2.34375 -3.390625 C 1.707031 -4.597656 1.390625 -6.054688 1.390625 -7.765625 C 1.390625 -9.484375 1.707031 -10.945312 2.34375 -12.15625 C 2.976562 -13.375 3.867188 -14.296875 5.015625 -14.921875 C 6.171875 -15.546875 7.515625 -15.859375 9.046875 -15.859375 C 10.566406 -15.859375 11.898438 -15.546875 13.046875 -14.921875 C 14.203125 -14.296875 15.097656 -13.375 15.734375 -12.15625 C 16.378906 -10.945312 16.703125 -9.484375 16.703125 -7.765625 C 16.703125 -6.054688 16.378906 -4.597656 15.734375 -3.390625 C 15.097656 -2.179688 14.203125 -1.265625 13.046875 -0.640625 C 11.898438 -0.015625 10.566406 0.296875 9.046875 0.296875 Z M 9.046875 -3.015625 C 11.460938 -3.015625 12.671875 -4.597656 12.671875 -7.765625 C 12.671875 -9.410156 12.359375 -10.617188 11.734375 -11.390625 C 11.117188 -12.160156 10.222656 -12.546875 9.046875 -12.546875 C 6.628906 -12.546875 5.421875 -10.953125 5.421875 -7.765625 C 5.421875 -4.597656 6.628906 -3.015625 9.046875 -3.015625 Z M 9.046875 -3.015625 "/></g></g></g><g fill="#f1faee" fill-opacity="1"><g transform="translate(1166.404084, 415.032801)"><g><path d="M 10.703125 0 L 6.046875 0 L 0.296875 -15.5625 L 4.390625 -15.5625 L 8.25 -4.46875 L 8.578125 -4.46875 L 12.453125 -15.5625 L 16.453125 -15.5625 Z M 10.703125 0 "/></g></g></g><g fill="#f1faee" fill-opacity="1"><g transform="translate(1182.836116, 415.032801)"><g><path d="M 15.375 -6.890625 L 5.375 -6.890625 C 5.488281 -5.535156 5.875 -4.550781 6.53125 -3.9375 C 7.1875 -3.320312 8.082031 -3.015625 9.21875 -3.015625 C 10.113281 -3.015625 10.835938 -3.179688 11.390625 -3.515625 C 11.953125 -3.847656 12.398438 -4.351562 12.734375 -5.03125 L 13.03125 -5.03125 L 15.625 -3.375 C 15.125 -2.28125 14.359375 -1.394531 13.328125 -0.71875 C 12.304688 -0.0390625 10.9375 0.296875 9.21875 0.296875 C 7.613281 0.296875 6.222656 -0.00390625 5.046875 -0.609375 C 3.878906 -1.222656 2.976562 -2.132812 2.34375 -3.34375 C 1.707031 -4.550781 1.390625 -6.023438 1.390625 -7.765625 C 1.390625 -9.535156 1.722656 -11.023438 2.390625 -12.234375 C 3.066406 -13.453125 3.972656 -14.359375 5.109375 -14.953125 C 6.242188 -15.554688 7.519531 -15.859375 8.9375 -15.859375 C 11.144531 -15.859375 12.832031 -15.273438 14 -14.109375 C 15.164062 -12.941406 15.75 -11.226562 15.75 -8.96875 C 15.75 -8.15625 15.722656 -7.519531 15.671875 -7.0625 Z M 12.015625 -9.421875 C 11.984375 -10.609375 11.707031 -11.472656 11.1875 -12.015625 C 10.675781 -12.554688 9.925781 -12.828125 8.9375 -12.828125 C 6.96875 -12.828125 5.804688 -11.691406 5.453125 -9.421875 Z M 12.015625 -9.421875 "/></g></g></g><g fill="#f1faee" fill-opacity="1"><g transform="translate(1199.747828, 415.032801)"><g><path d="M 2.25 0 L 2.25 -15.5625 L 6.03125 -15.5625 L 6.03125 -13.25 L 6.328125 -13.1875 C 6.703125 -14.050781 7.195312 -14.6875 7.8125 -15.09375 C 8.425781 -15.5 9.171875 -15.703125 10.046875 -15.703125 C 10.929688 -15.703125 11.601562 -15.550781 12.0625 -15.25 L 11.390625 -11.875 L 11.109375 -11.828125 C 10.847656 -11.929688 10.597656 -12.003906 10.359375 -12.046875 C 10.128906 -12.097656 9.847656 -12.125 9.515625 -12.125 C 8.421875 -12.125 7.585938 -11.738281 7.015625 -10.96875 C 6.441406 -10.195312 6.15625 -8.96875 6.15625 -7.28125 L 6.15625 0 Z M 2.25 0 "/></g></g></g></svg>