<svg xmlns="http://www.w3.org/2000/svg" xmlns:v="http://schemas.microsoft.com/visio/2003/SVGExtensions/" xmlns:xlink="http://www.w3.org/1999/xlink" xml:space="preserve" viewBox="197.86 113.8 255.17 1020.88">
 <v:documentProperties>
  <v:userDefs>
   <v:ud v:nameU="msvNoAutoConnect" v:val="1"/>
   <v:ud v:nameU="msvWarnOnPersonalInfo" v:val="0"/>
  </v:userDefs>
 </v:documentProperties>
 <g id="SFixTitle"/>
 <g id="SContent">
  <g>
   <g transform="matrix(1,0,0,-1,0,1188)">
    <g transform="matrix(1,0,0,1,198.23578,1001.8252)" v:mID="122">
     <title>Rounded Rectangle.27</title>
     <userDefs>
      <ud nameU="CTypeTopLeftSnip" val="0"/>
      <ud nameU="CTypeTopRightSnip" val="0"/>
      <ud nameU="CTypeBotLeftSnip" val="0"/>
      <ud nameU="CTypeBotRightSnip" val="0"/>
      <ud nameU="CornerLockHoriz" val="1"/>
      <ud nameU="CornerLockVert" val="1"/>
      <ud nameU="CornerLockDiag" val="0"/>
      <ud nameU="TopLeftOffset" val="0.35335"/>
      <ud nameU="TopRightOffset" val="0.35335"/>
      <ud nameU="BotLeftOffset" val="0.35335"/>
      <ud nameU="BotRightOffset" val="0.35335"/>
      <ud nameU="visVersion" val="15"/>
     </userDefs>
     <g transform="matrix(1,0,0,1,0,0)" v:mID="122">
      <title>Rounded Rectangle.27</title>
      <userDefs>
       <ud nameU="CTypeTopLeftSnip" val="0"/>
       <ud nameU="CTypeTopRightSnip" val="0"/>
       <ud nameU="CTypeBotLeftSnip" val="0"/>
       <ud nameU="CTypeBotRightSnip" val="0"/>
       <ud nameU="CornerLockHoriz" val="1"/>
       <ud nameU="CornerLockVert" val="1"/>
       <ud nameU="CornerLockDiag" val="0"/>
       <ud nameU="TopLeftOffset" val="0.35335"/>
       <ud nameU="TopRightOffset" val="0.35335"/>
       <ud nameU="BotLeftOffset" val="0.35335"/>
       <ud nameU="BotRightOffset" val="0.35335"/>
       <ud nameU="visVersion" val="15"/>
      </userDefs>
      <path d="M25.441200256,0 L228.970794678,0 L228.970794678,0 L228.970794678,0 L228.970794678,0 L228.970794678,0.000001073 L228.970794678,0.000001073 C235.715530396,-0.000107288 242.190948486,2.68198061 246.960266113,7.451146603 L246.960266113,7.451146603 C251.72958374,12.220313072 254.411880493,18.695648193 254.411987305,25.440376282 L254.411987305,25.440376282 C254.411987305,25.440662384 254.411987305,25.440944672 254.411987305,25.441228867 L254.411987305,25.441228867 L254.412002563,25.441200256 L254.412002563,25.441200256 L254.412002563,46.558799744 L254.412002563,46.558799744 L254.411987305,46.5587883 L254.411987305,46.5587883 C254.412094116,53.303512573 251.730026245,59.778938293 246.960861206,64.54826355 L246.960861206,64.54826355 C242.191696167,69.317581177 235.716369629,71.999885559 228.97164917,72 L228.97164917,72 C228.971374512,72 228.971069336,72 228.970794678,72 L228.970794678,72 L228.970794678,72 L228.970794678,72 L228.970794678,72 L228.970794678,72 L25.441200256,72 L25.441200256,72 L25.441200256,72 L25.441200256,72 L25.441198349,72 L25.441198349,72 C18.696472168,72.000114441 12.221047401,69.318023682 7.45172739,64.548858643 L7.45172739,64.548858643 C2.682407379,59.779697418 0.000110507,53.304359436 0.000001073,46.559635162 L0.000001073,46.559635162 C0.000001073,46.559356689 0.000001073,46.559074402 0.000002146,46.558795929 L0.000002146,46.558795929 L0,46.558799744 L0,46.558799744 L0,25.441200256 L0,25.441200256 L0,25.441200256 L0,25.441200256 C-0.000108361,18.696472168 2.681976318,12.221047401 7.451142311,7.451726913 L7.451142311,7.451726913 C12.22030735,2.682407379 18.695644379,0.000110507 25.440374374,0.000001073 L25.440374374,0.000001073 C25.440649033,0 25.440923691,0.000001073 25.441200256,0 L25.441200256,0 L25.441200256,0 L25.441200256,0 L25.441200256,0 Z" stroke="#000000" stroke-width="0.75" stroke-linecap="round" fill="none" stroke-opacity="0"/>
     </g>
     <path d="M25.441200256,0 L228.970794678,0 L228.970794678,0 L228.970794678,0 L228.970794678,0 L228.970794678,0.000001073 L228.970794678,0.000001073 C235.715530396,-0.000107288 242.190948486,2.68198061 246.960266113,7.451146603 L246.960266113,7.451146603 C251.72958374,12.220313072 254.411880493,18.695648193 254.411987305,25.440376282 L254.411987305,25.440376282 C254.411987305,25.440662384 254.411987305,25.440944672 254.411987305,25.441228867 L254.411987305,25.441228867 L254.412002563,25.441200256 L254.412002563,25.441200256 L254.412002563,46.558799744 L254.412002563,46.558799744 L254.411987305,46.5587883 L254.411987305,46.5587883 C254.412094116,53.303512573 251.730026245,59.778938293 246.960861206,64.54826355 L246.960861206,64.54826355 C242.191696167,69.317581177 235.716369629,71.999885559 228.97164917,72 L228.97164917,72 C228.971374512,72 228.971069336,72 228.970794678,72 L228.970794678,72 L228.970794678,72 L228.970794678,72 L228.970794678,72 L228.970794678,72 L25.441200256,72 L25.441200256,72 L25.441200256,72 L25.441200256,72 L25.441198349,72 L25.441198349,72 C18.696472168,72.000114441 12.221047401,69.318023682 7.45172739,64.548858643 L7.45172739,64.548858643 C2.682407379,59.779697418 0.000110507,53.304359436 0.000001073,46.559635162 L0.000001073,46.559635162 C0.000001073,46.559356689 0.000001073,46.559074402 0.000002146,46.558795929 L0.000002146,46.558795929 L0,46.558799744 L0,46.558799744 L0,25.441200256 L0,25.441200256 L0,25.441200256 L0,25.441200256 C-0.000108361,18.696472168 2.681976318,12.221047401 7.451142311,7.451726913 L7.451142311,7.451726913 C12.22030735,2.682407379 18.695644379,0.000110507 25.440374374,0.000001073 L25.440374374,0.000001073 C25.440649033,0 25.440923691,0.000001073 25.441200256,0 L25.441200256,0 L25.441200256,0 L25.441200256,0 L25.441200256,0 Z" stroke="#000000" stroke-width="0.75" stroke-linecap="round" fill="#FFFFFF" fill-rule="evenodd"/>
     <g transform="matrix(1,0,0,1,0,0)">
      <text x="27.052183" y="0" class="TextStyle0" fill="#000000" opacity="1" transform="matrix(1,0,0,-1,0,39)">Blockchain in Gaming: Tokenomics, Player-Driven</text>
      <text x="69.40814" y="12" class="TextStyle0" fill="#000000" opacity="1" transform="matrix(1,0,0,-1,0,39)">Economies, and P2E vs. P&amp;O</text>
     </g>
    </g>
    <g transform="matrix(1,0,0,1,198.23581,927.08545)" v:mID="123">
     <title>Rounded Rectangle.28</title>
     <userDefs>
      <ud nameU="CTypeTopLeftSnip" val="0"/>
      <ud nameU="CTypeTopRightSnip" val="0"/>
      <ud nameU="CTypeBotLeftSnip" val="0"/>
      <ud nameU="CTypeBotRightSnip" val="0"/>
      <ud nameU="CornerLockHoriz" val="1"/>
      <ud nameU="CornerLockVert" val="1"/>
      <ud nameU="CornerLockDiag" val="0"/>
      <ud nameU="TopLeftOffset" val="0.16932"/>
      <ud nameU="TopRightOffset" val="0.16932"/>
      <ud nameU="BotLeftOffset" val="0.16932"/>
      <ud nameU="BotRightOffset" val="0.16932"/>
      <ud nameU="visVersion" val="15"/>
     </userDefs>
     <path d="M12.191040039,0 L109.719360352,0 L109.719360352,0 L109.719360352,0 L109.719360352,0 L109.719360352,0 L109.719360352,0 C112.951332092,-0.000053644 116.054260254,1.285159588 118.339645386,3.570470095 L118.339645386,3.570470095 C120.625030518,5.855780602 121.910346985,8.95866394 121.91040802,12.190634727 L121.91040802,12.190634727 C121.91040802,12.190771103 121.91040802,12.190907478 121.91040802,12.191043854 L121.91040802,12.191043854 L121.910400391,12.191040039 L121.910400391,12.191040039 L121.910400391,21.944160461 L121.910400391,21.944160461 L121.91040802,21.944160461 L121.91040802,21.944160461 C121.910461426,25.176132202 120.625244141,28.279056549 118.339927673,30.564443588 L118.339927673,30.564443588 C116.054618835,32.849830627 112.95173645,34.135147095 109.719764709,34.1352005 L109.719764709,34.1352005 C109.71963501,34.1352005 109.719497681,34.1352005 109.719360352,34.1352005 L109.719360352,34.1352005 L109.719360352,34.1352005 L109.719360352,34.1352005 L109.719360352,34.1352005 L109.719360352,34.1352005 L12.191040039,34.1352005 L12.191040039,34.1352005 L12.191040039,34.1352005 L12.191040039,34.1352005 L12.191040993,34.1352005 L12.191040993,34.1352005 C8.959070206,34.135253906 5.856143951,32.850040436 3.570757627,30.564727783 L3.570757627,30.564727783 C1.285370827,28.279418945 0.000053644,25.17653656 0,21.944564819 L0,21.944564819 C-0.000000536,21.944429398 0,21.944293976 0,21.944160461 L0,21.944160461 L0,21.944160461 L0,21.944160461 L0,12.191040039 L0,12.191040039 L0,12.191040039 L0,12.191040039 C-0.000053108,8.959068298 1.285160542,5.856142998 3.570472479,3.570756197 L3.570472479,3.570756197 C5.855783463,1.285369873 8.958666801,0.000053108 12.190638542,0 L12.190638542,0 C12.19077301,0.000000536 12.190906525,0 12.191040039,0 L12.191040039,0 L12.191040039,0 L12.191040039,0 L12.191040039,0 Z" stroke="#000000" stroke-width="0.75" stroke-linecap="round" fill="#FFFFFF" fill-rule="evenodd"/>
     <g transform="matrix(1,0,0,1,0,0)">
      <text x="50.559692" y="6" class="TextStyle0" fill="#000000" opacity="1" transform="matrix(1,0,0,-1,0,20.067598)">Local</text>
     </g>
    </g>
    <g transform="matrix(1,0,0,1,330.7374,927.08545)" v:mID="124">
     <title>Rounded Rectangle.29</title>
     <userDefs>
      <ud nameU="CTypeTopLeftSnip" val="0"/>
      <ud nameU="CTypeTopRightSnip" val="0"/>
      <ud nameU="CTypeBotLeftSnip" val="0"/>
      <ud nameU="CTypeBotRightSnip" val="0"/>
      <ud nameU="CornerLockHoriz" val="1"/>
      <ud nameU="CornerLockVert" val="1"/>
      <ud nameU="CornerLockDiag" val="0"/>
      <ud nameU="TopLeftOffset" val="0.16932"/>
      <ud nameU="TopRightOffset" val="0.16932"/>
      <ud nameU="BotLeftOffset" val="0.16932"/>
      <ud nameU="BotRightOffset" val="0.16932"/>
      <ud nameU="visVersion" val="15"/>
     </userDefs>
     <path d="M12.191040039,0 L109.719360352,0 L109.719360352,0 L109.719360352,0 L109.719360352,0 L109.719360352,0 L109.719360352,0 C112.951332092,-0.000053644 116.054260254,1.285159588 118.339645386,3.570470095 L118.339645386,3.570470095 C120.625030518,5.855780602 121.910346985,8.95866394 121.91040802,12.190634727 L121.91040802,12.190634727 C121.91040802,12.190771103 121.91040802,12.190907478 121.91040802,12.191043854 L121.91040802,12.191043854 L121.910400391,12.191040039 L121.910400391,12.191040039 L121.910400391,21.944160461 L121.910400391,21.944160461 L121.91040802,21.944160461 L121.91040802,21.944160461 C121.910461426,25.176132202 120.625244141,28.279056549 118.339927673,30.564443588 L118.339927673,30.564443588 C116.054618835,32.849830627 112.95173645,34.135147095 109.719764709,34.1352005 L109.719764709,34.1352005 C109.71963501,34.1352005 109.719497681,34.1352005 109.719360352,34.1352005 L109.719360352,34.1352005 L109.719360352,34.1352005 L109.719360352,34.1352005 L109.719360352,34.1352005 L109.719360352,34.1352005 L12.191040039,34.1352005 L12.191040039,34.1352005 L12.191040039,34.1352005 L12.191040039,34.1352005 L12.191040993,34.1352005 L12.191040993,34.1352005 C8.959070206,34.135253906 5.856143951,32.850040436 3.570757627,30.564727783 L3.570757627,30.564727783 C1.285370827,28.279418945 0.000053644,25.17653656 0,21.944564819 L0,21.944564819 C-0.000000536,21.944429398 0,21.944293976 0,21.944160461 L0,21.944160461 L0,21.944160461 L0,21.944160461 L0,12.191040039 L0,12.191040039 L0,12.191040039 L0,12.191040039 C-0.000053108,8.959068298 1.285160542,5.856142998 3.570472479,3.570756197 L3.570472479,3.570756197 C5.855783463,1.285369873 8.958666801,0.000053108 12.190638542,0 L12.190638542,0 C12.19077301,0.000000536 12.190906525,0 12.191040039,0 L12.191040039,0 L12.191040039,0 L12.191040039,0 L12.191040039,0 Z" stroke="#000000" stroke-width="0.75" stroke-linecap="round" fill="#FFFFFF" fill-rule="evenodd"/>
     <g transform="matrix(1,0,0,1,0,0)">
      <text x="45.66223" y="6" class="TextStyle0" fill="#000000" opacity="1" transform="matrix(1,0,0,-1,0,20.067598)">Foreign</text>
     </g>
    </g>
    <g transform="matrix(1,0,0,1,325.4418,1001.8251)" v:mID="125">
     <title>Dynamic connector.30</title>
     <path d="M-72.010795593,-43.484401703 L-66.250801086,-40.604400635 L-72.010795593,-37.724399567 Z" stroke="#000000" stroke-width="0.2376378" fill="#000000" fill-rule="evenodd" transform="matrix(-0,-1,1,0,-25.6464,-106.8552)"/>
     <path d="M0,0 L0,-13.5 L0,-13.5 L-66.250801086,-13.5 L-66.250801086,-13.5 L-66.250801086,-40.604400635 " stroke="#000000" stroke-width="0.2376378" stroke-linecap="round" fill="none"/>
    </g>
    <g transform="matrix(1,0,0,1,325.4418,1001.8251)" v:mID="126">
     <title>Dynamic connector.31</title>
     <path d="M60.49079895,-43.484401703 L66.250801086,-40.604400635 L60.49079895,-37.724399567 Z" stroke="#000000" stroke-width="0.2376378" fill="#000000" fill-rule="evenodd" transform="matrix(-0,-1,1,0,106.8552,25.6464)"/>
     <path d="M0,0 L0,-13.5 L0,-13.5 L66.250801086,-13.5 L66.250801086,-13.5 L66.250801086,-40.604400635 " stroke="#000000" stroke-width="0.2376378" stroke-linecap="round" fill="none"/>
    </g>
    <g transform="matrix(1,0,0,1,198.23218,781.5213)" v:mID="127">
     <title>Rounded Rectangle.55</title>
     <userDefs>
      <ud nameU="CTypeTopLeftSnip" val="0"/>
      <ud nameU="CTypeTopRightSnip" val="0"/>
      <ud nameU="CTypeBotLeftSnip" val="0"/>
      <ud nameU="CTypeBotRightSnip" val="0"/>
      <ud nameU="CornerLockHoriz" val="1"/>
      <ud nameU="CornerLockVert" val="1"/>
      <ud nameU="CornerLockDiag" val="0"/>
      <ud nameU="TopLeftOffset" val="0.16932"/>
      <ud nameU="TopRightOffset" val="0.16932"/>
      <ud nameU="BotLeftOffset" val="0.16932"/>
      <ud nameU="BotRightOffset" val="0.16932"/>
      <ud nameU="visVersion" val="15"/>
     </userDefs>
     <path d="M12.191040039,0 L109.719360352,0 L109.719360352,0 L109.719360352,0 L109.719360352,0 L109.719360352,0 L109.719360352,0 C112.951332092,-0.000053644 116.054260254,1.285159588 118.339645386,3.570470095 L118.339645386,3.570470095 C120.625030518,5.855780602 121.910346985,8.95866394 121.91040802,12.190634727 L121.91040802,12.190634727 C121.91040802,12.190771103 121.91040802,12.190907478 121.91040802,12.191043854 L121.91040802,12.191043854 L121.910400391,12.191040039 L121.910400391,12.191040039 L121.910400391,92.777755737 L121.910400391,92.777755737 L121.91040802,92.777763367 L121.91040802,92.777763367 C121.910461426,96.009735107 120.625236511,99.112663269 118.339927673,101.398048401 L118.339927673,101.398048401 C116.054611206,103.683441162 112.951728821,104.96875 109.71975708,104.968803406 L109.71975708,104.968803406 C109.71962738,104.968803406 109.719497681,104.968803406 109.71937561,104.968803406 L109.71937561,104.968803406 L109.719360352,104.968803406 L109.719360352,104.968803406 L109.719360352,104.968803406 L109.719360352,104.968803406 L12.191040039,104.968803406 L12.191040039,104.968803406 L12.191040039,104.968803406 L12.191040039,104.968803406 L12.191038132,104.968803406 L12.191038132,104.968803406 C8.959064484,104.968856812 5.856137753,103.683631897 3.57075119,101.398323059 L3.57075119,101.398323059 C1.285364389,99.113006592 0.000049889,96.010124207 -0.000001073,92.778152466 L-0.000001073,92.778152466 C-0.000001073,92.778015137 -0.000000536,92.777885437 -0.000001073,92.777755737 L-0.000001073,92.777755737 L0,92.777755737 L0,92.777755737 L0,12.191040039 L0,12.191040039 L0,12.191040039 L0,12.191040039 C-0.000053108,8.959068298 1.285160542,5.856142998 3.570472479,3.570756197 L3.570472479,3.570756197 C5.855783463,1.285369873 8.958666801,0.000053108 12.190638542,0 L12.190638542,0 C12.19077301,0.000000536 12.190906525,0 12.191040039,0 L12.191040039,0 L12.191040039,0 L12.191040039,0 L12.191040039,0 Z" stroke="#000000" stroke-width="0.75" stroke-linecap="round" fill="#FFFFFF" fill-rule="evenodd"/>
     <g transform="matrix(1,0,0,1,0,0)">
      <text x="11.34094" y="-18" class="TextStyle0" fill="#000000" opacity="1" transform="matrix(1,0,0,-1,0,55.4844)">Ali et al. (2023) "Playing,</text>
      <text x="15.70129" y="-6" class="TextStyle0" fill="#000000" opacity="1" transform="matrix(1,0,0,-1,0,55.4844)">Earning, Crashing, and</text>
      <text x="8.184199" y="5.999999" class="TextStyle0" fill="#000000" opacity="1" transform="matrix(1,0,0,-1,0,55.4844)">Grinding: Axie Infinity and</text>
      <text x="6.4068565" y="18" class="TextStyle0" fill="#000000" opacity="1" transform="matrix(1,0,0,-1,0,55.4844)">Growth Crises in the Web3</text>
      <text x="40.237427" y="30.000002" class="TextStyle0" fill="#000000" opacity="1" transform="matrix(1,0,0,-1,0,55.4844)">Economy"</text>
     </g>
    </g>
    <g transform="matrix(1,0,0,1,330.7266,781.5357)" v:mID="128">
     <title>Rounded Rectangle.56</title>
     <userDefs>
      <ud nameU="CTypeTopLeftSnip" val="0"/>
      <ud nameU="CTypeTopRightSnip" val="0"/>
      <ud nameU="CTypeBotLeftSnip" val="0"/>
      <ud nameU="CTypeBotRightSnip" val="0"/>
      <ud nameU="CornerLockHoriz" val="1"/>
      <ud nameU="CornerLockVert" val="1"/>
      <ud nameU="CornerLockDiag" val="0"/>
      <ud nameU="TopLeftOffset" val="0.16932"/>
      <ud nameU="TopRightOffset" val="0.16932"/>
      <ud nameU="BotLeftOffset" val="0.16932"/>
      <ud nameU="BotRightOffset" val="0.16932"/>
      <ud nameU="visVersion" val="15"/>
     </userDefs>
     <path d="M12.191040039,0 L109.719360352,0 L109.719360352,0 L109.719360352,0 L109.719360352,0 L109.719360352,0 L109.719360352,0 C112.951332092,-0.000053644 116.054260254,1.285159588 118.339645386,3.570470095 L118.339645386,3.570470095 C120.625030518,5.855780602 121.910346985,8.95866394 121.91040802,12.190634727 L121.91040802,12.190634727 C121.91040802,12.190771103 121.91040802,12.190907478 121.91040802,12.191043854 L121.91040802,12.191043854 L121.910400391,12.191040039 L121.910400391,12.191040039 L121.910400391,92.777755737 L121.910400391,92.777755737 L121.91040802,92.777763367 L121.91040802,92.777763367 C121.910461426,96.009735107 120.625236511,99.112663269 118.339927673,101.398048401 L118.339927673,101.398048401 C116.054611206,103.683441162 112.951728821,104.96875 109.71975708,104.968803406 L109.71975708,104.968803406 C109.71962738,104.968803406 109.719497681,104.968803406 109.71937561,104.968803406 L109.71937561,104.968803406 L109.719360352,104.968803406 L109.719360352,104.968803406 L109.719360352,104.968803406 L109.719360352,104.968803406 L12.191040039,104.968803406 L12.191040039,104.968803406 L12.191040039,104.968803406 L12.191040039,104.968803406 L12.191038132,104.968803406 L12.191038132,104.968803406 C8.959064484,104.968856812 5.856137753,103.683631897 3.57075119,101.398323059 L3.57075119,101.398323059 C1.285364389,99.113006592 0.000049889,96.010124207 -0.000001073,92.778152466 L-0.000001073,92.778152466 C-0.000001073,92.778015137 -0.000000536,92.777885437 -0.000001073,92.777755737 L-0.000001073,92.777755737 L0,92.777755737 L0,92.777755737 L0,12.191040039 L0,12.191040039 L0,12.191040039 L0,12.191040039 C-0.000053108,8.959068298 1.285160542,5.856142998 3.570472479,3.570756197 L3.570472479,3.570756197 C5.855783463,1.285369873 8.958666801,0.000053108 12.190638542,0 L12.190638542,0 C12.19077301,0.000000536 12.190906525,0 12.191040039,0 L12.191040039,0 L12.191040039,0 L12.191040039,0 L12.191040039,0 Z" stroke="#000000" stroke-width="0.75" stroke-linecap="round" fill="#FFFFFF" fill-rule="evenodd"/>
     <g transform="matrix(1,0,0,1,0,0)">
      <text x="12.959592" y="-6" class="TextStyle0" fill="#000000" opacity="1" transform="matrix(1,0,0,-1,0,55.4844)">Shen et al. (2024) "True</text>
      <text x="14.983518" y="6" class="TextStyle0" fill="#000000" opacity="1" transform="matrix(1,0,0,-1,0,55.4844)">Ownership of In-Game</text>
      <text x="28.049923" y="18" class="TextStyle0" fill="#000000" opacity="1" transform="matrix(1,0,0,-1,0,55.4844)">Assets via NFTs"</text>
     </g>
    </g>
    <g transform="matrix(1,0,0,1,268.1892,927.0855)" v:mID="129">
     <title>Dynamic connector.62</title>
     <path d="M-14.761800766,-43.475402832 L-9.001800537,-40.595401764 L-14.761800766,-37.715400696 Z" stroke="#000000" stroke-width="0.2376378" fill="#000000" fill-rule="evenodd" transform="matrix(-0,-1,1,0,31.593601,-49.597202)"/>
     <path d="M-8.998200417,0 L-8.998200417,-13.5 L-8.998200417,-13.5 L-9.001800537,-13.5 L-9.001800537,-13.5 L-9.001800537,-40.595401764 " stroke="#000000" stroke-width="0.2376378" stroke-linecap="round" fill="none"/>
    </g>
    <g transform="matrix(1,0,0,1,400.68723,927.0855)" v:mID="130">
     <title>Dynamic connector.63</title>
     <path d="M-14.765399933,-43.461006165 L-9.005399704,-40.581001282 L-14.765399933,-37.701000214 Z" stroke="#000000" stroke-width="0.2376378" fill="#000000" fill-rule="evenodd" transform="matrix(-0,-1,1,0,31.575602,-49.586403)"/>
     <path d="M-8.994600296,0 L-8.994600296,-13.5 L-8.994600296,-13.5 L-9.005399704,-13.5 L-9.005399704,-13.5 L-9.005399704,-40.581001282 " stroke="#000000" stroke-width="0.2376378" stroke-linecap="round" fill="none"/>
    </g>
    <g transform="matrix(1,0,0,1,198.23218,490.3749)" v:mID="131">
     <title>Rounded Rectangle.84</title>
     <userDefs>
      <ud nameU="CTypeTopLeftSnip" val="0"/>
      <ud nameU="CTypeTopRightSnip" val="0"/>
      <ud nameU="CTypeBotLeftSnip" val="0"/>
      <ud nameU="CTypeBotRightSnip" val="0"/>
      <ud nameU="CornerLockHoriz" val="1"/>
      <ud nameU="CornerLockVert" val="1"/>
      <ud nameU="CornerLockDiag" val="0"/>
      <ud nameU="TopLeftOffset" val="0.16932"/>
      <ud nameU="TopRightOffset" val="0.16932"/>
      <ud nameU="BotLeftOffset" val="0.16932"/>
      <ud nameU="BotRightOffset" val="0.16932"/>
      <ud nameU="visVersion" val="15"/>
     </userDefs>
     <path d="M12.191040039,0 L109.719360352,0 L109.719360352,0 L109.719360352,0 L109.719360352,0 L109.719360352,0 L109.719360352,0 C112.951332092,-0.000053644 116.054260254,1.285159588 118.339645386,3.570470095 L118.339645386,3.570470095 C120.625030518,5.855780602 121.910346985,8.95866394 121.91040802,12.190634727 L121.91040802,12.190634727 C121.91040802,12.190771103 121.91040802,12.190907478 121.91040802,12.191043854 L121.91040802,12.191043854 L121.910400391,12.191040039 L121.910400391,12.191040039 L121.910400391,92.777755737 L121.910400391,92.777755737 L121.91040802,92.777763367 L121.91040802,92.777763367 C121.910461426,96.009735107 120.625236511,99.112663269 118.339927673,101.398048401 L118.339927673,101.398048401 C116.054611206,103.683441162 112.951728821,104.96875 109.71975708,104.968803406 L109.71975708,104.968803406 C109.71962738,104.968803406 109.719497681,104.968803406 109.71937561,104.968803406 L109.71937561,104.968803406 L109.719360352,104.968803406 L109.719360352,104.968803406 L109.719360352,104.968803406 L109.719360352,104.968803406 L12.191040039,104.968803406 L12.191040039,104.968803406 L12.191040039,104.968803406 L12.191040039,104.968803406 L12.191038132,104.968803406 L12.191038132,104.968803406 C8.959064484,104.968856812 5.856137753,103.683631897 3.57075119,101.398323059 L3.57075119,101.398323059 C1.285364389,99.113006592 0.000049889,96.010124207 -0.000001073,92.778152466 L-0.000001073,92.778152466 C-0.000001073,92.778015137 -0.000000536,92.777885437 -0.000001073,92.777755737 L-0.000001073,92.777755737 L0,92.777755737 L0,92.777755737 L0,12.191040039 L0,12.191040039 L0,12.191040039 L0,12.191040039 C-0.000053108,8.959068298 1.285160542,5.856142998 3.570472479,3.570756197 L3.570472479,3.570756197 C5.855783463,1.285369873 8.958666801,0.000053108 12.190638542,0 L12.190638542,0 C12.19077301,0.000000536 12.190906525,0 12.191040039,0 L12.191040039,0 L12.191040039,0 L12.191040039,0 L12.191040039,0 Z" stroke="#000000" stroke-width="0.75" stroke-linecap="round" fill="#FFFFFF" fill-rule="evenodd"/>
     <g transform="matrix(1,0,0,1,0,0)">
      <text x="13.274534" y="-12" class="TextStyle0" fill="#000000" opacity="1" transform="matrix(1,0,0,-1,0,55.4844)">Tinio &amp; Alampay (2023)</text>
      <text x="15.813595" y="0" class="TextStyle0" fill="#000000" opacity="1" transform="matrix(1,0,0,-1,0,55.4844)">"Web3 and deep play:</text>
      <text x="10.327757" y="11.999999" class="TextStyle0" fill="#000000" opacity="1" transform="matrix(1,0,0,-1,0,55.4844)">Blockchain gaming in the</text>
      <text x="32.849728" y="24" class="TextStyle0" fill="#000000" opacity="1" transform="matrix(1,0,0,-1,0,55.4844)">Global South"</text>
     </g>
    </g>
    <g transform="matrix(1,0,0,1,198.23941,635.9446)" v:mID="132">
     <title>Rounded Rectangle.85</title>
     <userDefs>
      <ud nameU="CTypeTopLeftSnip" val="0"/>
      <ud nameU="CTypeTopRightSnip" val="0"/>
      <ud nameU="CTypeBotLeftSnip" val="0"/>
      <ud nameU="CTypeBotRightSnip" val="0"/>
      <ud nameU="CornerLockHoriz" val="1"/>
      <ud nameU="CornerLockVert" val="1"/>
      <ud nameU="CornerLockDiag" val="0"/>
      <ud nameU="TopLeftOffset" val="0.16932"/>
      <ud nameU="TopRightOffset" val="0.16932"/>
      <ud nameU="BotLeftOffset" val="0.16932"/>
      <ud nameU="BotRightOffset" val="0.16932"/>
      <ud nameU="visVersion" val="15"/>
     </userDefs>
     <path d="M12.191040039,0 L109.719360352,0 L109.719360352,0 L109.719360352,0 L109.719360352,0 L109.719360352,0 L109.719360352,0 C112.951332092,-0.000053644 116.054260254,1.285159588 118.339645386,3.570470095 L118.339645386,3.570470095 C120.625030518,5.855780602 121.910346985,8.95866394 121.91040802,12.190634727 L121.91040802,12.190634727 C121.91040802,12.190771103 121.91040802,12.190907478 121.91040802,12.191043854 L121.91040802,12.191043854 L121.910400391,12.191040039 L121.910400391,12.191040039 L121.910400391,92.777755737 L121.910400391,92.777755737 L121.91040802,92.777763367 L121.91040802,92.777763367 C121.910461426,96.009735107 120.625236511,99.112663269 118.339927673,101.398048401 L118.339927673,101.398048401 C116.054611206,103.683441162 112.951728821,104.96875 109.71975708,104.968803406 L109.71975708,104.968803406 C109.71962738,104.968803406 109.719497681,104.968803406 109.71937561,104.968803406 L109.71937561,104.968803406 L109.719360352,104.968803406 L109.719360352,104.968803406 L109.719360352,104.968803406 L109.719360352,104.968803406 L12.191040039,104.968803406 L12.191040039,104.968803406 L12.191040039,104.968803406 L12.191040039,104.968803406 L12.191038132,104.968803406 L12.191038132,104.968803406 C8.959064484,104.968856812 5.856137753,103.683631897 3.57075119,101.398323059 L3.57075119,101.398323059 C1.285364389,99.113006592 0.000049889,96.010124207 -0.000001073,92.778152466 L-0.000001073,92.778152466 C-0.000001073,92.778015137 -0.000000536,92.777885437 -0.000001073,92.777755737 L-0.000001073,92.777755737 L0,92.777755737 L0,92.777755737 L0,12.191040039 L0,12.191040039 L0,12.191040039 L0,12.191040039 C-0.000053108,8.959068298 1.285160542,5.856142998 3.570472479,3.570756197 L3.570472479,3.570756197 C5.855783463,1.285369873 8.958666801,0.000053108 12.190638542,0 L12.190638542,0 C12.19077301,0.000000536 12.190906525,0 12.191040039,0 L12.191040039,0 L12.191040039,0 L12.191040039,0 L12.191040039,0 Z" stroke="#000000" stroke-width="0.75" stroke-linecap="round" fill="#FFFFFF" fill-rule="evenodd"/>
     <g transform="matrix(1,0,0,1,0,0)">
      <text x="26.953732" y="-18" class="TextStyle0" fill="#000000" opacity="1" transform="matrix(1,0,0,-1,0,55.4844)">Yu (2021) "Labor</text>
      <text x="12.90832" y="-6" class="TextStyle0" fill="#000000" opacity="1" transform="matrix(1,0,0,-1,0,55.4844)">platformization and the</text>
      <text x="10.088499" y="5.999999" class="TextStyle0" fill="#000000" opacity="1" transform="matrix(1,0,0,-1,0,55.4844)">mechanics of algorithmic</text>
      <text x="9.6221895" y="18" class="TextStyle0" fill="#000000" opacity="1" transform="matrix(1,0,0,-1,0,55.4844)">control: Platform labor in</text>
      <text x="28.906857" y="30.000002" class="TextStyle0" fill="#000000" opacity="1" transform="matrix(1,0,0,-1,0,55.4844)">the Philippines"</text>
     </g>
    </g>
    <g transform="matrix(1,0,0,1,198.23941,344.79813)" v:mID="133">
     <title>Rounded Rectangle.86</title>
     <userDefs>
      <ud nameU="CTypeTopLeftSnip" val="0"/>
      <ud nameU="CTypeTopRightSnip" val="0"/>
      <ud nameU="CTypeBotLeftSnip" val="0"/>
      <ud nameU="CTypeBotRightSnip" val="0"/>
      <ud nameU="CornerLockHoriz" val="1"/>
      <ud nameU="CornerLockVert" val="1"/>
      <ud nameU="CornerLockDiag" val="0"/>
      <ud nameU="TopLeftOffset" val="0.16932"/>
      <ud nameU="TopRightOffset" val="0.16932"/>
      <ud nameU="BotLeftOffset" val="0.16932"/>
      <ud nameU="BotRightOffset" val="0.16932"/>
      <ud nameU="visVersion" val="15"/>
     </userDefs>
     <path d="M12.191040039,0 L109.719360352,0 L109.719360352,0 L109.719360352,0 L109.719360352,0 L109.719360352,0 L109.719360352,0 C112.951332092,-0.000053644 116.054260254,1.285159588 118.339645386,3.570470095 L118.339645386,3.570470095 C120.625030518,5.855780602 121.910346985,8.95866394 121.91040802,12.190634727 L121.91040802,12.190634727 C121.91040802,12.190771103 121.91040802,12.190907478 121.91040802,12.191043854 L121.91040802,12.191043854 L121.910400391,12.191040039 L121.910400391,12.191040039 L121.910400391,92.777755737 L121.910400391,92.777755737 L121.91040802,92.777763367 L121.91040802,92.777763367 C121.910461426,96.009735107 120.625236511,99.112663269 118.339927673,101.398048401 L118.339927673,101.398048401 C116.054611206,103.683441162 112.951728821,104.96875 109.71975708,104.968803406 L109.71975708,104.968803406 C109.71962738,104.968803406 109.719497681,104.968803406 109.71937561,104.968803406 L109.71937561,104.968803406 L109.719360352,104.968803406 L109.719360352,104.968803406 L109.719360352,104.968803406 L109.719360352,104.968803406 L12.191040039,104.968803406 L12.191040039,104.968803406 L12.191040039,104.968803406 L12.191040039,104.968803406 L12.191038132,104.968803406 L12.191038132,104.968803406 C8.959064484,104.968856812 5.856137753,103.683631897 3.57075119,101.398323059 L3.57075119,101.398323059 C1.285364389,99.113006592 0.000049889,96.010124207 -0.000001073,92.778152466 L-0.000001073,92.778152466 C-0.000001073,92.778015137 -0.000000536,92.777885437 -0.000001073,92.777755737 L-0.000001073,92.777755737 L0,92.777755737 L0,92.777755737 L0,12.191040039 L0,12.191040039 L0,12.191040039 L0,12.191040039 C-0.000053108,8.959068298 1.285160542,5.856142998 3.570472479,3.570756197 L3.570472479,3.570756197 C5.855783463,1.285369873 8.958666801,0.000053108 12.190638542,0 L12.190638542,0 C12.19077301,0.000000536 12.190906525,0 12.191040039,0 L12.191040039,0 L12.191040039,0 L12.191040039,0 L12.191040039,0 Z" stroke="#000000" stroke-width="0.75" stroke-linecap="round" fill="#FFFFFF" fill-rule="evenodd"/>
     <g transform="matrix(1,0,0,1,0,0)">
      <text x="5.711057" y="-24" class="TextStyle0" fill="#000000" opacity="1" transform="matrix(1,0,0,-1,0,55.4844)">Francisco et al. (2022) "The</text>
      <text x="9.275511" y="-12" class="TextStyle0" fill="#000000" opacity="1" transform="matrix(1,0,0,-1,0,55.4844)">Perception of Filipinos on</text>
      <text x="33.174435" y="-1.0728836E-06" class="TextStyle0" fill="#000000" opacity="1" transform="matrix(1,0,0,-1,0,55.4844)">the Advent of</text>
      <text x="9.692991" y="11.999999" class="TextStyle0" fill="#000000" opacity="1" transform="matrix(1,0,0,-1,0,55.4844)">Cryptocurrency and Non-</text>
      <text x="17.925411" y="24" class="TextStyle0" fill="#000000" opacity="1" transform="matrix(1,0,0,-1,0,55.4844)">Fungible Token (NFT)</text>
      <text x="44.96399" y="36" class="TextStyle0" fill="#000000" opacity="1" transform="matrix(1,0,0,-1,0,55.4844)">Games"</text>
     </g>
    </g>
    <g transform="matrix(1,0,0,1,250.19101,781.5213)" v:mID="134">
     <title>Dynamic connector.87</title>
     <path d="M3.24360013,-43.487998962 L9.003601074,-40.607997894 L3.24360013,-37.727996826 Z" stroke="#000000" stroke-width="0.2376378" fill="#000000" fill-rule="evenodd" transform="matrix(-0,-1,1,0,49.6116,-31.604397)"/>
     <path d="M8.996398926,0 L8.996398926,-13.5 L8.996398926,-13.5 L9.003601074,-13.5 L9.003601074,-13.5 L9.003601074,-40.607997894 " stroke="#000000" stroke-width="0.2376378" stroke-linecap="round" fill="none"/>
    </g>
    <g transform="matrix(1,0,0,1,268.191,635.9445)" v:mID="135">
     <title>Dynamic connector.88</title>
     <path d="M-14.763599396,-43.480800629 L-9.003599167,-40.600799561 L-14.763599396,-37.720798492 Z" stroke="#000000" stroke-width="0.2376378" fill="#000000" fill-rule="evenodd" transform="matrix(-0,-1,1,0,31.5972,-49.6044)"/>
     <path d="M-8.996399879,0 L-8.996399879,-13.5 L-8.996399879,-13.5 L-9.003599167,-13.5 L-9.003599167,-13.5 L-9.003599167,-40.600799561 " stroke="#000000" stroke-width="0.2376378" stroke-linecap="round" fill="none"/>
    </g>
    <g transform="matrix(1,0,0,1,250.19101,490.37488)" v:mID="136">
     <title>Dynamic connector.89</title>
     <path d="M3.243599176,-43.488002777 L9.003599167,-40.608001709 L3.243599176,-37.728000641 Z" stroke="#000000" stroke-width="0.2376378" fill="#000000" fill-rule="evenodd" transform="matrix(-0,-1,1,0,49.611603,-31.604403)"/>
     <path d="M8.996399879,0 L8.996399879,-13.5 L8.996399879,-13.5 L9.003599167,-13.5 L9.003599167,-13.5 L9.003599167,-40.608001709 " stroke="#000000" stroke-width="0.2376378" stroke-linecap="round" fill="none"/>
    </g>
    <g transform="matrix(1,0,0,1,330.7266,635.9446)" v:mID="137">
     <title>Rounded Rectangle.90</title>
     <userDefs>
      <ud nameU="CTypeTopLeftSnip" val="0"/>
      <ud nameU="CTypeTopRightSnip" val="0"/>
      <ud nameU="CTypeBotLeftSnip" val="0"/>
      <ud nameU="CTypeBotRightSnip" val="0"/>
      <ud nameU="CornerLockHoriz" val="1"/>
      <ud nameU="CornerLockVert" val="1"/>
      <ud nameU="CornerLockDiag" val="0"/>
      <ud nameU="TopLeftOffset" val="0.16932"/>
      <ud nameU="TopRightOffset" val="0.16932"/>
      <ud nameU="BotLeftOffset" val="0.16932"/>
      <ud nameU="BotRightOffset" val="0.16932"/>
      <ud nameU="visVersion" val="15"/>
     </userDefs>
     <path d="M12.191040039,0 L109.719360352,0 L109.719360352,0 L109.719360352,0 L109.719360352,0 L109.719360352,0 L109.719360352,0 C112.951332092,-0.000053644 116.054260254,1.285159588 118.339645386,3.570470095 L118.339645386,3.570470095 C120.625030518,5.855780602 121.910346985,8.95866394 121.91040802,12.190634727 L121.91040802,12.190634727 C121.91040802,12.190771103 121.91040802,12.190907478 121.91040802,12.191043854 L121.91040802,12.191043854 L121.910400391,12.191040039 L121.910400391,12.191040039 L121.910400391,92.777755737 L121.910400391,92.777755737 L121.91040802,92.777763367 L121.91040802,92.777763367 C121.910461426,96.009735107 120.625236511,99.112663269 118.339927673,101.398048401 L118.339927673,101.398048401 C116.054611206,103.683441162 112.951728821,104.96875 109.71975708,104.968803406 L109.71975708,104.968803406 C109.71962738,104.968803406 109.719497681,104.968803406 109.71937561,104.968803406 L109.71937561,104.968803406 L109.719360352,104.968803406 L109.719360352,104.968803406 L109.719360352,104.968803406 L109.719360352,104.968803406 L12.191040039,104.968803406 L12.191040039,104.968803406 L12.191040039,104.968803406 L12.191040039,104.968803406 L12.191038132,104.968803406 L12.191038132,104.968803406 C8.959064484,104.968856812 5.856137753,103.683631897 3.57075119,101.398323059 L3.57075119,101.398323059 C1.285364389,99.113006592 0.000049889,96.010124207 -0.000001073,92.778152466 L-0.000001073,92.778152466 C-0.000001073,92.778015137 -0.000000536,92.777885437 -0.000001073,92.777755737 L-0.000001073,92.777755737 L0,92.777755737 L0,92.777755737 L0,12.191040039 L0,12.191040039 L0,12.191040039 L0,12.191040039 C-0.000053108,8.959068298 1.285160542,5.856142998 3.570472479,3.570756197 L3.570472479,3.570756197 C5.855783463,1.285369873 8.958666801,0.000053108 12.190638542,0 L12.190638542,0 C12.19077301,0.000000536 12.190906525,0 12.191040039,0 L12.191040039,0 L12.191040039,0 L12.191040039,0 L12.191040039,0 Z" stroke="#000000" stroke-width="0.75" stroke-linecap="round" fill="#FFFFFF" fill-rule="evenodd"/>
     <g transform="matrix(1,0,0,1,0,0)">
      <text x="4.8712125" y="-12" class="TextStyle0" fill="#000000" opacity="1" transform="matrix(1,0,0,-1,0,55.4844)">Xie (2024) "Sustainability of</text>
      <text x="18.723755" y="0" class="TextStyle0" fill="#000000" opacity="1" transform="matrix(1,0,0,-1,0,55.4844)">the P2E Game Token</text>
      <text x="7.6983595" y="11.999999" class="TextStyle0" fill="#000000" opacity="1" transform="matrix(1,0,0,-1,0,55.4844)">Economy: Key Factors and</text>
      <text x="38.73352" y="24" class="TextStyle0" fill="#000000" opacity="1" transform="matrix(1,0,0,-1,0,55.4844)">Strategies"</text>
     </g>
    </g>
    <g transform="matrix(1,0,0,1,330.7338,344.8413)" v:mID="138">
     <title>Rounded Rectangle.91</title>
     <userDefs>
      <ud nameU="CTypeTopLeftSnip" val="0"/>
      <ud nameU="CTypeTopRightSnip" val="0"/>
      <ud nameU="CTypeBotLeftSnip" val="0"/>
      <ud nameU="CTypeBotRightSnip" val="0"/>
      <ud nameU="CornerLockHoriz" val="1"/>
      <ud nameU="CornerLockVert" val="1"/>
      <ud nameU="CornerLockDiag" val="0"/>
      <ud nameU="TopLeftOffset" val="0.16932"/>
      <ud nameU="TopRightOffset" val="0.16932"/>
      <ud nameU="BotLeftOffset" val="0.16932"/>
      <ud nameU="BotRightOffset" val="0.16932"/>
      <ud nameU="visVersion" val="15"/>
     </userDefs>
     <path d="M12.191040039,0 L109.719360352,0 L109.719360352,0 L109.719360352,0 L109.719360352,0 L109.719360352,0 L109.719360352,0 C112.951332092,-0.000053644 116.054260254,1.285159588 118.339645386,3.570470095 L118.339645386,3.570470095 C120.625030518,5.855780602 121.910346985,8.95866394 121.91040802,12.190634727 L121.91040802,12.190634727 C121.91040802,12.190771103 121.91040802,12.190907478 121.91040802,12.191043854 L121.91040802,12.191043854 L121.910400391,12.191040039 L121.910400391,12.191040039 L121.910400391,92.777755737 L121.910400391,92.777755737 L121.91040802,92.777763367 L121.91040802,92.777763367 C121.910461426,96.009735107 120.625236511,99.112663269 118.339927673,101.398048401 L118.339927673,101.398048401 C116.054611206,103.683441162 112.951728821,104.96875 109.71975708,104.968803406 L109.71975708,104.968803406 C109.71962738,104.968803406 109.719497681,104.968803406 109.71937561,104.968803406 L109.71937561,104.968803406 L109.719360352,104.968803406 L109.719360352,104.968803406 L109.719360352,104.968803406 L109.719360352,104.968803406 L12.191040039,104.968803406 L12.191040039,104.968803406 L12.191040039,104.968803406 L12.191040039,104.968803406 L12.191038132,104.968803406 L12.191038132,104.968803406 C8.959064484,104.968856812 5.856137753,103.683631897 3.57075119,101.398323059 L3.57075119,101.398323059 C1.285364389,99.113006592 0.000049889,96.010124207 -0.000001073,92.778152466 L-0.000001073,92.778152466 C-0.000001073,92.778015137 -0.000000536,92.777885437 -0.000001073,92.777755737 L-0.000001073,92.777755737 L0,92.777755737 L0,92.777755737 L0,12.191040039 L0,12.191040039 L0,12.191040039 L0,12.191040039 C-0.000053108,8.959068298 1.285160542,5.856142998 3.570472479,3.570756197 L3.570472479,3.570756197 C5.855783463,1.285369873 8.958666801,0.000053108 12.190638542,0 L12.190638542,0 C12.19077301,0.000000536 12.190906525,0 12.191040039,0 L12.191040039,0 L12.191040039,0 L12.191040039,0 L12.191040039,0 Z" stroke="#000000" stroke-width="0.75" stroke-linecap="round" fill="#FFFFFF" fill-rule="evenodd"/>
     <g transform="matrix(1,0,0,1,0,0)">
      <text x="15.569454" y="-18" class="TextStyle0" fill="#000000" opacity="1" transform="matrix(1,0,0,-1,0,55.4844)">Della Torre (2023) "An</text>
      <text x="23.167112" y="-6" class="TextStyle0" fill="#000000" opacity="1" transform="matrix(1,0,0,-1,0,55.4844)">Overview of Web3</text>
      <text x="7.0489473" y="5.999999" class="TextStyle0" fill="#000000" opacity="1" transform="matrix(1,0,0,-1,0,55.4844)">Technology Infrastructure,</text>
      <text x="25.935665" y="18" class="TextStyle0" fill="#000000" opacity="1" transform="matrix(1,0,0,-1,0,55.4844)">Applications, and</text>
      <text x="38.10608" y="30.000002" class="TextStyle0" fill="#000000" opacity="1" transform="matrix(1,0,0,-1,0,55.4844)">Popularity"</text>
     </g>
    </g>
    <g transform="matrix(1,0,0,1,330.7266,490.3821)" v:mID="139">
     <title>Rounded Rectangle.92</title>
     <userDefs>
      <ud nameU="CTypeTopLeftSnip" val="0"/>
      <ud nameU="CTypeTopRightSnip" val="0"/>
      <ud nameU="CTypeBotLeftSnip" val="0"/>
      <ud nameU="CTypeBotRightSnip" val="0"/>
      <ud nameU="CornerLockHoriz" val="1"/>
      <ud nameU="CornerLockVert" val="1"/>
      <ud nameU="CornerLockDiag" val="0"/>
      <ud nameU="TopLeftOffset" val="0.16932"/>
      <ud nameU="TopRightOffset" val="0.16932"/>
      <ud nameU="BotLeftOffset" val="0.16932"/>
      <ud nameU="BotRightOffset" val="0.16932"/>
      <ud nameU="visVersion" val="15"/>
     </userDefs>
     <path d="M12.191040039,0 L109.719360352,0 L109.719360352,0 L109.719360352,0 L109.719360352,0 L109.719360352,0 L109.719360352,0 C112.951332092,-0.000053644 116.054260254,1.285159588 118.339645386,3.570470095 L118.339645386,3.570470095 C120.625030518,5.855780602 121.910346985,8.95866394 121.91040802,12.190634727 L121.91040802,12.190634727 C121.91040802,12.190771103 121.91040802,12.190907478 121.91040802,12.191043854 L121.91040802,12.191043854 L121.910400391,12.191040039 L121.910400391,12.191040039 L121.910400391,92.777755737 L121.910400391,92.777755737 L121.91040802,92.777763367 L121.91040802,92.777763367 C121.910461426,96.009735107 120.625236511,99.112663269 118.339927673,101.398048401 L118.339927673,101.398048401 C116.054611206,103.683441162 112.951728821,104.96875 109.71975708,104.968803406 L109.71975708,104.968803406 C109.71962738,104.968803406 109.719497681,104.968803406 109.71937561,104.968803406 L109.71937561,104.968803406 L109.719360352,104.968803406 L109.719360352,104.968803406 L109.719360352,104.968803406 L109.719360352,104.968803406 L12.191040039,104.968803406 L12.191040039,104.968803406 L12.191040039,104.968803406 L12.191040039,104.968803406 L12.191038132,104.968803406 L12.191038132,104.968803406 C8.959064484,104.968856812 5.856137753,103.683631897 3.57075119,101.398323059 L3.57075119,101.398323059 C1.285364389,99.113006592 0.000049889,96.010124207 -0.000001073,92.778152466 L-0.000001073,92.778152466 C-0.000001073,92.778015137 -0.000000536,92.777885437 -0.000001073,92.777755737 L-0.000001073,92.777755737 L0,92.777755737 L0,92.777755737 L0,12.191040039 L0,12.191040039 L0,12.191040039 L0,12.191040039 C-0.000053108,8.959068298 1.285160542,5.856142998 3.570472479,3.570756197 L3.570472479,3.570756197 C5.855783463,1.285369873 8.958666801,0.000053108 12.190638542,0 L12.190638542,0 C12.19077301,0.000000536 12.190906525,0 12.191040039,0 L12.191040039,0 L12.191040039,0 L12.191040039,0 L12.191040039,0 Z" stroke="#000000" stroke-width="0.75" stroke-linecap="round" fill="#FFFFFF" fill-rule="evenodd"/>
     <g transform="matrix(1,0,0,1,0,0)">
      <text x="12.996211" y="-6" class="TextStyle0" fill="#000000" opacity="1" transform="matrix(1,0,0,-1,0,55.4844)">Della Torre et al. (2024)</text>
      <text x="17.36877" y="6" class="TextStyle0" fill="#000000" opacity="1" transform="matrix(1,0,0,-1,0,55.4844)">"Decentralized Token</text>
      <text x="5.7574444" y="18" class="TextStyle0" fill="#000000" opacity="1" transform="matrix(1,0,0,-1,0,55.4844)">Economy Theory (DeTEcT)"</text>
     </g>
    </g>
    <g transform="matrix(1,0,0,1,330.7338,199.22849)" v:mID="140">
     <title>Rounded Rectangle.93</title>
     <userDefs>
      <ud nameU="CTypeTopLeftSnip" val="0"/>
      <ud nameU="CTypeTopRightSnip" val="0"/>
      <ud nameU="CTypeBotLeftSnip" val="0"/>
      <ud nameU="CTypeBotRightSnip" val="0"/>
      <ud nameU="CornerLockHoriz" val="1"/>
      <ud nameU="CornerLockVert" val="1"/>
      <ud nameU="CornerLockDiag" val="0"/>
      <ud nameU="TopLeftOffset" val="0.16932"/>
      <ud nameU="TopRightOffset" val="0.16932"/>
      <ud nameU="BotLeftOffset" val="0.16932"/>
      <ud nameU="BotRightOffset" val="0.16932"/>
      <ud nameU="visVersion" val="15"/>
     </userDefs>
     <path d="M12.191040039,0 L109.719360352,0 L109.719360352,0 L109.719360352,0 L109.719360352,0 L109.719360352,0 L109.719360352,0 C112.951332092,-0.000053644 116.054260254,1.285159588 118.339645386,3.570470095 L118.339645386,3.570470095 C120.625030518,5.855780602 121.910346985,8.95866394 121.91040802,12.190634727 L121.91040802,12.190634727 C121.91040802,12.190771103 121.91040802,12.190907478 121.91040802,12.191043854 L121.91040802,12.191043854 L121.910400391,12.191040039 L121.910400391,12.191040039 L121.910400391,92.777755737 L121.910400391,92.777755737 L121.91040802,92.777763367 L121.91040802,92.777763367 C121.910461426,96.009735107 120.625236511,99.112663269 118.339927673,101.398048401 L118.339927673,101.398048401 C116.054611206,103.683441162 112.951728821,104.96875 109.71975708,104.968803406 L109.71975708,104.968803406 C109.71962738,104.968803406 109.719497681,104.968803406 109.71937561,104.968803406 L109.71937561,104.968803406 L109.719360352,104.968803406 L109.719360352,104.968803406 L109.719360352,104.968803406 L109.719360352,104.968803406 L12.191040039,104.968803406 L12.191040039,104.968803406 L12.191040039,104.968803406 L12.191040039,104.968803406 L12.191038132,104.968803406 L12.191038132,104.968803406 C8.959064484,104.968856812 5.856137753,103.683631897 3.57075119,101.398323059 L3.57075119,101.398323059 C1.285364389,99.113006592 0.000049889,96.010124207 -0.000001073,92.778152466 L-0.000001073,92.778152466 C-0.000001073,92.778015137 -0.000000536,92.777885437 -0.000001073,92.777755737 L-0.000001073,92.777755737 L0,92.777755737 L0,92.777755737 L0,12.191040039 L0,12.191040039 L0,12.191040039 L0,12.191040039 C-0.000053108,8.959068298 1.285160542,5.856142998 3.570472479,3.570756197 L3.570472479,3.570756197 C5.855783463,1.285369873 8.958666801,0.000053108 12.190638542,0 L12.190638542,0 C12.19077301,0.000000536 12.190906525,0 12.191040039,0 L12.191040039,0 L12.191040039,0 L12.191040039,0 L12.191040039,0 Z" stroke="#000000" stroke-width="0.75" stroke-linecap="round" fill="#FFFFFF" fill-rule="evenodd"/>
     <g transform="matrix(1,0,0,1,0,0)">
      <text x="4.453732" y="-6" class="TextStyle0" fill="#000000" opacity="1" transform="matrix(1,0,0,-1,0,55.4844)">Wang et al. (2024) "Staking,</text>
      <text x="8.880003" y="6" class="TextStyle0" fill="#000000" opacity="1" transform="matrix(1,0,0,-1,0,55.4844)">Token Pricing, and Crypto</text>
      <text x="48.14026" y="18" class="TextStyle0" fill="#000000" opacity="1" transform="matrix(1,0,0,-1,0,55.4844)">Carry"</text>
     </g>
    </g>
    <g transform="matrix(1,0,0,1,330.7266,53.694897)" v:mID="141">
     <title>Rounded Rectangle.94</title>
     <userDefs>
      <ud nameU="CTypeTopLeftSnip" val="0"/>
      <ud nameU="CTypeTopRightSnip" val="0"/>
      <ud nameU="CTypeBotLeftSnip" val="0"/>
      <ud nameU="CTypeBotRightSnip" val="0"/>
      <ud nameU="CornerLockHoriz" val="1"/>
      <ud nameU="CornerLockVert" val="1"/>
      <ud nameU="CornerLockDiag" val="0"/>
      <ud nameU="TopLeftOffset" val="0.16932"/>
      <ud nameU="TopRightOffset" val="0.16932"/>
      <ud nameU="BotLeftOffset" val="0.16932"/>
      <ud nameU="BotRightOffset" val="0.16932"/>
      <ud nameU="visVersion" val="15"/>
     </userDefs>
     <path d="M12.191040039,0 L109.719360352,0 L109.719360352,0 L109.719360352,0 L109.719360352,0 L109.719360352,0 L109.719360352,0 C112.951332092,-0.000053644 116.054260254,1.285159588 118.339645386,3.570470095 L118.339645386,3.570470095 C120.625030518,5.855780602 121.910346985,8.95866394 121.91040802,12.190634727 L121.91040802,12.190634727 C121.91040802,12.190771103 121.91040802,12.190907478 121.91040802,12.191043854 L121.91040802,12.191043854 L121.910400391,12.191040039 L121.910400391,12.191040039 L121.910400391,92.777755737 L121.910400391,92.777755737 L121.91040802,92.777763367 L121.91040802,92.777763367 C121.910461426,96.009735107 120.625236511,99.112663269 118.339927673,101.398048401 L118.339927673,101.398048401 C116.054611206,103.683441162 112.951728821,104.96875 109.71975708,104.968803406 L109.71975708,104.968803406 C109.71962738,104.968803406 109.719497681,104.968803406 109.71937561,104.968803406 L109.71937561,104.968803406 L109.719360352,104.968803406 L109.719360352,104.968803406 L109.719360352,104.968803406 L109.719360352,104.968803406 L12.191040039,104.968803406 L12.191040039,104.968803406 L12.191040039,104.968803406 L12.191040039,104.968803406 L12.191038132,104.968803406 L12.191038132,104.968803406 C8.959064484,104.968856812 5.856137753,103.683631897 3.57075119,101.398323059 L3.57075119,101.398323059 C1.285364389,99.113006592 0.000049889,96.010124207 -0.000001073,92.778152466 L-0.000001073,92.778152466 C-0.000001073,92.778015137 -0.000000536,92.777885437 -0.000001073,92.777755737 L-0.000001073,92.777755737 L0,92.777755737 L0,92.777755737 L0,12.191040039 L0,12.191040039 L0,12.191040039 L0,12.191040039 C-0.000053108,8.959068298 1.285160542,5.856142998 3.570472479,3.570756197 L3.570472479,3.570756197 C5.855783463,1.285369873 8.958666801,0.000053108 12.190638542,0 L12.190638542,0 C12.19077301,0.000000536 12.190906525,0 12.191040039,0 L12.191040039,0 L12.191040039,0 L12.191040039,0 L12.191040039,0 Z" stroke="#000000" stroke-width="0.75" stroke-linecap="round" fill="#FFFFFF" fill-rule="evenodd"/>
     <g transform="matrix(1,0,0,1,0,0)">
      <text x="25.61584" y="-24" class="TextStyle0" fill="#000000" opacity="1" transform="matrix(1,0,0,-1,0,55.4844)">Yang et al. (2024)</text>
      <text x="14.13391" y="-12" class="TextStyle0" fill="#000000" opacity="1" transform="matrix(1,0,0,-1,0,55.4844)">"Decentralized Finance</text>
      <text x="22.190548" y="-1.0728836E-06" class="TextStyle0" fill="#000000" opacity="1" transform="matrix(1,0,0,-1,0,55.4844)">(DeFi) and GameFi:</text>
      <text x="7.788692" y="11.999999" class="TextStyle0" fill="#000000" opacity="1" transform="matrix(1,0,0,-1,0,55.4844)">Pioneering the Next Wave</text>
      <text x="5.9356675" y="24" class="TextStyle0" fill="#000000" opacity="1" transform="matrix(1,0,0,-1,0,55.4844)">of Blockchain Innovation in</text>
      <text x="48.814083" y="36" class="TextStyle0" fill="#000000" opacity="1" transform="matrix(1,0,0,-1,0,55.4844)">2024"</text>
     </g>
    </g>
    <g transform="matrix(1,0,0,1,382.6818,781.5357)" v:mID="142">
     <title>Dynamic connector.95</title>
     <path d="M3.239999533,-43.502399445 L9,-40.622398376 L3.239999533,-37.742397308 Z" stroke="#000000" stroke-width="0.2376378" fill="#000000" fill-rule="evenodd" transform="matrix(-0,-1,1,0,49.6224,-31.622398)"/>
     <path d="M8.999999046,0 L9,-40.622398376 " stroke="#000000" stroke-width="0.2376378" stroke-linecap="round" fill="none"/>
    </g>
    <g transform="matrix(1,0,0,1,382.6818,635.94446)" v:mID="143">
     <title>Dynamic connector.96</title>
     <path d="M3.239999533,-43.47359848 L9,-40.593597412 L3.239999533,-37.713596344 Z" stroke="#000000" stroke-width="0.2376378" fill="#000000" fill-rule="evenodd" transform="matrix(-0,-1,1,0,49.593597,-31.593597)"/>
     <path d="M9,0 L9,-40.593597412 " stroke="#000000" stroke-width="0.2376378" stroke-linecap="round" fill="none"/>
    </g>
    <g transform="matrix(1,0,0,1,382.6854,490.3821)" v:mID="144">
     <title>Dynamic connector.97</title>
     <path d="M3.243599176,-43.451999664 L9.003599167,-40.571998596 L3.243599176,-37.691997528 Z" stroke="#000000" stroke-width="0.2376378" fill="#000000" fill-rule="evenodd" transform="matrix(-0,-1,1,0,49.5756,-31.5684)"/>
     <path d="M8.996399879,0 L8.996399879,-13.5 L8.996399879,-13.5 L9.003599167,-13.5 L9.003599167,-13.5 L9.003599167,-40.571998596 " stroke="#000000" stroke-width="0.2376378" stroke-linecap="round" fill="none"/>
    </g>
    <g transform="matrix(1,0,0,1,400.689,344.8413)" v:mID="145">
     <title>Dynamic connector.98</title>
     <path d="M-14.760001183,-43.52399826 L-9,-40.643997192 L-14.760001183,-37.763996124 Z" stroke="#000000" stroke-width="0.2376378" fill="#000000" fill-rule="evenodd" transform="matrix(-0,-1,1,0,31.643997,-49.643997)"/>
     <path d="M-8.999999046,0 L-9,-40.643997192 " stroke="#000000" stroke-width="0.2376378" stroke-linecap="round" fill="none"/>
    </g>
    <g transform="matrix(1,0,0,1,400.6854,199.2285)" v:mID="146">
     <title>Dynamic connector.99</title>
     <path d="M-14.763599396,-43.444801331 L-9.003599167,-40.564796448 L-14.763599396,-37.68479538 Z" stroke="#000000" stroke-width="0.2376378" fill="#000000" fill-rule="evenodd" transform="matrix(-0,-1,1,0,31.561197,-49.568398)"/>
     <path d="M-8.996400833,0 L-8.996400833,-13.5 L-8.996400833,-13.5 L-9.003599167,-13.5 L-9.003599167,-13.5 L-9.003599167,-40.564796448 " stroke="#000000" stroke-width="0.2376378" stroke-linecap="round" fill="none"/>
    </g>
   </g>
  </g>
 </g>
 <style type="text/css"><![CDATA[ .TextStyle0 {font-family:Calibri;font-size:10px;} ]]></style>
</svg>