<svg xmlns="http://www.w3.org/2000/svg" xmlns:v="http://schemas.microsoft.com/visio/2003/SVGExtensions/" xmlns:xlink="http://www.w3.org/1999/xlink" xml:space="preserve" viewBox="197.84 398.41 255.19 1603.66">
 <v:documentProperties>
  <v:userDefs>
   <v:ud v:nameU="msvNoAutoConnect" v:val="1"/>
   <v:ud v:nameU="msvWarnOnPersonalInfo" v:val="0"/>
  </v:userDefs>
 </v:documentProperties>
 <g id="SFixTitle"/>
 <g id="SContent">
  <g>
   <g transform="matrix(1,0,0,-1,0,2340)">
    <g transform="matrix(1,0,0,1,198.25021,1869.2163)" v:mID="147">
     <title>Rounded Rectangle.32</title>
     <userDefs>
      <ud nameU="CTypeTopLeftSnip" val="0"/>
      <ud nameU="CTypeTopRightSnip" val="0"/>
      <ud nameU="CTypeBotLeftSnip" val="0"/>
      <ud nameU="CTypeBotRightSnip" val="0"/>
      <ud nameU="CornerLockHoriz" val="1"/>
      <ud nameU="CornerLockVert" val="1"/>
      <ud nameU="CornerLockDiag" val="0"/>
      <ud nameU="TopLeftOffset" val="0.35335"/>
      <ud nameU="TopRightOffset" val="0.35335"/>
      <ud nameU="BotLeftOffset" val="0.35335"/>
      <ud nameU="BotRightOffset" val="0.35335"/>
      <ud nameU="visVersion" val="15"/>
     </userDefs>
     <g transform="matrix(1,0,0,1,0,0)" v:mID="147">
      <title>Rounded Rectangle.32</title>
      <userDefs>
       <ud nameU="CTypeTopLeftSnip" val="0"/>
       <ud nameU="CTypeTopRightSnip" val="0"/>
       <ud nameU="CTypeBotLeftSnip" val="0"/>
       <ud nameU="CTypeBotRightSnip" val="0"/>
       <ud nameU="CornerLockHoriz" val="1"/>
       <ud nameU="CornerLockVert" val="1"/>
       <ud nameU="CornerLockDiag" val="0"/>
       <ud nameU="TopLeftOffset" val="0.35335"/>
       <ud nameU="TopRightOffset" val="0.35335"/>
       <ud nameU="BotLeftOffset" val="0.35335"/>
       <ud nameU="BotRightOffset" val="0.35335"/>
       <ud nameU="visVersion" val="15"/>
      </userDefs>
      <path d="M25.441200256,0 L228.970794678,0 L228.970794678,0 L228.970794678,0 L228.970794678,0 L228.970794678,0.000001073 L228.970794678,0.000001073 C235.715530396,-0.000107288 242.190948486,2.68198061 246.960266113,7.451146603 L246.960266113,7.451146603 C251.72958374,12.220313072 254.411880493,18.695648193 254.411987305,25.440376282 L254.411987305,25.440376282 C254.411987305,25.440662384 254.411987305,25.440944672 254.411987305,25.441228867 L254.411987305,25.441228867 L254.412002563,25.441200256 L254.412002563,25.441200256 L254.412002563,46.558799744 L254.412002563,46.558799744 L254.411987305,46.5587883 L254.411987305,46.5587883 C254.412094116,53.303512573 251.730026245,59.778938293 246.960861206,64.54826355 L246.960861206,64.54826355 C242.191696167,69.317581177 235.716369629,71.999885559 228.97164917,72 L228.97164917,72 C228.971374512,72 228.971069336,72 228.970794678,72 L228.970794678,72 L228.970794678,72 L228.970794678,72 L228.970794678,72 L228.970794678,72 L25.441200256,72 L25.441200256,72 L25.441200256,72 L25.441200256,72 L25.441198349,72 L25.441198349,72 C18.696472168,72.000114441 12.221047401,69.318023682 7.45172739,64.548858643 L7.45172739,64.548858643 C2.682407379,59.779697418 0.000110507,53.304359436 0.000001073,46.559635162 L0.000001073,46.559635162 C0.000001073,46.559356689 0.000001073,46.559074402 0.000002146,46.558795929 L0.000002146,46.558795929 L0,46.558799744 L0,46.558799744 L0,25.441200256 L0,25.441200256 L0,25.441200256 L0,25.441200256 C-0.000108361,18.696472168 2.681976318,12.221047401 7.451142311,7.451726913 L7.451142311,7.451726913 C12.22030735,2.682407379 18.695644379,0.000110507 25.440374374,0.000001073 L25.440374374,0.000001073 C25.440649033,0 25.440923691,0.000001073 25.441200256,0 L25.441200256,0 L25.441200256,0 L25.441200256,0 L25.441200256,0 Z" stroke="#000000" stroke-width="0.75" stroke-linecap="round" fill="none" stroke-opacity="0"/>
     </g>
     <path d="M25.441200256,0 L228.970794678,0 L228.970794678,0 L228.970794678,0 L228.970794678,0 L228.970794678,0.000001073 L228.970794678,0.000001073 C235.715530396,-0.000107288 242.190948486,2.68198061 246.960266113,7.451146603 L246.960266113,7.451146603 C251.72958374,12.220313072 254.411880493,18.695648193 254.411987305,25.440376282 L254.411987305,25.440376282 C254.411987305,25.440662384 254.411987305,25.440944672 254.411987305,25.441228867 L254.411987305,25.441228867 L254.412002563,25.441200256 L254.412002563,25.441200256 L254.412002563,46.558799744 L254.412002563,46.558799744 L254.411987305,46.5587883 L254.411987305,46.5587883 C254.412094116,53.303512573 251.730026245,59.778938293 246.960861206,64.54826355 L246.960861206,64.54826355 C242.191696167,69.317581177 235.716369629,71.999885559 228.97164917,72 L228.97164917,72 C228.971374512,72 228.971069336,72 228.970794678,72 L228.970794678,72 L228.970794678,72 L228.970794678,72 L228.970794678,72 L228.970794678,72 L25.441200256,72 L25.441200256,72 L25.441200256,72 L25.441200256,72 L25.441198349,72 L25.441198349,72 C18.696472168,72.000114441 12.221047401,69.318023682 7.45172739,64.548858643 L7.45172739,64.548858643 C2.682407379,59.779697418 0.000110507,53.304359436 0.000001073,46.559635162 L0.000001073,46.559635162 C0.000001073,46.559356689 0.000001073,46.559074402 0.000002146,46.558795929 L0.000002146,46.558795929 L0,46.558799744 L0,46.558799744 L0,25.441200256 L0,25.441200256 L0,25.441200256 L0,25.441200256 C-0.000108361,18.696472168 2.681976318,12.221047401 7.451142311,7.451726913 L7.451142311,7.451726913 C12.22030735,2.682407379 18.695644379,0.000110507 25.440374374,0.000001073 L25.440374374,0.000001073 C25.440649033,0 25.440923691,0.000001073 25.441200256,0 L25.441200256,0 L25.441200256,0 L25.441200256,0 L25.441200256,0 Z" stroke="#000000" stroke-width="0.75" stroke-linecap="round" fill="#FFFFFF" fill-rule="evenodd"/>
     <g transform="matrix(1,0,0,1,0,0)">
      <text x="5.658147" y="0" class="TextStyle0" fill="#000000" opacity="1" transform="matrix(1,0,0,-1,0,39)">Filipino Culture in Digital Media: Identity, Narrative, and the</text>
      <text x="105.992615" y="12" class="TextStyle0" fill="#000000" opacity="1" transform="matrix(1,0,0,-1,0,39)">Social Sink</text>
     </g>
    </g>
    <g transform="matrix(1,0,0,1,198.25021,1794.4696)" v:mID="148">
     <title>Rounded Rectangle.33</title>
     <userDefs>
      <ud nameU="CTypeTopLeftSnip" val="0"/>
      <ud nameU="CTypeTopRightSnip" val="0"/>
      <ud nameU="CTypeBotLeftSnip" val="0"/>
      <ud nameU="CTypeBotRightSnip" val="0"/>
      <ud nameU="CornerLockHoriz" val="1"/>
      <ud nameU="CornerLockVert" val="1"/>
      <ud nameU="CornerLockDiag" val="0"/>
      <ud nameU="TopLeftOffset" val="0.16932"/>
      <ud nameU="TopRightOffset" val="0.16932"/>
      <ud nameU="BotLeftOffset" val="0.16932"/>
      <ud nameU="BotRightOffset" val="0.16932"/>
      <ud nameU="visVersion" val="15"/>
     </userDefs>
     <path d="M12.191040039,0 L109.719360352,0 L109.719360352,0 L109.719360352,0 L109.719360352,0 L109.719360352,0 L109.719360352,0 C112.951332092,-0.000053644 116.054260254,1.285159588 118.339645386,3.570470095 L118.339645386,3.570470095 C120.625030518,5.855780602 121.910346985,8.95866394 121.91040802,12.190634727 L121.91040802,12.190634727 C121.91040802,12.190771103 121.91040802,12.190907478 121.91040802,12.191043854 L121.91040802,12.191043854 L121.910400391,12.191040039 L121.910400391,12.191040039 L121.910400391,21.951358795 L121.910400391,21.951358795 L121.91040802,21.951356888 L121.91040802,21.951356888 C121.910461426,25.183328629 120.625244141,28.286254883 118.339935303,30.571641922 L118.339935303,30.571641922 C116.054626465,32.857028961 112.95174408,34.142345428 109.719772339,34.142402649 L109.719772339,34.142402649 C109.71963501,34.142402649 109.719497681,34.142402649 109.719360352,34.142402649 L109.719360352,34.142402649 L109.719360352,34.142402649 L109.719360352,34.142402649 L109.719360352,34.142402649 L109.719360352,34.142402649 L12.191040039,34.142402649 L12.191040039,34.142402649 L12.191040039,34.142402649 L12.191040039,34.142402649 L12.191040039,34.142402649 L12.191040039,34.142402649 C8.959069252,34.142456055 5.856142998,32.85723877 3.570756197,30.571929932 L3.570756197,30.571929932 C1.285369277,28.286617279 0.000053108,25.183734894 -0.000000536,21.951763153 L-0.000000536,21.951763153 C0,21.951627731 -0.000000536,21.95149231 0,21.951356888 L0,21.951356888 L0,21.951358795 L0,21.951358795 L0,12.191040039 L0,12.191040039 L0,12.191040039 L0,12.191040039 C-0.000053108,8.959068298 1.285160542,5.856142998 3.570472479,3.570756197 L3.570472479,3.570756197 C5.855783463,1.285369873 8.958666801,0.000053108 12.190638542,0 L12.190638542,0 C12.19077301,0.000000536 12.190906525,0 12.191040039,0 L12.191040039,0 L12.191040039,0 L12.191040039,0 L12.191040039,0 Z" stroke="#000000" stroke-width="0.75" stroke-linecap="round" fill="#FFFFFF" fill-rule="evenodd"/>
     <g transform="matrix(1,0,0,1,0,0)">
      <text x="50.559692" y="6" class="TextStyle0" fill="#000000" opacity="1" transform="matrix(1,0,0,-1,0,20.0712)">Local</text>
     </g>
    </g>
    <g transform="matrix(1,0,0,1,330.7518,1794.4696)" v:mID="149">
     <title>Rounded Rectangle.34</title>
     <userDefs>
      <ud nameU="CTypeTopLeftSnip" val="0"/>
      <ud nameU="CTypeTopRightSnip" val="0"/>
      <ud nameU="CTypeBotLeftSnip" val="0"/>
      <ud nameU="CTypeBotRightSnip" val="0"/>
      <ud nameU="CornerLockHoriz" val="1"/>
      <ud nameU="CornerLockVert" val="1"/>
      <ud nameU="CornerLockDiag" val="0"/>
      <ud nameU="TopLeftOffset" val="0.16932"/>
      <ud nameU="TopRightOffset" val="0.16932"/>
      <ud nameU="BotLeftOffset" val="0.16932"/>
      <ud nameU="BotRightOffset" val="0.16932"/>
      <ud nameU="visVersion" val="15"/>
     </userDefs>
     <path d="M12.191040039,0 L109.719360352,0 L109.719360352,0 L109.719360352,0 L109.719360352,0 L109.719360352,0 L109.719360352,0 C112.951332092,-0.000053644 116.054260254,1.285159588 118.339645386,3.570470095 L118.339645386,3.570470095 C120.625030518,5.855780602 121.910346985,8.95866394 121.91040802,12.190634727 L121.91040802,12.190634727 C121.91040802,12.190771103 121.91040802,12.190907478 121.91040802,12.191043854 L121.91040802,12.191043854 L121.910400391,12.191040039 L121.910400391,12.191040039 L121.910400391,21.951358795 L121.910400391,21.951358795 L121.91040802,21.951356888 L121.91040802,21.951356888 C121.910461426,25.183328629 120.625244141,28.286254883 118.339935303,30.571641922 L118.339935303,30.571641922 C116.054626465,32.857028961 112.95174408,34.142345428 109.719772339,34.142402649 L109.719772339,34.142402649 C109.71963501,34.142402649 109.719497681,34.142402649 109.719360352,34.142402649 L109.719360352,34.142402649 L109.719360352,34.142402649 L109.719360352,34.142402649 L109.719360352,34.142402649 L109.719360352,34.142402649 L12.191040039,34.142402649 L12.191040039,34.142402649 L12.191040039,34.142402649 L12.191040039,34.142402649 L12.191040039,34.142402649 L12.191040039,34.142402649 C8.959069252,34.142456055 5.856142998,32.85723877 3.570756197,30.571929932 L3.570756197,30.571929932 C1.285369277,28.286617279 0.000053108,25.183734894 -0.000000536,21.951763153 L-0.000000536,21.951763153 C0,21.951627731 -0.000000536,21.95149231 0,21.951356888 L0,21.951356888 L0,21.951358795 L0,21.951358795 L0,12.191040039 L0,12.191040039 L0,12.191040039 L0,12.191040039 C-0.000053108,8.959068298 1.285160542,5.856142998 3.570472479,3.570756197 L3.570472479,3.570756197 C5.855783463,1.285369873 8.958666801,0.000053108 12.190638542,0 L12.190638542,0 C12.19077301,0.000000536 12.190906525,0 12.191040039,0 L12.191040039,0 L12.191040039,0 L12.191040039,0 L12.191040039,0 Z" stroke="#000000" stroke-width="0.75" stroke-linecap="round" fill="#FFFFFF" fill-rule="evenodd"/>
     <g transform="matrix(1,0,0,1,0,0)">
      <text x="45.66223" y="6" class="TextStyle0" fill="#000000" opacity="1" transform="matrix(1,0,0,-1,0,20.0712)">Foreign</text>
     </g>
    </g>
    <g transform="matrix(1,0,0,1,325.4562,1869.2164)" v:mID="150">
     <title>Dynamic connector.35</title>
     <path d="M-72.010795593,-43.484401703 L-66.250801086,-40.604400635 L-72.010795593,-37.724399567 Z" stroke="#000000" stroke-width="0.2376378" fill="#000000" fill-rule="evenodd" transform="matrix(-0,-1,1,0,-25.6464,-106.8552)"/>
     <path d="M0,0 L0,-13.5 L0,-13.5 L-66.250801086,-13.5 L-66.250801086,-13.5 L-66.250801086,-40.604400635 " stroke="#000000" stroke-width="0.2376378" stroke-linecap="round" fill="none"/>
    </g>
    <g transform="matrix(1,0,0,1,325.4562,1869.2164)" v:mID="151">
     <title>Dynamic connector.36</title>
     <path d="M60.49079895,-43.484401703 L66.250801086,-40.604400635 L60.49079895,-37.724399567 Z" stroke="#000000" stroke-width="0.2376378" fill="#000000" fill-rule="evenodd" transform="matrix(-0,-1,1,0,106.8552,25.6464)"/>
     <path d="M0,0 L0,-13.5 L0,-13.5 L66.250801086,-13.5 L66.250801086,-13.5 L66.250801086,-40.604400635 " stroke="#000000" stroke-width="0.2376378" stroke-linecap="round" fill="none"/>
    </g>
    <g transform="matrix(1,0,0,1,198.24658,1648.9269)" v:mID="152">
     <title>Rounded Rectangle.57</title>
     <userDefs>
      <ud nameU="CTypeTopLeftSnip" val="0"/>
      <ud nameU="CTypeTopRightSnip" val="0"/>
      <ud nameU="CTypeBotLeftSnip" val="0"/>
      <ud nameU="CTypeBotRightSnip" val="0"/>
      <ud nameU="CornerLockHoriz" val="1"/>
      <ud nameU="CornerLockVert" val="1"/>
      <ud nameU="CornerLockDiag" val="0"/>
      <ud nameU="TopLeftOffset" val="0.16932"/>
      <ud nameU="TopRightOffset" val="0.16932"/>
      <ud nameU="BotLeftOffset" val="0.16932"/>
      <ud nameU="BotRightOffset" val="0.16932"/>
      <ud nameU="visVersion" val="15"/>
     </userDefs>
     <path d="M12.191040039,0 L109.719360352,0 L109.719360352,0 L109.719360352,0 L109.719360352,0 L109.719360352,0 L109.719360352,0 C112.951332092,-0.000053644 116.054260254,1.285159588 118.339645386,3.570470095 L118.339645386,3.570470095 C120.625030518,5.855780602 121.910346985,8.95866394 121.91040802,12.190634727 L121.91040802,12.190634727 C121.91040802,12.190771103 121.91040802,12.190907478 121.91040802,12.191043854 L121.91040802,12.191043854 L121.910400391,12.191040039 L121.910400391,12.191040039 L121.910400391,92.777755737 L121.910400391,92.777755737 L121.91040802,92.777763367 L121.91040802,92.777763367 C121.910461426,96.009735107 120.625236511,99.112663269 118.339927673,101.398048401 L118.339927673,101.398048401 C116.054611206,103.683441162 112.951728821,104.96875 109.71975708,104.968803406 L109.71975708,104.968803406 C109.71962738,104.968803406 109.719497681,104.968803406 109.71937561,104.968803406 L109.71937561,104.968803406 L109.719360352,104.968803406 L109.719360352,104.968803406 L109.719360352,104.968803406 L109.719360352,104.968803406 L12.191040039,104.968803406 L12.191040039,104.968803406 L12.191040039,104.968803406 L12.191040039,104.968803406 L12.191038132,104.968803406 L12.191038132,104.968803406 C8.959064484,104.968856812 5.856137753,103.683631897 3.57075119,101.398323059 L3.57075119,101.398323059 C1.285364389,99.113006592 0.000049889,96.010124207 -0.000001073,92.778152466 L-0.000001073,92.778152466 C-0.000001073,92.778015137 -0.000000536,92.777885437 -0.000001073,92.777755737 L-0.000001073,92.777755737 L0,92.777755737 L0,92.777755737 L0,12.191040039 L0,12.191040039 L0,12.191040039 L0,12.191040039 C-0.000053108,8.959068298 1.285160542,5.856142998 3.570472479,3.570756197 L3.570472479,3.570756197 C5.855783463,1.285369873 8.958666801,0.000053108 12.190638542,0 L12.190638542,0 C12.19077301,0.000000536 12.190906525,0 12.191040039,0 L12.191040039,0 L12.191040039,0 L12.191040039,0 L12.191040039,0 Z" stroke="#000000" stroke-width="0.75" stroke-linecap="round" fill="#FFFFFF" fill-rule="evenodd"/>
     <g transform="matrix(1,0,0,1,0,0)">
      <text x="4.6221876" y="-12" class="TextStyle0" fill="#000000" opacity="1" transform="matrix(1,0,0,-1,0,55.4844)">Tangan (2024) "Compulsion</text>
      <text x="5.4718" y="0" class="TextStyle0" fill="#000000" opacity="1" transform="matrix(1,0,0,-1,0,55.4844)">Loops, Intrinsic Motivation,</text>
      <text x="15.601194" y="11.999999" class="TextStyle0" fill="#000000" opacity="1" transform="matrix(1,0,0,-1,0,55.4844)">and Filipino Identity in</text>
      <text x="30.89172" y="24" class="TextStyle0" fill="#000000" opacity="1" transform="matrix(1,0,0,-1,0,55.4844)">Digital Games"</text>
     </g>
    </g>
    <g transform="matrix(1,0,0,1,330.741,1648.8981)" v:mID="153">
     <title>Rounded Rectangle.58</title>
     <userDefs>
      <ud nameU="CTypeTopLeftSnip" val="0"/>
      <ud nameU="CTypeTopRightSnip" val="0"/>
      <ud nameU="CTypeBotLeftSnip" val="0"/>
      <ud nameU="CTypeBotRightSnip" val="0"/>
      <ud nameU="CornerLockHoriz" val="1"/>
      <ud nameU="CornerLockVert" val="1"/>
      <ud nameU="CornerLockDiag" val="0"/>
      <ud nameU="TopLeftOffset" val="0.16932"/>
      <ud nameU="TopRightOffset" val="0.16932"/>
      <ud nameU="BotLeftOffset" val="0.16932"/>
      <ud nameU="BotRightOffset" val="0.16932"/>
      <ud nameU="visVersion" val="15"/>
     </userDefs>
     <path d="M12.191040039,0 L109.719360352,0 L109.719360352,0 L109.719360352,0 L109.719360352,0 L109.719360352,0 L109.719360352,0 C112.951332092,-0.000053644 116.054260254,1.285159588 118.339645386,3.570470095 L118.339645386,3.570470095 C120.625030518,5.855780602 121.910346985,8.95866394 121.91040802,12.190634727 L121.91040802,12.190634727 C121.91040802,12.190771103 121.91040802,12.190907478 121.91040802,12.191043854 L121.91040802,12.191043854 L121.910400391,12.191040039 L121.910400391,12.191040039 L121.910400391,92.777755737 L121.910400391,92.777755737 L121.91040802,92.777763367 L121.91040802,92.777763367 C121.910461426,96.009735107 120.625236511,99.112663269 118.339927673,101.398048401 L118.339927673,101.398048401 C116.054611206,103.683441162 112.951728821,104.96875 109.71975708,104.968803406 L109.71975708,104.968803406 C109.71962738,104.968803406 109.719497681,104.968803406 109.71937561,104.968803406 L109.71937561,104.968803406 L109.719360352,104.968803406 L109.719360352,104.968803406 L109.719360352,104.968803406 L109.719360352,104.968803406 L12.191040039,104.968803406 L12.191040039,104.968803406 L12.191040039,104.968803406 L12.191040039,104.968803406 L12.191038132,104.968803406 L12.191038132,104.968803406 C8.959064484,104.968856812 5.856137753,103.683631897 3.57075119,101.398323059 L3.57075119,101.398323059 C1.285364389,99.113006592 0.000049889,96.010124207 -0.000001073,92.778152466 L-0.000001073,92.778152466 C-0.000001073,92.778015137 -0.000000536,92.777885437 -0.000001073,92.777755737 L-0.000001073,92.777755737 L0,92.777755737 L0,92.777755737 L0,12.191040039 L0,12.191040039 L0,12.191040039 L0,12.191040039 C-0.000053108,8.959068298 1.285160542,5.856142998 3.570472479,3.570756197 L3.570472479,3.570756197 C5.855783463,1.285369873 8.958666801,0.000053108 12.190638542,0 L12.190638542,0 C12.19077301,0.000000536 12.190906525,0 12.191040039,0 L12.191040039,0 L12.191040039,0 L12.191040039,0 L12.191040039,0 Z" stroke="#000000" stroke-width="0.75" stroke-linecap="round" fill="#FFFFFF" fill-rule="evenodd"/>
     <g transform="matrix(1,0,0,1,0,0)">
      <text x="15.261837" y="-12" class="TextStyle0" fill="#000000" opacity="1" transform="matrix(1,0,0,-1,0,55.4844)">Zainuddin et al. (2020)</text>
      <text x="24.03381" y="0" class="TextStyle0" fill="#000000" opacity="1" transform="matrix(1,0,0,-1,0,55.4844)">"Serious Games in</text>
      <text x="14.089965" y="11.999999" class="TextStyle0" fill="#000000" opacity="1" transform="matrix(1,0,0,-1,0,55.4844)">Education: A Literature</text>
      <text x="44.280396" y="24" class="TextStyle0" fill="#000000" opacity="1" transform="matrix(1,0,0,-1,0,55.4844)">Review"</text>
     </g>
    </g>
    <g transform="matrix(1,0,0,1,268.2036,1794.4694)" v:mID="154">
     <title>Dynamic connector.64</title>
     <path d="M-14.761800766,-43.453804016 L-9.001800537,-40.573802948 L-14.761800766,-37.69380188 Z" stroke="#000000" stroke-width="0.2376378" fill="#000000" fill-rule="evenodd" transform="matrix(-0,-1,1,0,31.572002,-49.575603)"/>
     <path d="M-8.998200417,0 L-8.998200417,-13.5 L-8.998200417,-13.5 L-9.001800537,-13.5 L-9.001800537,-13.5 L-9.001800537,-40.573802948 " stroke="#000000" stroke-width="0.2376378" stroke-linecap="round" fill="none"/>
    </g>
    <g transform="matrix(1,0,0,1,400.7016,1794.4695)" v:mID="155">
     <title>Dynamic connector.65</title>
     <path d="M-14.765399933,-43.48260498 L-9.005399704,-40.602600098 L-14.765399933,-37.72259903 Z" stroke="#000000" stroke-width="0.2376378" fill="#000000" fill-rule="evenodd" transform="matrix(-0,-1,1,0,31.5972,-49.608)"/>
     <path d="M-8.994600296,0 L-8.994600296,-13.5 L-8.994600296,-13.5 L-9.005399704,-13.5 L-9.005399704,-13.5 L-9.005399704,-40.602600098 " stroke="#000000" stroke-width="0.2376378" stroke-linecap="round" fill="none"/>
    </g>
    <g transform="matrix(1,0,0,1,198.23941,1503.3861)" v:mID="156">
     <title>Rounded Rectangle.100</title>
     <userDefs>
      <ud nameU="CTypeTopLeftSnip" val="0"/>
      <ud nameU="CTypeTopRightSnip" val="0"/>
      <ud nameU="CTypeBotLeftSnip" val="0"/>
      <ud nameU="CTypeBotRightSnip" val="0"/>
      <ud nameU="CornerLockHoriz" val="1"/>
      <ud nameU="CornerLockVert" val="1"/>
      <ud nameU="CornerLockDiag" val="0"/>
      <ud nameU="TopLeftOffset" val="0.16932"/>
      <ud nameU="TopRightOffset" val="0.16932"/>
      <ud nameU="BotLeftOffset" val="0.16932"/>
      <ud nameU="BotRightOffset" val="0.16932"/>
      <ud nameU="visVersion" val="15"/>
     </userDefs>
     <path d="M12.191040039,0 L109.719360352,0 L109.719360352,0 L109.719360352,0 L109.719360352,0 L109.719360352,0 L109.719360352,0 C112.951332092,-0.000053644 116.054260254,1.285159588 118.339645386,3.570470095 L118.339645386,3.570470095 C120.625030518,5.855780602 121.910346985,8.95866394 121.91040802,12.190634727 L121.91040802,12.190634727 C121.91040802,12.190771103 121.91040802,12.190907478 121.91040802,12.191043854 L121.91040802,12.191043854 L121.910400391,12.191040039 L121.910400391,12.191040039 L121.910400391,92.777755737 L121.910400391,92.777755737 L121.91040802,92.777763367 L121.91040802,92.777763367 C121.910461426,96.009735107 120.625236511,99.112663269 118.339927673,101.398048401 L118.339927673,101.398048401 C116.054611206,103.683441162 112.951728821,104.96875 109.71975708,104.968803406 L109.71975708,104.968803406 C109.71962738,104.968803406 109.719497681,104.968803406 109.71937561,104.968803406 L109.71937561,104.968803406 L109.719360352,104.968803406 L109.719360352,104.968803406 L109.719360352,104.968803406 L109.719360352,104.968803406 L12.191040039,104.968803406 L12.191040039,104.968803406 L12.191040039,104.968803406 L12.191040039,104.968803406 L12.191038132,104.968803406 L12.191038132,104.968803406 C8.959064484,104.968856812 5.856137753,103.683631897 3.57075119,101.398323059 L3.57075119,101.398323059 C1.285364389,99.113006592 0.000049889,96.010124207 -0.000001073,92.778152466 L-0.000001073,92.778152466 C-0.000001073,92.778015137 -0.000000536,92.777885437 -0.000001073,92.777755737 L-0.000001073,92.777755737 L0,92.777755737 L0,92.777755737 L0,12.191040039 L0,12.191040039 L0,12.191040039 L0,12.191040039 C-0.000053108,8.959068298 1.285160542,5.856142998 3.570472479,3.570756197 L3.570472479,3.570756197 C5.855783463,1.285369873 8.958666801,0.000053108 12.190638542,0 L12.190638542,0 C12.19077301,0.000000536 12.190906525,0 12.191040039,0 L12.191040039,0 L12.191040039,0 L12.191040039,0 L12.191040039,0 Z" stroke="#000000" stroke-width="0.75" stroke-linecap="round" fill="#FFFFFF" fill-rule="evenodd"/>
     <g transform="matrix(1,0,0,1,0,0)">
      <text x="4.6221876" y="-12" class="TextStyle0" fill="#000000" opacity="1" transform="matrix(1,0,0,-1,0,55.4844)">Tangan (2024) "Compulsion</text>
      <text x="5.4718" y="0" class="TextStyle0" fill="#000000" opacity="1" transform="matrix(1,0,0,-1,0,55.4844)">Loops, Intrinsic Motivation,</text>
      <text x="15.601194" y="11.999999" class="TextStyle0" fill="#000000" opacity="1" transform="matrix(1,0,0,-1,0,55.4844)">and Filipino Identity in</text>
      <text x="30.89172" y="24" class="TextStyle0" fill="#000000" opacity="1" transform="matrix(1,0,0,-1,0,55.4844)">Digital Games"</text>
     </g>
    </g>
    <g transform="matrix(1,0,0,1,198.23941,1357.8452)" v:mID="157">
     <title>Rounded Rectangle.101</title>
     <userDefs>
      <ud nameU="CTypeTopLeftSnip" val="0"/>
      <ud nameU="CTypeTopRightSnip" val="0"/>
      <ud nameU="CTypeBotLeftSnip" val="0"/>
      <ud nameU="CTypeBotRightSnip" val="0"/>
      <ud nameU="CornerLockHoriz" val="1"/>
      <ud nameU="CornerLockVert" val="1"/>
      <ud nameU="CornerLockDiag" val="0"/>
      <ud nameU="TopLeftOffset" val="0.16932"/>
      <ud nameU="TopRightOffset" val="0.16932"/>
      <ud nameU="BotLeftOffset" val="0.16932"/>
      <ud nameU="BotRightOffset" val="0.16932"/>
      <ud nameU="visVersion" val="15"/>
     </userDefs>
     <path d="M12.191040039,0 L109.719360352,0 L109.719360352,0 L109.719360352,0 L109.719360352,0 L109.719360352,0 L109.719360352,0 C112.951332092,-0.000053644 116.054260254,1.285159588 118.339645386,3.570470095 L118.339645386,3.570470095 C120.625030518,5.855780602 121.910346985,8.95866394 121.91040802,12.190634727 L121.91040802,12.190634727 C121.91040802,12.190771103 121.91040802,12.190907478 121.91040802,12.191043854 L121.91040802,12.191043854 L121.910400391,12.191040039 L121.910400391,12.191040039 L121.910400391,92.777755737 L121.910400391,92.777755737 L121.91040802,92.777763367 L121.91040802,92.777763367 C121.910461426,96.009735107 120.625236511,99.112663269 118.339927673,101.398048401 L118.339927673,101.398048401 C116.054611206,103.683441162 112.951728821,104.96875 109.71975708,104.968803406 L109.71975708,104.968803406 C109.71962738,104.968803406 109.719497681,104.968803406 109.71937561,104.968803406 L109.71937561,104.968803406 L109.719360352,104.968803406 L109.719360352,104.968803406 L109.719360352,104.968803406 L109.719360352,104.968803406 L12.191040039,104.968803406 L12.191040039,104.968803406 L12.191040039,104.968803406 L12.191040039,104.968803406 L12.191038132,104.968803406 L12.191038132,104.968803406 C8.959064484,104.968856812 5.856137753,103.683631897 3.57075119,101.398323059 L3.57075119,101.398323059 C1.285364389,99.113006592 0.000049889,96.010124207 -0.000001073,92.778152466 L-0.000001073,92.778152466 C-0.000001073,92.778015137 -0.000000536,92.777885437 -0.000001073,92.777755737 L-0.000001073,92.777755737 L0,92.777755737 L0,92.777755737 L0,12.191040039 L0,12.191040039 L0,12.191040039 L0,12.191040039 C-0.000053108,8.959068298 1.285160542,5.856142998 3.570472479,3.570756197 L3.570472479,3.570756197 C5.855783463,1.285369873 8.958666801,0.000053108 12.190638542,0 L12.190638542,0 C12.19077301,0.000000536 12.190906525,0 12.191040039,0 L12.191040039,0 L12.191040039,0 L12.191040039,0 L12.191040039,0 Z" stroke="#000000" stroke-width="0.75" stroke-linecap="round" fill="#FFFFFF" fill-rule="evenodd"/>
     <g transform="matrix(1,0,0,1,0,0)">
      <text x="4.6221876" y="-12" class="TextStyle0" fill="#000000" opacity="1" transform="matrix(1,0,0,-1,0,55.4844)">Tangan (2024) "Compulsion</text>
      <text x="5.4718" y="0" class="TextStyle0" fill="#000000" opacity="1" transform="matrix(1,0,0,-1,0,55.4844)">Loops, Intrinsic Motivation,</text>
      <text x="15.601194" y="11.999999" class="TextStyle0" fill="#000000" opacity="1" transform="matrix(1,0,0,-1,0,55.4844)">and Filipino Identity in</text>
      <text x="30.89172" y="24" class="TextStyle0" fill="#000000" opacity="1" transform="matrix(1,0,0,-1,0,55.4844)">Digital Games"</text>
     </g>
    </g>
    <g transform="matrix(1,0,0,1,198.23941,1212.3118)" v:mID="158">
     <title>Rounded Rectangle.102</title>
     <userDefs>
      <ud nameU="CTypeTopLeftSnip" val="0"/>
      <ud nameU="CTypeTopRightSnip" val="0"/>
      <ud nameU="CTypeBotLeftSnip" val="0"/>
      <ud nameU="CTypeBotRightSnip" val="0"/>
      <ud nameU="CornerLockHoriz" val="1"/>
      <ud nameU="CornerLockVert" val="1"/>
      <ud nameU="CornerLockDiag" val="0"/>
      <ud nameU="TopLeftOffset" val="0.16932"/>
      <ud nameU="TopRightOffset" val="0.16932"/>
      <ud nameU="BotLeftOffset" val="0.16932"/>
      <ud nameU="BotRightOffset" val="0.16932"/>
      <ud nameU="visVersion" val="15"/>
     </userDefs>
     <path d="M12.191040039,0 L109.719360352,0 L109.719360352,0 L109.719360352,0 L109.719360352,0 L109.719360352,0 L109.719360352,0 C112.951332092,-0.000053644 116.054260254,1.285159588 118.339645386,3.570470095 L118.339645386,3.570470095 C120.625030518,5.855780602 121.910346985,8.95866394 121.91040802,12.190634727 L121.91040802,12.190634727 C121.91040802,12.190771103 121.91040802,12.190907478 121.91040802,12.191043854 L121.91040802,12.191043854 L121.910400391,12.191040039 L121.910400391,12.191040039 L121.910400391,92.777755737 L121.910400391,92.777755737 L121.91040802,92.777763367 L121.91040802,92.777763367 C121.910461426,96.009735107 120.625236511,99.112663269 118.339927673,101.398048401 L118.339927673,101.398048401 C116.054611206,103.683441162 112.951728821,104.96875 109.71975708,104.968803406 L109.71975708,104.968803406 C109.71962738,104.968803406 109.719497681,104.968803406 109.71937561,104.968803406 L109.71937561,104.968803406 L109.719360352,104.968803406 L109.719360352,104.968803406 L109.719360352,104.968803406 L109.719360352,104.968803406 L12.191040039,104.968803406 L12.191040039,104.968803406 L12.191040039,104.968803406 L12.191040039,104.968803406 L12.191038132,104.968803406 L12.191038132,104.968803406 C8.959064484,104.968856812 5.856137753,103.683631897 3.57075119,101.398323059 L3.57075119,101.398323059 C1.285364389,99.113006592 0.000049889,96.010124207 -0.000001073,92.778152466 L-0.000001073,92.778152466 C-0.000001073,92.778015137 -0.000000536,92.777885437 -0.000001073,92.777755737 L-0.000001073,92.777755737 L0,92.777755737 L0,92.777755737 L0,12.191040039 L0,12.191040039 L0,12.191040039 L0,12.191040039 C-0.000053108,8.959068298 1.285160542,5.856142998 3.570472479,3.570756197 L3.570472479,3.570756197 C5.855783463,1.285369873 8.958666801,0.000053108 12.190638542,0 L12.190638542,0 C12.19077301,0.000000536 12.190906525,0 12.191040039,0 L12.191040039,0 L12.191040039,0 L12.191040039,0 L12.191040039,0 Z" stroke="#000000" stroke-width="0.75" stroke-linecap="round" fill="#FFFFFF" fill-rule="evenodd"/>
     <g transform="matrix(1,0,0,1,0,0)">
      <text x="9.785762" y="-24" class="TextStyle0" fill="#000000" opacity="1" transform="matrix(1,0,0,-1,0,55.4844)">Kagan Folktales Research</text>
      <text x="4.697873" y="-12" class="TextStyle0" fill="#000000" opacity="1" transform="matrix(1,0,0,-1,0,55.4844)">Team (2024) "An Anthology</text>
      <text x="6.9024644" y="-1.0728836E-06" class="TextStyle0" fill="#000000" opacity="1" transform="matrix(1,0,0,-1,0,55.4844)">of Oral Literature from the</text>
      <text x="24.69299" y="11.999999" class="TextStyle0" fill="#000000" opacity="1" transform="matrix(1,0,0,-1,0,55.4844)">Wilderness of Mt.</text>
      <text x="7.6153526" y="24" class="TextStyle0" fill="#000000" opacity="1" transform="matrix(1,0,0,-1,0,55.4844)">Hamiguitan, Philippines: A</text>
      <text x="24.453732" y="36" class="TextStyle0" fill="#000000" opacity="1" transform="matrix(1,0,0,-1,0,55.4844)">Narrative Inquiry"</text>
     </g>
    </g>
    <g transform="matrix(1,0,0,1,198.23218,1066.6198)" v:mID="159">
     <title>Rounded Rectangle.103</title>
     <userDefs>
      <ud nameU="CTypeTopLeftSnip" val="0"/>
      <ud nameU="CTypeTopRightSnip" val="0"/>
      <ud nameU="CTypeBotLeftSnip" val="0"/>
      <ud nameU="CTypeBotRightSnip" val="0"/>
      <ud nameU="CornerLockHoriz" val="1"/>
      <ud nameU="CornerLockVert" val="1"/>
      <ud nameU="CornerLockDiag" val="0"/>
      <ud nameU="TopLeftOffset" val="0.16932"/>
      <ud nameU="TopRightOffset" val="0.16932"/>
      <ud nameU="BotLeftOffset" val="0.16932"/>
      <ud nameU="BotRightOffset" val="0.16932"/>
      <ud nameU="visVersion" val="15"/>
     </userDefs>
     <path d="M12.191040039,0 L109.719360352,0 L109.719360352,0 L109.719360352,0 L109.719360352,0 L109.719360352,0 L109.719360352,0 C112.951332092,-0.000053644 116.054260254,1.285159588 118.339645386,3.570470095 L118.339645386,3.570470095 C120.625030518,5.855780602 121.910346985,8.95866394 121.91040802,12.190634727 L121.91040802,12.190634727 C121.91040802,12.190771103 121.91040802,12.190907478 121.91040802,12.191043854 L121.91040802,12.191043854 L121.910400391,12.191040039 L121.910400391,12.191040039 L121.910400391,92.777755737 L121.910400391,92.777755737 L121.91040802,92.777763367 L121.91040802,92.777763367 C121.910461426,96.009735107 120.625236511,99.112663269 118.339927673,101.398048401 L118.339927673,101.398048401 C116.054611206,103.683441162 112.951728821,104.96875 109.71975708,104.968803406 L109.71975708,104.968803406 C109.71962738,104.968803406 109.719497681,104.968803406 109.71937561,104.968803406 L109.71937561,104.968803406 L109.719360352,104.968803406 L109.719360352,104.968803406 L109.719360352,104.968803406 L109.719360352,104.968803406 L12.191040039,104.968803406 L12.191040039,104.968803406 L12.191040039,104.968803406 L12.191040039,104.968803406 L12.191038132,104.968803406 L12.191038132,104.968803406 C8.959064484,104.968856812 5.856137753,103.683631897 3.57075119,101.398323059 L3.57075119,101.398323059 C1.285364389,99.113006592 0.000049889,96.010124207 -0.000001073,92.778152466 L-0.000001073,92.778152466 C-0.000001073,92.778015137 -0.000000536,92.777885437 -0.000001073,92.777755737 L-0.000001073,92.777755737 L0,92.777755737 L0,92.777755737 L0,12.191040039 L0,12.191040039 L0,12.191040039 L0,12.191040039 C-0.000053108,8.959068298 1.285160542,5.856142998 3.570472479,3.570756197 L3.570472479,3.570756197 C5.855783463,1.285369873 8.958666801,0.000053108 12.190638542,0 L12.190638542,0 C12.19077301,0.000000536 12.190906525,0 12.191040039,0 L12.191040039,0 L12.191040039,0 L12.191040039,0 L12.191040039,0 Z" stroke="#000000" stroke-width="0.75" stroke-linecap="round" fill="#FFFFFF" fill-rule="evenodd"/>
     <g transform="matrix(1,0,0,1,0,0)">
      <text x="16.450802" y="-24" class="TextStyle0" fill="#000000" opacity="1" transform="matrix(1,0,0,-1,0,55.4844)">Garcia et al. (2023) "A</text>
      <text x="8.359981" y="-12" class="TextStyle0" fill="#000000" opacity="1" transform="matrix(1,0,0,-1,0,55.4844)">Profound Exploration into</text>
      <text x="11.548458" y="-1.0728836E-06" class="TextStyle0" fill="#000000" opacity="1" transform="matrix(1,0,0,-1,0,55.4844)">the Synthesis of Cultural</text>
      <text x="17.432251" y="11.999999" class="TextStyle0" fill="#000000" opacity="1" transform="matrix(1,0,0,-1,0,55.4844)">Mythology and Video</text>
      <text x="11.463009" y="24" class="TextStyle0" fill="#000000" opacity="1" transform="matrix(1,0,0,-1,0,55.4844)">Gaming: The Creation of</text>
      <text x="6.4801" y="36" class="TextStyle0" fill="#000000" opacity="1" transform="matrix(1,0,0,-1,0,55.4844)">'Anito: Battle of the Gods'"</text>
     </g>
    </g>
    <g transform="matrix(1,0,0,1,198.225,921.0933)" v:mID="160">
     <title>Rounded Rectangle.104</title>
     <userDefs>
      <ud nameU="CTypeTopLeftSnip" val="0"/>
      <ud nameU="CTypeTopRightSnip" val="0"/>
      <ud nameU="CTypeBotLeftSnip" val="0"/>
      <ud nameU="CTypeBotRightSnip" val="0"/>
      <ud nameU="CornerLockHoriz" val="1"/>
      <ud nameU="CornerLockVert" val="1"/>
      <ud nameU="CornerLockDiag" val="0"/>
      <ud nameU="TopLeftOffset" val="0.16932"/>
      <ud nameU="TopRightOffset" val="0.16932"/>
      <ud nameU="BotLeftOffset" val="0.16932"/>
      <ud nameU="BotRightOffset" val="0.16932"/>
      <ud nameU="visVersion" val="15"/>
     </userDefs>
     <path d="M12.191040039,0 L109.719360352,0 L109.719360352,0 L109.719360352,0 L109.719360352,0 L109.719360352,0 L109.719360352,0 C112.951332092,-0.000053644 116.054260254,1.285159588 118.339645386,3.570470095 L118.339645386,3.570470095 C120.625030518,5.855780602 121.910346985,8.95866394 121.91040802,12.190634727 L121.91040802,12.190634727 C121.91040802,12.190771103 121.91040802,12.190907478 121.91040802,12.191043854 L121.91040802,12.191043854 L121.910400391,12.191040039 L121.910400391,12.191040039 L121.910400391,92.777755737 L121.910400391,92.777755737 L121.91040802,92.777763367 L121.91040802,92.777763367 C121.910461426,96.009735107 120.625236511,99.112663269 118.339927673,101.398048401 L118.339927673,101.398048401 C116.054611206,103.683441162 112.951728821,104.96875 109.71975708,104.968803406 L109.71975708,104.968803406 C109.71962738,104.968803406 109.719497681,104.968803406 109.71937561,104.968803406 L109.71937561,104.968803406 L109.719360352,104.968803406 L109.719360352,104.968803406 L109.719360352,104.968803406 L109.719360352,104.968803406 L12.191040039,104.968803406 L12.191040039,104.968803406 L12.191040039,104.968803406 L12.191040039,104.968803406 L12.191038132,104.968803406 L12.191038132,104.968803406 C8.959064484,104.968856812 5.856137753,103.683631897 3.57075119,101.398323059 L3.57075119,101.398323059 C1.285364389,99.113006592 0.000049889,96.010124207 -0.000001073,92.778152466 L-0.000001073,92.778152466 C-0.000001073,92.778015137 -0.000000536,92.777885437 -0.000001073,92.777755737 L-0.000001073,92.777755737 L0,92.777755737 L0,92.777755737 L0,12.191040039 L0,12.191040039 L0,12.191040039 L0,12.191040039 C-0.000053108,8.959068298 1.285160542,5.856142998 3.570472479,3.570756197 L3.570472479,3.570756197 C5.855783463,1.285369873 8.958666801,0.000053108 12.190638542,0 L12.190638542,0 C12.19077301,0.000000536 12.190906525,0 12.191040039,0 L12.191040039,0 L12.191040039,0 L12.191040039,0 L12.191040039,0 Z" stroke="#000000" stroke-width="0.75" stroke-linecap="round" fill="#FFFFFF" fill-rule="evenodd"/>
     <g transform="matrix(1,0,0,1,0,0)">
      <text x="7.573849" y="-24" class="TextStyle0" fill="#000000" opacity="1" transform="matrix(1,0,0,-1,0,55.4844)">Sevidal (2021) "Why Don't</text>
      <text x="20.33752" y="-12" class="TextStyle0" fill="#000000" opacity="1" transform="matrix(1,0,0,-1,0,55.4844)">You Play the Game?</text>
      <text x="17.893677" y="-1.0728836E-06" class="TextStyle0" fill="#000000" opacity="1" transform="matrix(1,0,0,-1,0,55.4844)">Evaluating the Use of</text>
      <text x="23.938593" y="11.999999" class="TextStyle0" fill="#000000" opacity="1" transform="matrix(1,0,0,-1,0,55.4844)">Gamification in an</text>
      <text x="13.132931" y="24" class="TextStyle0" fill="#000000" opacity="1" transform="matrix(1,0,0,-1,0,55.4844)">Undergraduate Finance</text>
      <text x="44.834595" y="36" class="TextStyle0" fill="#000000" opacity="1" transform="matrix(1,0,0,-1,0,55.4844)">Course"</text>
     </g>
    </g>
    <g transform="matrix(1,0,0,1,198.225,775.4013)" v:mID="161">
     <title>Rounded Rectangle.105</title>
     <userDefs>
      <ud nameU="CTypeTopLeftSnip" val="0"/>
      <ud nameU="CTypeTopRightSnip" val="0"/>
      <ud nameU="CTypeBotLeftSnip" val="0"/>
      <ud nameU="CTypeBotRightSnip" val="0"/>
      <ud nameU="CornerLockHoriz" val="1"/>
      <ud nameU="CornerLockVert" val="1"/>
      <ud nameU="CornerLockDiag" val="0"/>
      <ud nameU="TopLeftOffset" val="0.16932"/>
      <ud nameU="TopRightOffset" val="0.16932"/>
      <ud nameU="BotLeftOffset" val="0.16932"/>
      <ud nameU="BotRightOffset" val="0.16932"/>
      <ud nameU="visVersion" val="15"/>
     </userDefs>
     <path d="M12.191040039,0 L109.719360352,0 L109.719360352,0 L109.719360352,0 L109.719360352,0 L109.719360352,0 L109.719360352,0 C112.951332092,-0.000053644 116.054260254,1.285159588 118.339645386,3.570470095 L118.339645386,3.570470095 C120.625030518,5.855780602 121.910346985,8.95866394 121.91040802,12.190634727 L121.91040802,12.190634727 C121.91040802,12.190771103 121.91040802,12.190907478 121.91040802,12.191043854 L121.91040802,12.191043854 L121.910400391,12.191040039 L121.910400391,12.191040039 L121.910400391,92.777755737 L121.910400391,92.777755737 L121.91040802,92.777763367 L121.91040802,92.777763367 C121.910461426,96.009735107 120.625236511,99.112663269 118.339927673,101.398048401 L118.339927673,101.398048401 C116.054611206,103.683441162 112.951728821,104.96875 109.71975708,104.968803406 L109.71975708,104.968803406 C109.71962738,104.968803406 109.719497681,104.968803406 109.71937561,104.968803406 L109.71937561,104.968803406 L109.719360352,104.968803406 L109.719360352,104.968803406 L109.719360352,104.968803406 L109.719360352,104.968803406 L12.191040039,104.968803406 L12.191040039,104.968803406 L12.191040039,104.968803406 L12.191040039,104.968803406 L12.191038132,104.968803406 L12.191038132,104.968803406 C8.959064484,104.968856812 5.856137753,103.683631897 3.57075119,101.398323059 L3.57075119,101.398323059 C1.285364389,99.113006592 0.000049889,96.010124207 -0.000001073,92.778152466 L-0.000001073,92.778152466 C-0.000001073,92.778015137 -0.000000536,92.777885437 -0.000001073,92.777755737 L-0.000001073,92.777755737 L0,92.777755737 L0,92.777755737 L0,12.191040039 L0,12.191040039 L0,12.191040039 L0,12.191040039 C-0.000053108,8.959068298 1.285160542,5.856142998 3.570472479,3.570756197 L3.570472479,3.570756197 C5.855783463,1.285369873 8.958666801,0.000053108 12.190638542,0 L12.190638542,0 C12.19077301,0.000000536 12.190906525,0 12.191040039,0 L12.191040039,0 L12.191040039,0 L12.191040039,0 L12.191040039,0 Z" stroke="#000000" stroke-width="0.75" stroke-linecap="round" fill="#FFFFFF" fill-rule="evenodd"/>
     <g transform="matrix(1,0,0,1,0,0)">
      <text x="11.524043" y="-6" class="TextStyle0" fill="#000000" opacity="1" transform="matrix(1,0,0,-1,0,55.4844)">Lopez (2024) "Philippine</text>
      <text x="4.685668" y="6" class="TextStyle0" fill="#000000" opacity="1" transform="matrix(1,0,0,-1,0,55.4844)">Television: Content, Values,</text>
      <text x="17.666624" y="18" class="TextStyle0" fill="#000000" opacity="1" transform="matrix(1,0,0,-1,0,55.4844)">and Social Hierarchy"</text>
     </g>
    </g>
    <g transform="matrix(1,0,0,1,198.225,629.70215)" v:mID="162">
     <title>Rounded Rectangle.106</title>
     <userDefs>
      <ud nameU="CTypeTopLeftSnip" val="0"/>
      <ud nameU="CTypeTopRightSnip" val="0"/>
      <ud nameU="CTypeBotLeftSnip" val="0"/>
      <ud nameU="CTypeBotRightSnip" val="0"/>
      <ud nameU="CornerLockHoriz" val="1"/>
      <ud nameU="CornerLockVert" val="1"/>
      <ud nameU="CornerLockDiag" val="0"/>
      <ud nameU="TopLeftOffset" val="0.16932"/>
      <ud nameU="TopRightOffset" val="0.16932"/>
      <ud nameU="BotLeftOffset" val="0.16932"/>
      <ud nameU="BotRightOffset" val="0.16932"/>
      <ud nameU="visVersion" val="15"/>
     </userDefs>
     <path d="M12.191040039,0 L109.719360352,0 L109.719360352,0 L109.719360352,0 L109.719360352,0 L109.719360352,0 L109.719360352,0 C112.951332092,-0.000053644 116.054260254,1.285159588 118.339645386,3.570470095 L118.339645386,3.570470095 C120.625030518,5.855780602 121.910346985,8.95866394 121.91040802,12.190634727 L121.91040802,12.190634727 C121.91040802,12.190771103 121.91040802,12.190907478 121.91040802,12.191043854 L121.91040802,12.191043854 L121.910400391,12.191040039 L121.910400391,12.191040039 L121.910400391,92.777755737 L121.910400391,92.777755737 L121.91040802,92.777763367 L121.91040802,92.777763367 C121.910461426,96.009735107 120.625236511,99.112663269 118.339927673,101.398048401 L118.339927673,101.398048401 C116.054611206,103.683441162 112.951728821,104.96875 109.71975708,104.968803406 L109.71975708,104.968803406 C109.71962738,104.968803406 109.719497681,104.968803406 109.71937561,104.968803406 L109.71937561,104.968803406 L109.719360352,104.968803406 L109.719360352,104.968803406 L109.719360352,104.968803406 L109.719360352,104.968803406 L12.191040039,104.968803406 L12.191040039,104.968803406 L12.191040039,104.968803406 L12.191040039,104.968803406 L12.191038132,104.968803406 L12.191038132,104.968803406 C8.959064484,104.968856812 5.856137753,103.683631897 3.57075119,101.398323059 L3.57075119,101.398323059 C1.285364389,99.113006592 0.000049889,96.010124207 -0.000001073,92.778152466 L-0.000001073,92.778152466 C-0.000001073,92.778015137 -0.000000536,92.777885437 -0.000001073,92.777755737 L-0.000001073,92.777755737 L0,92.777755737 L0,92.777755737 L0,12.191040039 L0,12.191040039 L0,12.191040039 L0,12.191040039 C-0.000053108,8.959068298 1.285160542,5.856142998 3.570472479,3.570756197 L3.570472479,3.570756197 C5.855783463,1.285369873 8.958666801,0.000053108 12.190638542,0 L12.190638542,0 C12.19077301,0.000000536 12.190906525,0 12.191040039,0 L12.191040039,0 L12.191040039,0 L12.191040039,0 L12.191040039,0 Z" stroke="#000000" stroke-width="0.75" stroke-linecap="round" fill="#FFFFFF" fill-rule="evenodd"/>
     <g transform="matrix(1,0,0,1,0,0)">
      <text x="14.080197" y="-18" class="TextStyle0" fill="#000000" opacity="1" transform="matrix(1,0,0,-1,0,55.4844)">Cabañes &amp; Luna (2023)</text>
      <text x="13.543086" y="-6" class="TextStyle0" fill="#000000" opacity="1" transform="matrix(1,0,0,-1,0,55.4844)">"Digital media research</text>
      <text x="13.701778" y="5.999999" class="TextStyle0" fill="#000000" opacity="1" transform="matrix(1,0,0,-1,0,55.4844)">from beyond the West:</text>
      <text x="6.497189" y="18" class="TextStyle0" fill="#000000" opacity="1" transform="matrix(1,0,0,-1,0,55.4844)">theoretical directions from</text>
      <text x="7.7008014" y="30.000002" class="TextStyle0" fill="#000000" opacity="1" transform="matrix(1,0,0,-1,0,55.4844)">Philippine-based journals"</text>
     </g>
    </g>
    <g transform="matrix(1,0,0,1,198.2178,484.0029)" v:mID="163">
     <title>Rounded Rectangle.107</title>
     <userDefs>
      <ud nameU="CTypeTopLeftSnip" val="0"/>
      <ud nameU="CTypeTopRightSnip" val="0"/>
      <ud nameU="CTypeBotLeftSnip" val="0"/>
      <ud nameU="CTypeBotRightSnip" val="0"/>
      <ud nameU="CornerLockHoriz" val="1"/>
      <ud nameU="CornerLockVert" val="1"/>
      <ud nameU="CornerLockDiag" val="0"/>
      <ud nameU="TopLeftOffset" val="0.16932"/>
      <ud nameU="TopRightOffset" val="0.16932"/>
      <ud nameU="BotLeftOffset" val="0.16932"/>
      <ud nameU="BotRightOffset" val="0.16932"/>
      <ud nameU="visVersion" val="15"/>
     </userDefs>
     <path d="M12.191040039,0 L109.719360352,0 L109.719360352,0 L109.719360352,0 L109.719360352,0 L109.719360352,0 L109.719360352,0 C112.951332092,-0.000053644 116.054260254,1.285159588 118.339645386,3.570470095 L118.339645386,3.570470095 C120.625030518,5.855780602 121.910346985,8.95866394 121.91040802,12.190634727 L121.91040802,12.190634727 C121.91040802,12.190771103 121.91040802,12.190907478 121.91040802,12.191043854 L121.91040802,12.191043854 L121.910400391,12.191040039 L121.910400391,12.191040039 L121.910400391,92.777755737 L121.910400391,92.777755737 L121.91040802,92.777763367 L121.91040802,92.777763367 C121.910461426,96.009735107 120.625236511,99.112663269 118.339927673,101.398048401 L118.339927673,101.398048401 C116.054611206,103.683441162 112.951728821,104.96875 109.71975708,104.968803406 L109.71975708,104.968803406 C109.71962738,104.968803406 109.719497681,104.968803406 109.71937561,104.968803406 L109.71937561,104.968803406 L109.719360352,104.968803406 L109.719360352,104.968803406 L109.719360352,104.968803406 L109.719360352,104.968803406 L12.191040039,104.968803406 L12.191040039,104.968803406 L12.191040039,104.968803406 L12.191040039,104.968803406 L12.191038132,104.968803406 L12.191038132,104.968803406 C8.959064484,104.968856812 5.856137753,103.683631897 3.57075119,101.398323059 L3.57075119,101.398323059 C1.285364389,99.113006592 0.000049889,96.010124207 -0.000001073,92.778152466 L-0.000001073,92.778152466 C-0.000001073,92.778015137 -0.000000536,92.777885437 -0.000001073,92.777755737 L-0.000001073,92.777755737 L0,92.777755737 L0,92.777755737 L0,12.191040039 L0,12.191040039 L0,12.191040039 L0,12.191040039 C-0.000053108,8.959068298 1.285160542,5.856142998 3.570472479,3.570756197 L3.570472479,3.570756197 C5.855783463,1.285369873 8.958666801,0.000053108 12.190638542,0 L12.190638542,0 C12.19077301,0.000000536 12.190906525,0 12.191040039,0 L12.191040039,0 L12.191040039,0 L12.191040039,0 L12.191040039,0 Z" stroke="#000000" stroke-width="0.75" stroke-linecap="round" fill="#FFFFFF" fill-rule="evenodd"/>
     <g transform="matrix(1,0,0,1,0,0)">
      <text x="8.350218" y="-24" class="TextStyle0" fill="#000000" opacity="1" transform="matrix(1,0,0,-1,0,55.4844)">San Luis (2024) "Exploring</text>
      <text x="15.015254" y="-12" class="TextStyle0" fill="#000000" opacity="1" transform="matrix(1,0,0,-1,0,55.4844)">identity formation and</text>
      <text x="8.018186" y="-1.0728836E-06" class="TextStyle0" fill="#000000" opacity="1" transform="matrix(1,0,0,-1,0,55.4844)">communication of Filipino</text>
      <text x="16.736446" y="11.999999" class="TextStyle0" fill="#000000" opacity="1" transform="matrix(1,0,0,-1,0,55.4844)">gamers in multiplayer</text>
      <text x="32.28088" y="24" class="TextStyle0" fill="#000000" opacity="1" transform="matrix(1,0,0,-1,0,55.4844)">online gaming</text>
      <text x="32.639767" y="36" class="TextStyle0" fill="#000000" opacity="1" transform="matrix(1,0,0,-1,0,55.4844)">environment"</text>
     </g>
    </g>
    <g transform="matrix(1,0,0,1,198.2178,338.30368)" v:mID="164">
     <title>Rounded Rectangle.108</title>
     <userDefs>
      <ud nameU="CTypeTopLeftSnip" val="0"/>
      <ud nameU="CTypeTopRightSnip" val="0"/>
      <ud nameU="CTypeBotLeftSnip" val="0"/>
      <ud nameU="CTypeBotRightSnip" val="0"/>
      <ud nameU="CornerLockHoriz" val="1"/>
      <ud nameU="CornerLockVert" val="1"/>
      <ud nameU="CornerLockDiag" val="0"/>
      <ud nameU="TopLeftOffset" val="0.16932"/>
      <ud nameU="TopRightOffset" val="0.16932"/>
      <ud nameU="BotLeftOffset" val="0.16932"/>
      <ud nameU="BotRightOffset" val="0.16932"/>
      <ud nameU="visVersion" val="15"/>
     </userDefs>
     <path d="M12.191040039,0 L109.719360352,0 L109.719360352,0 L109.719360352,0 L109.719360352,0 L109.719360352,0 L109.719360352,0 C112.951332092,-0.000053644 116.054260254,1.285159588 118.339645386,3.570470095 L118.339645386,3.570470095 C120.625030518,5.855780602 121.910346985,8.95866394 121.91040802,12.190634727 L121.91040802,12.190634727 C121.91040802,12.190771103 121.91040802,12.190907478 121.91040802,12.191043854 L121.91040802,12.191043854 L121.910400391,12.191040039 L121.910400391,12.191040039 L121.910400391,92.777755737 L121.910400391,92.777755737 L121.91040802,92.777763367 L121.91040802,92.777763367 C121.910461426,96.009735107 120.625236511,99.112663269 118.339927673,101.398048401 L118.339927673,101.398048401 C116.054611206,103.683441162 112.951728821,104.96875 109.71975708,104.968803406 L109.71975708,104.968803406 C109.71962738,104.968803406 109.719497681,104.968803406 109.71937561,104.968803406 L109.71937561,104.968803406 L109.719360352,104.968803406 L109.719360352,104.968803406 L109.719360352,104.968803406 L109.719360352,104.968803406 L12.191040039,104.968803406 L12.191040039,104.968803406 L12.191040039,104.968803406 L12.191040039,104.968803406 L12.191038132,104.968803406 L12.191038132,104.968803406 C8.959064484,104.968856812 5.856137753,103.683631897 3.57075119,101.398323059 L3.57075119,101.398323059 C1.285364389,99.113006592 0.000049889,96.010124207 -0.000001073,92.778152466 L-0.000001073,92.778152466 C-0.000001073,92.778015137 -0.000000536,92.777885437 -0.000001073,92.777755737 L-0.000001073,92.777755737 L0,92.777755737 L0,92.777755737 L0,12.191040039 L0,12.191040039 L0,12.191040039 L0,12.191040039 C-0.000053108,8.959068298 1.285160542,5.856142998 3.570472479,3.570756197 L3.570472479,3.570756197 C5.855783463,1.285369873 8.958666801,0.000053108 12.190638542,0 L12.190638542,0 C12.19077301,0.000000536 12.190906525,0 12.191040039,0 L12.191040039,0 L12.191040039,0 L12.191040039,0 L12.191040039,0 Z" stroke="#000000" stroke-width="0.75" stroke-linecap="round" fill="#FFFFFF" fill-rule="evenodd"/>
     <g transform="matrix(1,0,0,1,0,0)">
      <text x="15.47668" y="-12" class="TextStyle0" fill="#000000" opacity="1" transform="matrix(1,0,0,-1,0,55.4844)">Plaridel Journal (2024)</text>
      <text x="4.4122286" y="0" class="TextStyle0" fill="#000000" opacity="1" transform="matrix(1,0,0,-1,0,55.4844)">"Filipino Gamers' Identity in</text>
      <text x="16.9635" y="11.999999" class="TextStyle0" fill="#000000" opacity="1" transform="matrix(1,0,0,-1,0,55.4844)">Virtual Subcultures: A</text>
      <text x="14.043577" y="24" class="TextStyle0" fill="#000000" opacity="1" transform="matrix(1,0,0,-1,0,55.4844)">Communication Study"</text>
     </g>
    </g>
    <g transform="matrix(1,0,0,1,268.19818,1648.9269)" v:mID="165">
     <title>Dynamic connector.109</title>
     <path d="M-14.763599396,-43.451999664 L-9.003599167,-40.571998596 L-14.763599396,-37.691997528 Z" stroke="#000000" stroke-width="0.2376378" fill="#000000" fill-rule="evenodd" transform="matrix(-0,-1,1,0,31.5684,-49.5756)"/>
     <path d="M-8.996399879,0 L-8.996399879,-13.5 L-8.996399879,-13.5 L-9.003599167,-13.5 L-9.003599167,-13.5 L-9.003599167,-40.571998596 " stroke="#000000" stroke-width="0.2376378" stroke-linecap="round" fill="none"/>
    </g>
    <g transform="matrix(1,0,0,1,250.19461,1503.3861)" v:mID="166">
     <title>Dynamic connector.110</title>
     <path d="M3.239999533,-43.452003479 L9,-40.572002411 L3.239999533,-37.692001343 Z" stroke="#000000" stroke-width="0.2376378" fill="#000000" fill-rule="evenodd" transform="matrix(-0,-1,1,0,49.572002,-31.572002)"/>
     <path d="M9,0 L9,-40.572002411 " stroke="#000000" stroke-width="0.2376378" stroke-linecap="round" fill="none"/>
    </g>
    <g transform="matrix(1,0,0,1,250.19461,1357.8453)" v:mID="167">
     <title>Dynamic connector.111</title>
     <path d="M3.239999533,-43.444801331 L9,-40.564796448 L3.239999533,-37.68479538 Z" stroke="#000000" stroke-width="0.2376378" fill="#000000" fill-rule="evenodd" transform="matrix(-0,-1,1,0,49.564796,-31.564796)"/>
     <path d="M9,0 L9,-40.564796448 " stroke="#000000" stroke-width="0.2376378" stroke-linecap="round" fill="none"/>
    </g>
    <g transform="matrix(1,0,0,1,268.191,1212.3118)" v:mID="168">
     <title>Dynamic connector.112</title>
     <path d="M-14.763599396,-43.603199005 L-9.003599167,-40.723197937 L-14.763599396,-37.843196869 Z" stroke="#000000" stroke-width="0.2376378" fill="#000000" fill-rule="evenodd" transform="matrix(-0,-1,1,0,31.719599,-49.7268)"/>
     <path d="M-8.996400833,0 L-8.996400833,-13.5 L-8.996400833,-13.5 L-9.003599167,-13.5 L-9.003599167,-13.5 L-9.003599167,-40.723197937 " stroke="#000000" stroke-width="0.2376378" stroke-linecap="round" fill="none"/>
    </g>
    <g transform="matrix(1,0,0,1,268.1838,1066.6198)" v:mID="169">
     <title>Dynamic connector.113</title>
     <path d="M-14.763601303,-43.437602997 L-9.003601074,-40.557601929 L-14.763601303,-37.677600861 Z" stroke="#000000" stroke-width="0.2376378" fill="#000000" fill-rule="evenodd" transform="matrix(-0,-1,1,0,31.554,-49.561203)"/>
     <path d="M-8.996398926,0 L-8.996398926,-13.5 L-8.996398926,-13.5 L-9.003601074,-13.5 L-9.003601074,-13.5 L-9.003601074,-40.557601929 " stroke="#000000" stroke-width="0.2376378" stroke-linecap="round" fill="none"/>
    </g>
    <g transform="matrix(1,0,0,1,250.1802,921.09326)" v:mID="170">
     <title>Dynamic connector.114</title>
     <path d="M3.239999533,-43.603199005 L9,-40.723197937 L3.239999533,-37.843196869 Z" stroke="#000000" stroke-width="0.2376378" fill="#000000" fill-rule="evenodd" transform="matrix(-0,-1,1,0,49.723198,-31.723198)"/>
     <path d="M9,0 L9,-40.723197937 " stroke="#000000" stroke-width="0.2376378" stroke-linecap="round" fill="none"/>
    </g>
    <g transform="matrix(1,0,0,1,250.1802,775.40125)" v:mID="171">
     <title>Dynamic connector.115</title>
     <path d="M3.239999533,-43.610401154 L9,-40.730400085 L3.239999533,-37.850399017 Z" stroke="#000000" stroke-width="0.2376378" fill="#000000" fill-rule="evenodd" transform="matrix(-0,-1,1,0,49.7304,-31.7304)"/>
     <path d="M8.999999046,0 L9,-40.730400085 " stroke="#000000" stroke-width="0.2376378" stroke-linecap="round" fill="none"/>
    </g>
    <g transform="matrix(1,0,0,1,268.1766,629.7021)" v:mID="172">
     <title>Dynamic connector.116</title>
     <path d="M-14.763601303,-43.610401154 L-9.003601074,-40.730400085 L-14.763601303,-37.850399017 Z" stroke="#000000" stroke-width="0.2376378" fill="#000000" fill-rule="evenodd" transform="matrix(-0,-1,1,0,31.726799,-49.734)"/>
     <path d="M-8.996398926,0 L-8.996398926,-13.5 L-8.996398926,-13.5 L-9.003601074,-13.5 L-9.003601074,-13.5 L-9.003601074,-40.730400085 " stroke="#000000" stroke-width="0.2376378" stroke-linecap="round" fill="none"/>
    </g>
    <g transform="matrix(1,0,0,1,250.173,484.0029)" v:mID="173">
     <title>Dynamic connector.117</title>
     <path d="M3.239999533,-43.610401154 L9,-40.730400085 L3.239999533,-37.850399017 Z" stroke="#000000" stroke-width="0.2376378" fill="#000000" fill-rule="evenodd" transform="matrix(-0,-1,1,0,49.7304,-31.7304)"/>
     <path d="M9,0 L9,-40.730400085 " stroke="#000000" stroke-width="0.2376378" stroke-linecap="round" fill="none"/>
    </g>
    <g transform="matrix(1,0,0,1,330.74817,1503.3213)" v:mID="174">
     <title>Rounded Rectangle.118</title>
     <userDefs>
      <ud nameU="CTypeTopLeftSnip" val="0"/>
      <ud nameU="CTypeTopRightSnip" val="0"/>
      <ud nameU="CTypeBotLeftSnip" val="0"/>
      <ud nameU="CTypeBotRightSnip" val="0"/>
      <ud nameU="CornerLockHoriz" val="1"/>
      <ud nameU="CornerLockVert" val="1"/>
      <ud nameU="CornerLockDiag" val="0"/>
      <ud nameU="TopLeftOffset" val="0.16932"/>
      <ud nameU="TopRightOffset" val="0.16932"/>
      <ud nameU="BotLeftOffset" val="0.16932"/>
      <ud nameU="BotRightOffset" val="0.16932"/>
      <ud nameU="visVersion" val="15"/>
     </userDefs>
     <path d="M12.191040039,0 L109.719360352,0 L109.719360352,0 L109.719360352,0 L109.719360352,0 L109.719360352,0 L109.719360352,0 C112.951332092,-0.000053644 116.054260254,1.285159588 118.339645386,3.570470095 L118.339645386,3.570470095 C120.625030518,5.855780602 121.910346985,8.95866394 121.91040802,12.190634727 L121.91040802,12.190634727 C121.91040802,12.190771103 121.91040802,12.190907478 121.91040802,12.191043854 L121.91040802,12.191043854 L121.910400391,12.191040039 L121.910400391,12.191040039 L121.910400391,92.777755737 L121.910400391,92.777755737 L121.91040802,92.777763367 L121.91040802,92.777763367 C121.910461426,96.009735107 120.625236511,99.112663269 118.339927673,101.398048401 L118.339927673,101.398048401 C116.054611206,103.683441162 112.951728821,104.96875 109.71975708,104.968803406 L109.71975708,104.968803406 C109.71962738,104.968803406 109.719497681,104.968803406 109.71937561,104.968803406 L109.71937561,104.968803406 L109.719360352,104.968803406 L109.719360352,104.968803406 L109.719360352,104.968803406 L109.719360352,104.968803406 L12.191040039,104.968803406 L12.191040039,104.968803406 L12.191040039,104.968803406 L12.191040039,104.968803406 L12.191038132,104.968803406 L12.191038132,104.968803406 C8.959064484,104.968856812 5.856137753,103.683631897 3.57075119,101.398323059 L3.57075119,101.398323059 C1.285364389,99.113006592 0.000049889,96.010124207 -0.000001073,92.778152466 L-0.000001073,92.778152466 C-0.000001073,92.778015137 -0.000000536,92.777885437 -0.000001073,92.777755737 L-0.000001073,92.777755737 L0,92.777755737 L0,92.777755737 L0,12.191040039 L0,12.191040039 L0,12.191040039 L0,12.191040039 C-0.000053108,8.959068298 1.285160542,5.856142998 3.570472479,3.570756197 L3.570472479,3.570756197 C5.855783463,1.285369873 8.958666801,0.000053108 12.190638542,0 L12.190638542,0 C12.19077301,0.000000536 12.190906525,0 12.191040039,0 L12.191040039,0 L12.191040039,0 L12.191040039,0 L12.191040039,0 Z" stroke="#000000" stroke-width="0.75" stroke-linecap="round" fill="#FFFFFF" fill-rule="evenodd"/>
     <g transform="matrix(1,0,0,1,0,0)">
      <text x="12.092891" y="-24" class="TextStyle0" fill="#000000" opacity="1" transform="matrix(1,0,0,-1,0,55.4844)">Shliakhovchuk &amp; Muñoz</text>
      <text x="5.30334" y="-12" class="TextStyle0" fill="#000000" opacity="1" transform="matrix(1,0,0,-1,0,55.4844)">García (2020) "Intercultural</text>
      <text x="10.57434" y="-1.0728836E-06" class="TextStyle0" fill="#000000" opacity="1" transform="matrix(1,0,0,-1,0,55.4844)">perspective on impact of</text>
      <text x="12.00012" y="11.999999" class="TextStyle0" fill="#000000" opacity="1" transform="matrix(1,0,0,-1,0,55.4844)">video games on players:</text>
      <text x="8.005977" y="24" class="TextStyle0" fill="#000000" opacity="1" transform="matrix(1,0,0,-1,0,55.4844)">Insights from a systematic</text>
      <text x="5.435176" y="36" class="TextStyle0" fill="#000000" opacity="1" transform="matrix(1,0,0,-1,0,55.4844)">review of recent literature"</text>
     </g>
    </g>
    <g transform="matrix(1,0,0,1,330.74817,1357.7445)" v:mID="175">
     <title>Rounded Rectangle.119</title>
     <userDefs>
      <ud nameU="CTypeTopLeftSnip" val="0"/>
      <ud nameU="CTypeTopRightSnip" val="0"/>
      <ud nameU="CTypeBotLeftSnip" val="0"/>
      <ud nameU="CTypeBotRightSnip" val="0"/>
      <ud nameU="CornerLockHoriz" val="1"/>
      <ud nameU="CornerLockVert" val="1"/>
      <ud nameU="CornerLockDiag" val="0"/>
      <ud nameU="TopLeftOffset" val="0.16932"/>
      <ud nameU="TopRightOffset" val="0.16932"/>
      <ud nameU="BotLeftOffset" val="0.16932"/>
      <ud nameU="BotRightOffset" val="0.16932"/>
      <ud nameU="visVersion" val="15"/>
     </userDefs>
     <path d="M12.191040039,0 L109.719360352,0 L109.719360352,0 L109.719360352,0 L109.719360352,0 L109.719360352,0 L109.719360352,0 C112.951332092,-0.000053644 116.054260254,1.285159588 118.339645386,3.570470095 L118.339645386,3.570470095 C120.625030518,5.855780602 121.910346985,8.95866394 121.91040802,12.190634727 L121.91040802,12.190634727 C121.91040802,12.190771103 121.91040802,12.190907478 121.91040802,12.191043854 L121.91040802,12.191043854 L121.910400391,12.191040039 L121.910400391,12.191040039 L121.910400391,92.777755737 L121.910400391,92.777755737 L121.91040802,92.777763367 L121.91040802,92.777763367 C121.910461426,96.009735107 120.625236511,99.112663269 118.339927673,101.398048401 L118.339927673,101.398048401 C116.054611206,103.683441162 112.951728821,104.96875 109.71975708,104.968803406 L109.71975708,104.968803406 C109.71962738,104.968803406 109.719497681,104.968803406 109.71937561,104.968803406 L109.71937561,104.968803406 L109.719360352,104.968803406 L109.719360352,104.968803406 L109.719360352,104.968803406 L109.719360352,104.968803406 L12.191040039,104.968803406 L12.191040039,104.968803406 L12.191040039,104.968803406 L12.191040039,104.968803406 L12.191038132,104.968803406 L12.191038132,104.968803406 C8.959064484,104.968856812 5.856137753,103.683631897 3.57075119,101.398323059 L3.57075119,101.398323059 C1.285364389,99.113006592 0.000049889,96.010124207 -0.000001073,92.778152466 L-0.000001073,92.778152466 C-0.000001073,92.778015137 -0.000000536,92.777885437 -0.000001073,92.777755737 L-0.000001073,92.777755737 L0,92.777755737 L0,92.777755737 L0,12.191040039 L0,12.191040039 L0,12.191040039 L0,12.191040039 C-0.000053108,8.959068298 1.285160542,5.856142998 3.570472479,3.570756197 L3.570472479,3.570756197 C5.855783463,1.285369873 8.958666801,0.000053108 12.190638542,0 L12.190638542,0 C12.19077301,0.000000536 12.190906525,0 12.191040039,0 L12.191040039,0 L12.191040039,0 L12.191040039,0 L12.191040039,0 Z" stroke="#000000" stroke-width="0.75" stroke-linecap="round" fill="#FFFFFF" fill-rule="evenodd"/>
     <g transform="matrix(1,0,0,1,0,0)">
      <text x="10.239866" y="-6" class="TextStyle0" fill="#000000" opacity="1" transform="matrix(1,0,0,-1,0,55.4844)">Jäger (2021) "Gaming for</text>
      <text x="26.314083" y="6" class="TextStyle0" fill="#000000" opacity="1" transform="matrix(1,0,0,-1,0,55.4844)">Fun: Realism and</text>
      <text x="4.260862" y="18" class="TextStyle0" fill="#000000" opacity="1" transform="matrix(1,0,0,-1,0,55.4844)">Immersion in Game Design"</text>
     </g>
    </g>
    <g transform="matrix(1,0,0,1,382.69983,1648.898)" v:mID="176">
     <title>Dynamic connector.120</title>
     <path d="M3.243599176,-43.488002777 L9.003599167,-40.608001709 L3.243599176,-37.728000641 Z" stroke="#000000" stroke-width="0.2376378" fill="#000000" fill-rule="evenodd" transform="matrix(-0,-1,1,0,49.611603,-31.604403)"/>
     <path d="M8.996399879,0 L8.996399879,-13.5 L8.996399879,-13.5 L9.003599167,-13.5 L9.003599167,-13.5 L9.003599167,-40.608001709 " stroke="#000000" stroke-width="0.2376378" stroke-linecap="round" fill="none"/>
    </g>
    <g transform="matrix(1,0,0,1,382.70337,1503.3212)" v:mID="177">
     <title>Dynamic connector.121</title>
     <path d="M3.239999533,-43.488002777 L9,-40.608001709 L3.239999533,-37.728000641 Z" stroke="#000000" stroke-width="0.2376378" fill="#000000" fill-rule="evenodd" transform="matrix(-0,-1,1,0,49.608,-31.608002)"/>
     <path d="M9,0 L9,-40.608001709 " stroke="#000000" stroke-width="0.2376378" stroke-linecap="round" fill="none"/>
    </g>
   </g>
  </g>
 </g>
 <style type="text/css"><![CDATA[ .TextStyle0 {font-family:Calibri;font-size:10px;} ]]></style>
</svg>