<svg xmlns="http://www.w3.org/2000/svg" xmlns:v="http://schemas.microsoft.com/visio/2003/SVGExtensions/" xmlns:xlink="http://www.w3.org/1999/xlink" xml:space="preserve" viewBox="268.42 127.59 255.16 1319.59">
 <v:documentProperties>
  <v:userDefs>
   <v:ud v:nameU="msvNoAutoConnect" v:val="1"/>
   <v:ud v:nameU="msvWarnOnPersonalInfo" v:val="0"/>
  </v:userDefs>
 </v:documentProperties>
 <g id="SFixTitle"/>
 <g id="SContent">
  <g>
   <g transform="matrix(1,0,0,-1,0,1764)">
    <g transform="matrix(1,0,0,1,268.794,1564.0377)" v:mID="10">
     <title>Rounded Rectangle.3</title>
     <userDefs>
      <ud nameU="CTypeTopLeftSnip" val="0"/>
      <ud nameU="CTypeTopRightSnip" val="0"/>
      <ud nameU="CTypeBotLeftSnip" val="0"/>
      <ud nameU="CTypeBotRightSnip" val="0"/>
      <ud nameU="CornerLockHoriz" val="1"/>
      <ud nameU="CornerLockVert" val="1"/>
      <ud nameU="CornerLockDiag" val="0"/>
      <ud nameU="TopLeftOffset" val="0.35335"/>
      <ud nameU="TopRightOffset" val="0.35335"/>
      <ud nameU="BotLeftOffset" val="0.35335"/>
      <ud nameU="BotRightOffset" val="0.35335"/>
      <ud nameU="visVersion" val="15"/>
     </userDefs>
     <g transform="matrix(1,0,0,1,0,0)" v:mID="10">
      <title>Rounded Rectangle.3</title>
      <userDefs>
       <ud nameU="CTypeTopLeftSnip" val="0"/>
       <ud nameU="CTypeTopRightSnip" val="0"/>
       <ud nameU="CTypeBotLeftSnip" val="0"/>
       <ud nameU="CTypeBotRightSnip" val="0"/>
       <ud nameU="CornerLockHoriz" val="1"/>
       <ud nameU="CornerLockVert" val="1"/>
       <ud nameU="CornerLockDiag" val="0"/>
       <ud nameU="TopLeftOffset" val="0.35335"/>
       <ud nameU="TopRightOffset" val="0.35335"/>
       <ud nameU="BotLeftOffset" val="0.35335"/>
       <ud nameU="BotRightOffset" val="0.35335"/>
       <ud nameU="visVersion" val="15"/>
      </userDefs>
      <path d="M25.441200256,0 L228.970794678,0 L228.970794678,0 L228.970794678,0 L228.970794678,0 L228.970794678,0.000001073 L228.970794678,0.000001073 C235.715530396,-0.000107288 242.190948486,2.68198061 246.960266113,7.451146603 L246.960266113,7.451146603 C251.72958374,12.220313072 254.411880493,18.695648193 254.411987305,25.440376282 L254.411987305,25.440376282 C254.411987305,25.440662384 254.411987305,25.440944672 254.411987305,25.441228867 L254.411987305,25.441228867 L254.412002563,25.441200256 L254.412002563,25.441200256 L254.412002563,46.558799744 L254.412002563,46.558799744 L254.411987305,46.5587883 L254.411987305,46.5587883 C254.412094116,53.303512573 251.730026245,59.778938293 246.960861206,64.54826355 L246.960861206,64.54826355 C242.191696167,69.317581177 235.716369629,71.999885559 228.97164917,72 L228.97164917,72 C228.971374512,72 228.971069336,72 228.970794678,72 L228.970794678,72 L228.970794678,72 L228.970794678,72 L228.970794678,72 L228.970794678,72 L25.441200256,72 L25.441200256,72 L25.441200256,72 L25.441200256,72 L25.441198349,72 L25.441198349,72 C18.696472168,72.000114441 12.221047401,69.318023682 7.45172739,64.548858643 L7.45172739,64.548858643 C2.682407379,59.779697418 0.000110507,53.304359436 0.000001073,46.559635162 L0.000001073,46.559635162 C0.000001073,46.559356689 0.000001073,46.559074402 0.000002146,46.558795929 L0.000002146,46.558795929 L0,46.558799744 L0,46.558799744 L0,25.441200256 L0,25.441200256 L0,25.441200256 L0,25.441200256 C-0.000108361,18.696472168 2.681976318,12.221047401 7.451142311,7.451726913 L7.451142311,7.451726913 C12.22030735,2.682407379 18.695644379,0.000110507 25.440374374,0.000001073 L25.440374374,0.000001073 C25.440649033,0 25.440923691,0.000001073 25.441200256,0 L25.441200256,0 L25.441200256,0 L25.441200256,0 L25.441200256,0 Z" stroke="#000000" stroke-width="0.75" stroke-linecap="round" fill="none" stroke-opacity="0"/>
     </g>
     <path d="M25.441200256,0 L228.970794678,0 L228.970794678,0 L228.970794678,0 L228.970794678,0 L228.970794678,0.000001073 L228.970794678,0.000001073 C235.715530396,-0.000107288 242.190948486,2.68198061 246.960266113,7.451146603 L246.960266113,7.451146603 C251.72958374,12.220313072 254.411880493,18.695648193 254.411987305,25.440376282 L254.411987305,25.440376282 C254.411987305,25.440662384 254.411987305,25.440944672 254.411987305,25.441228867 L254.411987305,25.441228867 L254.412002563,25.441200256 L254.412002563,25.441200256 L254.412002563,46.558799744 L254.412002563,46.558799744 L254.411987305,46.5587883 L254.411987305,46.5587883 C254.412094116,53.303512573 251.730026245,59.778938293 246.960861206,64.54826355 L246.960861206,64.54826355 C242.191696167,69.317581177 235.716369629,71.999885559 228.97164917,72 L228.97164917,72 C228.971374512,72 228.971069336,72 228.970794678,72 L228.970794678,72 L228.970794678,72 L228.970794678,72 L228.970794678,72 L228.970794678,72 L25.441200256,72 L25.441200256,72 L25.441200256,72 L25.441200256,72 L25.441198349,72 L25.441198349,72 C18.696472168,72.000114441 12.221047401,69.318023682 7.45172739,64.548858643 L7.45172739,64.548858643 C2.682407379,59.779697418 0.000110507,53.304359436 0.000001073,46.559635162 L0.000001073,46.559635162 C0.000001073,46.559356689 0.000001073,46.559074402 0.000002146,46.558795929 L0.000002146,46.558795929 L0,46.558799744 L0,46.558799744 L0,25.441200256 L0,25.441200256 L0,25.441200256 L0,25.441200256 C-0.000108361,18.696472168 2.681976318,12.221047401 7.451142311,7.451726913 L7.451142311,7.451726913 C12.22030735,2.682407379 18.695644379,0.000110507 25.440374374,0.000001073 L25.440374374,0.000001073 C25.440649033,0 25.440923691,0.000001073 25.441200256,0 L25.441200256,0 L25.441200256,0 L25.441200256,0 L25.441200256,0 Z" stroke="#000000" stroke-width="0.75" stroke-linecap="round" fill="#FFFFFF" fill-rule="evenodd"/>
     <g transform="matrix(1,0,0,1,0,0)">
      <text x="22.303652" y="0" class="TextStyle0" fill="#000000" opacity="1" transform="matrix(1,0,0,-1,0,39)">MMORPG Design: Engagement, Social Systems, and</text>
      <text x="99.901306" y="12" class="TextStyle0" fill="#000000" opacity="1" transform="matrix(1,0,0,-1,0,39)">Monetization</text>
     </g>
    </g>
    <g transform="matrix(1,0,0,1,268.794,1489.2982)" v:mID="11">
     <title>Rounded Rectangle.11</title>
     <userDefs>
      <ud nameU="CTypeTopLeftSnip" val="0"/>
      <ud nameU="CTypeTopRightSnip" val="0"/>
      <ud nameU="CTypeBotLeftSnip" val="0"/>
      <ud nameU="CTypeBotRightSnip" val="0"/>
      <ud nameU="CornerLockHoriz" val="1"/>
      <ud nameU="CornerLockVert" val="1"/>
      <ud nameU="CornerLockDiag" val="0"/>
      <ud nameU="TopLeftOffset" val="0.16932"/>
      <ud nameU="TopRightOffset" val="0.16932"/>
      <ud nameU="BotLeftOffset" val="0.16932"/>
      <ud nameU="BotRightOffset" val="0.16932"/>
      <ud nameU="visVersion" val="15"/>
     </userDefs>
     <path d="M12.191040039,0 L109.719360352,0 L109.719360352,0 L109.719360352,0 L109.719360352,0 L109.719360352,0 L109.719360352,0 C112.951332092,-0.000053644 116.054260254,1.285159588 118.339645386,3.570470095 L118.339645386,3.570470095 C120.625030518,5.855780602 121.910346985,8.95866394 121.91040802,12.190634727 L121.91040802,12.190634727 C121.91040802,12.190771103 121.91040802,12.190907478 121.91040802,12.191043854 L121.91040802,12.191043854 L121.910400391,12.191040039 L121.910400391,12.191040039 L121.910400391,21.944160461 L121.910400391,21.944160461 L121.91040802,21.944160461 L121.91040802,21.944160461 C121.910461426,25.176132202 120.625244141,28.279056549 118.339927673,30.564443588 L118.339927673,30.564443588 C116.054618835,32.849830627 112.95173645,34.135147095 109.719764709,34.1352005 L109.719764709,34.1352005 C109.71963501,34.1352005 109.719497681,34.1352005 109.719360352,34.1352005 L109.719360352,34.1352005 L109.719360352,34.1352005 L109.719360352,34.1352005 L109.719360352,34.1352005 L109.719360352,34.1352005 L12.191040039,34.1352005 L12.191040039,34.1352005 L12.191040039,34.1352005 L12.191040039,34.1352005 L12.191040993,34.1352005 L12.191040993,34.1352005 C8.959070206,34.135253906 5.856143951,32.850040436 3.570757627,30.564727783 L3.570757627,30.564727783 C1.285370827,28.279418945 0.000053644,25.17653656 0,21.944564819 L0,21.944564819 C-0.000000536,21.944429398 0,21.944293976 0,21.944160461 L0,21.944160461 L0,21.944160461 L0,21.944160461 L0,12.191040039 L0,12.191040039 L0,12.191040039 L0,12.191040039 C-0.000053108,8.959068298 1.285160542,5.856142998 3.570472479,3.570756197 L3.570472479,3.570756197 C5.855783463,1.285369873 8.958666801,0.000053108 12.190638542,0 L12.190638542,0 C12.19077301,0.000000536 12.190906525,0 12.191040039,0 L12.191040039,0 L12.191040039,0 L12.191040039,0 L12.191040039,0 Z" stroke="#000000" stroke-width="0.75" stroke-linecap="round" fill="#FFFFFF" fill-rule="evenodd"/>
     <g transform="matrix(1,0,0,1,0,0)">
      <text x="50.559692" y="6" class="TextStyle0" fill="#000000" opacity="1" transform="matrix(1,0,0,-1,0,20.067598)">Local</text>
     </g>
    </g>
    <g transform="matrix(1,0,0,1,401.2956,1489.2982)" v:mID="12">
     <title>Rounded Rectangle.13</title>
     <userDefs>
      <ud nameU="CTypeTopLeftSnip" val="0"/>
      <ud nameU="CTypeTopRightSnip" val="0"/>
      <ud nameU="CTypeBotLeftSnip" val="0"/>
      <ud nameU="CTypeBotRightSnip" val="0"/>
      <ud nameU="CornerLockHoriz" val="1"/>
      <ud nameU="CornerLockVert" val="1"/>
      <ud nameU="CornerLockDiag" val="0"/>
      <ud nameU="TopLeftOffset" val="0.16932"/>
      <ud nameU="TopRightOffset" val="0.16932"/>
      <ud nameU="BotLeftOffset" val="0.16932"/>
      <ud nameU="BotRightOffset" val="0.16932"/>
      <ud nameU="visVersion" val="15"/>
     </userDefs>
     <path d="M12.191040039,0 L109.719360352,0 L109.719360352,0 L109.719360352,0 L109.719360352,0 L109.719360352,0 L109.719360352,0 C112.951332092,-0.000053644 116.054260254,1.285159588 118.339645386,3.570470095 L118.339645386,3.570470095 C120.625030518,5.855780602 121.910346985,8.95866394 121.91040802,12.190634727 L121.91040802,12.190634727 C121.91040802,12.190771103 121.91040802,12.190907478 121.91040802,12.191043854 L121.91040802,12.191043854 L121.910400391,12.191040039 L121.910400391,12.191040039 L121.910400391,21.944160461 L121.910400391,21.944160461 L121.91040802,21.944160461 L121.91040802,21.944160461 C121.910461426,25.176132202 120.625244141,28.279056549 118.339927673,30.564443588 L118.339927673,30.564443588 C116.054618835,32.849830627 112.95173645,34.135147095 109.719764709,34.1352005 L109.719764709,34.1352005 C109.71963501,34.1352005 109.719497681,34.1352005 109.719360352,34.1352005 L109.719360352,34.1352005 L109.719360352,34.1352005 L109.719360352,34.1352005 L109.719360352,34.1352005 L109.719360352,34.1352005 L12.191040039,34.1352005 L12.191040039,34.1352005 L12.191040039,34.1352005 L12.191040039,34.1352005 L12.191040993,34.1352005 L12.191040993,34.1352005 C8.959070206,34.135253906 5.856143951,32.850040436 3.570757627,30.564727783 L3.570757627,30.564727783 C1.285370827,28.279418945 0.000053644,25.17653656 0,21.944564819 L0,21.944564819 C-0.000000536,21.944429398 0,21.944293976 0,21.944160461 L0,21.944160461 L0,21.944160461 L0,21.944160461 L0,12.191040039 L0,12.191040039 L0,12.191040039 L0,12.191040039 C-0.000053108,8.959068298 1.285160542,5.856142998 3.570472479,3.570756197 L3.570472479,3.570756197 C5.855783463,1.285369873 8.958666801,0.000053108 12.190638542,0 L12.190638542,0 C12.19077301,0.000000536 12.190906525,0 12.191040039,0 L12.191040039,0 L12.191040039,0 L12.191040039,0 L12.191040039,0 Z" stroke="#000000" stroke-width="0.75" stroke-linecap="round" fill="#FFFFFF" fill-rule="evenodd"/>
     <g transform="matrix(1,0,0,1,0,0)">
      <text x="42.603638" y="7.2000003" class="TextStyle1" fill="#000000" opacity="1" transform="matrix(1,0,0,-1,0,20.6676)">Foreign</text>
     </g>
    </g>
    <g transform="matrix(1,0,0,1,396,1564.0377)" v:mID="13">
     <title>Dynamic connector.13</title>
     <path d="M-72.010795593,-43.484401703 L-66.250801086,-40.604400635 L-72.010795593,-37.724399567 Z" stroke="#000000" stroke-width="0.2376378" fill="#000000" fill-rule="evenodd" transform="matrix(-0,-1,1,0,-25.6464,-106.8552)"/>
     <path d="M0,0 L0,-13.5 L0,-13.5 L-66.250801086,-13.5 L-66.250801086,-13.5 L-66.250801086,-40.604400635 " stroke="#000000" stroke-width="0.2376378" stroke-linecap="round" fill="none"/>
    </g>
    <g transform="matrix(1,0,0,1,396,1564.0377)" v:mID="14">
     <title>Dynamic connector.15</title>
     <path d="M60.49079895,-43.484401703 L66.250801086,-40.604400635 L60.49079895,-37.724399567 Z" stroke="#000000" stroke-width="0.2376378" fill="#000000" fill-rule="evenodd" transform="matrix(-0,-1,1,0,106.8552,25.6464)"/>
     <path d="M0,0 L0,-13.5 L0,-13.5 L66.250801086,-13.5 L66.250801086,-13.5 L66.250801086,-40.604400635 " stroke="#000000" stroke-width="0.2376378" stroke-linecap="round" fill="none"/>
    </g>
    <g transform="matrix(1,0,0,1,268.794,1343.7358)" v:mID="15">
     <title>Rounded Rectangle.50</title>
     <userDefs>
      <ud nameU="CTypeTopLeftSnip" val="0"/>
      <ud nameU="CTypeTopRightSnip" val="0"/>
      <ud nameU="CTypeBotLeftSnip" val="0"/>
      <ud nameU="CTypeBotRightSnip" val="0"/>
      <ud nameU="CornerLockHoriz" val="1"/>
      <ud nameU="CornerLockVert" val="1"/>
      <ud nameU="CornerLockDiag" val="0"/>
      <ud nameU="TopLeftOffset" val="0.16932"/>
      <ud nameU="TopRightOffset" val="0.16932"/>
      <ud nameU="BotLeftOffset" val="0.16932"/>
      <ud nameU="BotRightOffset" val="0.16932"/>
      <ud nameU="visVersion" val="15"/>
     </userDefs>
     <path d="M12.191040039,0 L109.719360352,0 L109.719360352,0 L109.719360352,0 L109.719360352,0 L109.719360352,0 L109.719360352,0 C112.951332092,-0.000053644 116.054260254,1.285159588 118.339645386,3.570470095 L118.339645386,3.570470095 C120.625030518,5.855780602 121.910346985,8.95866394 121.91040802,12.190634727 L121.91040802,12.190634727 C121.91040802,12.190771103 121.91040802,12.190907478 121.91040802,12.191043854 L121.91040802,12.191043854 L121.910400391,12.191040039 L121.910400391,12.191040039 L121.910400391,92.777755737 L121.910400391,92.777755737 L121.91040802,92.777763367 L121.91040802,92.777763367 C121.910461426,96.009735107 120.625236511,99.112663269 118.339927673,101.398048401 L118.339927673,101.398048401 C116.054611206,103.683441162 112.951728821,104.96875 109.71975708,104.968803406 L109.71975708,104.968803406 C109.71962738,104.968803406 109.719497681,104.968803406 109.71937561,104.968803406 L109.71937561,104.968803406 L109.719360352,104.968803406 L109.719360352,104.968803406 L109.719360352,104.968803406 L109.719360352,104.968803406 L12.191040039,104.968803406 L12.191040039,104.968803406 L12.191040039,104.968803406 L12.191040039,104.968803406 L12.191038132,104.968803406 L12.191038132,104.968803406 C8.959064484,104.968856812 5.856137753,103.683631897 3.57075119,101.398323059 L3.57075119,101.398323059 C1.285364389,99.113006592 0.000049889,96.010124207 -0.000001073,92.778152466 L-0.000001073,92.778152466 C-0.000001073,92.778015137 -0.000000536,92.777885437 -0.000001073,92.777755737 L-0.000001073,92.777755737 L0,92.777755737 L0,92.777755737 L0,12.191040039 L0,12.191040039 L0,12.191040039 L0,12.191040039 C-0.000053108,8.959068298 1.285160542,5.856142998 3.570472479,3.570756197 L3.570472479,3.570756197 C5.855783463,1.285369873 8.958666801,0.000053108 12.190638542,0 L12.190638542,0 C12.19077301,0.000000536 12.190906525,0 12.191040039,0 L12.191040039,0 L12.191040039,0 L12.191040039,0 L12.191040039,0 Z" stroke="#000000" stroke-width="0.75" stroke-linecap="round" fill="#FFFFFF" fill-rule="evenodd"/>
     <g transform="matrix(1,0,0,1,0,0)">
      <text x="4.6221876" y="-12" class="TextStyle0" fill="#000000" opacity="1" transform="matrix(1,0,0,-1,0,55.4844)">Tangan (2024) "Compulsion</text>
      <text x="5.4718" y="0" class="TextStyle0" fill="#000000" opacity="1" transform="matrix(1,0,0,-1,0,55.4844)">Loops, Intrinsic Motivation,</text>
      <text x="15.601194" y="11.999999" class="TextStyle0" fill="#000000" opacity="1" transform="matrix(1,0,0,-1,0,55.4844)">and Filipino Identity in</text>
      <text x="30.89172" y="24" class="TextStyle0" fill="#000000" opacity="1" transform="matrix(1,0,0,-1,0,55.4844)">Digital Games"</text>
     </g>
    </g>
    <g transform="matrix(1,0,0,1,320.7492,1489.2981)" v:mID="16">
     <title>Dynamic connector.53</title>
     <path d="M3.239999533,-43.47359848 L9,-40.593597412 L3.239999533,-37.713596344 Z" stroke="#000000" stroke-width="0.2376378" fill="#000000" fill-rule="evenodd" transform="matrix(-0,-1,1,0,49.593597,-31.593597)"/>
     <path d="M9,0 L9,-40.593597412 " stroke="#000000" stroke-width="0.2376378" stroke-linecap="round" fill="none"/>
    </g>
    <g transform="matrix(1,0,0,1,401.2956,1343.7285)" v:mID="17">
     <title>Rounded Rectangle.54</title>
     <userDefs>
      <ud nameU="CTypeTopLeftSnip" val="0"/>
      <ud nameU="CTypeTopRightSnip" val="0"/>
      <ud nameU="CTypeBotLeftSnip" val="0"/>
      <ud nameU="CTypeBotRightSnip" val="0"/>
      <ud nameU="CornerLockHoriz" val="1"/>
      <ud nameU="CornerLockVert" val="1"/>
      <ud nameU="CornerLockDiag" val="0"/>
      <ud nameU="TopLeftOffset" val="0.16932"/>
      <ud nameU="TopRightOffset" val="0.16932"/>
      <ud nameU="BotLeftOffset" val="0.16932"/>
      <ud nameU="BotRightOffset" val="0.16932"/>
      <ud nameU="visVersion" val="15"/>
     </userDefs>
     <path d="M12.191040039,0 L109.719360352,0 L109.719360352,0 L109.719360352,0 L109.719360352,0 L109.719360352,0 L109.719360352,0 C112.951332092,-0.000053644 116.054260254,1.285159588 118.339645386,3.570470095 L118.339645386,3.570470095 C120.625030518,5.855780602 121.910346985,8.95866394 121.91040802,12.190634727 L121.91040802,12.190634727 C121.91040802,12.190771103 121.91040802,12.190907478 121.91040802,12.191043854 L121.91040802,12.191043854 L121.910400391,12.191040039 L121.910400391,12.191040039 L121.910400391,92.777755737 L121.910400391,92.777755737 L121.91040802,92.777763367 L121.91040802,92.777763367 C121.910461426,96.009735107 120.625236511,99.112663269 118.339927673,101.398048401 L118.339927673,101.398048401 C116.054611206,103.683441162 112.951728821,104.96875 109.71975708,104.968803406 L109.71975708,104.968803406 C109.71962738,104.968803406 109.719497681,104.968803406 109.71937561,104.968803406 L109.71937561,104.968803406 L109.719360352,104.968803406 L109.719360352,104.968803406 L109.719360352,104.968803406 L109.719360352,104.968803406 L12.191040039,104.968803406 L12.191040039,104.968803406 L12.191040039,104.968803406 L12.191040039,104.968803406 L12.191038132,104.968803406 L12.191038132,104.968803406 C8.959064484,104.968856812 5.856137753,103.683631897 3.57075119,101.398323059 L3.57075119,101.398323059 C1.285364389,99.113006592 0.000049889,96.010124207 -0.000001073,92.778152466 L-0.000001073,92.778152466 C-0.000001073,92.778015137 -0.000000536,92.777885437 -0.000001073,92.777755737 L-0.000001073,92.777755737 L0,92.777755737 L0,92.777755737 L0,12.191040039 L0,12.191040039 L0,12.191040039 L0,12.191040039 C-0.000053108,8.959068298 1.285160542,5.856142998 3.570472479,3.570756197 L3.570472479,3.570756197 C5.855783463,1.285369873 8.958666801,0.000053108 12.190638542,0 L12.190638542,0 C12.19077301,0.000000536 12.190906525,0 12.191040039,0 L12.191040039,0 L12.191040039,0 L12.191040039,0 L12.191040039,0 Z" stroke="#000000" stroke-width="0.75" stroke-linecap="round" fill="#FFFFFF" fill-rule="evenodd"/>
     <g transform="matrix(1,0,0,1,0,0)">
      <text x="6.3487535" y="-14.400001" class="TextStyle1" fill="#000000" opacity="1" transform="matrix(1,0,0,-1,0,56.084404)">Przybylski et al. (2024)</text>
      <text x="15.187619" y="0" class="TextStyle1" fill="#000000" opacity="1" transform="matrix(1,0,0,-1,0,56.084404)">"Game Theory and</text>
      <text x="11.601682" y="14.400002" class="TextStyle1" fill="#000000" opacity="1" transform="matrix(1,0,0,-1,0,56.084404)">Player Motivation in</text>
      <text x="24.19348" y="28.800001" class="TextStyle1" fill="#000000" opacity="1" transform="matrix(1,0,0,-1,0,56.084404)">Digital Worlds"</text>
     </g>
    </g>
    <g transform="matrix(1,0,0,1,471.2508,1489.2981)" v:mID="18">
     <title>Dynamic connector.61</title>
     <path d="M-14.760001183,-43.480800629 L-9,-40.600799561 L-14.760001183,-37.720798492 Z" stroke="#000000" stroke-width="0.2376378" fill="#000000" fill-rule="evenodd" transform="matrix(-0,-1,1,0,31.6008,-49.6008)"/>
     <path d="M-8.999999046,0 L-9,-40.600799561 " stroke="#000000" stroke-width="0.2376378" stroke-linecap="round" fill="none"/>
    </g>
    <g transform="matrix(1,0,0,1,401.2956,1198.1589)" v:mID="19">
     <title>Rounded Rectangle.69</title>
     <userDefs>
      <ud nameU="CTypeTopLeftSnip" val="0"/>
      <ud nameU="CTypeTopRightSnip" val="0"/>
      <ud nameU="CTypeBotLeftSnip" val="0"/>
      <ud nameU="CTypeBotRightSnip" val="0"/>
      <ud nameU="CornerLockHoriz" val="1"/>
      <ud nameU="CornerLockVert" val="1"/>
      <ud nameU="CornerLockDiag" val="0"/>
      <ud nameU="TopLeftOffset" val="0.16932"/>
      <ud nameU="TopRightOffset" val="0.16932"/>
      <ud nameU="BotLeftOffset" val="0.16932"/>
      <ud nameU="BotRightOffset" val="0.16932"/>
      <ud nameU="visVersion" val="15"/>
     </userDefs>
     <path d="M12.191040039,0 L109.719360352,0 L109.719360352,0 L109.719360352,0 L109.719360352,0 L109.719360352,0 L109.719360352,0 C112.951332092,-0.000053644 116.054260254,1.285159588 118.339645386,3.570470095 L118.339645386,3.570470095 C120.625030518,5.855780602 121.910346985,8.95866394 121.91040802,12.190634727 L121.91040802,12.190634727 C121.91040802,12.190771103 121.91040802,12.190907478 121.91040802,12.191043854 L121.91040802,12.191043854 L121.910400391,12.191040039 L121.910400391,12.191040039 L121.910400391,92.777755737 L121.910400391,92.777755737 L121.91040802,92.777763367 L121.91040802,92.777763367 C121.910461426,96.009735107 120.625236511,99.112663269 118.339927673,101.398048401 L118.339927673,101.398048401 C116.054611206,103.683441162 112.951728821,104.96875 109.71975708,104.968803406 L109.71975708,104.968803406 C109.71962738,104.968803406 109.719497681,104.968803406 109.71937561,104.968803406 L109.71937561,104.968803406 L109.719360352,104.968803406 L109.719360352,104.968803406 L109.719360352,104.968803406 L109.719360352,104.968803406 L12.191040039,104.968803406 L12.191040039,104.968803406 L12.191040039,104.968803406 L12.191040039,104.968803406 L12.191038132,104.968803406 L12.191038132,104.968803406 C8.959064484,104.968856812 5.856137753,103.683631897 3.57075119,101.398323059 L3.57075119,101.398323059 C1.285364389,99.113006592 0.000049889,96.010124207 -0.000001073,92.778152466 L-0.000001073,92.778152466 C-0.000001073,92.778015137 -0.000000536,92.777885437 -0.000001073,92.777755737 L-0.000001073,92.777755737 L0,92.777755737 L0,92.777755737 L0,12.191040039 L0,12.191040039 L0,12.191040039 L0,12.191040039 C-0.000053108,8.959068298 1.285160542,5.856142998 3.570472479,3.570756197 L3.570472479,3.570756197 C5.855783463,1.285369873 8.958666801,0.000053108 12.190638542,0 L12.190638542,0 C12.19077301,0.000000536 12.190906525,0 12.191040039,0 L12.191040039,0 L12.191040039,0 L12.191040039,0 L12.191040039,0 Z" stroke="#000000" stroke-width="0.75" stroke-linecap="round" fill="#FFFFFF" fill-rule="evenodd"/>
     <g transform="matrix(1,0,0,1,0,0)">
      <text x="6.123169" y="-21.6" class="TextStyle1" fill="#000000" opacity="1" transform="matrix(1,0,0,-1,0,56.084404)">Raza et al. (2024) "The</text>
      <text x="10.441525" y="-7.2000003" class="TextStyle1" fill="#000000" opacity="1" transform="matrix(1,0,0,-1,0,56.084404)">Correlation Between</text>
      <text x="13.075317" y="7.2000012" class="TextStyle1" fill="#000000" opacity="1" transform="matrix(1,0,0,-1,0,56.084404)">Intrinsic Motivation</text>
      <text x="5.018674" y="21.6" class="TextStyle1" fill="#000000" opacity="1" transform="matrix(1,0,0,-1,0,56.084404)">and Mental Well-Being</text>
      <text x="11.499144" y="36" class="TextStyle1" fill="#000000" opacity="1" transform="matrix(1,0,0,-1,0,56.084404)">in Mature Students"</text>
     </g>
    </g>
    <g transform="matrix(1,0,0,1,453.2508,1343.7286)" v:mID="20">
     <title>Dynamic connector.70</title>
     <path d="M3.239999533,-43.480800629 L9,-40.600799561 L3.239999533,-37.720798492 Z" stroke="#000000" stroke-width="0.2376378" fill="#000000" fill-rule="evenodd" transform="matrix(-0,-1,1,0,49.6008,-31.6008)"/>
     <path d="M9,0 L9,-40.600799561 " stroke="#000000" stroke-width="0.2376378" stroke-linecap="round" fill="none"/>
    </g>
    <g transform="matrix(1,0,0,1,401.2956,1052.5894)" v:mID="21">
     <title>Rounded Rectangle.71</title>
     <userDefs>
      <ud nameU="CTypeTopLeftSnip" val="0"/>
      <ud nameU="CTypeTopRightSnip" val="0"/>
      <ud nameU="CTypeBotLeftSnip" val="0"/>
      <ud nameU="CTypeBotRightSnip" val="0"/>
      <ud nameU="CornerLockHoriz" val="1"/>
      <ud nameU="CornerLockVert" val="1"/>
      <ud nameU="CornerLockDiag" val="0"/>
      <ud nameU="TopLeftOffset" val="0.16932"/>
      <ud nameU="TopRightOffset" val="0.16932"/>
      <ud nameU="BotLeftOffset" val="0.16932"/>
      <ud nameU="BotRightOffset" val="0.16932"/>
      <ud nameU="visVersion" val="15"/>
     </userDefs>
     <path d="M12.191040039,0 L109.719360352,0 L109.719360352,0 L109.719360352,0 L109.719360352,0 L109.719360352,0 L109.719360352,0 C112.951332092,-0.000053644 116.054260254,1.285159588 118.339645386,3.570470095 L118.339645386,3.570470095 C120.625030518,5.855780602 121.910346985,8.95866394 121.91040802,12.190634727 L121.91040802,12.190634727 C121.91040802,12.190771103 121.91040802,12.190907478 121.91040802,12.191043854 L121.91040802,12.191043854 L121.910400391,12.191040039 L121.910400391,12.191040039 L121.910400391,92.777755737 L121.910400391,92.777755737 L121.91040802,92.777763367 L121.91040802,92.777763367 C121.910461426,96.009735107 120.625236511,99.112663269 118.339927673,101.398048401 L118.339927673,101.398048401 C116.054611206,103.683441162 112.951728821,104.96875 109.71975708,104.968803406 L109.71975708,104.968803406 C109.71962738,104.968803406 109.719497681,104.968803406 109.71937561,104.968803406 L109.71937561,104.968803406 L109.719360352,104.968803406 L109.719360352,104.968803406 L109.719360352,104.968803406 L109.719360352,104.968803406 L12.191040039,104.968803406 L12.191040039,104.968803406 L12.191040039,104.968803406 L12.191040039,104.968803406 L12.191038132,104.968803406 L12.191038132,104.968803406 C8.959064484,104.968856812 5.856137753,103.683631897 3.57075119,101.398323059 L3.57075119,101.398323059 C1.285364389,99.113006592 0.000049889,96.010124207 -0.000001073,92.778152466 L-0.000001073,92.778152466 C-0.000001073,92.778015137 -0.000000536,92.777885437 -0.000001073,92.777755737 L-0.000001073,92.777755737 L0,92.777755737 L0,92.777755737 L0,12.191040039 L0,12.191040039 L0,12.191040039 L0,12.191040039 C-0.000053108,8.959068298 1.285160542,5.856142998 3.570472479,3.570756197 L3.570472479,3.570756197 C5.855783463,1.285369873 8.958666801,0.000053108 12.190638542,0 L12.190638542,0 C12.19077301,0.000000536 12.190906525,0 12.191040039,0 L12.191040039,0 L12.191040039,0 L12.191040039,0 L12.191040039,0 Z" stroke="#000000" stroke-width="0.75" stroke-linecap="round" fill="#FFFFFF" fill-rule="evenodd"/>
     <g transform="matrix(1,0,0,1,0,0)">
      <text x="15.920042" y="-14.400001" class="TextStyle1" fill="#000000" opacity="1" transform="matrix(1,0,0,-1,0,56.084404)">Rigby (2024) "Self-</text>
      <text x="6.9024644" y="0" class="TextStyle1" fill="#000000" opacity="1" transform="matrix(1,0,0,-1,0,56.084404)">Determination Theory</text>
      <text x="24.269651" y="14.400002" class="TextStyle1" fill="#000000" opacity="1" transform="matrix(1,0,0,-1,0,56.084404)">for Multiplayer</text>
      <text x="41.765747" y="28.800001" class="TextStyle1" fill="#000000" opacity="1" transform="matrix(1,0,0,-1,0,56.084404)">Games"</text>
     </g>
    </g>
    <g transform="matrix(1,0,0,1,453.2508,1198.1589)" v:mID="22">
     <title>Dynamic connector.72</title>
     <path d="M3.239999533,-43.480800629 L9,-40.600799561 L3.239999533,-37.720798492 Z" stroke="#000000" stroke-width="0.2376378" fill="#000000" fill-rule="evenodd" transform="matrix(-0,-1,1,0,49.6008,-31.6008)"/>
     <path d="M9,0 L9,-40.600799561 " stroke="#000000" stroke-width="0.2376378" stroke-linecap="round" fill="none"/>
    </g>
    <g transform="matrix(1,0,0,1,401.2956,907.0126)" v:mID="23">
     <title>Rounded Rectangle.73</title>
     <userDefs>
      <ud nameU="CTypeTopLeftSnip" val="0"/>
      <ud nameU="CTypeTopRightSnip" val="0"/>
      <ud nameU="CTypeBotLeftSnip" val="0"/>
      <ud nameU="CTypeBotRightSnip" val="0"/>
      <ud nameU="CornerLockHoriz" val="1"/>
      <ud nameU="CornerLockVert" val="1"/>
      <ud nameU="CornerLockDiag" val="0"/>
      <ud nameU="TopLeftOffset" val="0.16932"/>
      <ud nameU="TopRightOffset" val="0.16932"/>
      <ud nameU="BotLeftOffset" val="0.16932"/>
      <ud nameU="BotRightOffset" val="0.16932"/>
      <ud nameU="visVersion" val="15"/>
     </userDefs>
     <path d="M12.191040039,0 L109.719360352,0 L109.719360352,0 L109.719360352,0 L109.719360352,0 L109.719360352,0 L109.719360352,0 C112.951332092,-0.000053644 116.054260254,1.285159588 118.339645386,3.570470095 L118.339645386,3.570470095 C120.625030518,5.855780602 121.910346985,8.95866394 121.91040802,12.190634727 L121.91040802,12.190634727 C121.91040802,12.190771103 121.91040802,12.190907478 121.91040802,12.191043854 L121.91040802,12.191043854 L121.910400391,12.191040039 L121.910400391,12.191040039 L121.910400391,92.777755737 L121.910400391,92.777755737 L121.91040802,92.777763367 L121.91040802,92.777763367 C121.910461426,96.009735107 120.625236511,99.112663269 118.339927673,101.398048401 L118.339927673,101.398048401 C116.054611206,103.683441162 112.951728821,104.96875 109.71975708,104.968803406 L109.71975708,104.968803406 C109.71962738,104.968803406 109.719497681,104.968803406 109.71937561,104.968803406 L109.71937561,104.968803406 L109.719360352,104.968803406 L109.719360352,104.968803406 L109.719360352,104.968803406 L109.719360352,104.968803406 L12.191040039,104.968803406 L12.191040039,104.968803406 L12.191040039,104.968803406 L12.191040039,104.968803406 L12.191038132,104.968803406 L12.191038132,104.968803406 C8.959064484,104.968856812 5.856137753,103.683631897 3.57075119,101.398323059 L3.57075119,101.398323059 C1.285364389,99.113006592 0.000049889,96.010124207 -0.000001073,92.778152466 L-0.000001073,92.778152466 C-0.000001073,92.778015137 -0.000000536,92.777885437 -0.000001073,92.777755737 L-0.000001073,92.777755737 L0,92.777755737 L0,92.777755737 L0,12.191040039 L0,12.191040039 L0,12.191040039 L0,12.191040039 C-0.000053108,8.959068298 1.285160542,5.856142998 3.570472479,3.570756197 L3.570472479,3.570756197 C5.855783463,1.285369873 8.958666801,0.000053108 12.190638542,0 L12.190638542,0 C12.19077301,0.000000536 12.190906525,0 12.191040039,0 L12.191040039,0 L12.191040039,0 L12.191040039,0 L12.191040039,0 Z" stroke="#000000" stroke-width="0.75" stroke-linecap="round" fill="#FFFFFF" fill-rule="evenodd"/>
     <g transform="matrix(1,0,0,1,0,0)">
      <text x="16.51184" y="-28.800001" class="TextStyle1" fill="#000000" opacity="1" transform="matrix(1,0,0,-1,0,56.084404)">Taipalharju (2020)</text>
      <text x="4.1397676" y="-14.400001" class="TextStyle1" fill="#000000" opacity="1" transform="matrix(1,0,0,-1,0,56.084404)">"Intrinsic Motivation to</text>
      <text x="19.986448" y="1.0728836E-06" class="TextStyle1" fill="#000000" opacity="1" transform="matrix(1,0,0,-1,0,56.084404)">Continue Playing</text>
      <text x="15.65637" y="14.400002" class="TextStyle1" fill="#000000" opacity="1" transform="matrix(1,0,0,-1,0,56.084404)">MMORPGs: A Self-</text>
      <text x="6.9024644" y="28.800001" class="TextStyle1" fill="#000000" opacity="1" transform="matrix(1,0,0,-1,0,56.084404)">Determination Theory</text>
      <text x="30.269651" y="43.2" class="TextStyle1" fill="#000000" opacity="1" transform="matrix(1,0,0,-1,0,56.084404)">Perspective"</text>
     </g>
    </g>
    <g transform="matrix(1,0,0,1,401.28842,761.443)" v:mID="24">
     <title>Rounded Rectangle.75</title>
     <userDefs>
      <ud nameU="CTypeTopLeftSnip" val="0"/>
      <ud nameU="CTypeTopRightSnip" val="0"/>
      <ud nameU="CTypeBotLeftSnip" val="0"/>
      <ud nameU="CTypeBotRightSnip" val="0"/>
      <ud nameU="CornerLockHoriz" val="1"/>
      <ud nameU="CornerLockVert" val="1"/>
      <ud nameU="CornerLockDiag" val="0"/>
      <ud nameU="TopLeftOffset" val="0.16932"/>
      <ud nameU="TopRightOffset" val="0.16932"/>
      <ud nameU="BotLeftOffset" val="0.16932"/>
      <ud nameU="BotRightOffset" val="0.16932"/>
      <ud nameU="visVersion" val="15"/>
     </userDefs>
     <path d="M12.191040039,0 L109.719360352,0 L109.719360352,0 L109.719360352,0 L109.719360352,0 L109.719360352,0 L109.719360352,0 C112.951332092,-0.000053644 116.054260254,1.285159588 118.339645386,3.570470095 L118.339645386,3.570470095 C120.625030518,5.855780602 121.910346985,8.95866394 121.91040802,12.190634727 L121.91040802,12.190634727 C121.91040802,12.190771103 121.91040802,12.190907478 121.91040802,12.191043854 L121.91040802,12.191043854 L121.910400391,12.191040039 L121.910400391,12.191040039 L121.910400391,92.777755737 L121.910400391,92.777755737 L121.91040802,92.777763367 L121.91040802,92.777763367 C121.910461426,96.009735107 120.625236511,99.112663269 118.339927673,101.398048401 L118.339927673,101.398048401 C116.054611206,103.683441162 112.951728821,104.96875 109.71975708,104.968803406 L109.71975708,104.968803406 C109.71962738,104.968803406 109.719497681,104.968803406 109.71937561,104.968803406 L109.71937561,104.968803406 L109.719360352,104.968803406 L109.719360352,104.968803406 L109.719360352,104.968803406 L109.719360352,104.968803406 L12.191040039,104.968803406 L12.191040039,104.968803406 L12.191040039,104.968803406 L12.191040039,104.968803406 L12.191038132,104.968803406 L12.191038132,104.968803406 C8.959064484,104.968856812 5.856137753,103.683631897 3.57075119,101.398323059 L3.57075119,101.398323059 C1.285364389,99.113006592 0.000049889,96.010124207 -0.000001073,92.778152466 L-0.000001073,92.778152466 C-0.000001073,92.778015137 -0.000000536,92.777885437 -0.000001073,92.777755737 L-0.000001073,92.777755737 L0,92.777755737 L0,92.777755737 L0,12.191040039 L0,12.191040039 L0,12.191040039 L0,12.191040039 C-0.000053108,8.959068298 1.285160542,5.856142998 3.570472479,3.570756197 L3.570472479,3.570756197 C5.855783463,1.285369873 8.958666801,0.000053108 12.190638542,0 L12.190638542,0 C12.19077301,0.000000536 12.190906525,0 12.191040039,0 L12.191040039,0 L12.191040039,0 L12.191040039,0 L12.191040039,0 Z" stroke="#000000" stroke-width="0.75" stroke-linecap="round" fill="#FFFFFF" fill-rule="evenodd"/>
     <g transform="matrix(1,0,0,1,0,0)">
      <text x="5.595825" y="-28.800001" class="TextStyle1" fill="#000000" opacity="1" transform="matrix(1,0,0,-1,0,56.084404)">Backe (2023) "A future</text>
      <text x="17.947384" y="-14.400001" class="TextStyle1" fill="#000000" opacity="1" transform="matrix(1,0,0,-1,0,56.084404)">already past? The</text>
      <text x="4.1104736" y="1.0728836E-06" class="TextStyle1" fill="#000000" opacity="1" transform="matrix(1,0,0,-1,0,56.084404)">promises and pitfalls of</text>
      <text x="27.963985" y="14.400002" class="TextStyle1" fill="#000000" opacity="1" transform="matrix(1,0,0,-1,0,56.084404)">cryptogames,</text>
      <text x="22.87219" y="28.800001" class="TextStyle1" fill="#000000" opacity="1" transform="matrix(1,0,0,-1,0,56.084404)">blockchain, and</text>
      <text x="19.567505" y="43.2" class="TextStyle1" fill="#000000" opacity="1" transform="matrix(1,0,0,-1,0,56.084404)">speculative play"</text>
     </g>
    </g>
    <g transform="matrix(1,0,0,1,453.2508,1052.5894)" v:mID="25">
     <title>Dynamic connector.76</title>
     <path d="M3.239999533,-43.488002777 L9,-40.608001709 L3.239999533,-37.728000641 Z" stroke="#000000" stroke-width="0.2376378" fill="#000000" fill-rule="evenodd" transform="matrix(-0,-1,1,0,49.608,-31.608002)"/>
     <path d="M9,0 L9,-40.608001709 " stroke="#000000" stroke-width="0.2376378" stroke-linecap="round" fill="none"/>
    </g>
    <g transform="matrix(1,0,0,1,471.24722,907.0126)" v:mID="26">
     <title>Dynamic connector.77</title>
     <path d="M-14.763599396,-43.480800629 L-9.003599167,-40.600799561 L-14.763599396,-37.720798492 Z" stroke="#000000" stroke-width="0.2376378" fill="#000000" fill-rule="evenodd" transform="matrix(-0,-1,1,0,31.5972,-49.6044)"/>
     <path d="M-8.996400833,0 L-8.996400833,-13.5 L-8.996400833,-13.5 L-9.003599167,-13.5 L-9.003599167,-13.5 L-9.003599167,-40.600799561 " stroke="#000000" stroke-width="0.2376378" stroke-linecap="round" fill="none"/>
    </g>
    <g transform="matrix(1,0,0,1,401.28842,615.87335)" v:mID="27">
     <title>Rounded Rectangle.78</title>
     <userDefs>
      <ud nameU="CTypeTopLeftSnip" val="0"/>
      <ud nameU="CTypeTopRightSnip" val="0"/>
      <ud nameU="CTypeBotLeftSnip" val="0"/>
      <ud nameU="CTypeBotRightSnip" val="0"/>
      <ud nameU="CornerLockHoriz" val="1"/>
      <ud nameU="CornerLockVert" val="1"/>
      <ud nameU="CornerLockDiag" val="0"/>
      <ud nameU="TopLeftOffset" val="0.16932"/>
      <ud nameU="TopRightOffset" val="0.16932"/>
      <ud nameU="BotLeftOffset" val="0.16932"/>
      <ud nameU="BotRightOffset" val="0.16932"/>
      <ud nameU="visVersion" val="15"/>
     </userDefs>
     <path d="M12.191040039,0 L109.719360352,0 L109.719360352,0 L109.719360352,0 L109.719360352,0 L109.719360352,0 L109.719360352,0 C112.951332092,-0.000053644 116.054260254,1.285159588 118.339645386,3.570470095 L118.339645386,3.570470095 C120.625030518,5.855780602 121.910346985,8.95866394 121.91040802,12.190634727 L121.91040802,12.190634727 C121.91040802,12.190771103 121.91040802,12.190907478 121.91040802,12.191043854 L121.91040802,12.191043854 L121.910400391,12.191040039 L121.910400391,12.191040039 L121.910400391,92.777755737 L121.910400391,92.777755737 L121.91040802,92.777763367 L121.91040802,92.777763367 C121.910461426,96.009735107 120.625236511,99.112663269 118.339927673,101.398048401 L118.339927673,101.398048401 C116.054611206,103.683441162 112.951728821,104.96875 109.71975708,104.968803406 L109.71975708,104.968803406 C109.71962738,104.968803406 109.719497681,104.968803406 109.71937561,104.968803406 L109.71937561,104.968803406 L109.719360352,104.968803406 L109.719360352,104.968803406 L109.719360352,104.968803406 L109.719360352,104.968803406 L12.191040039,104.968803406 L12.191040039,104.968803406 L12.191040039,104.968803406 L12.191040039,104.968803406 L12.191038132,104.968803406 L12.191038132,104.968803406 C8.959064484,104.968856812 5.856137753,103.683631897 3.57075119,101.398323059 L3.57075119,101.398323059 C1.285364389,99.113006592 0.000049889,96.010124207 -0.000001073,92.778152466 L-0.000001073,92.778152466 C-0.000001073,92.778015137 -0.000000536,92.777885437 -0.000001073,92.777755737 L-0.000001073,92.777755737 L0,92.777755737 L0,92.777755737 L0,12.191040039 L0,12.191040039 L0,12.191040039 L0,12.191040039 C-0.000053108,8.959068298 1.285160542,5.856142998 3.570472479,3.570756197 L3.570472479,3.570756197 C5.855783463,1.285369873 8.958666801,0.000053108 12.190638542,0 L12.190638542,0 C12.19077301,0.000000536 12.190906525,0 12.191040039,0 L12.191040039,0 L12.191040039,0 L12.191040039,0 L12.191040039,0 Z" stroke="#000000" stroke-width="0.75" stroke-linecap="round" fill="#FFFFFF" fill-rule="evenodd"/>
     <g transform="matrix(1,0,0,1,0,0)">
      <text x="26.308714" y="-28.800001" class="TextStyle1" fill="#000000" opacity="1" transform="matrix(1,0,0,-1,0,56.084404)">Kalyani (2021)</text>
      <text x="6.7794175" y="-14.400001" class="TextStyle1" fill="#000000" opacity="1" transform="matrix(1,0,0,-1,0,56.084404)">"Sociological concepts</text>
      <text x="22.051876" y="1.0728836E-06" class="TextStyle1" fill="#000000" opacity="1" transform="matrix(1,0,0,-1,0,56.084404)">in MMO games:</text>
      <text x="35.853634" y="14.400002" class="TextStyle1" fill="#000000" opacity="1" transform="matrix(1,0,0,-1,0,56.084404)">Goffman's</text>
      <text x="4.5147705" y="28.800001" class="TextStyle1" fill="#000000" opacity="1" transform="matrix(1,0,0,-1,0,56.084404)">'Presentation of Self' in</text>
      <text x="23.43762" y="43.2" class="TextStyle1" fill="#000000" opacity="1" transform="matrix(1,0,0,-1,0,56.084404)">Virtual Worlds"</text>
     </g>
    </g>
    <g transform="matrix(1,0,0,1,401.28842,317.96616)" v:mID="28">
     <title>Rounded Rectangle.79</title>
     <userDefs>
      <ud nameU="CTypeTopLeftSnip" val="0"/>
      <ud nameU="CTypeTopRightSnip" val="0"/>
      <ud nameU="CTypeBotLeftSnip" val="0"/>
      <ud nameU="CTypeBotRightSnip" val="0"/>
      <ud nameU="CornerLockHoriz" val="1"/>
      <ud nameU="CornerLockVert" val="1"/>
      <ud nameU="CornerLockDiag" val="0"/>
      <ud nameU="TopLeftOffset" val="0.16932"/>
      <ud nameU="TopRightOffset" val="0.16932"/>
      <ud nameU="BotLeftOffset" val="0.16932"/>
      <ud nameU="BotRightOffset" val="0.16932"/>
      <ud nameU="visVersion" val="15"/>
     </userDefs>
     <path d="M12.191040039,0 L109.719360352,0 L109.719360352,0 L109.719360352,0 L109.719360352,0 L109.719360352,0 L109.719360352,0 C112.951332092,-0.000053644 116.054260254,1.285159588 118.339645386,3.570470095 L118.339645386,3.570470095 C120.625030518,5.855780602 121.910346985,8.95866394 121.91040802,12.190634727 L121.91040802,12.190634727 C121.91040802,12.190771103 121.91040802,12.190907478 121.91040802,12.191043854 L121.91040802,12.191043854 L121.910400391,12.191040039 L121.910400391,12.191040039 L121.910400391,99.531356812 L121.910400391,99.531356812 L121.91040802,99.531349182 L121.91040802,99.531349182 C121.910461426,102.763320923 120.625244141,105.866249084 118.339935303,108.151634216 L118.339935303,108.151634216 C116.054634094,110.437026978 112.951751709,111.722351074 109.719779968,111.722412109 L109.719779968,111.722412109 C109.71963501,111.722412109 109.719497681,111.722412109 109.719352722,111.722412109 L109.719352722,111.722412109 L109.719360352,111.722396851 L109.719360352,111.722396851 L109.719360352,111.722396851 L109.719360352,111.722396851 L12.191040039,111.722396851 L12.191040039,111.722396851 L12.191040039,111.722396851 L12.191040039,111.722396851 L12.191033363,111.722412109 L12.191033363,111.722412109 C8.959062576,111.722457886 5.856137753,110.437240601 3.570752144,108.151931763 L3.570752144,108.151931763 C1.285366535,105.866615295 0.000052035,102.76373291 0,99.531761169 L0,99.531761169 C0,99.53162384 0,99.531494141 0,99.531356812 L0,99.531356812 L0,99.531356812 L0,99.531356812 L0,12.191040039 L0,12.191040039 L0,12.191040039 L0,12.191040039 C-0.000053108,8.959068298 1.285160542,5.856142998 3.570472479,3.570756197 L3.570472479,3.570756197 C5.855783463,1.285369873 8.958666801,0.000053108 12.190638542,0 L12.190638542,0 C12.19077301,0.000000536 12.190906525,0 12.191040039,0 L12.191040039,0 L12.191040039,0 L12.191040039,0 L12.191040039,0 Z" stroke="#000000" stroke-width="0.75" stroke-linecap="round" fill="#FFFFFF" fill-rule="evenodd"/>
     <g transform="matrix(1,0,0,1,0,0)">
      <text x="21.416138" y="-43.2" class="TextStyle1" fill="#000000" opacity="1" transform="matrix(1,0,0,-1,0,59.4612)">Seo et al. (2020)</text>
      <text x="7.41223" y="-28.800001" class="TextStyle1" fill="#000000" opacity="1" transform="matrix(1,0,0,-1,0,59.4612)">"Short- and long-term</text>
      <text x="12.934692" y="-14.4" class="TextStyle1" fill="#000000" opacity="1" transform="matrix(1,0,0,-1,0,59.4612)">effects of monetary</text>
      <text x="15.328244" y="1.0728836E-06" class="TextStyle1" fill="#000000" opacity="1" transform="matrix(1,0,0,-1,0,59.4612)">and non-monetary</text>
      <text x="29.79211" y="14.400002" class="TextStyle1" fill="#000000" opacity="1" transform="matrix(1,0,0,-1,0,59.4612)">incentives to</text>
      <text x="14.001096" y="28.800001" class="TextStyle1" fill="#000000" opacity="1" transform="matrix(1,0,0,-1,0,59.4612)">cooperate in public</text>
      <text x="21.884886" y="43.2" class="TextStyle1" fill="#000000" opacity="1" transform="matrix(1,0,0,-1,0,59.4612)">good games: An</text>
      <text x="30.419065" y="57.600006" class="TextStyle1" fill="#000000" opacity="1" transform="matrix(1,0,0,-1,0,59.4612)">experiment"</text>
     </g>
    </g>
    <g transform="matrix(1,0,0,1,401.2956,470.28934)" v:mID="29">
     <title>Rounded Rectangle.80</title>
     <userDefs>
      <ud nameU="CTypeTopLeftSnip" val="0"/>
      <ud nameU="CTypeTopRightSnip" val="0"/>
      <ud nameU="CTypeBotLeftSnip" val="0"/>
      <ud nameU="CTypeBotRightSnip" val="0"/>
      <ud nameU="CornerLockHoriz" val="1"/>
      <ud nameU="CornerLockVert" val="1"/>
      <ud nameU="CornerLockDiag" val="0"/>
      <ud nameU="TopLeftOffset" val="0.16932"/>
      <ud nameU="TopRightOffset" val="0.16932"/>
      <ud nameU="BotLeftOffset" val="0.16932"/>
      <ud nameU="BotRightOffset" val="0.16932"/>
      <ud nameU="visVersion" val="15"/>
     </userDefs>
     <path d="M12.191040039,0 L109.719360352,0 L109.719360352,0 L109.719360352,0 L109.719360352,0 L109.719360352,0 L109.719360352,0 C112.951332092,-0.000053644 116.054260254,1.285159588 118.339645386,3.570470095 L118.339645386,3.570470095 C120.625030518,5.855780602 121.910346985,8.95866394 121.91040802,12.190634727 L121.91040802,12.190634727 C121.91040802,12.190771103 121.91040802,12.190907478 121.91040802,12.191043854 L121.91040802,12.191043854 L121.910400391,12.191040039 L121.910400391,12.191040039 L121.910400391,92.777755737 L121.910400391,92.777755737 L121.91040802,92.777763367 L121.91040802,92.777763367 C121.910461426,96.009735107 120.625236511,99.112663269 118.339927673,101.398048401 L118.339927673,101.398048401 C116.054611206,103.683441162 112.951728821,104.96875 109.71975708,104.968803406 L109.71975708,104.968803406 C109.71962738,104.968803406 109.719497681,104.968803406 109.71937561,104.968803406 L109.71937561,104.968803406 L109.719360352,104.968803406 L109.719360352,104.968803406 L109.719360352,104.968803406 L109.719360352,104.968803406 L12.191040039,104.968803406 L12.191040039,104.968803406 L12.191040039,104.968803406 L12.191040039,104.968803406 L12.191038132,104.968803406 L12.191038132,104.968803406 C8.959064484,104.968856812 5.856137753,103.683631897 3.57075119,101.398323059 L3.57075119,101.398323059 C1.285364389,99.113006592 0.000049889,96.010124207 -0.000001073,92.778152466 L-0.000001073,92.778152466 C-0.000001073,92.778015137 -0.000000536,92.777885437 -0.000001073,92.777755737 L-0.000001073,92.777755737 L0,92.777755737 L0,92.777755737 L0,12.191040039 L0,12.191040039 L0,12.191040039 L0,12.191040039 C-0.000053108,8.959068298 1.285160542,5.856142998 3.570472479,3.570756197 L3.570472479,3.570756197 C5.855783463,1.285369873 8.958666801,0.000053108 12.190638542,0 L12.190638542,0 C12.19077301,0.000000536 12.190906525,0 12.191040039,0 L12.191040039,0 L12.191040039,0 L12.191040039,0 L12.191040039,0 Z" stroke="#000000" stroke-width="0.75" stroke-linecap="round" fill="#FFFFFF" fill-rule="evenodd"/>
     <g transform="matrix(1,0,0,1,0,0)">
      <text x="16.254026" y="-14.400001" class="TextStyle1" fill="#000000" opacity="1" transform="matrix(1,0,0,-1,0,56.084404)">Sashi (2021) "User</text>
      <text x="11.55481" y="0" class="TextStyle1" fill="#000000" opacity="1" transform="matrix(1,0,0,-1,0,56.084404)">Engagement, Online</text>
      <text x="8.979614" y="14.400002" class="TextStyle1" fill="#000000" opacity="1" transform="matrix(1,0,0,-1,0,56.084404)">Identity, and Content</text>
      <text x="29.496214" y="28.800001" class="TextStyle1" fill="#000000" opacity="1" transform="matrix(1,0,0,-1,0,56.084404)">Co-Creation"</text>
     </g>
    </g>
    <g transform="matrix(1,0,0,1,453.24362,761.443)" v:mID="30">
     <title>Dynamic connector.81</title>
     <path d="M3.239999533,-43.480800629 L9,-40.600799561 L3.239999533,-37.720798492 Z" stroke="#000000" stroke-width="0.2376378" fill="#000000" fill-rule="evenodd" transform="matrix(-0,-1,1,0,49.6008,-31.6008)"/>
     <path d="M9,0 L9,-40.600799561 " stroke="#000000" stroke-width="0.2376378" stroke-linecap="round" fill="none"/>
    </g>
    <g transform="matrix(1,0,0,1,453.24722,615.87335)" v:mID="31">
     <title>Dynamic connector.82</title>
     <path d="M3.243599176,-43.495204926 L9.003599167,-40.615203857 L3.243599176,-37.735198975 Z" stroke="#000000" stroke-width="0.2376378" fill="#000000" fill-rule="evenodd" transform="matrix(-0,-1,1,0,49.618805,-31.611605)"/>
     <path d="M8.996399879,0 L8.996399879,-13.5 L8.996399879,-13.5 L9.003599167,-13.5 L9.003599167,-13.5 L9.003599167,-40.615203857 " stroke="#000000" stroke-width="0.2376378" stroke-linecap="round" fill="none"/>
    </g>
    <g transform="matrix(1,0,0,1,471.24722,470.28937)" v:mID="32">
     <title>Dynamic connector.83</title>
     <path d="M-14.763599396,-43.480800629 L-9.003599167,-40.600799561 L-14.763599396,-37.720798492 Z" stroke="#000000" stroke-width="0.2376378" fill="#000000" fill-rule="evenodd" transform="matrix(-0,-1,1,0,31.5972,-49.6044)"/>
     <path d="M-8.996399879,0 L-8.996399879,-13.5 L-8.996399879,-13.5 L-9.003599167,-13.5 L-9.003599167,-13.5 L-9.003599167,-40.600799561 " stroke="#000000" stroke-width="0.2376378" stroke-linecap="round" fill="none"/>
    </g>
   </g>
  </g>
 </g>
 <style type="text/css"><![CDATA[ .TextStyle0 {font-family:Calibri;font-size:10px;}.TextStyle1 {font-family:Calibri;font-size:12px;} ]]></style>
</svg>