<?xml version="1.0" encoding="UTF-8" standalone="no"?>
<svg
   xml:space="preserve"
   viewBox="414.2 172.37 1200 219.99999"
   version="1.1"
   id="svg22"
   sodipodi:docname="rrl-overview.svg"
   width="1200"
   height="220"
   inkscape:version="1.4.2 (ebf0e940d0, 2025-05-08)"
   inkscape:export-filename="rrl-overview.pdf"
   inkscape:export-xdpi="96"
   inkscape:export-ydpi="96"
   xmlns:inkscape="http://www.inkscape.org/namespaces/inkscape"
   xmlns:sodipodi="http://sodipodi.sourceforge.net/DTD/sodipodi-0.dtd"
   xmlns="http://www.w3.org/2000/svg"
   xmlns:svg="http://www.w3.org/2000/svg"
   xmlns:v="http://schemas.microsoft.com/visio/2003/SVGExtensions/"><defs
   id="defs22" /><sodipodi:namedview
   id="namedview22"
   pagecolor="#ffffff"
   bordercolor="#000000"
   borderopacity="0.25"
   inkscape:showpageshadow="2"
   inkscape:pageopacity="0.0"
   inkscape:pagecheckerboard="0"
   inkscape:deskcolor="#d1d1d1"
   inkscape:zoom="0.45446994"
   inkscape:cx="221.13674"
   inkscape:cy="299.24971"
   inkscape:window-width="1007"
   inkscape:window-height="1028"
   inkscape:window-x="0"
   inkscape:window-y="0"
   inkscape:window-maximized="1"
   inkscape:current-layer="g5" />
 <v:documentProperties>
  <v:userDefs>
   <v:ud
   v:nameU="msvNoAutoConnect"
   v:val="1" />
   <v:ud
   v:nameU="msvWarnOnPersonalInfo"
   v:val="0" />
  </v:userDefs>
 </v:documentProperties>
 <g
   id="SFixTitle"
   transform="translate(7.99688,0.00633549)" />
 <g
   id="SContent"
   transform="translate(7.99688,0.00633549)">
  <g
   id="g22">
   <g
   transform="matrix(1,0,0,-1,0,612)"
   id="g21">
    <g
   transform="translate(887.7917,353.25674)"
   v:mID="1"
   id="g5">
     <title
   id="title1">Rounded Rectangle.1</title>
     <userDefs>
      <ud
   nameU="CTypeTopLeftSnip"
   val="0" />
      <ud
   nameU="CTypeTopRightSnip"
   val="0" />
      <ud
   nameU="CTypeBotLeftSnip"
   val="0" />
      <ud
   nameU="CTypeBotRightSnip"
   val="0" />
      <ud
   nameU="CornerLockHoriz"
   val="1" />
      <ud
   nameU="CornerLockVert"
   val="1" />
      <ud
   nameU="CornerLockDiag"
   val="0" />
      <ud
   nameU="TopLeftOffset"
   val="0.31668" />
      <ud
   nameU="TopRightOffset"
   val="0.31668" />
      <ud
   nameU="BotLeftOffset"
   val="0.31668" />
      <ud
   nameU="BotRightOffset"
   val="0.31668" />
      <ud
   nameU="visVersion"
   val="15" />
     </userDefs>
     <g
   v:mID="1"
   id="g2">
      <title
   id="title2">Rounded Rectangle.1</title>
      <userDefs>
       <ud
   nameU="CTypeTopLeftSnip"
   val="0" />
       <ud
   nameU="CTypeTopRightSnip"
   val="0" />
       <ud
   nameU="CTypeBotLeftSnip"
   val="0" />
       <ud
   nameU="CTypeBotRightSnip"
   val="0" />
       <ud
   nameU="CornerLockHoriz"
   val="1" />
       <ud
   nameU="CornerLockVert"
   val="1" />
       <ud
   nameU="CornerLockDiag"
   val="0" />
       <ud
   nameU="TopLeftOffset"
   val="0.31668" />
       <ud
   nameU="TopRightOffset"
   val="0.31668" />
       <ud
   nameU="BotLeftOffset"
   val="0.31668" />
       <ud
   nameU="BotRightOffset"
   val="0.31668" />
       <ud
   nameU="visVersion"
   val="15" />
      </userDefs>
      <path
   d="M 22.800961,0 H 205.20865 v 0 0 0 h 1e-5 v 0 c 6.04476,-9.4414e-5 11.84819,2.4036531 16.12256,6.6778855 v 0 c 4.27437,4.2742325 6.67827,10.0775735 6.67838,16.1223465 v 0 c 0,2.42e-4 0,4.84e-4 0,7.29e-4 v 0 0 0 26.398078 0 4e-6 0 c 1e-4,6.044773 -2.40364,11.848191 -6.67787,16.122559 v 0 C 217.0575,69.59597 211.25417,71.999908 205.20938,72 v 0 c -2.4e-4,0 -4.7e-4,0 -7.2e-4,0 v 0 h -1e-5 v 0 0 0 H 22.800961 v 0 0 0 h 10e-7 v 0 c -6.044773,1.07e-4 -11.84819,-2.403641 -16.1225591,-6.677872 v 0 C 2.4040327,61.047897 9.9778e-5,55.244556 0,49.199787 v 0 c 1.073e-6,-2.52e-4 0,-4.96e-4 1.073e-6,-7.44e-4 v 0 L 0,49.199039 v 0 -26.398078 0 0 0 C -9.7632e-5,16.756187 2.4036455,10.95277 6.6778765,6.678401 v 0 C 10.952106,2.4040318 16.755447,9.8705e-5 22.800219,1.073e-6 v 0 C 22.800468,1.073e-6 22.800714,0 22.800961,0 Z"
   stroke="#000000"
   stroke-width="0.75"
   stroke-linecap="round"
   fill="none"
   stroke-opacity="0"
   id="path2" />
     </g>
     <path
   d="m 11.66959,0.00997425 h 192.29338 v 0 0 0 h 10e-6 v 0 c 6.37236,-9.438e-5 12.49031,2.40298715 16.99633,6.67603535 v 0 c 4.50602,4.2730484 7.0402,10.0747814 7.04032,16.1178794 v 0 c 0,2.42e-4 0,4.84e-4 0,7.29e-4 v 0 0 0 26.390764 0 4e-6 0 c 1e-4,6.043098 -2.53391,11.844908 -7.03979,16.118092 v 0 c -4.50587,4.273184 -10.62371,6.676456 -16.9961,6.676548 v 0 c -2.6e-4,0 -5e-4,0 -7.6e-4,0 v 0 h -10e-6 v 0 0 0 H 11.66959 v 0 0 0 h 1e-6 v 0 C 5.2972181,71.990133 -0.82071831,69.587051 -5.3267392,65.314004 v 0 C -9.8327613,61.040957 -12.366977,55.239224 -12.367082,49.19613 v 0 c 10e-7,-2.52e-4 0,-4.96e-4 10e-7,-7.44e-4 v 0 l -10e-7,-4e-6 v 0 -26.390764 0 0 0 c -1.03e-4,-6.043099 2.5339125,-11.844908 7.0397878,-16.1180931 v 0 C -0.82142041,2.41334 5.2964359,0.01007293 11.668808,0.00997533 v 0 c 2.62e-4,0 5.22e-4,-1.08e-6 7.82e-4,-1.08e-6 z"
   stroke="#000000"
   stroke-width="0.769948"
   stroke-linecap="round"
   fill="#ffffff"
   fill-rule="evenodd"
   id="path3" />
     <g
   id="g4"
   transform="translate(-21.400524,-0.79963446)">
      <text
   x="13.155191"
   y="0"
   class="TextStyle0"
   fill="#000000"
   opacity="1"
   transform="matrix(1,0,0,-1,0,39)"
   id="text3">Design and Evaluation of a Filipino Folklore-Based</text>
      <text
   x="70.76017"
   y="12"
   class="TextStyle0"
   fill="#000000"
   opacity="1"
   transform="matrix(1,0,0,-1,0,39)"
   id="text4">Blockchain MMORPG</text>
     </g>
    </g>
    <g
   transform="translate(422.57812,234.28394)"
   v:mID="2"
   id="g7">
     <title
   id="title5">Rounded Rectangle.3</title>
     <userDefs>
      <ud
   nameU="CTypeTopLeftSnip"
   val="0" />
      <ud
   nameU="CTypeTopRightSnip"
   val="0" />
      <ud
   nameU="CTypeBotLeftSnip"
   val="0" />
      <ud
   nameU="CTypeBotRightSnip"
   val="0" />
      <ud
   nameU="CornerLockHoriz"
   val="1" />
      <ud
   nameU="CornerLockVert"
   val="1" />
      <ud
   nameU="CornerLockDiag"
   val="0" />
      <ud
   nameU="TopLeftOffset"
   val="0.35335" />
      <ud
   nameU="TopRightOffset"
   val="0.35335" />
      <ud
   nameU="BotLeftOffset"
   val="0.35335" />
      <ud
   nameU="BotRightOffset"
   val="0.35335" />
      <ud
   nameU="visVersion"
   val="15" />
     </userDefs>
     <path
   d="m 25.4412,0 h 203.52959 v 0 0 0 1.073e-6 0 c 6.74474,-1.08361e-4 13.22016,2.681979527 17.98948,7.451145527 v 0 c 4.76931,4.7691664 7.45161,11.2445014 7.45172,17.9892294 v 0 c 0,2.86e-4 0,5.69e-4 0,8.53e-4 v 0 l 1e-5,-2.9e-5 v 0 21.1176 0 l -1e-5,-1.2e-5 v 0 c 1e-4,6.744725 -2.68196,13.22015 -7.45113,17.989476 v 0 C 242.1917,69.317581 235.71637,71.999886 228.97165,72 v 0 c -2.8e-4,0 -5.8e-4,0 -8.6e-4,0 v 0 0 0 0 0 H 25.4412 v 0 0 0 h -2e-6 v 0 C 18.696472,72.000114 12.221047,69.318024 7.4517274,64.548859 v 0 C 2.6824074,59.779697 1.10507e-4,53.304359 1.073e-6,46.559635 v 0 c 0,-2.78e-4 0,-5.61e-4 1.073e-6,-8.39e-4 v 0 L 0,46.5588 v 0 -21.1176 0 0 0 C -1.08361e-4,18.696472 2.6819763,12.221047 7.4511423,7.4517269 v 0 C 12.220307,2.6824074 18.695644,1.10507e-4 25.440374,1.073e-6 v 0 C 25.440649,0 25.440924,1.073e-6 25.4412,0 Z"
   stroke="#000000"
   stroke-width="0.75"
   stroke-linecap="round"
   fill="#ffffff"
   fill-rule="evenodd"
   id="path5" />
     <g
   id="g6">
      <text
   x="6.3036518"
   y="-39"
   class="TextStyle0"
   fill="#000000"
   opacity="1"
   transform="scale(1,-1)"
   id="text5">MMORPG Design: Engagement, Social Systems, and</text>
      <text
   x="83.901306"
   y="-27"
   class="TextStyle0"
   fill="#000000"
   opacity="1"
   transform="scale(1,-1)"
   id="text6">Monetization</text>
     </g>
    </g>
    <g
   transform="translate(1001.7965,353.25674)"
   v:mID="3"
   id="g8">
     <title
   id="title7">Dynamic connector.5</title>
     <path
   d="m -457.77237,-49.852802 5.75998,2.880001 -5.75998,2.880001 z"
   stroke="#000000"
   stroke-width="0.237638"
   fill="#000000"
   fill-rule="evenodd"
   transform="rotate(-90,-452.01239,-46.97281)"
   id="path7" />
     <path
   d="m 0,0 v -13.5 0 h -452.01239 v 0 -33.472801"
   stroke="#000000"
   stroke-width="0.237638"
   stroke-linecap="round"
   fill="none"
   id="path8" />
    </g>
    <g
   transform="translate(726.5082,234.27853)"
   v:mID="4"
   id="g11">
     <title
   id="title8">Rounded Rectangle.27</title>
     <userDefs>
      <ud
   nameU="CTypeTopLeftSnip"
   val="0" />
      <ud
   nameU="CTypeTopRightSnip"
   val="0" />
      <ud
   nameU="CTypeBotLeftSnip"
   val="0" />
      <ud
   nameU="CTypeBotRightSnip"
   val="0" />
      <ud
   nameU="CornerLockHoriz"
   val="1" />
      <ud
   nameU="CornerLockVert"
   val="1" />
      <ud
   nameU="CornerLockDiag"
   val="0" />
      <ud
   nameU="TopLeftOffset"
   val="0.35335" />
      <ud
   nameU="TopRightOffset"
   val="0.35335" />
      <ud
   nameU="BotLeftOffset"
   val="0.35335" />
      <ud
   nameU="BotRightOffset"
   val="0.35335" />
      <ud
   nameU="visVersion"
   val="15" />
     </userDefs>
     <path
   d="m 25.4412,0 h 203.52959 v 0 0 0 1.073e-6 0 c 6.74474,-1.08361e-4 13.22016,2.681979527 17.98948,7.451145527 v 0 c 4.76931,4.7691664 7.45161,11.2445014 7.45172,17.9892294 v 0 c 0,2.86e-4 0,5.69e-4 0,8.53e-4 v 0 l 1e-5,-2.9e-5 v 0 21.1176 0 l -1e-5,-1.2e-5 v 0 c 1e-4,6.744725 -2.68196,13.22015 -7.45113,17.989476 v 0 C 242.1917,69.317581 235.71637,71.999886 228.97165,72 v 0 c -2.8e-4,0 -5.8e-4,0 -8.6e-4,0 v 0 0 0 0 0 H 25.4412 v 0 0 0 h -2e-6 v 0 C 18.696472,72.000114 12.221047,69.318024 7.4517274,64.548859 v 0 C 2.6824074,59.779697 1.10507e-4,53.304359 1.073e-6,46.559635 v 0 c 0,-2.78e-4 0,-5.61e-4 1.073e-6,-8.39e-4 v 0 L 0,46.5588 v 0 -21.1176 0 0 0 C -1.08361e-4,18.696472 2.6819763,12.221047 7.4511423,7.4517269 v 0 C 12.220307,2.6824074 18.695644,1.10507e-4 25.440374,1.073e-6 v 0 C 25.440649,0 25.440924,1.073e-6 25.4412,0 Z"
   stroke="#000000"
   stroke-width="0.75"
   stroke-linecap="round"
   fill="#ffffff"
   fill-rule="evenodd"
   id="path9" />
     <g
   id="g10"
   transform="translate(-16)">
      <text
   x="22.303652"
   y="0"
   class="TextStyle0"
   fill="#000000"
   opacity="1"
   transform="matrix(1,0,0,-1,0,39)"
   id="text9">MMORPG Design: Engagement, Social Systems, and</text>
      <text
   x="99.901306"
   y="12"
   class="TextStyle0"
   fill="#000000"
   opacity="1"
   transform="matrix(1,0,0,-1,0,39)"
   id="text10">Monetization</text>
     </g>
    </g>
    <g
   transform="translate(1030.4273,234.27853)"
   v:mID="5"
   id="g13">
     <title
   id="title11">Rounded Rectangle.32</title>
     <userDefs>
      <ud
   nameU="CTypeTopLeftSnip"
   val="0" />
      <ud
   nameU="CTypeTopRightSnip"
   val="0" />
      <ud
   nameU="CTypeBotLeftSnip"
   val="0" />
      <ud
   nameU="CTypeBotRightSnip"
   val="0" />
      <ud
   nameU="CornerLockHoriz"
   val="1" />
      <ud
   nameU="CornerLockVert"
   val="1" />
      <ud
   nameU="CornerLockDiag"
   val="0" />
      <ud
   nameU="TopLeftOffset"
   val="0.35335" />
      <ud
   nameU="TopRightOffset"
   val="0.35335" />
      <ud
   nameU="BotLeftOffset"
   val="0.35335" />
      <ud
   nameU="BotRightOffset"
   val="0.35335" />
      <ud
   nameU="visVersion"
   val="15" />
     </userDefs>
     <path
   d="m 25.4412,0 h 203.52959 v 0 0 0 1.073e-6 0 c 6.74474,-1.08361e-4 13.22016,2.681979527 17.98948,7.451145527 v 0 c 4.76931,4.7691664 7.45161,11.2445014 7.45172,17.9892294 v 0 c 0,2.86e-4 0,5.69e-4 0,8.53e-4 v 0 l 1e-5,-2.9e-5 v 0 21.1176 0 l -1e-5,-1.2e-5 v 0 c 1e-4,6.744725 -2.68196,13.22015 -7.45113,17.989476 v 0 C 242.1917,69.317581 235.71637,71.999886 228.97165,72 v 0 c -2.8e-4,0 -5.8e-4,0 -8.6e-4,0 v 0 0 0 0 0 H 25.4412 v 0 0 0 h -2e-6 v 0 C 18.696472,72.000114 12.221047,69.318024 7.4517274,64.548859 v 0 C 2.6824074,59.779697 1.10507e-4,53.304359 1.073e-6,46.559635 v 0 c 0,-2.78e-4 0,-5.61e-4 1.073e-6,-8.39e-4 v 0 L 0,46.5588 v 0 -21.1176 0 0 0 C -1.08361e-4,18.696472 2.6819763,12.221047 7.4511423,7.4517269 v 0 C 12.220307,2.6824074 18.695644,1.10507e-4 25.440374,1.073e-6 v 0 C 25.440649,0 25.440924,1.073e-6 25.4412,0 Z"
   stroke="#000000"
   stroke-width="0.75"
   stroke-linecap="round"
   fill="#ffffff"
   fill-rule="evenodd"
   id="path11" />
     <g
   id="g12">
      <text
   x="6.3036518"
   y="-39"
   class="TextStyle0"
   fill="#000000"
   opacity="1"
   transform="scale(1,-1)"
   id="text11">MMORPG Design: Engagement, Social Systems, and</text>
      <text
   x="83.901306"
   y="-27"
   class="TextStyle0"
   fill="#000000"
   opacity="1"
   transform="scale(1,-1)"
   id="text12">Monetization</text>
     </g>
    </g>
    <g
   transform="translate(1334.3392,234.27133)"
   v:mID="6"
   id="g15">
     <title
   id="title13">Rounded Rectangle.37</title>
     <userDefs>
      <ud
   nameU="CTypeTopLeftSnip"
   val="0" />
      <ud
   nameU="CTypeTopRightSnip"
   val="0" />
      <ud
   nameU="CTypeBotLeftSnip"
   val="0" />
      <ud
   nameU="CTypeBotRightSnip"
   val="0" />
      <ud
   nameU="CornerLockHoriz"
   val="1" />
      <ud
   nameU="CornerLockVert"
   val="1" />
      <ud
   nameU="CornerLockDiag"
   val="0" />
      <ud
   nameU="TopLeftOffset"
   val="0.35335" />
      <ud
   nameU="TopRightOffset"
   val="0.35335" />
      <ud
   nameU="BotLeftOffset"
   val="0.35335" />
      <ud
   nameU="BotRightOffset"
   val="0.35335" />
      <ud
   nameU="visVersion"
   val="15" />
     </userDefs>
     <path
   d="m 25.4412,0 h 203.52959 v 0 0 0 1.073e-6 0 c 6.74474,-1.08361e-4 13.22016,2.681979527 17.98948,7.451145527 v 0 c 4.76931,4.7691664 7.45161,11.2445014 7.45172,17.9892294 v 0 c 0,2.86e-4 0,5.69e-4 0,8.53e-4 v 0 l 1e-5,-2.9e-5 v 0 21.1176 0 l -1e-5,-1.2e-5 v 0 c 1e-4,6.744725 -2.68196,13.22015 -7.45113,17.989476 v 0 C 242.1917,69.317581 235.71637,71.999886 228.97165,72 v 0 c -2.8e-4,0 -5.8e-4,0 -8.6e-4,0 v 0 0 0 0 0 H 25.4412 v 0 0 0 h -2e-6 v 0 C 18.696472,72.000114 12.221047,69.318024 7.4517274,64.548859 v 0 C 2.6824074,59.779697 1.10507e-4,53.304359 1.073e-6,46.559635 v 0 c 0,-2.78e-4 0,-5.61e-4 1.073e-6,-8.39e-4 v 0 L 0,46.5588 v 0 -21.1176 0 0 0 C -1.08361e-4,18.696472 2.6819763,12.221047 7.4511423,7.4517269 v 0 C 12.220307,2.6824074 18.695644,1.10507e-4 25.440374,1.073e-6 v 0 C 25.440649,0 25.440924,1.073e-6 25.4412,0 Z"
   stroke="#000000"
   stroke-width="0.75"
   stroke-linecap="round"
   fill="#ffffff"
   fill-rule="evenodd"
   id="path13" />
     <g
   id="g14">
      <text
   x="19.115713"
   y="-37.493195"
   class="TextStyle0"
   fill="#000000"
   opacity="1"
   transform="scale(0.96136402,-1.0401887)"
   id="text13"
   style="stroke-width:0.961364">MMORPG Design: Engagement, Social Systems, and</text>
      <text
   x="99.901306"
   y="12"
   class="TextStyle0"
   fill="#000000"
   opacity="1"
   transform="matrix(1,0,0,-1,0,39)"
   id="text14">Monetization</text>
     </g>
    </g>
    <g
   transform="translate(1001.7966,353.25674)"
   v:mID="7"
   id="g16">
     <title
   id="title15">Dynamic connector.42</title>
     <path
   d="m -153.84239,-49.8582 5.75999,2.880001 -5.75999,2.880001 z"
   stroke="#000000"
   stroke-width="0.237638"
   fill="#000000"
   fill-rule="evenodd"
   transform="rotate(-90,-148.0824,-46.9782)"
   id="path15" />
     <path
   d="m 0,0 v -13.5 0 h -148.0824 v 0 -33.478199"
   stroke="#000000"
   stroke-width="0.237638"
   stroke-linecap="round"
   fill="none"
   id="path16" />
    </g>
    <g
   transform="translate(1001.7966,353.25674)"
   v:mID="8"
   id="g18">
     <title
   id="title16">Dynamic connector.44</title>
     <path
   d="m 150.07681,-49.8582 5.76,2.880001 -5.76,2.880001 z"
   stroke="#000000"
   stroke-width="0.237638"
   fill="#000000"
   fill-rule="evenodd"
   transform="rotate(-90,155.8368,-46.978195)"
   id="path17" />
     <path
   d="m 0,0 v -13.5 0 h 155.83681 v 0 -33.478199"
   stroke="#000000"
   stroke-width="0.237638"
   stroke-linecap="round"
   fill="none"
   id="path18" />
    </g>
    <g
   transform="translate(1001.7965,353.25674)"
   v:mID="9"
   id="g20">
     <title
   id="title18">Dynamic connector.46</title>
     <path
   d="m 453.9888,-49.865402 5.75998,2.880001 -5.75998,2.880001 z"
   stroke="#000000"
   stroke-width="0.237638"
   fill="#000000"
   fill-rule="evenodd"
   transform="rotate(-90,459.74878,-46.985415)"
   id="path19" />
     <path
   d="m 0,0 v -13.5 0 h 459.74878 v 0 -33.485401"
   stroke="#000000"
   stroke-width="0.237638"
   stroke-linecap="round"
   fill="none"
   id="path20" />
    </g>
   </g>
  </g>
 </g>
 <style
   type="text/css"
   id="style22"><![CDATA[ .TextStyle0 {font-family:Calibri;font-size:10px;} ]]></style>
</svg>
